%TF.GenerationSoftware,Altium Limited,Altium Designer,26.2.0 (7)*%
G04 Layer_Color=16711935*
%FSLAX45Y45*%
%MOMM*%
%TF.SameCoordinates,DD637A2D-7E0C-40B3-9281-A5126D6BEA63*%
%TF.FilePolarity,Positive*%
%TF.FileFunction,Other,Bottom_Courtyard*%
%TF.Part,Single*%
G01*
G75*
%TA.AperFunction,NonConductor*%
%ADD40C,0.20000*%
%ADD42C,0.10000*%
%ADD67C,0.05000*%
D40*
X-4172911Y2568722D02*
X-4027089D01*
Y2272900D02*
Y2568722D01*
X-4172911Y2272900D02*
X-4027089D01*
X-4172911D02*
Y2568722D01*
X-772911D02*
X-627089D01*
Y2272900D02*
Y2568722D01*
X-772911Y2272900D02*
X-627089D01*
X-772911D02*
Y2568722D01*
X2627089D02*
X2772911D01*
Y2272900D02*
Y2568722D01*
X2627089Y2272900D02*
X2772911D01*
X2627089D02*
Y2568722D01*
D42*
X-4100000Y2052500D02*
Y2147500D01*
X-4147500Y2100000D02*
X-4052500D01*
X-4207508Y2950008D02*
X-4112508D01*
X-4160008Y2902508D02*
Y2997508D01*
X-4207508Y2800008D02*
X-4112508D01*
X-4160008Y2752508D02*
Y2847508D01*
X-4260008Y3152492D02*
Y3247492D01*
X-4307508Y3199992D02*
X-4212508D01*
X-4647500Y3290000D02*
X-4552500D01*
X-4600000Y3242500D02*
Y3337500D01*
X-700000Y2052500D02*
Y2147500D01*
X-747500Y2100000D02*
X-652500D01*
X-807509Y2950008D02*
X-712509D01*
X-760009Y2902508D02*
Y2997508D01*
X-807509Y2800008D02*
X-712509D01*
X-760009Y2752508D02*
Y2847508D01*
X-860008Y3152492D02*
Y3247492D01*
X-907508Y3199992D02*
X-812508D01*
X-1247500Y3290000D02*
X-1152500D01*
X-1200000Y3242500D02*
Y3337500D01*
X2592492Y2800008D02*
X2687492D01*
X2639992Y2752508D02*
Y2847508D01*
X-1047500Y3200000D02*
X-952500D01*
X-1000000Y3152500D02*
Y3247500D01*
X-4447500Y3200000D02*
X-4352500D01*
X-4400000Y3152500D02*
Y3247500D01*
X2592492Y2950008D02*
X2687492D01*
X2639992Y2902508D02*
Y2997508D01*
X2539992Y3152492D02*
Y3247492D01*
X2492492Y3199992D02*
X2587492D01*
X2152500Y3290000D02*
X2247500D01*
X2200000Y3242500D02*
Y3337500D01*
X2352500Y3200000D02*
X2447500D01*
X2400000Y3152500D02*
Y3247500D01*
X2700000Y2052500D02*
Y2147500D01*
X2652500Y2100000D02*
X2747500D01*
D67*
X2615000Y3050000D02*
Y3350000D01*
Y3050000D02*
X2765000D01*
Y3350000D01*
X2615000D02*
X2765000D01*
X-785000Y3050000D02*
Y3350000D01*
Y3050000D02*
X-635000D01*
Y3350000D01*
X-785000D02*
X-635000D01*
X-4185000Y3050000D02*
Y3350000D01*
Y3050000D02*
X-4035000D01*
Y3350000D01*
X-4185000D02*
X-4035000D01*
X-4175000Y1965000D02*
X-4025000D01*
X-4175000Y2235000D02*
X-4025000D01*
Y1965000D02*
Y2235000D01*
X-4175000Y1965000D02*
Y2235000D01*
X-775000Y1965000D02*
X-625000D01*
X-775000Y2235000D02*
X-625000D01*
Y1965000D02*
Y2235000D01*
X-775000Y1965000D02*
Y2235000D01*
X2625000Y1965000D02*
X2775000D01*
X2625000Y2235000D02*
X2775000D01*
Y1965000D02*
Y2235000D01*
X2625000Y1965000D02*
Y2235000D01*
%TF.MD5,05ce723e0711d35b2e3840c7eacfab21*%
M02*
