%TF.GenerationSoftware,Altium Limited,Altium Designer,26.2.0 (7)*%
G04 Layer_Color=8421504*
%FSLAX45Y45*%
%MOMM*%
%TF.SameCoordinates,DD637A2D-7E0C-40B3-9281-A5126D6BEA63*%
%TF.FilePolarity,Positive*%
%TF.FileFunction,Paste,Top*%
%TF.Part,Single*%
G01*
G75*
%TA.AperFunction,SMDPad,CuDef*%
%ADD11R,1.15000X0.70000*%
%ADD12R,1.00000X0.75000*%
%TA.AperFunction,ComponentPad*%
%ADD20C,6.00000*%
%TA.AperFunction,SMDPad,CuDef*%
%ADD56R,8.90080X2.50080*%
D11*
X4900000Y3645000D02*
D03*
Y3105000D02*
D03*
Y3295000D02*
D03*
Y3455000D02*
D03*
Y2705000D02*
D03*
Y2895000D02*
D03*
D12*
X4912939Y2264658D02*
D03*
Y2414658D02*
D03*
D20*
X-5700000Y4000000D02*
D03*
X5700000D02*
D03*
X-1400000Y6600000D02*
D03*
X1400000D02*
D03*
X2100000Y2700000D02*
D03*
X-1300000D02*
D03*
X-4700000D02*
D03*
D56*
X4050000Y3247500D02*
D03*
Y2552500D02*
D03*
X650000Y3247500D02*
D03*
Y2552500D02*
D03*
Y5097500D02*
D03*
Y4402500D02*
D03*
X-2750000Y3247500D02*
D03*
Y2552500D02*
D03*
Y5097500D02*
D03*
Y4402500D02*
D03*
X4050000Y5097500D02*
D03*
Y4402500D02*
D03*
X-3860400Y5097500D02*
D03*
Y4402500D02*
D03*
X-1639599Y5097500D02*
D03*
Y4402500D02*
D03*
X-529199Y5097500D02*
D03*
Y4402500D02*
D03*
X1789600Y5097500D02*
D03*
Y4402500D02*
D03*
X2900000Y5097500D02*
D03*
Y4402500D02*
D03*
%TF.MD5,4260a1c997710e58492db0d16d70ee9e*%
M02*
