%TF.GenerationSoftware,Altium Limited,Altium Designer,26.2.0 (7)*%
G04 Layer_Color=16711935*
%FSLAX45Y45*%
%MOMM*%
%TF.SameCoordinates,DD637A2D-7E0C-40B3-9281-A5126D6BEA63*%
%TF.FilePolarity,Negative*%
%TF.FileFunction,Soldermask,Bot*%
%TF.Part,Single*%
G01*
G75*
%TA.AperFunction,ComponentPad*%
%ADD15C,1.06000*%
%ADD16R,1.06000X1.06000*%
%ADD17C,1.06680*%
%ADD18C,1.80000*%
%ADD19C,5.00000*%
%ADD20C,6.00000*%
%ADD21C,2.21300*%
%ADD22R,2.21300X2.21300*%
%TA.AperFunction,SMDPad,CuDef*%
%ADD31R,4.41000X2.00000*%
%ADD32R,0.60000X2.00000*%
%ADD33R,1.00000X0.90000*%
%ADD34R,0.95000X0.85000*%
%ADD35R,0.60000X0.90000*%
%ADD36R,0.90000X0.60000*%
%ADD37R,0.85000X0.65000*%
%ADD38R,0.95822X1.10606*%
%TA.AperFunction,ViaPad*%
%ADD52C,0.83820*%
%TA.AperFunction,NonConductor*%
%ADD53C,0.75000*%
%TA.AperFunction,SMDPad,CuDef*%
%ADD54R,2.47000X1.52000*%
%ADD55R,0.92000X3.02000*%
G36*
X-2500000Y6000000D02*
X-2500001Y6000000D01*
X-2500001Y5980337D01*
X-2505134Y5941347D01*
X-2515312Y5903361D01*
X-2530361Y5867029D01*
X-2550025Y5832971D01*
X-2573965Y5801772D01*
X-2601772Y5773964D01*
X-2632972Y5750024D01*
X-2667029Y5730361D01*
X-2703362Y5715311D01*
X-2741348Y5705133D01*
X-2780337Y5700000D01*
X-3100000D01*
X-3500000Y5699999D01*
X-3500001Y5699999D01*
X-3509802Y5699517D01*
X-3529029Y5695693D01*
X-3547140Y5688191D01*
X-3563440Y5677300D01*
X-3577301Y5663439D01*
X-3588192Y5647139D01*
X-3595694Y5629028D01*
X-3599519Y5609801D01*
X-3600000Y5599999D01*
Y5300000D01*
X-3600001Y5300000D01*
X-3600000Y5290151D01*
X-3603843Y5270831D01*
X-3611382Y5252632D01*
X-3622325Y5236254D01*
X-3636254Y5222325D01*
X-3652633Y5211381D01*
X-3670832Y5203843D01*
X-3690151Y5200000D01*
X-3700000Y5200000D01*
X-4246000Y5199999D01*
X-4246001Y5199999D01*
X-4270897Y5198776D01*
X-4319733Y5189062D01*
X-4365735Y5170007D01*
X-4407136Y5142344D01*
X-4442345Y5107135D01*
X-4470008Y5065734D01*
X-4489063Y5019732D01*
X-4498777Y4970896D01*
X-4500000Y4946000D01*
Y4200000D01*
X-5000000D01*
Y5481160D01*
X-5000000Y5500000D01*
X-4999999Y5500000D01*
X-5000000Y5500001D01*
X-5000000Y5519698D01*
X-4992315Y5558338D01*
X-4977238Y5594736D01*
X-4955351Y5627493D01*
X-4927493Y5655350D01*
X-4894736Y5677238D01*
X-4858338Y5692314D01*
X-4819699Y5700000D01*
X-4800000Y5700000D01*
X-4318806Y5700000D01*
X-4300001Y5700000D01*
X-4300000Y5700000D01*
X-4300000Y5700000D01*
X-4278475Y5701057D01*
X-4236252Y5709455D01*
X-4196479Y5725930D01*
X-4160684Y5749847D01*
X-4130243Y5780288D01*
X-4106326Y5816083D01*
X-4089852Y5855856D01*
X-4081453Y5898079D01*
X-4080396Y5919604D01*
X-4080396Y6019606D01*
X-4080395Y6019606D01*
X-4079986Y6039437D01*
X-4073464Y6072226D01*
X-4059866Y6105056D01*
X-4040124Y6134602D01*
X-4014997Y6159728D01*
X-3985451Y6179470D01*
X-3952621Y6193068D01*
X-3917769Y6200000D01*
X-3900002Y6199999D01*
X-3718807Y6199999D01*
X-3700002Y6199999D01*
X-3700002Y6199998D01*
X-3700001Y6199998D01*
X-3700000Y6199999D01*
X-3680398Y6200961D01*
X-3641944Y6208609D01*
X-3605721Y6223613D01*
X-3573121Y6245395D01*
X-3545398Y6273119D01*
X-3523615Y6305718D01*
X-3508611Y6341941D01*
X-3500963Y6380395D01*
X-3500001Y6399998D01*
X-3500000Y6968924D01*
X-2500000D01*
Y6000000D01*
D02*
G37*
G36*
X500000Y5900000D02*
X499993Y5899993D01*
X499993Y5880296D01*
X492307Y5841657D01*
X477231Y5805261D01*
X455345Y5772505D01*
X427488Y5744648D01*
X394732Y5722761D01*
X358336Y5707686D01*
X319698Y5700000D01*
X-100000D01*
X-100000Y5699999D01*
X-109802Y5699518D01*
X-129029Y5695693D01*
X-147140Y5688192D01*
X-163440Y5677301D01*
X-177301Y5663439D01*
X-188192Y5647139D01*
X-195694Y5629028D01*
X-199519Y5609802D01*
X-200000Y5600000D01*
Y5290151D01*
X-203843Y5270831D01*
X-211381Y5252632D01*
X-222325Y5236254D01*
X-236254Y5222325D01*
X-252632Y5211381D01*
X-270831Y5203843D01*
X-290151Y5200000D01*
X-846000D01*
X-846000Y5199999D01*
X-870897Y5198776D01*
X-919732Y5189062D01*
X-965735Y5170008D01*
X-1007136Y5142344D01*
X-1042345Y5107136D01*
X-1070008Y5065735D01*
X-1089063Y5019732D01*
X-1098777Y4970896D01*
X-1100000Y4946000D01*
Y4200000D01*
X-1800000D01*
X-1800000Y5399999D01*
X-1800000Y5399999D01*
X-1800000Y5399999D01*
X-1800000Y5432771D01*
X-1791445Y5497754D01*
X-1774481Y5561064D01*
X-1749399Y5621619D01*
X-1716627Y5678381D01*
X-1676726Y5730381D01*
X-1630380Y5776727D01*
X-1578381Y5816628D01*
X-1521618Y5849400D01*
X-1461064Y5874482D01*
X-1397753Y5891446D01*
X-1332771Y5900001D01*
X-1299999Y5900001D01*
X-699999Y5900002D01*
X-699998Y5900001D01*
X-699998Y5900002D01*
X-680395Y5900965D01*
X-641942Y5908614D01*
X-605720Y5923617D01*
X-573121Y5945399D01*
X-545398Y5973122D01*
X-523616Y6005721D01*
X-508612Y6041943D01*
X-500963Y6080397D01*
X-500001Y6100000D01*
X-500000Y6968924D01*
X500000D01*
Y5900000D01*
D02*
G37*
G36*
X3500000Y5800000D02*
Y5790151D01*
X3496157Y5770831D01*
X3488619Y5752632D01*
X3477675Y5736254D01*
X3463746Y5722325D01*
X3447368Y5711381D01*
X3429169Y5703843D01*
X3409849Y5700000D01*
X3300000D01*
X3300000Y5699999D01*
X3290198Y5699518D01*
X3270971Y5695693D01*
X3252860Y5688192D01*
X3236560Y5677301D01*
X3222699Y5663439D01*
X3211808Y5647139D01*
X3204306Y5629028D01*
X3200481Y5609802D01*
X3200000Y5600000D01*
Y5290151D01*
X3196157Y5270831D01*
X3188619Y5252632D01*
X3177675Y5236254D01*
X3163746Y5222325D01*
X3147368Y5211381D01*
X3129169Y5203843D01*
X3109849Y5200000D01*
X2554000D01*
X2554000Y5199999D01*
X2529103Y5198776D01*
X2480268Y5189062D01*
X2434265Y5170008D01*
X2392864Y5142344D01*
X2357655Y5107136D01*
X2329992Y5065735D01*
X2310937Y5019732D01*
X2301223Y4970896D01*
X2300000Y4946000D01*
Y4200000D01*
X1600000D01*
Y5381160D01*
X1600000Y5399999D01*
X1600001Y5400000D01*
X1600000Y5400000D01*
X1600000Y5432771D01*
X1608555Y5497754D01*
X1625519Y5561064D01*
X1650601Y5621618D01*
X1683373Y5678380D01*
X1723273Y5730380D01*
X1769619Y5776726D01*
X1821618Y5816626D01*
X1878381Y5849398D01*
X1938935Y5874480D01*
X2002245Y5891444D01*
X2067228Y5899999D01*
X2100000Y5899999D01*
X2281147Y5900000D01*
X2299999Y5899999D01*
X2300000Y5899999D01*
X2300000Y5900000D01*
X2319603Y5900963D01*
X2358056Y5908611D01*
X2394279Y5923615D01*
X2426878Y5945397D01*
X2454602Y5973121D01*
X2476384Y6005720D01*
X2491388Y6041943D01*
X2499037Y6080396D01*
X2500000Y6100000D01*
X2500000Y6968924D01*
X3500000D01*
Y5800000D01*
D02*
G37*
G36*
X5329169Y6896157D02*
X5347368Y6888619D01*
X5363746Y6877675D01*
X5377675Y6863746D01*
X5388619Y6847368D01*
X5396157Y6829169D01*
X5400000Y6809849D01*
Y6800000D01*
Y5900000D01*
Y5890151D01*
X5396157Y5870831D01*
X5388619Y5852632D01*
X5377675Y5836254D01*
X5363746Y5822325D01*
X5347368Y5811381D01*
X5329169Y5803843D01*
X5309849Y5800000D01*
X4290151D01*
X4270831Y5803843D01*
X4252632Y5811381D01*
X4236254Y5822325D01*
X4222325Y5836254D01*
X4211381Y5852632D01*
X4203843Y5870831D01*
X4200000Y5890151D01*
Y5900000D01*
Y6800000D01*
Y6809849D01*
X4203843Y6829169D01*
X4211381Y6847368D01*
X4222325Y6863746D01*
X4236254Y6877675D01*
X4252632Y6888619D01*
X4270831Y6896157D01*
X4290151Y6900000D01*
X5309849D01*
X5329169Y6896157D01*
D02*
G37*
G36*
X-4270831D02*
X-4252632Y6888619D01*
X-4236254Y6877675D01*
X-4222325Y6863746D01*
X-4211381Y6847368D01*
X-4203843Y6829169D01*
X-4200000Y6809849D01*
Y6800000D01*
Y5900000D01*
Y5890151D01*
X-4203843Y5870831D01*
X-4211381Y5852632D01*
X-4222325Y5836254D01*
X-4236254Y5822325D01*
X-4252632Y5811381D01*
X-4270831Y5803843D01*
X-4290151Y5800000D01*
X-5309849D01*
X-5329169Y5803843D01*
X-5347368Y5811381D01*
X-5363746Y5822325D01*
X-5377675Y5836254D01*
X-5388619Y5852632D01*
X-5396157Y5870831D01*
X-5400000Y5890151D01*
Y5900000D01*
Y6800000D01*
Y6809849D01*
X-5396157Y6829169D01*
X-5388619Y6847368D01*
X-5377675Y6863746D01*
X-5363746Y6877675D01*
X-5347368Y6888619D01*
X-5329169Y6896157D01*
X-5309849Y6900000D01*
X-4290151D01*
X-4270831Y6896157D01*
D02*
G37*
G36*
X4800000Y5400000D02*
X3300000D01*
Y5600000D01*
X4800000D01*
Y5400000D01*
D02*
G37*
G36*
X1400000D02*
X-100000D01*
Y5600000D01*
X1400000D01*
Y5400000D01*
D02*
G37*
G36*
X-2000000D02*
X-3500000D01*
Y5600000D01*
X-2000000D01*
Y5400000D01*
D02*
G37*
G36*
X4800000Y3500000D02*
Y3500000D01*
X3300000D01*
Y3650000D01*
X3890000D01*
Y3700000D01*
X3880000D01*
Y4000000D01*
X4800000D01*
Y3500000D01*
D02*
G37*
G36*
X1400000Y3500000D02*
Y3500000D01*
X-100000D01*
Y3650000D01*
X490000D01*
Y3700000D01*
X480000D01*
Y4000000D01*
X1400000D01*
Y3500000D01*
D02*
G37*
G36*
X-2000000D02*
Y3500000D01*
X-3500000D01*
Y3650000D01*
X-2910000D01*
Y3700000D01*
X-2920000D01*
Y4000000D01*
X-2000000D01*
Y3500000D01*
D02*
G37*
G36*
X4700000Y1800000D02*
X4700000D01*
X4700482Y1790198D01*
X4704306Y1770971D01*
X4711808Y1752860D01*
X4722699Y1736560D01*
X4736561Y1722699D01*
X4752860Y1711808D01*
X4770971Y1704306D01*
X4790198Y1700481D01*
X4800000Y1700000D01*
Y1550001D01*
Y1550001D01*
X3300000D01*
Y1700001D01*
X3890000D01*
Y1750001D01*
X3880000D01*
Y2050001D01*
X4700000D01*
Y1800000D01*
D02*
G37*
G36*
X1400000Y1550001D02*
Y1550001D01*
X-100000D01*
Y1700001D01*
X490000D01*
Y1750001D01*
X480000D01*
Y2050001D01*
X1400000D01*
Y1550001D01*
D02*
G37*
G36*
X-2000000D02*
Y1550001D01*
X-3500000D01*
Y1700001D01*
X-2910000D01*
Y1750001D01*
X-2920000D01*
Y2050001D01*
X-2000000D01*
Y1550001D01*
D02*
G37*
G36*
X5329169Y1196157D02*
X5347368Y1188619D01*
X5363746Y1177675D01*
X5377675Y1163746D01*
X5388619Y1147368D01*
X5396157Y1129169D01*
X5400000Y1109849D01*
Y1100000D01*
Y200000D01*
Y190150D01*
X5396157Y170831D01*
X5388619Y152632D01*
X5377675Y136253D01*
X5363746Y122325D01*
X5347368Y111381D01*
X5329169Y103843D01*
X5309849Y100000D01*
X-5309849D01*
X-5329169Y103843D01*
X-5347368Y111381D01*
X-5363746Y122325D01*
X-5377675Y136254D01*
X-5388619Y152632D01*
X-5396157Y170831D01*
X-5400000Y190151D01*
Y200000D01*
Y1100000D01*
Y1109849D01*
X-5396157Y1129169D01*
X-5388619Y1147368D01*
X-5377675Y1163746D01*
X-5363746Y1177675D01*
X-5347368Y1188619D01*
X-5329169Y1196157D01*
X-5309849Y1200000D01*
X5309849D01*
X5329169Y1196157D01*
D02*
G37*
D15*
X2290500Y2163500D02*
D03*
Y2036500D02*
D03*
X2163500Y2163500D02*
D03*
Y2036500D02*
D03*
X2036500Y2163500D02*
D03*
Y2036500D02*
D03*
X1909500Y2163500D02*
D03*
X-1109500D02*
D03*
Y2036500D02*
D03*
X-1236500Y2163500D02*
D03*
Y2036500D02*
D03*
X-1363500Y2163500D02*
D03*
Y2036500D02*
D03*
X-1490500Y2163500D02*
D03*
X-4509500D02*
D03*
Y2036500D02*
D03*
X-4636500Y2163500D02*
D03*
Y2036500D02*
D03*
X-4763500Y2163500D02*
D03*
Y2036500D02*
D03*
X-4890500Y2163500D02*
D03*
D16*
X1909500Y2036500D02*
D03*
X-1490500D02*
D03*
X-4890500D02*
D03*
D17*
X50000Y1836500D02*
D03*
Y1963500D02*
D03*
Y3786500D02*
D03*
Y3913500D02*
D03*
X-3349999Y1836500D02*
D03*
Y1963500D02*
D03*
Y3786500D02*
D03*
Y3913500D02*
D03*
X4800000Y1963500D02*
D03*
Y1836500D02*
D03*
X3450000Y3786500D02*
D03*
Y3913500D02*
D03*
Y1836500D02*
D03*
Y1963500D02*
D03*
D18*
X-2619000Y6881000D02*
D03*
Y6627000D02*
D03*
Y6373000D02*
D03*
Y6119000D02*
D03*
X-3381000Y6881000D02*
D03*
Y6627000D02*
D03*
Y6373000D02*
D03*
Y6119000D02*
D03*
X381000Y6881000D02*
D03*
Y6627000D02*
D03*
Y6373000D02*
D03*
Y6119000D02*
D03*
X-381000Y6881000D02*
D03*
Y6627000D02*
D03*
Y6373000D02*
D03*
Y6119000D02*
D03*
X3381000Y6881000D02*
D03*
Y6627000D02*
D03*
Y6373000D02*
D03*
Y6119000D02*
D03*
X2619000Y6881000D02*
D03*
Y6627000D02*
D03*
Y6373000D02*
D03*
Y6119000D02*
D03*
D19*
X-3000000Y6500000D02*
D03*
X0D02*
D03*
X3000000D02*
D03*
D20*
X-5700000Y2000000D02*
D03*
Y5000000D02*
D03*
X5700000Y2000000D02*
D03*
Y5000000D02*
D03*
X-5700000Y4000000D02*
D03*
X5700000D02*
D03*
X-1400000Y6600000D02*
D03*
X1400000D02*
D03*
X2100000Y2700000D02*
D03*
X-1300000D02*
D03*
X-4700000D02*
D03*
D21*
X4419000Y6781000D02*
D03*
X4673000D02*
D03*
X4927000D02*
D03*
X5181000D02*
D03*
Y6019000D02*
D03*
X4927000D02*
D03*
X4673000D02*
D03*
X-5181000Y981000D02*
D03*
X-4927000D02*
D03*
X-4673000D02*
D03*
X-4419000D02*
D03*
Y219000D02*
D03*
X-4673000D02*
D03*
X-4927000D02*
D03*
X4419000Y981000D02*
D03*
X4673000D02*
D03*
X4927000D02*
D03*
X5181000D02*
D03*
Y219000D02*
D03*
X4927000D02*
D03*
X4673000D02*
D03*
X-5181000Y6781000D02*
D03*
X-4927000D02*
D03*
X-4673000D02*
D03*
X-4419000D02*
D03*
Y6019000D02*
D03*
X-4673000D02*
D03*
X-4927000D02*
D03*
D22*
X4419000D02*
D03*
X-5181000Y219000D02*
D03*
X4419000D02*
D03*
X-5181000Y6019000D02*
D03*
D31*
X2096000Y4465000D02*
D03*
X2604000D02*
D03*
X-1304000D02*
D03*
X-796000D02*
D03*
X-4704000D02*
D03*
X-4196000D02*
D03*
D32*
X2794500Y3535000D02*
D03*
X2667500D02*
D03*
X2540500D02*
D03*
X2413500D02*
D03*
X2286500D02*
D03*
X2159500D02*
D03*
X2032500D02*
D03*
X1905500D02*
D03*
X-605500D02*
D03*
X-732500D02*
D03*
X-859500D02*
D03*
X-986500D02*
D03*
X-1113500D02*
D03*
X-1240500D02*
D03*
X-1367500D02*
D03*
X-1494500D02*
D03*
X-4005500D02*
D03*
X-4132500D02*
D03*
X-4259500D02*
D03*
X-4386500D02*
D03*
X-4513500D02*
D03*
X-4640500D02*
D03*
X-4767500D02*
D03*
X-4894500D02*
D03*
D33*
X2690000Y3280000D02*
D03*
Y3120000D02*
D03*
X-710000Y3280000D02*
D03*
Y3120000D02*
D03*
X-4110000Y3280000D02*
D03*
Y3120000D02*
D03*
D34*
X-4100000Y2035000D02*
D03*
Y2165000D02*
D03*
X-700000Y2035000D02*
D03*
Y2165000D02*
D03*
X2700000D02*
D03*
Y2035000D02*
D03*
D35*
X-4097508Y2950008D02*
D03*
X-4222508D02*
D03*
X-4097508Y2800008D02*
D03*
X-4222508D02*
D03*
X-697509Y2950008D02*
D03*
X-822509D02*
D03*
X-697509Y2800008D02*
D03*
X-822509D02*
D03*
X2702492D02*
D03*
X2577492D02*
D03*
Y2950008D02*
D03*
X2702492D02*
D03*
D36*
X-4260008Y3262492D02*
D03*
Y3137492D02*
D03*
X-860008Y3262492D02*
D03*
Y3137492D02*
D03*
X2539992D02*
D03*
Y3262492D02*
D03*
D37*
X-4600000Y3230000D02*
D03*
Y3350000D02*
D03*
X-1200000Y3230000D02*
D03*
Y3350000D02*
D03*
X2200000D02*
D03*
X2400000Y3140000D02*
D03*
X-1000000Y3260000D02*
D03*
Y3140000D02*
D03*
X-4400000D02*
D03*
Y3260000D02*
D03*
X2200000Y3230000D02*
D03*
X2400000Y3260000D02*
D03*
D38*
X-4100000Y2353203D02*
D03*
Y2488419D02*
D03*
X-700000Y2353203D02*
D03*
Y2488419D02*
D03*
X2700000D02*
D03*
Y2353203D02*
D03*
D52*
X-5700000Y4190500D02*
D03*
X5509500Y4000000D02*
D03*
X-1400000Y6790500D02*
D03*
X1400000D02*
D03*
X2290500Y2700000D02*
D03*
X-1109500D02*
D03*
X-4509500D02*
D03*
D53*
X-3850000Y4700000D02*
X-3600000Y4950000D01*
X-450000Y4700000D02*
X-200000Y4950000D01*
X2962500Y4312500D02*
X3200000Y4550000D01*
X2962500Y4512500D02*
X3200000Y4750000D01*
X2950000Y4700000D02*
X3200000Y4950000D01*
X2762500Y4712500D02*
X3000000Y4950000D01*
X2562500Y4712500D02*
X2800000Y4950000D01*
X2550000Y4900000D02*
X2600000Y4950000D01*
X3150000Y4300000D02*
X3200000Y4350000D01*
X-437500Y4312500D02*
X-200000Y4550000D01*
X-437500Y4512500D02*
X-200000Y4750000D01*
X-637500Y4712500D02*
X-400000Y4950000D01*
X-837500Y4712500D02*
X-600000Y4950000D01*
X-850000Y4900000D02*
X-800000Y4950000D01*
X-250000Y4300000D02*
X-200000Y4350000D01*
X-3650000Y4300000D02*
X-3600000Y4350000D01*
X-4250000Y4900000D02*
X-4200000Y4950000D01*
X-4237500Y4712500D02*
X-4000000Y4950000D01*
X-4037500Y4712500D02*
X-3800000Y4950000D01*
X-3837500Y4512500D02*
X-3600000Y4750000D01*
X-3837500Y4312500D02*
X-3600000Y4550000D01*
D54*
X4662500Y5525000D02*
D03*
X3437500D02*
D03*
X37500Y3575000D02*
D03*
X1262500D02*
D03*
X-2137500Y3575000D02*
D03*
X-3362499D02*
D03*
X3437500Y3575000D02*
D03*
X4662500D02*
D03*
X-2137500Y5525000D02*
D03*
X-3362499D02*
D03*
X37500Y5525000D02*
D03*
X1262500D02*
D03*
D55*
X4431000Y3850000D02*
D03*
X4304000D02*
D03*
X4177000D02*
D03*
X4050000D02*
D03*
X3923000D02*
D03*
X3796000D02*
D03*
X3669000D02*
D03*
X269000Y1900000D02*
D03*
X396000D02*
D03*
X523000D02*
D03*
X650000D02*
D03*
X777000D02*
D03*
X904000D02*
D03*
X1031000D02*
D03*
X-2369000Y1900000D02*
D03*
X-2496000D02*
D03*
X-2623000D02*
D03*
X-2750000D02*
D03*
X-2877000D02*
D03*
X-3004000D02*
D03*
X-3131000D02*
D03*
X3669000Y1900000D02*
D03*
X3796000D02*
D03*
X3923000D02*
D03*
X4050000D02*
D03*
X4177000D02*
D03*
X4304000D02*
D03*
X4431000D02*
D03*
X-2369000Y3850000D02*
D03*
X-2496000D02*
D03*
X-2623000D02*
D03*
X-2750000D02*
D03*
X-2877000D02*
D03*
X-3004000D02*
D03*
X-3131000D02*
D03*
X269000Y3850000D02*
D03*
X396000D02*
D03*
X523000D02*
D03*
X650000D02*
D03*
X777000D02*
D03*
X904000D02*
D03*
X1031000D02*
D03*
%TF.MD5,4e8c0e33e4eb2e53cbb225b837692ee3*%
M02*
