%TF.GenerationSoftware,Altium Limited,Altium Designer,26.2.0 (7)*%
G04 Layer_Color=16711935*
%FSLAX45Y45*%
%MOMM*%
%TF.SameCoordinates,DD637A2D-7E0C-40B3-9281-A5126D6BEA63*%
%TF.FilePolarity,Positive*%
%TF.FileFunction,Other,Top_Assembly*%
%TF.Part,Single*%
G01*
G75*
%TA.AperFunction,NonConductor*%
%ADD40C,0.20000*%
G36*
X4878129Y3303323D02*
X4878738D01*
X4879513Y3303212D01*
X4880344Y3303101D01*
X4881341Y3302935D01*
X4882393Y3302769D01*
X4883555Y3302492D01*
X4884774Y3302160D01*
X4885992Y3301717D01*
X4887265Y3301219D01*
X4888539Y3300665D01*
X4889812Y3299945D01*
X4891086Y3299170D01*
X4892304Y3298284D01*
X4892415Y3298229D01*
X4892636Y3298007D01*
X4893024Y3297675D01*
X4893522Y3297177D01*
X4894076Y3296567D01*
X4894741Y3295792D01*
X4895460Y3294906D01*
X4896125Y3293910D01*
X4896845Y3292802D01*
X4897564Y3291529D01*
X4898229Y3290144D01*
X4898783Y3288649D01*
X4899281Y3287043D01*
X4899669Y3285327D01*
X4899890Y3283500D01*
X4900001Y3281562D01*
Y3281174D01*
X4899945Y3280731D01*
Y3280122D01*
X4899835Y3279402D01*
X4899724Y3278516D01*
X4899613Y3277575D01*
X4899392Y3276523D01*
X4899115Y3275415D01*
X4898783Y3274253D01*
X4898395Y3273090D01*
X4897952Y3271872D01*
X4897398Y3270709D01*
X4896734Y3269546D01*
X4895959Y3268383D01*
X4895128Y3267331D01*
X4895073Y3267276D01*
X4894907Y3267110D01*
X4894630Y3266833D01*
X4894242Y3266445D01*
X4893744Y3266057D01*
X4893135Y3265559D01*
X4892470Y3265061D01*
X4891695Y3264507D01*
X4890809Y3263953D01*
X4889812Y3263400D01*
X4888760Y3262846D01*
X4887598Y3262403D01*
X4886379Y3261960D01*
X4885050Y3261572D01*
X4883666Y3261295D01*
X4882171Y3261074D01*
X4881451Y3269324D01*
X4881507D01*
X4881728Y3269380D01*
X4882005Y3269435D01*
X4882448Y3269491D01*
X4882946Y3269657D01*
X4883555Y3269767D01*
X4884164Y3269989D01*
X4884884Y3270210D01*
X4886379Y3270764D01*
X4887874Y3271484D01*
X4889314Y3272425D01*
X4889979Y3272924D01*
X4890588Y3273533D01*
X4890643Y3273588D01*
X4890698Y3273699D01*
X4890864Y3273865D01*
X4891031Y3274142D01*
X4891252Y3274474D01*
X4891529Y3274806D01*
X4891806Y3275305D01*
X4892083Y3275803D01*
X4892636Y3276966D01*
X4893135Y3278350D01*
X4893467Y3279845D01*
X4893522Y3280676D01*
X4893578Y3281562D01*
Y3281838D01*
X4893522Y3282115D01*
Y3282503D01*
X4893467Y3283001D01*
X4893356Y3283555D01*
X4893245Y3284219D01*
X4893024Y3284884D01*
X4892803Y3285659D01*
X4892526Y3286434D01*
X4892193Y3287210D01*
X4891750Y3287985D01*
X4891307Y3288815D01*
X4890698Y3289646D01*
X4890089Y3290421D01*
X4889314Y3291141D01*
X4889259Y3291196D01*
X4889093Y3291307D01*
X4888871Y3291529D01*
X4888539Y3291750D01*
X4888096Y3292027D01*
X4887598Y3292359D01*
X4886988Y3292747D01*
X4886324Y3293134D01*
X4885549Y3293467D01*
X4884663Y3293854D01*
X4883777Y3294186D01*
X4882725Y3294463D01*
X4881673Y3294685D01*
X4880510Y3294906D01*
X4879292Y3295017D01*
X4878018Y3295072D01*
X4877963D01*
X4877741D01*
X4877354D01*
X4876911Y3295017D01*
X4876357Y3294962D01*
X4875693Y3294851D01*
X4874973Y3294740D01*
X4874198Y3294629D01*
X4872481Y3294131D01*
X4871595Y3293854D01*
X4870709Y3293467D01*
X4869879Y3293079D01*
X4868993Y3292525D01*
X4868217Y3291972D01*
X4867442Y3291307D01*
X4867387Y3291252D01*
X4867276Y3291141D01*
X4867055Y3290920D01*
X4866833Y3290643D01*
X4866556Y3290255D01*
X4866224Y3289812D01*
X4865836Y3289258D01*
X4865449Y3288649D01*
X4865117Y3287985D01*
X4864729Y3287210D01*
X4864397Y3286434D01*
X4864120Y3285548D01*
X4863898Y3284607D01*
X4863677Y3283610D01*
X4863566Y3282503D01*
X4863511Y3281396D01*
Y3280786D01*
X4863566Y3280454D01*
X4863621Y3280067D01*
X4863732Y3279125D01*
X4863954Y3278073D01*
X4864231Y3276910D01*
X4864674Y3275748D01*
X4865227Y3274585D01*
Y3274529D01*
X4865283Y3274474D01*
X4865393Y3274308D01*
X4865559Y3274086D01*
X4865892Y3273533D01*
X4866445Y3272868D01*
X4867055Y3272093D01*
X4867830Y3271318D01*
X4868660Y3270543D01*
X4869657Y3269823D01*
X4868716Y3262458D01*
X4835935Y3268660D01*
Y3300388D01*
X4843411D01*
Y3274862D01*
X4860631Y3271429D01*
X4860576Y3271484D01*
X4860465Y3271705D01*
X4860244Y3271982D01*
X4860022Y3272425D01*
X4859690Y3272979D01*
X4859358Y3273588D01*
X4858970Y3274308D01*
X4858583Y3275083D01*
X4858250Y3275969D01*
X4857863Y3276910D01*
X4857531Y3277907D01*
X4857198Y3278959D01*
X4856977Y3280067D01*
X4856755Y3281174D01*
X4856645Y3282337D01*
X4856589Y3283500D01*
Y3283887D01*
X4856645Y3284330D01*
X4856700Y3284884D01*
X4856755Y3285604D01*
X4856921Y3286434D01*
X4857088Y3287376D01*
X4857309Y3288428D01*
X4857641Y3289480D01*
X4858029Y3290643D01*
X4858472Y3291805D01*
X4859026Y3292968D01*
X4859690Y3294186D01*
X4860465Y3295349D01*
X4861351Y3296512D01*
X4862403Y3297620D01*
X4862459Y3297675D01*
X4862680Y3297896D01*
X4863012Y3298173D01*
X4863455Y3298505D01*
X4864009Y3298948D01*
X4864729Y3299447D01*
X4865504Y3299945D01*
X4866445Y3300499D01*
X4867442Y3301053D01*
X4868605Y3301551D01*
X4869823Y3302049D01*
X4871152Y3302492D01*
X4872536Y3302824D01*
X4874031Y3303157D01*
X4875637Y3303323D01*
X4877298Y3303378D01*
X4877409D01*
X4877686D01*
X4878129Y3303323D01*
D02*
G37*
G36*
X4898949Y3245570D02*
X4885660Y3237153D01*
X4885604Y3237098D01*
X4885383Y3236987D01*
X4885106Y3236821D01*
X4884718Y3236544D01*
X4884220Y3236212D01*
X4883666Y3235880D01*
X4883057Y3235437D01*
X4882448Y3234994D01*
X4881008Y3234052D01*
X4879569Y3233000D01*
X4878184Y3232004D01*
X4877520Y3231505D01*
X4876911Y3231062D01*
X4876855D01*
X4876800Y3230952D01*
X4876634Y3230841D01*
X4876412Y3230675D01*
X4875859Y3230232D01*
X4875194Y3229623D01*
X4874530Y3228958D01*
X4873810Y3228238D01*
X4873145Y3227463D01*
X4872647Y3226743D01*
X4872592Y3226688D01*
X4872426Y3226411D01*
X4872259Y3226024D01*
X4871983Y3225581D01*
X4871706Y3224971D01*
X4871429Y3224362D01*
X4871152Y3223643D01*
X4870931Y3222923D01*
Y3222867D01*
X4870875Y3222646D01*
X4870820Y3222314D01*
X4870764Y3221815D01*
X4870709Y3221151D01*
X4870654Y3220320D01*
X4870598Y3219379D01*
Y3208471D01*
X4898949D01*
Y3199999D01*
X4835105D01*
Y3229678D01*
X4835160Y3230398D01*
X4835216Y3231228D01*
X4835271Y3232114D01*
X4835326Y3233111D01*
X4835548Y3235215D01*
X4835825Y3237375D01*
X4836046Y3238427D01*
X4836268Y3239424D01*
X4836545Y3240365D01*
X4836877Y3241251D01*
Y3241306D01*
X4836932Y3241472D01*
X4837043Y3241694D01*
X4837209Y3241971D01*
X4837431Y3242358D01*
X4837652Y3242801D01*
X4838261Y3243798D01*
X4839092Y3244905D01*
X4839590Y3245514D01*
X4840144Y3246124D01*
X4840753Y3246677D01*
X4841473Y3247286D01*
X4842193Y3247840D01*
X4842968Y3248338D01*
X4843023Y3248394D01*
X4843189Y3248449D01*
X4843411Y3248560D01*
X4843743Y3248781D01*
X4844131Y3248948D01*
X4844629Y3249169D01*
X4845183Y3249446D01*
X4845792Y3249667D01*
X4846456Y3249944D01*
X4847176Y3250166D01*
X4848837Y3250609D01*
X4850609Y3250886D01*
X4851550Y3250941D01*
X4852547Y3250996D01*
X4852602D01*
X4852824D01*
X4853212D01*
X4853655Y3250941D01*
X4854264Y3250886D01*
X4854928Y3250775D01*
X4855703Y3250609D01*
X4856534Y3250443D01*
X4857364Y3250221D01*
X4858306Y3249944D01*
X4859247Y3249557D01*
X4860244Y3249114D01*
X4861185Y3248615D01*
X4862182Y3248006D01*
X4863123Y3247342D01*
X4864009Y3246567D01*
X4864064Y3246511D01*
X4864231Y3246345D01*
X4864452Y3246124D01*
X4864729Y3245736D01*
X4865117Y3245293D01*
X4865559Y3244684D01*
X4866002Y3244019D01*
X4866501Y3243244D01*
X4866999Y3242358D01*
X4867498Y3241362D01*
X4867996Y3240199D01*
X4868439Y3238981D01*
X4868882Y3237652D01*
X4869269Y3236212D01*
X4869602Y3234662D01*
X4869879Y3233000D01*
Y3233056D01*
X4869934Y3233167D01*
X4870045Y3233333D01*
X4870155Y3233554D01*
X4870488Y3234163D01*
X4870875Y3234883D01*
X4871374Y3235714D01*
X4871927Y3236600D01*
X4872481Y3237375D01*
X4873090Y3238095D01*
X4873145Y3238150D01*
X4873256Y3238261D01*
X4873422Y3238482D01*
X4873699Y3238704D01*
X4874031Y3239036D01*
X4874419Y3239424D01*
X4874862Y3239867D01*
X4875416Y3240365D01*
X4876025Y3240863D01*
X4876634Y3241417D01*
X4878074Y3242580D01*
X4879735Y3243853D01*
X4881562Y3245071D01*
X4898949Y3256146D01*
Y3245570D01*
D02*
G37*
G36*
X4856128Y2442538D02*
X4856350Y2442316D01*
X4856738Y2441984D01*
X4857236Y2441541D01*
X4857900Y2440987D01*
X4858676Y2440323D01*
X4859617Y2439603D01*
X4860669Y2438773D01*
X4861832Y2437887D01*
X4863105Y2436945D01*
X4864545Y2435949D01*
X4866095Y2434897D01*
X4867701Y2433789D01*
X4869473Y2432682D01*
X4871356Y2431574D01*
X4873294Y2430467D01*
X4873349D01*
X4873405Y2430411D01*
X4873571Y2430301D01*
X4873792Y2430190D01*
X4874014Y2430079D01*
X4874346Y2429913D01*
X4875121Y2429470D01*
X4876118Y2428972D01*
X4877281Y2428418D01*
X4878609Y2427754D01*
X4880105Y2427089D01*
X4881710Y2426314D01*
X4883427Y2425594D01*
X4885254Y2424819D01*
X4887192Y2424044D01*
X4889186Y2423268D01*
X4891234Y2422549D01*
X4893338Y2421884D01*
X4895443Y2421220D01*
X4895553D01*
X4895775Y2421109D01*
X4896218Y2420998D01*
X4896827Y2420832D01*
X4897602Y2420666D01*
X4898488Y2420444D01*
X4899485Y2420223D01*
X4900592Y2419946D01*
X4901866Y2419725D01*
X4903195Y2419448D01*
X4904634Y2419171D01*
X4906185Y2418949D01*
X4907791Y2418728D01*
X4909452Y2418562D01*
X4912940Y2418230D01*
Y2410145D01*
X4912829D01*
X4912608D01*
X4912165Y2410201D01*
X4911611D01*
X4910891Y2410256D01*
X4910005Y2410311D01*
X4909009Y2410422D01*
X4907846Y2410533D01*
X4906572Y2410699D01*
X4905188Y2410921D01*
X4903693Y2411142D01*
X4902087Y2411419D01*
X4900426Y2411751D01*
X4898599Y2412139D01*
X4896716Y2412582D01*
X4894778Y2413080D01*
X4894723D01*
X4894667Y2413135D01*
X4894501D01*
X4894280Y2413191D01*
X4893726Y2413357D01*
X4892951Y2413634D01*
X4892010Y2413911D01*
X4890847Y2414243D01*
X4889573Y2414686D01*
X4888189Y2415184D01*
X4886694Y2415682D01*
X4885033Y2416292D01*
X4883371Y2416956D01*
X4881600Y2417731D01*
X4879772Y2418506D01*
X4877890Y2419337D01*
X4876062Y2420278D01*
X4874180Y2421220D01*
X4874124D01*
X4874069Y2421275D01*
X4873737Y2421441D01*
X4873238Y2421773D01*
X4872519Y2422161D01*
X4871688Y2422659D01*
X4870691Y2423213D01*
X4869584Y2423878D01*
X4868366Y2424653D01*
X4867092Y2425428D01*
X4865763Y2426314D01*
X4864379Y2427255D01*
X4862939Y2428252D01*
X4860115Y2430301D01*
X4858786Y2431408D01*
X4857457Y2432516D01*
Y2401230D01*
X4849927D01*
Y2442593D01*
X4856073D01*
X4856128Y2442538D01*
D02*
G37*
G36*
X4912940Y2385228D02*
X4899651Y2376811D01*
X4899595Y2376756D01*
X4899374Y2376645D01*
X4899097Y2376479D01*
X4898710Y2376202D01*
X4898211Y2375870D01*
X4897657Y2375538D01*
X4897048Y2375095D01*
X4896439Y2374652D01*
X4895000Y2373711D01*
X4893560Y2372658D01*
X4892176Y2371662D01*
X4891511Y2371163D01*
X4890902Y2370720D01*
X4890847D01*
X4890791Y2370610D01*
X4890625Y2370499D01*
X4890404Y2370333D01*
X4889850Y2369890D01*
X4889186Y2369281D01*
X4888521Y2368616D01*
X4887801Y2367896D01*
X4887137Y2367121D01*
X4886638Y2366401D01*
X4886583Y2366346D01*
X4886417Y2366069D01*
X4886251Y2365682D01*
X4885974Y2365239D01*
X4885697Y2364630D01*
X4885420Y2364020D01*
X4885143Y2363301D01*
X4884922Y2362581D01*
Y2362525D01*
X4884867Y2362304D01*
X4884811Y2361972D01*
X4884756Y2361473D01*
X4884700Y2360809D01*
X4884645Y2359978D01*
X4884590Y2359037D01*
Y2348129D01*
X4912940D01*
Y2339657D01*
X4849096D01*
Y2369336D01*
X4849152Y2370056D01*
X4849207Y2370887D01*
X4849262Y2371772D01*
X4849318Y2372769D01*
X4849539Y2374873D01*
X4849816Y2377033D01*
X4850038Y2378085D01*
X4850259Y2379082D01*
X4850536Y2380023D01*
X4850868Y2380909D01*
Y2380964D01*
X4850923Y2381130D01*
X4851034Y2381352D01*
X4851200Y2381629D01*
X4851422Y2382016D01*
X4851643Y2382459D01*
X4852252Y2383456D01*
X4853083Y2384563D01*
X4853581Y2385173D01*
X4854135Y2385782D01*
X4854744Y2386335D01*
X4855464Y2386944D01*
X4856184Y2387498D01*
X4856959Y2387996D01*
X4857014Y2388052D01*
X4857181Y2388107D01*
X4857402Y2388218D01*
X4857734Y2388439D01*
X4858122Y2388606D01*
X4858620Y2388827D01*
X4859174Y2389104D01*
X4859783Y2389325D01*
X4860447Y2389602D01*
X4861167Y2389824D01*
X4862828Y2390267D01*
X4864600Y2390544D01*
X4865542Y2390599D01*
X4866538Y2390654D01*
X4866594D01*
X4866815D01*
X4867203D01*
X4867646Y2390599D01*
X4868255Y2390544D01*
X4868919Y2390433D01*
X4869695Y2390267D01*
X4870525Y2390101D01*
X4871356Y2389879D01*
X4872297Y2389602D01*
X4873238Y2389215D01*
X4874235Y2388772D01*
X4875176Y2388273D01*
X4876173Y2387664D01*
X4877114Y2387000D01*
X4878000Y2386225D01*
X4878056Y2386169D01*
X4878222Y2386003D01*
X4878443Y2385782D01*
X4878720Y2385394D01*
X4879108Y2384951D01*
X4879551Y2384342D01*
X4879994Y2383677D01*
X4880492Y2382902D01*
X4880990Y2382016D01*
X4881489Y2381020D01*
X4881987Y2379857D01*
X4882430Y2378639D01*
X4882873Y2377310D01*
X4883261Y2375870D01*
X4883593Y2374320D01*
X4883870Y2372658D01*
Y2372714D01*
X4883925Y2372825D01*
X4884036Y2372991D01*
X4884147Y2373212D01*
X4884479Y2373821D01*
X4884867Y2374541D01*
X4885365Y2375372D01*
X4885919Y2376258D01*
X4886472Y2377033D01*
X4887081Y2377753D01*
X4887137Y2377808D01*
X4887248Y2377919D01*
X4887414Y2378140D01*
X4887691Y2378362D01*
X4888023Y2378694D01*
X4888410Y2379082D01*
X4888853Y2379525D01*
X4889407Y2380023D01*
X4890016Y2380521D01*
X4890625Y2381075D01*
X4892065Y2382238D01*
X4893726Y2383511D01*
X4895553Y2384730D01*
X4912940Y2395804D01*
Y2385228D01*
D02*
G37*
G36*
X4884718Y3644021D02*
X4900001D01*
Y3636158D01*
X4884718D01*
Y3608472D01*
X4877520D01*
X4836157Y3637597D01*
Y3644021D01*
X4877520D01*
Y3652659D01*
X4884718D01*
Y3644021D01*
D02*
G37*
G36*
X4900001Y3595570D02*
X4886711Y3587154D01*
X4886656Y3587098D01*
X4886434Y3586987D01*
X4886158Y3586821D01*
X4885770Y3586545D01*
X4885272Y3586212D01*
X4884718Y3585880D01*
X4884109Y3585437D01*
X4883500Y3584994D01*
X4882060Y3584053D01*
X4880620Y3583001D01*
X4879236Y3582004D01*
X4878572Y3581506D01*
X4877963Y3581063D01*
X4877907D01*
X4877852Y3580952D01*
X4877686Y3580841D01*
X4877464Y3580675D01*
X4876910Y3580232D01*
X4876246Y3579623D01*
X4875582Y3578959D01*
X4874862Y3578239D01*
X4874197Y3577464D01*
X4873699Y3576744D01*
X4873644Y3576688D01*
X4873477Y3576411D01*
X4873311Y3576024D01*
X4873034Y3575581D01*
X4872758Y3574972D01*
X4872481Y3574363D01*
X4872204Y3573643D01*
X4871982Y3572923D01*
Y3572868D01*
X4871927Y3572646D01*
X4871872Y3572314D01*
X4871816Y3571816D01*
X4871761Y3571151D01*
X4871706Y3570321D01*
X4871650Y3569379D01*
Y3558471D01*
X4900001D01*
Y3549999D01*
X4836157D01*
Y3579678D01*
X4836212Y3580398D01*
X4836267Y3581229D01*
X4836323Y3582115D01*
X4836378Y3583111D01*
X4836600Y3585216D01*
X4836877Y3587375D01*
X4837098Y3588427D01*
X4837320Y3589424D01*
X4837596Y3590365D01*
X4837929Y3591251D01*
Y3591307D01*
X4837984Y3591473D01*
X4838095Y3591694D01*
X4838261Y3591971D01*
X4838482Y3592359D01*
X4838704Y3592802D01*
X4839313Y3593798D01*
X4840143Y3594906D01*
X4840642Y3595515D01*
X4841196Y3596124D01*
X4841805Y3596678D01*
X4842524Y3597287D01*
X4843244Y3597840D01*
X4844020Y3598339D01*
X4844075Y3598394D01*
X4844241Y3598449D01*
X4844462Y3598560D01*
X4844795Y3598782D01*
X4845182Y3598948D01*
X4845681Y3599169D01*
X4846234Y3599446D01*
X4846843Y3599668D01*
X4847508Y3599945D01*
X4848228Y3600166D01*
X4849889Y3600609D01*
X4851661Y3600886D01*
X4852602Y3600941D01*
X4853599Y3600997D01*
X4853654D01*
X4853876D01*
X4854263D01*
X4854706Y3600941D01*
X4855315Y3600886D01*
X4855980Y3600775D01*
X4856755Y3600609D01*
X4857586Y3600443D01*
X4858416Y3600221D01*
X4859358Y3599945D01*
X4860299Y3599557D01*
X4861296Y3599114D01*
X4862237Y3598616D01*
X4863234Y3598007D01*
X4864175Y3597342D01*
X4865061Y3596567D01*
X4865116Y3596511D01*
X4865282Y3596345D01*
X4865504Y3596124D01*
X4865781Y3595736D01*
X4866168Y3595293D01*
X4866611Y3594684D01*
X4867054Y3594020D01*
X4867553Y3593245D01*
X4868051Y3592359D01*
X4868549Y3591362D01*
X4869048Y3590199D01*
X4869491Y3588981D01*
X4869934Y3587652D01*
X4870321Y3586212D01*
X4870653Y3584662D01*
X4870930Y3583001D01*
Y3583056D01*
X4870986Y3583167D01*
X4871096Y3583333D01*
X4871207Y3583554D01*
X4871539Y3584164D01*
X4871927Y3584883D01*
X4872425Y3585714D01*
X4872979Y3586600D01*
X4873533Y3587375D01*
X4874142Y3588095D01*
X4874197Y3588150D01*
X4874308Y3588261D01*
X4874474Y3588483D01*
X4874751Y3588704D01*
X4875083Y3589036D01*
X4875471Y3589424D01*
X4875914Y3589867D01*
X4876468Y3590365D01*
X4877077Y3590864D01*
X4877686Y3591417D01*
X4879125Y3592580D01*
X4880787Y3593854D01*
X4882614Y3595072D01*
X4900001Y3606146D01*
Y3595570D01*
D02*
G37*
G36*
X4879236Y2902880D02*
X4879790D01*
X4880399Y2902825D01*
X4881119Y2902714D01*
X4881894Y2902603D01*
X4882725Y2902493D01*
X4883611Y2902326D01*
X4885438Y2901828D01*
X4887431Y2901219D01*
X4888372Y2900776D01*
X4889369Y2900333D01*
X4889425Y2900278D01*
X4889591Y2900222D01*
X4889868Y2900056D01*
X4890200Y2899835D01*
X4890643Y2899613D01*
X4891141Y2899281D01*
X4892304Y2898450D01*
X4893577Y2897454D01*
X4894906Y2896236D01*
X4896125Y2894796D01*
X4896734Y2894021D01*
X4897287Y2893190D01*
X4897343Y2893135D01*
X4897398Y2892969D01*
X4897509Y2892747D01*
X4897730Y2892415D01*
X4897896Y2891972D01*
X4898118Y2891474D01*
X4898395Y2890864D01*
X4898616Y2890200D01*
X4898893Y2889480D01*
X4899115Y2888705D01*
X4899392Y2887819D01*
X4899558Y2886933D01*
X4899890Y2884995D01*
X4899945Y2883943D01*
X4900001Y2882891D01*
Y2882448D01*
X4899945Y2881950D01*
X4899890Y2881285D01*
X4899779Y2880454D01*
X4899613Y2879458D01*
X4899392Y2878406D01*
X4899115Y2877243D01*
X4898727Y2875969D01*
X4898229Y2874696D01*
X4897675Y2873367D01*
X4896955Y2871983D01*
X4896125Y2870654D01*
X4895183Y2869380D01*
X4894076Y2868107D01*
X4892802Y2866888D01*
X4892692Y2866833D01*
X4892470Y2866611D01*
X4892027Y2866335D01*
X4891418Y2865947D01*
X4890643Y2865449D01*
X4889646Y2864950D01*
X4888483Y2864397D01*
X4887154Y2863843D01*
X4885604Y2863234D01*
X4883832Y2862680D01*
X4881894Y2862182D01*
X4879790Y2861683D01*
X4877409Y2861296D01*
X4874862Y2861019D01*
X4872093Y2860797D01*
X4869103Y2860742D01*
X4869048D01*
X4868882D01*
X4868660D01*
X4868272D01*
X4867829Y2860797D01*
X4867331D01*
X4866722D01*
X4866058Y2860853D01*
X4865338Y2860908D01*
X4864563Y2860964D01*
X4863732Y2861019D01*
X4862791Y2861130D01*
X4860853Y2861296D01*
X4858804Y2861573D01*
X4856644Y2861960D01*
X4854429Y2862403D01*
X4852159Y2862957D01*
X4849944Y2863621D01*
X4847785Y2864397D01*
X4845736Y2865283D01*
X4843853Y2866335D01*
X4843023Y2866944D01*
X4842192Y2867553D01*
X4842082Y2867608D01*
X4841860Y2867830D01*
X4841528Y2868162D01*
X4841029Y2868660D01*
X4840476Y2869269D01*
X4839867Y2869989D01*
X4839202Y2870820D01*
X4838538Y2871816D01*
X4837873Y2872924D01*
X4837209Y2874142D01*
X4836600Y2875416D01*
X4836046Y2876855D01*
X4835548Y2878406D01*
X4835215Y2880067D01*
X4834939Y2881839D01*
X4834883Y2883666D01*
Y2884386D01*
X4834939Y2884940D01*
X4834994Y2885549D01*
X4835105Y2886324D01*
X4835215Y2887155D01*
X4835437Y2888040D01*
X4835658Y2888982D01*
X4835935Y2889978D01*
X4836267Y2891031D01*
X4836655Y2892027D01*
X4837153Y2893079D01*
X4837762Y2894076D01*
X4838372Y2895073D01*
X4839147Y2896014D01*
X4839202Y2896069D01*
X4839313Y2896236D01*
X4839590Y2896457D01*
X4839922Y2896789D01*
X4840365Y2897177D01*
X4840863Y2897620D01*
X4841472Y2898063D01*
X4842192Y2898561D01*
X4842967Y2899059D01*
X4843853Y2899558D01*
X4844795Y2900056D01*
X4845847Y2900499D01*
X4846954Y2900942D01*
X4848117Y2901274D01*
X4849446Y2901607D01*
X4850775Y2901828D01*
X4851384Y2894021D01*
X4851329D01*
X4851163Y2893965D01*
X4850941Y2893910D01*
X4850609Y2893855D01*
X4850277Y2893744D01*
X4849834Y2893578D01*
X4848837Y2893245D01*
X4847729Y2892802D01*
X4846622Y2892304D01*
X4845570Y2891695D01*
X4845127Y2891363D01*
X4844684Y2891031D01*
X4844629Y2890975D01*
X4844518Y2890864D01*
X4844352Y2890698D01*
X4844130Y2890477D01*
X4843909Y2890145D01*
X4843632Y2889757D01*
X4843300Y2889314D01*
X4842967Y2888871D01*
X4842358Y2887708D01*
X4841805Y2886379D01*
X4841639Y2885604D01*
X4841472Y2884829D01*
X4841362Y2883998D01*
X4841306Y2883168D01*
Y2882780D01*
X4841362Y2882559D01*
Y2882226D01*
X4841417Y2881839D01*
X4841583Y2880953D01*
X4841805Y2879901D01*
X4842192Y2878793D01*
X4842691Y2877686D01*
X4843410Y2876578D01*
X4843466Y2876523D01*
X4843521Y2876412D01*
X4843687Y2876246D01*
X4843909Y2875969D01*
X4844186Y2875637D01*
X4844518Y2875305D01*
X4844961Y2874917D01*
X4845404Y2874474D01*
X4845958Y2873976D01*
X4846511Y2873533D01*
X4847176Y2873035D01*
X4847896Y2872536D01*
X4848671Y2872038D01*
X4849501Y2871595D01*
X4850387Y2871152D01*
X4851329Y2870709D01*
X4851384D01*
X4851550Y2870598D01*
X4851882Y2870543D01*
X4852270Y2870377D01*
X4852824Y2870211D01*
X4853488Y2870045D01*
X4854208Y2869823D01*
X4855094Y2869657D01*
X4856091Y2869435D01*
X4857198Y2869269D01*
X4858416Y2869103D01*
X4859690Y2868937D01*
X4861129Y2868771D01*
X4862680Y2868660D01*
X4864286Y2868605D01*
X4866058Y2868550D01*
X4866002Y2868605D01*
X4865891Y2868660D01*
X4865670Y2868826D01*
X4865338Y2869048D01*
X4865006Y2869325D01*
X4864563Y2869657D01*
X4863621Y2870488D01*
X4862569Y2871484D01*
X4861517Y2872647D01*
X4860520Y2873976D01*
X4859634Y2875471D01*
Y2875526D01*
X4859524Y2875637D01*
X4859413Y2875859D01*
X4859302Y2876191D01*
X4859136Y2876578D01*
X4858970Y2877021D01*
X4858804Y2877520D01*
X4858582Y2878073D01*
X4858195Y2879347D01*
X4857863Y2880842D01*
X4857641Y2882393D01*
X4857530Y2884054D01*
Y2884386D01*
X4857586Y2884829D01*
X4857641Y2885383D01*
X4857696Y2886047D01*
X4857863Y2886822D01*
X4858029Y2887708D01*
X4858250Y2888650D01*
X4858582Y2889646D01*
X4858970Y2890754D01*
X4859413Y2891861D01*
X4859967Y2892969D01*
X4860631Y2894131D01*
X4861406Y2895239D01*
X4862292Y2896346D01*
X4863344Y2897398D01*
X4863400Y2897454D01*
X4863621Y2897620D01*
X4863953Y2897897D01*
X4864396Y2898284D01*
X4864950Y2898672D01*
X4865670Y2899170D01*
X4866445Y2899669D01*
X4867387Y2900167D01*
X4868383Y2900665D01*
X4869491Y2901164D01*
X4870709Y2901662D01*
X4872038Y2902050D01*
X4873477Y2902437D01*
X4874972Y2902714D01*
X4876578Y2902880D01*
X4878239Y2902936D01*
X4878295D01*
X4878516D01*
X4878849D01*
X4879236Y2902880D01*
D02*
G37*
G36*
X4898949Y2845570D02*
X4885659Y2837154D01*
X4885604Y2837098D01*
X4885382Y2836987D01*
X4885106Y2836821D01*
X4884718Y2836544D01*
X4884220Y2836212D01*
X4883666Y2835880D01*
X4883057Y2835437D01*
X4882448Y2834994D01*
X4881008Y2834053D01*
X4879568Y2833001D01*
X4878184Y2832004D01*
X4877520Y2831506D01*
X4876910Y2831063D01*
X4876855D01*
X4876800Y2830952D01*
X4876634Y2830841D01*
X4876412Y2830675D01*
X4875858Y2830232D01*
X4875194Y2829623D01*
X4874529Y2828959D01*
X4873810Y2828239D01*
X4873145Y2827463D01*
X4872647Y2826744D01*
X4872591Y2826688D01*
X4872425Y2826411D01*
X4872259Y2826024D01*
X4871982Y2825581D01*
X4871706Y2824972D01*
X4871429Y2824363D01*
X4871152Y2823643D01*
X4870930Y2822923D01*
Y2822868D01*
X4870875Y2822646D01*
X4870820Y2822314D01*
X4870764Y2821816D01*
X4870709Y2821151D01*
X4870653Y2820320D01*
X4870598Y2819379D01*
Y2808471D01*
X4898949D01*
Y2799999D01*
X4835105D01*
Y2829678D01*
X4835160Y2830398D01*
X4835215Y2831229D01*
X4835271Y2832115D01*
X4835326Y2833111D01*
X4835548Y2835216D01*
X4835824Y2837375D01*
X4836046Y2838427D01*
X4836267Y2839424D01*
X4836544Y2840365D01*
X4836877Y2841251D01*
Y2841306D01*
X4836932Y2841473D01*
X4837043Y2841694D01*
X4837209Y2841971D01*
X4837430Y2842359D01*
X4837652Y2842802D01*
X4838261Y2843798D01*
X4839091Y2844906D01*
X4839590Y2845515D01*
X4840143Y2846124D01*
X4840753Y2846678D01*
X4841472Y2847287D01*
X4842192Y2847840D01*
X4842967Y2848339D01*
X4843023Y2848394D01*
X4843189Y2848449D01*
X4843410Y2848560D01*
X4843743Y2848782D01*
X4844130Y2848948D01*
X4844629Y2849169D01*
X4845182Y2849446D01*
X4845791Y2849668D01*
X4846456Y2849945D01*
X4847176Y2850166D01*
X4848837Y2850609D01*
X4850609Y2850886D01*
X4851550Y2850941D01*
X4852547Y2850997D01*
X4852602D01*
X4852824D01*
X4853211D01*
X4853654Y2850941D01*
X4854263Y2850886D01*
X4854928Y2850775D01*
X4855703Y2850609D01*
X4856534Y2850443D01*
X4857364Y2850221D01*
X4858305Y2849945D01*
X4859247Y2849557D01*
X4860244Y2849114D01*
X4861185Y2848616D01*
X4862182Y2848006D01*
X4863123Y2847342D01*
X4864009Y2846567D01*
X4864064Y2846511D01*
X4864230Y2846345D01*
X4864452Y2846124D01*
X4864729Y2845736D01*
X4865116Y2845293D01*
X4865559Y2844684D01*
X4866002Y2844020D01*
X4866501Y2843245D01*
X4866999Y2842359D01*
X4867497Y2841362D01*
X4867996Y2840199D01*
X4868439Y2838981D01*
X4868882Y2837652D01*
X4869269Y2836212D01*
X4869601Y2834662D01*
X4869878Y2833001D01*
Y2833056D01*
X4869934Y2833167D01*
X4870044Y2833333D01*
X4870155Y2833554D01*
X4870487Y2834163D01*
X4870875Y2834883D01*
X4871373Y2835714D01*
X4871927Y2836600D01*
X4872481Y2837375D01*
X4873090Y2838095D01*
X4873145Y2838150D01*
X4873256Y2838261D01*
X4873422Y2838483D01*
X4873699Y2838704D01*
X4874031Y2839036D01*
X4874419Y2839424D01*
X4874862Y2839867D01*
X4875415Y2840365D01*
X4876025Y2840864D01*
X4876634Y2841417D01*
X4878073Y2842580D01*
X4879734Y2843854D01*
X4881562Y2845072D01*
X4898949Y2856146D01*
Y2845570D01*
D02*
G37*
%LPC*%
G36*
X4852547Y3242303D02*
X4852492D01*
X4852326D01*
X4852104D01*
X4851772Y3242248D01*
X4851384Y3242192D01*
X4850941Y3242137D01*
X4849889Y3241915D01*
X4848726Y3241472D01*
X4848117Y3241251D01*
X4847453Y3240919D01*
X4846844Y3240531D01*
X4846235Y3240088D01*
X4845626Y3239590D01*
X4845072Y3238981D01*
X4845016Y3238925D01*
X4844961Y3238814D01*
X4844795Y3238648D01*
X4844629Y3238371D01*
X4844407Y3237984D01*
X4844131Y3237596D01*
X4843854Y3237043D01*
X4843577Y3236489D01*
X4843355Y3235769D01*
X4843078Y3234994D01*
X4842802Y3234163D01*
X4842580Y3233222D01*
X4842414Y3232225D01*
X4842248Y3231118D01*
X4842193Y3229900D01*
X4842137Y3228626D01*
Y3208471D01*
X4863289D01*
Y3227519D01*
X4863234Y3228017D01*
Y3228571D01*
X4863178Y3229180D01*
X4863123Y3229844D01*
X4863012Y3231339D01*
X4862791Y3232834D01*
X4862514Y3234274D01*
X4862348Y3234938D01*
X4862126Y3235603D01*
Y3235658D01*
X4862071Y3235769D01*
X4862016Y3235935D01*
X4861905Y3236157D01*
X4861628Y3236710D01*
X4861185Y3237430D01*
X4860631Y3238261D01*
X4860022Y3239091D01*
X4859192Y3239867D01*
X4858306Y3240586D01*
X4858250D01*
X4858195Y3240642D01*
X4858029Y3240752D01*
X4857863Y3240863D01*
X4857309Y3241140D01*
X4856589Y3241472D01*
X4855703Y3241749D01*
X4854762Y3242026D01*
X4853710Y3242248D01*
X4852547Y3242303D01*
D02*
G37*
G36*
X4866538Y2381961D02*
X4866483D01*
X4866317D01*
X4866095D01*
X4865763Y2381906D01*
X4865376Y2381850D01*
X4864933Y2381795D01*
X4863881Y2381573D01*
X4862718Y2381130D01*
X4862109Y2380909D01*
X4861444Y2380577D01*
X4860835Y2380189D01*
X4860226Y2379746D01*
X4859617Y2379248D01*
X4859063Y2378639D01*
X4859008Y2378583D01*
X4858952Y2378473D01*
X4858786Y2378306D01*
X4858620Y2378030D01*
X4858399Y2377642D01*
X4858122Y2377254D01*
X4857845Y2376701D01*
X4857568Y2376147D01*
X4857347Y2375427D01*
X4857070Y2374652D01*
X4856793Y2373821D01*
X4856571Y2372880D01*
X4856405Y2371883D01*
X4856239Y2370776D01*
X4856184Y2369558D01*
X4856128Y2368284D01*
Y2348129D01*
X4877281D01*
Y2367177D01*
X4877225Y2367675D01*
Y2368229D01*
X4877170Y2368838D01*
X4877114Y2369502D01*
X4877004Y2370997D01*
X4876782Y2372492D01*
X4876505Y2373932D01*
X4876339Y2374596D01*
X4876118Y2375261D01*
Y2375316D01*
X4876062Y2375427D01*
X4876007Y2375593D01*
X4875896Y2375815D01*
X4875619Y2376368D01*
X4875176Y2377088D01*
X4874623Y2377919D01*
X4874014Y2378749D01*
X4873183Y2379525D01*
X4872297Y2380244D01*
X4872242D01*
X4872186Y2380300D01*
X4872020Y2380411D01*
X4871854Y2380521D01*
X4871300Y2380798D01*
X4870581Y2381130D01*
X4869695Y2381407D01*
X4868753Y2381684D01*
X4867701Y2381906D01*
X4866538Y2381961D01*
D02*
G37*
G36*
X4877520Y3636158D02*
X4848782D01*
X4877520Y3616169D01*
Y3636158D01*
D02*
G37*
G36*
X4853599Y3592303D02*
X4853544D01*
X4853377D01*
X4853156D01*
X4852824Y3592248D01*
X4852436Y3592192D01*
X4851993Y3592137D01*
X4850941Y3591916D01*
X4849778Y3591473D01*
X4849169Y3591251D01*
X4848505Y3590919D01*
X4847896Y3590531D01*
X4847286Y3590088D01*
X4846677Y3589590D01*
X4846124Y3588981D01*
X4846068Y3588926D01*
X4846013Y3588815D01*
X4845847Y3588649D01*
X4845681Y3588372D01*
X4845459Y3587984D01*
X4845182Y3587597D01*
X4844905Y3587043D01*
X4844629Y3586489D01*
X4844407Y3585769D01*
X4844130Y3584994D01*
X4843853Y3584164D01*
X4843632Y3583222D01*
X4843466Y3582225D01*
X4843300Y3581118D01*
X4843244Y3579900D01*
X4843189Y3578626D01*
Y3558471D01*
X4864341D01*
Y3577519D01*
X4864286Y3578017D01*
Y3578571D01*
X4864230Y3579180D01*
X4864175Y3579845D01*
X4864064Y3581340D01*
X4863843Y3582835D01*
X4863566Y3584274D01*
X4863400Y3584939D01*
X4863178Y3585603D01*
Y3585659D01*
X4863123Y3585769D01*
X4863067Y3585935D01*
X4862957Y3586157D01*
X4862680Y3586711D01*
X4862237Y3587430D01*
X4861683Y3588261D01*
X4861074Y3589092D01*
X4860244Y3589867D01*
X4859358Y3590587D01*
X4859302D01*
X4859247Y3590642D01*
X4859081Y3590753D01*
X4858915Y3590864D01*
X4858361Y3591140D01*
X4857641Y3591473D01*
X4856755Y3591749D01*
X4855814Y3592026D01*
X4854762Y3592248D01*
X4853599Y3592303D01*
D02*
G37*
G36*
X4878738Y2894851D02*
X4878682D01*
X4878461D01*
X4878073D01*
X4877630Y2894796D01*
X4877077Y2894740D01*
X4876412Y2894685D01*
X4875692Y2894574D01*
X4874917Y2894408D01*
X4873256Y2893965D01*
X4872370Y2893688D01*
X4871539Y2893356D01*
X4870653Y2892969D01*
X4869823Y2892470D01*
X4868992Y2891916D01*
X4868272Y2891307D01*
X4868217Y2891252D01*
X4868106Y2891141D01*
X4867940Y2890975D01*
X4867663Y2890698D01*
X4867387Y2890311D01*
X4867054Y2889923D01*
X4866722Y2889425D01*
X4866334Y2888871D01*
X4866002Y2888262D01*
X4865670Y2887597D01*
X4865338Y2886878D01*
X4865061Y2886102D01*
X4864784Y2885272D01*
X4864618Y2884386D01*
X4864507Y2883445D01*
X4864452Y2882448D01*
Y2881950D01*
X4864507Y2881562D01*
X4864563Y2881119D01*
X4864673Y2880565D01*
X4864784Y2879956D01*
X4864950Y2879347D01*
X4865116Y2878627D01*
X4865393Y2877907D01*
X4865670Y2877188D01*
X4866058Y2876412D01*
X4866501Y2875637D01*
X4866999Y2874862D01*
X4867608Y2874142D01*
X4868272Y2873422D01*
X4868328Y2873367D01*
X4868439Y2873256D01*
X4868660Y2873090D01*
X4868937Y2872869D01*
X4869325Y2872592D01*
X4869823Y2872259D01*
X4870321Y2871927D01*
X4870930Y2871595D01*
X4871650Y2871263D01*
X4872370Y2870931D01*
X4873201Y2870598D01*
X4874087Y2870321D01*
X4875083Y2870100D01*
X4876080Y2869934D01*
X4877132Y2869823D01*
X4878295Y2869768D01*
X4878350D01*
X4878461D01*
X4878682D01*
X4878959Y2869823D01*
X4879347D01*
X4879790Y2869878D01*
X4880233Y2869934D01*
X4880787Y2869989D01*
X4881949Y2870211D01*
X4883278Y2870488D01*
X4884663Y2870931D01*
X4886047Y2871484D01*
X4886102D01*
X4886213Y2871540D01*
X4886379Y2871650D01*
X4886656Y2871816D01*
X4887320Y2872204D01*
X4888151Y2872702D01*
X4889037Y2873422D01*
X4889978Y2874197D01*
X4890920Y2875194D01*
X4891695Y2876246D01*
Y2876302D01*
X4891750Y2876412D01*
X4891861Y2876578D01*
X4891972Y2876800D01*
X4892138Y2877077D01*
X4892304Y2877409D01*
X4892636Y2878240D01*
X4892968Y2879181D01*
X4893301Y2880288D01*
X4893522Y2881451D01*
X4893577Y2882725D01*
Y2882946D01*
X4893522Y2883223D01*
Y2883555D01*
X4893467Y2883998D01*
X4893356Y2884497D01*
X4893245Y2885050D01*
X4893079Y2885659D01*
X4892858Y2886324D01*
X4892581Y2886988D01*
X4892304Y2887708D01*
X4891916Y2888428D01*
X4891418Y2889148D01*
X4890920Y2889868D01*
X4890311Y2890588D01*
X4889591Y2891252D01*
X4889535Y2891307D01*
X4889425Y2891418D01*
X4889203Y2891584D01*
X4888871Y2891806D01*
X4888428Y2892083D01*
X4887985Y2892415D01*
X4887376Y2892692D01*
X4886711Y2893079D01*
X4885991Y2893412D01*
X4885161Y2893688D01*
X4884275Y2894021D01*
X4883334Y2894297D01*
X4882282Y2894519D01*
X4881174Y2894685D01*
X4880011Y2894796D01*
X4878738Y2894851D01*
D02*
G37*
G36*
X4852547Y2842303D02*
X4852491D01*
X4852325D01*
X4852104D01*
X4851772Y2842248D01*
X4851384Y2842192D01*
X4850941Y2842137D01*
X4849889Y2841916D01*
X4848726Y2841473D01*
X4848117Y2841251D01*
X4847453Y2840919D01*
X4846843Y2840531D01*
X4846234Y2840088D01*
X4845625Y2839590D01*
X4845072Y2838981D01*
X4845016Y2838925D01*
X4844961Y2838815D01*
X4844795Y2838649D01*
X4844629Y2838372D01*
X4844407Y2837984D01*
X4844130Y2837597D01*
X4843853Y2837043D01*
X4843577Y2836489D01*
X4843355Y2835769D01*
X4843078Y2834994D01*
X4842801Y2834163D01*
X4842580Y2833222D01*
X4842414Y2832225D01*
X4842248Y2831118D01*
X4842192Y2829900D01*
X4842137Y2828626D01*
Y2808471D01*
X4863289D01*
Y2827519D01*
X4863234Y2828017D01*
Y2828571D01*
X4863178Y2829180D01*
X4863123Y2829844D01*
X4863012Y2831340D01*
X4862791Y2832835D01*
X4862514Y2834274D01*
X4862348Y2834939D01*
X4862126Y2835603D01*
Y2835659D01*
X4862071Y2835769D01*
X4862015Y2835935D01*
X4861905Y2836157D01*
X4861628Y2836711D01*
X4861185Y2837430D01*
X4860631Y2838261D01*
X4860022Y2839092D01*
X4859191Y2839867D01*
X4858305Y2840587D01*
X4858250D01*
X4858195Y2840642D01*
X4858029Y2840753D01*
X4857863Y2840864D01*
X4857309Y2841140D01*
X4856589Y2841473D01*
X4855703Y2841749D01*
X4854762Y2842026D01*
X4853710Y2842248D01*
X4852547Y2842303D01*
D02*
G37*
%LPD*%
D40*
X4822500Y3060000D02*
Y3340000D01*
X4977500D01*
Y3060000D02*
Y3340000D01*
X4822500Y3060000D02*
X4977500D01*
X4852939Y2217158D02*
Y2462158D01*
X4972939D01*
Y2217158D02*
Y2462158D01*
X4852939Y2217158D02*
X4972939D01*
X4822500Y3410000D02*
Y3690000D01*
X4977500D01*
Y3410000D02*
Y3690000D01*
X4822500Y3410000D02*
X4977500D01*
X4822500Y2660000D02*
Y2940000D01*
X4977500D01*
Y2660000D02*
Y2940000D01*
X4822500Y2660000D02*
X4977500D01*
%TF.MD5,5de3616afefc5214a552a9b153de95b2*%
M02*
