%TF.GenerationSoftware,Altium Limited,Altium Designer,26.2.0 (7)*%
G04 Layer_Color=32768*
%FSLAX45Y45*%
%MOMM*%
%TF.SameCoordinates,DD637A2D-7E0C-40B3-9281-A5126D6BEA63*%
%TF.FilePolarity,Positive*%
%TF.FileFunction,Other,Top_Courtyard*%
%TF.Part,Single*%
G01*
G75*
%TA.AperFunction,NonConductor*%
%ADD40C,0.20000*%
%ADD42C,0.10000*%
%ADD67C,0.05000*%
D40*
X4822500Y3060000D02*
Y3340000D01*
X4977500D01*
Y3060000D02*
Y3340000D01*
X4822500Y3060000D02*
X4977500D01*
X4852939Y2217158D02*
Y2462158D01*
X4972939D01*
Y2217158D02*
Y2462158D01*
X4852939Y2217158D02*
X4972939D01*
X4822500Y3410000D02*
Y3690000D01*
X4977500D01*
Y3410000D02*
Y3690000D01*
X4822500Y3410000D02*
X4977500D01*
X4822500Y2660000D02*
Y2940000D01*
X4977500D01*
Y2660000D02*
Y2940000D01*
X4822500Y2660000D02*
X4977500D01*
D42*
X4592500Y2330000D02*
Y3470000D01*
X3507500Y2330000D02*
X4592500D01*
X3507500D02*
Y3470000D01*
X4592500D01*
X1192500Y2330000D02*
Y3470000D01*
X107500Y2330000D02*
X1192500D01*
X107500D02*
Y3470000D01*
X1192500D01*
Y4180000D02*
Y5320000D01*
X107500Y4180000D02*
X1192500D01*
X107500D02*
Y5320000D01*
X1192500D01*
X-2207500Y2330000D02*
Y3470000D01*
X-3292500Y2330000D02*
X-2207500D01*
X-3292500D02*
Y3470000D01*
X-2207500D01*
Y4180000D02*
Y5320000D01*
X-3292500Y4180000D02*
X-2207500D01*
X-3292500D02*
Y5320000D01*
X-2207500D01*
X4592500Y4180000D02*
Y5320000D01*
X3507500Y4180000D02*
X4592500D01*
X3507500D02*
Y5320000D01*
X4592500D01*
X-3317900Y4180000D02*
Y5320000D01*
X-4402900Y4180000D02*
X-3317900D01*
X-4402900D02*
Y5320000D01*
X-3317900D01*
X-1097099Y4180000D02*
Y5320000D01*
X-2182100Y4180000D02*
X-1097099D01*
X-2182100D02*
Y5320000D01*
X-1097099D01*
X13301Y4180000D02*
Y5320000D01*
X-1071699Y4180000D02*
X13301D01*
X-1071699D02*
Y5320000D01*
X13301D01*
X2332100Y4180000D02*
Y5320000D01*
X1247100Y4180000D02*
X2332100D01*
X1247100D02*
Y5320000D01*
X2332100D01*
X3442500Y4180000D02*
Y5320000D01*
X2357500Y4180000D02*
X3442500D01*
X2357500D02*
Y5320000D01*
X3442500D01*
X4200000Y5800000D02*
Y7000000D01*
Y5800000D02*
X5400000D01*
Y7000000D01*
X4200000D02*
X5400000D01*
X-5400000Y0D02*
Y1200000D01*
Y0D02*
X-4200000D01*
Y1200000D01*
X-5400000D02*
X-4200000D01*
X4200000Y0D02*
Y1200000D01*
Y0D02*
X5400000D01*
Y1200000D01*
X4200000D02*
X5400000D01*
X-5400000Y5800000D02*
Y7000000D01*
Y5800000D02*
X-4200000D01*
Y7000000D01*
X-5400000D02*
X-4200000D01*
D67*
X-3491000Y6009000D02*
Y6991000D01*
X-2509000D01*
Y6009000D02*
Y6991000D01*
X-3491000Y6009000D02*
X-2509000D01*
X-3000000Y6450000D02*
Y6550000D01*
X-3050000Y6500000D02*
X-2950000D01*
X-491000Y6009000D02*
Y6991000D01*
X491000D01*
Y6009000D02*
Y6991000D01*
X-491000Y6009000D02*
X491000D01*
X0Y6450000D02*
Y6550000D01*
X-50000Y6500000D02*
X50000D01*
X2509000Y6009000D02*
Y6991000D01*
X3491000D01*
Y6009000D02*
Y6991000D01*
X2509000Y6009000D02*
X3491000D01*
X3000000Y6450000D02*
Y6550000D01*
X2950000Y6500000D02*
X3050000D01*
X-5700000Y1950000D02*
Y2050000D01*
X-5750000Y2000000D02*
X-5650000D01*
X-5750000Y5000000D02*
X-5650000D01*
X-5700000Y4950000D02*
Y5050000D01*
X5700000Y1950000D02*
Y2050000D01*
X5650000Y2000000D02*
X5750000D01*
X5650000Y5000000D02*
X5750000D01*
X5700000Y4950000D02*
Y5050000D01*
%TF.MD5,121a483d01827716327b069839f7e527*%
M02*
