%TF.GenerationSoftware,Altium Limited,Altium Designer,26.2.0 (7)*%
G04 Layer_Physical_Order=1*
G04 Layer_Color=255*
%FSLAX45Y45*%
%MOMM*%
%TF.SameCoordinates,DD637A2D-7E0C-40B3-9281-A5126D6BEA63*%
%TF.FilePolarity,Positive*%
%TF.FileFunction,Copper,L1,Top,Signal*%
%TF.Part,Single*%
G01*
G75*
%TA.AperFunction,SMDPad,CuDef*%
%ADD10R,8.85000X2.45000*%
%ADD11R,1.15000X0.70000*%
%ADD12R,1.00000X0.75000*%
%TA.AperFunction,Conductor*%
%ADD13C,0.25400*%
%ADD14R,6.00000X36.00000*%
%TA.AperFunction,ComponentPad*%
%ADD15C,1.06000*%
%ADD16R,1.06000X1.06000*%
%ADD17C,1.06680*%
%ADD18C,1.80000*%
%ADD19C,5.00000*%
%ADD20C,6.00000*%
%ADD21C,2.21300*%
%ADD22R,2.21300X2.21300*%
%TA.AperFunction,ViaPad*%
%ADD23C,0.63500*%
%ADD24C,0.50000*%
%ADD25C,0.45000*%
G36*
X5300000Y6899999D02*
X5309849D01*
X5329169Y6896156D01*
X5347368Y6888618D01*
X5363746Y6877674D01*
X5377675Y6863746D01*
X5388619Y6847367D01*
X5396157Y6829168D01*
X5400000Y6809849D01*
Y6800000D01*
X5400000Y6000000D01*
D01*
Y5989122D01*
Y5900000D01*
X5400000D01*
Y5890151D01*
X5396157Y5870831D01*
X5388619Y5852632D01*
X5377675Y5836254D01*
X5363746Y5822325D01*
X5347368Y5811381D01*
X5329169Y5803843D01*
X5309849Y5800000D01*
X5300000D01*
X5153999D01*
X5129104Y5798777D01*
X5080268Y5789063D01*
X5034265Y5770008D01*
X4992864Y5742345D01*
X4957655Y5707136D01*
X4929992Y5665735D01*
X4910937Y5619732D01*
X4901223Y5570896D01*
X4900000Y5546000D01*
X4900000Y5050000D01*
X4900000Y5040151D01*
X4896157Y5020831D01*
X4888619Y5002632D01*
X4877675Y4986253D01*
X4863746Y4972324D01*
X4847367Y4961381D01*
X4829168Y4953843D01*
X4818403Y4951702D01*
X4800000Y4950000D01*
X4799999Y4950001D01*
Y4950000D01*
X-4809849D01*
X-4829169Y4953843D01*
X-4847368Y4961381D01*
X-4863746Y4972325D01*
X-4877675Y4986253D01*
X-4888619Y5002632D01*
X-4896157Y5020831D01*
X-4900000Y5040150D01*
X-4900000Y5050000D01*
X-4900000Y5050000D01*
Y5546000D01*
X-4901223Y5570896D01*
X-4910937Y5619732D01*
X-4929992Y5665735D01*
X-4957656Y5707136D01*
X-4992864Y5742345D01*
X-5034266Y5770008D01*
X-5080268Y5789063D01*
X-5129104Y5798777D01*
X-5153996Y5800000D01*
X-5300000D01*
X-5300001Y5800000D01*
X-5309849Y5800000D01*
D01*
X-5309850D01*
X-5329170Y5803843D01*
X-5347369Y5811381D01*
X-5363747Y5822325D01*
X-5377676Y5836254D01*
X-5388620Y5852632D01*
X-5396158Y5870831D01*
X-5400001Y5890151D01*
X-5400000Y5900000D01*
Y6799999D01*
X-5400000Y6800000D01*
X-5398135Y6819227D01*
X-5396158Y6829168D01*
X-5388620Y6847367D01*
X-5377676Y6863746D01*
X-5363747Y6877675D01*
X-5347369Y6888618D01*
X-5329170Y6896157D01*
X-5309850Y6900000D01*
X-5300001Y6899999D01*
X-4300000Y6900000D01*
Y6899999D01*
X-4290151D01*
X-4270831Y6896156D01*
X-4252633Y6888618D01*
X-4236254Y6877674D01*
X-4222325Y6863746D01*
X-4211381Y6847367D01*
X-4203843Y6829168D01*
X-4200000Y6809849D01*
Y6800000D01*
X-4200000Y6000000D01*
D01*
X-4199037Y5980396D01*
X-4191389Y5941943D01*
X-4176386Y5905720D01*
X-4154604Y5873121D01*
X-4126880Y5845398D01*
X-4094281Y5823615D01*
X-4058059Y5808611D01*
X-4019606Y5800963D01*
X-4000002Y5800000D01*
X4000000D01*
X4019603Y5800963D01*
X4058057Y5808612D01*
X4094279Y5823616D01*
X4126878Y5845398D01*
X4154602Y5873121D01*
X4176384Y5905720D01*
X4191388Y5941943D01*
X4199037Y5980396D01*
X4200000Y6000000D01*
D01*
Y6799999D01*
X4200000Y6800000D01*
X4201865Y6819227D01*
X4203842Y6829168D01*
X4211380Y6847367D01*
X4222324Y6863746D01*
X4236253Y6877675D01*
X4252632Y6888618D01*
X4270830Y6896157D01*
X4290150Y6900000D01*
X4300000Y6899999D01*
X5300000Y6900000D01*
Y6899999D01*
D02*
G37*
G36*
X2000000Y6300000D02*
X1000000D01*
Y6968924D01*
X2000000D01*
Y6300000D01*
D02*
G37*
G36*
X-1000000D02*
X-2000000D01*
Y6968924D01*
X-1000000D01*
Y6300000D01*
D02*
G37*
G36*
X3500000Y6100000D02*
Y6090151D01*
X3496157Y6070831D01*
X3488619Y6052632D01*
X3477675Y6036254D01*
X3463746Y6022325D01*
X3447368Y6011381D01*
X3429169Y6003843D01*
X3409849Y6000000D01*
X3400000D01*
Y6000000D01*
X2600000D01*
X2590151Y6000000D01*
X2570831Y6003842D01*
X2552632Y6011381D01*
X2536254Y6022324D01*
X2522325Y6036253D01*
X2511381Y6052631D01*
X2503843Y6070830D01*
X2500000Y6090150D01*
X2500000Y6099999D01*
Y6100000D01*
Y6968924D01*
X3500000D01*
X3500000Y6100000D01*
D02*
G37*
G36*
X500000D02*
Y6090151D01*
X496157Y6070831D01*
X488619Y6052632D01*
X477675Y6036254D01*
X463746Y6022325D01*
X447368Y6011381D01*
X429169Y6003843D01*
X409849Y6000000D01*
X400000D01*
Y6000000D01*
X-400000D01*
X-409849Y6000000D01*
X-429169Y6003842D01*
X-447368Y6011381D01*
X-463746Y6022324D01*
X-477675Y6036253D01*
X-488619Y6052631D01*
X-496157Y6070830D01*
X-500000Y6090150D01*
X-500000Y6099999D01*
Y6100000D01*
Y6968924D01*
X500000D01*
X500000Y6100000D01*
D02*
G37*
G36*
X-2500000D02*
Y6090151D01*
X-2503843Y6070831D01*
X-2511382Y6052632D01*
X-2522325Y6036254D01*
X-2536254Y6022325D01*
X-2552632Y6011381D01*
X-2570831Y6003843D01*
X-2590151Y6000000D01*
X-2600000D01*
Y6000000D01*
X-3400000D01*
X-3409849Y6000000D01*
X-3429169Y6003842D01*
X-3447368Y6011381D01*
X-3463746Y6022324D01*
X-3477675Y6036253D01*
X-3488619Y6052631D01*
X-3496157Y6070830D01*
X-3500000Y6090150D01*
X-3500000Y6099999D01*
Y6100000D01*
Y6968924D01*
X-2500000D01*
X-2500000Y6100000D01*
D02*
G37*
G36*
X-4800001Y4749998D02*
X4699996Y4749999D01*
X4699998Y4749996D01*
X4699998Y4749996D01*
X4700030D01*
X4718627Y4748251D01*
X4729167Y4746155D01*
X4747366Y4738618D01*
X4763745Y4727675D01*
X4777674Y4713747D01*
X4788618Y4697369D01*
X4796157Y4679170D01*
X4799999Y4659850D01*
X4799999Y4650001D01*
X4799997Y3874998D01*
X4799995Y3874998D01*
X4799996Y3861538D01*
X4793088Y3835521D01*
X4779733Y3812148D01*
X4760826Y3792987D01*
X4749230Y3786153D01*
X4749230Y3786152D01*
X4738507Y3778857D01*
X4720327Y3760432D01*
X4707485Y3737959D01*
X4700841Y3712942D01*
X4700000Y3700000D01*
Y3500000D01*
D01*
X4699999Y2199999D01*
X4690198Y2199518D01*
X4670971Y2195693D01*
X4652860Y2188191D01*
X4636560Y2177300D01*
X4622698Y2163439D01*
X4611807Y2147139D01*
X4604305Y2129028D01*
X4600481Y2109801D01*
X4600000Y2099999D01*
Y1500000D01*
X4600963Y1480397D01*
X4608612Y1441943D01*
X4623616Y1405721D01*
X4645398Y1373121D01*
X4673121Y1345398D01*
X4705720Y1323616D01*
X4741943Y1308612D01*
X4780396Y1300963D01*
X4800000Y1300000D01*
X4800000Y1300000D01*
X5299998D01*
X5299999Y1299998D01*
X5299999Y1299999D01*
X5300011D01*
X5318726Y1298233D01*
X5329168Y1296156D01*
X5347367Y1288618D01*
X5363746Y1277675D01*
X5377675Y1263746D01*
X5388618Y1247367D01*
X5396157Y1229168D01*
X5400000Y1209849D01*
Y1200000D01*
X5400000Y200000D01*
X5400000D01*
Y190150D01*
X5396157Y170831D01*
X5388619Y152632D01*
X5377675Y136253D01*
X5363746Y122325D01*
X5347368Y111381D01*
X5329169Y103843D01*
X5309849Y100000D01*
X-5309849D01*
X-5329169Y103843D01*
X-5347368Y111381D01*
X-5363746Y122325D01*
X-5377675Y136254D01*
X-5388619Y152632D01*
X-5396157Y170831D01*
X-5400000Y190151D01*
Y200000D01*
X-5400000Y1200000D01*
Y1209849D01*
X-5396158Y1229169D01*
X-5388619Y1247368D01*
X-5377676Y1263746D01*
X-5363747Y1277675D01*
X-5347368Y1288619D01*
X-5329169Y1296157D01*
X-5309850Y1300000D01*
X-3699999D01*
D01*
X-3680397Y1300963D01*
X-3641943Y1308611D01*
X-3605720Y1323615D01*
X-3573121Y1345397D01*
X-3545397Y1373120D01*
X-3523615Y1405720D01*
X-3508611Y1441943D01*
X-3500963Y1480396D01*
X-3500000Y1500000D01*
X-3500000Y3500000D01*
X-3500000D01*
Y3600000D01*
X-3500000D01*
D01*
X-3299987D01*
X-3290199Y3600480D01*
X-3280961Y3602318D01*
X-3270972Y3604305D01*
X-3252860Y3611806D01*
X-3236560Y3622697D01*
X-3222698Y3636559D01*
X-3211807Y3652859D01*
X-3204306Y3670971D01*
X-3200482Y3690198D01*
X-3200000Y3700000D01*
X-3200000Y4000000D01*
Y4100000D01*
X-3200000D01*
X-3200482Y4109802D01*
X-3204306Y4129028D01*
X-3211808Y4147139D01*
X-3222699Y4163439D01*
X-3236561Y4177300D01*
X-3252860Y4188191D01*
X-3270971Y4195693D01*
X-3290198Y4199518D01*
X-3299999Y4199999D01*
X-4800000Y4199999D01*
X-4809849Y4199999D01*
X-4829169Y4203842D01*
X-4847368Y4211380D01*
X-4863747Y4222324D01*
X-4877676Y4236253D01*
X-4888619Y4252632D01*
X-4896157Y4270830D01*
X-4900000Y4290150D01*
X-4900000Y4299999D01*
X-4900000Y4649997D01*
X-4898138Y4669228D01*
X-4896162Y4679168D01*
X-4888625Y4697369D01*
X-4877682Y4713749D01*
X-4863753Y4727679D01*
X-4847373Y4738622D01*
X-4829172Y4746160D01*
X-4809851Y4750000D01*
X-4800001Y4749998D01*
D02*
G37*
G36*
X-3900000Y1700000D02*
X-5500000D01*
Y3800000D01*
X-3900000D01*
Y1700000D01*
D02*
G37*
%LPC*%
G36*
X1600000Y4199999D02*
X1599998Y4199998D01*
X1580395Y4199035D01*
X1541942Y4191386D01*
X1505720Y4176383D01*
X1473121Y4154601D01*
X1445398Y4126877D01*
X1423616Y4094278D01*
X1408612Y4058056D01*
X1400963Y4019603D01*
X1400000Y4000000D01*
Y3600000D01*
Y1500000D01*
X1400963Y1480396D01*
X1408612Y1441942D01*
X1423615Y1405720D01*
X1445397Y1373121D01*
X1473121Y1345397D01*
X1505720Y1323615D01*
X1541943Y1308612D01*
X1580396Y1300963D01*
X1600000Y1300000D01*
X3099999D01*
X3119602Y1300962D01*
X3158056Y1308610D01*
X3194279Y1323613D01*
X3226879Y1345395D01*
X3254603Y1373119D01*
X3276385Y1405719D01*
X3291388Y1441941D01*
X3299036Y1480396D01*
X3299999Y1499999D01*
X3300000Y1500000D01*
X3300000Y3500000D01*
X3300000D01*
Y3600000D01*
X3481058Y3600000D01*
X3497052Y3600000D01*
X3500000D01*
X3500000Y3600000D01*
X3509801Y3600480D01*
X3519040Y3602317D01*
X3529029Y3604303D01*
X3547141Y3611804D01*
X3563442Y3622695D01*
X3577304Y3636557D01*
X3588195Y3652857D01*
X3595696Y3670970D01*
X3599519Y3690198D01*
X3599999Y3700000D01*
X3599996Y3999997D01*
X3599996Y3999997D01*
X3599994Y3999998D01*
X3599033Y4019600D01*
X3591387Y4058055D01*
X3576386Y4094279D01*
X3554605Y4126879D01*
X3526881Y4154604D01*
X3494281Y4176386D01*
X3458058Y4191390D01*
X3419604Y4199037D01*
X3400000Y4199999D01*
X1600000Y4199999D01*
D02*
G37*
G36*
X4500000Y3500000D02*
X3599998D01*
Y3499998D01*
X3590197Y3499517D01*
X3570971Y3495692D01*
X3552860Y3488191D01*
X3536560Y3477300D01*
X3522699Y3463438D01*
X3511808Y3447139D01*
X3504306Y3429028D01*
X3500481Y3409801D01*
X3500000Y3400000D01*
Y3099999D01*
X3500481Y3090198D01*
X3504306Y3070971D01*
X3511808Y3052860D01*
X3522699Y3036560D01*
X3536560Y3022699D01*
X3552860Y3011808D01*
X3570971Y3004306D01*
X3590198Y3000482D01*
X3599999Y3000000D01*
X3600000Y3000000D01*
X4499999Y3000000D01*
X4509801Y3000482D01*
X4529028Y3004306D01*
X4547139Y3011808D01*
X4563439Y3022699D01*
X4577300Y3036560D01*
X4588191Y3052860D01*
X4595693Y3070971D01*
X4599518Y3090198D01*
X4599999Y3099999D01*
X4600000Y3100000D01*
X4599998Y3399999D01*
X4599517Y3409801D01*
X4595693Y3429027D01*
X4588191Y3447139D01*
X4577300Y3463439D01*
X4563439Y3477300D01*
X4547139Y3488192D01*
X4529028Y3495694D01*
X4518369Y3497814D01*
X4509801Y3499518D01*
X4500010Y3499999D01*
X4500000Y3500000D01*
Y3500000D01*
D02*
G37*
G36*
X1100000D02*
X200000Y3500000D01*
X200000Y3499999D01*
X190198Y3499518D01*
X170971Y3495693D01*
X152860Y3488191D01*
X136561Y3477300D01*
X122699Y3463439D01*
X111808Y3447139D01*
X104306Y3429028D01*
X100482Y3409802D01*
X100000Y3400000D01*
X100000Y3100000D01*
X100481Y3090198D01*
X104306Y3070971D01*
X111807Y3052860D01*
X122699Y3036560D01*
X136560Y3022699D01*
X152860Y3011808D01*
X170971Y3004306D01*
X190198Y3000481D01*
X200000Y3000000D01*
X1100000D01*
Y3000000D01*
X1109802Y3000482D01*
X1129028Y3004306D01*
X1147139Y3011808D01*
X1163439Y3022699D01*
X1177301Y3036561D01*
X1188192Y3052861D01*
X1195694Y3070972D01*
X1199518Y3090198D01*
X1200000Y3100000D01*
X1200000Y3400000D01*
X1200000Y3400000D01*
X1200000Y3400000D01*
X1199999Y3400010D01*
X1199518Y3409801D01*
X1197814Y3418369D01*
X1195694Y3429028D01*
X1188192Y3447139D01*
X1177301Y3463439D01*
X1163439Y3477301D01*
X1147139Y3488192D01*
X1129028Y3495694D01*
X1109801Y3499518D01*
X1100000Y3500000D01*
Y3500000D01*
D02*
G37*
G36*
X-2300000D02*
X-3200000Y3500000D01*
X-3200001Y3499999D01*
X-3209802Y3499518D01*
X-3229029Y3495693D01*
X-3247140Y3488191D01*
X-3263439Y3477300D01*
X-3277301Y3463439D01*
X-3288192Y3447139D01*
X-3295694Y3429028D01*
X-3299519Y3409802D01*
X-3300000Y3400000D01*
Y3100000D01*
X-3299519Y3090198D01*
X-3295694Y3070971D01*
X-3288193Y3052860D01*
X-3277302Y3036560D01*
X-3263440Y3022699D01*
X-3247140Y3011808D01*
X-3229029Y3004306D01*
X-3209802Y3000481D01*
X-3200001Y3000000D01*
X-2300000D01*
X-2290199Y3000481D01*
X-2270972Y3004306D01*
X-2252861Y3011808D01*
X-2236561Y3022699D01*
X-2222699Y3036561D01*
X-2211808Y3052860D01*
X-2204306Y3070972D01*
X-2200482Y3090198D01*
X-2200000Y3100000D01*
X-2200000Y3400000D01*
X-2200000Y3400000D01*
X-2200000Y3400000D01*
X-2200001Y3400010D01*
X-2200482Y3409801D01*
X-2202186Y3418369D01*
X-2204306Y3429028D01*
X-2211808Y3447139D01*
X-2222699Y3463439D01*
X-2236561Y3477301D01*
X-2252861Y3488192D01*
X-2270972Y3495694D01*
X-2290199Y3499518D01*
X-2300000Y3500000D01*
Y3500000D01*
D02*
G37*
G36*
X-3336394Y2066840D02*
X-3363604D01*
X-3389887Y2059798D01*
X-3413452Y2046193D01*
X-3432692Y2026953D01*
X-3446297Y2003388D01*
X-3453339Y1977105D01*
Y1949895D01*
X-3446297Y1923613D01*
X-3432692Y1900048D01*
X-3432644Y1900000D01*
X-3432692Y1899953D01*
X-3446297Y1876388D01*
X-3453339Y1850105D01*
Y1822895D01*
X-3446297Y1796613D01*
X-3432692Y1773048D01*
X-3413452Y1753808D01*
X-3389887Y1740203D01*
X-3363604Y1733160D01*
X-3336394D01*
X-3310112Y1740203D01*
X-3286547Y1753808D01*
X-3267307Y1773048D01*
X-3253702Y1796613D01*
X-3246659Y1822895D01*
Y1850105D01*
X-3253702Y1876388D01*
X-3267307Y1899953D01*
X-3267355Y1900000D01*
X-3267307Y1900048D01*
X-3253702Y1923613D01*
X-3246659Y1949895D01*
Y1977105D01*
X-3253702Y2003388D01*
X-3267307Y2026953D01*
X-3286547Y2046193D01*
X-3310112Y2059798D01*
X-3336394Y2066840D01*
D02*
G37*
G36*
X3463605Y2066840D02*
X3436395D01*
X3410112Y2059798D01*
X3386548Y2046193D01*
X3367307Y2026952D01*
X3353702Y2003388D01*
X3346660Y1977105D01*
Y1949895D01*
X3353702Y1923612D01*
X3367307Y1900048D01*
X3367355Y1900000D01*
X3367307Y1899952D01*
X3353702Y1876388D01*
X3346660Y1850105D01*
Y1822895D01*
X3353702Y1796612D01*
X3367307Y1773048D01*
X3386548Y1753808D01*
X3410112Y1740203D01*
X3436395Y1733160D01*
X3463605D01*
X3489888Y1740203D01*
X3513452Y1753808D01*
X3532692Y1773048D01*
X3546297Y1796612D01*
X3553340Y1822895D01*
Y1850105D01*
X3546297Y1876388D01*
X3532692Y1899952D01*
X3532645Y1900000D01*
X3532692Y1900048D01*
X3546297Y1923612D01*
X3553340Y1949895D01*
Y1977105D01*
X3546297Y2003388D01*
X3532692Y2026952D01*
X3513452Y2046193D01*
X3489888Y2059798D01*
X3463605Y2066840D01*
D02*
G37*
G36*
X63605D02*
X36395D01*
X10112Y2059798D01*
X-13452Y2046193D01*
X-32693Y2026952D01*
X-46298Y2003388D01*
X-53340Y1977105D01*
Y1949895D01*
X-46298Y1923612D01*
X-32693Y1900048D01*
X-32645Y1900000D01*
X-32693Y1899952D01*
X-46298Y1876388D01*
X-53340Y1850105D01*
Y1822895D01*
X-46298Y1796612D01*
X-32693Y1773048D01*
X-13452Y1753808D01*
X10112Y1740203D01*
X36395Y1733160D01*
X63605D01*
X89888Y1740203D01*
X113452Y1753808D01*
X132692Y1773048D01*
X146297Y1796612D01*
X153340Y1822895D01*
Y1850105D01*
X146297Y1876388D01*
X132692Y1899952D01*
X132645Y1900000D01*
X132692Y1900048D01*
X146297Y1923612D01*
X153340Y1949895D01*
Y1977105D01*
X146297Y2003388D01*
X132692Y2026952D01*
X113452Y2046193D01*
X89888Y2059798D01*
X63605Y2066840D01*
D02*
G37*
G36*
X-1800000Y4200000D02*
X-1800001Y4199998D01*
X-1819605Y4199035D01*
X-1858058Y4191387D01*
X-1894280Y4176383D01*
X-1926879Y4154601D01*
X-1954602Y4126877D01*
X-1976384Y4094278D01*
X-1991388Y4058056D01*
X-1999037Y4019603D01*
X-2000000Y4000000D01*
Y3600000D01*
Y1500000D01*
X-1999037Y1480396D01*
X-1991388Y1441942D01*
X-1976385Y1405720D01*
X-1954603Y1373121D01*
X-1926879Y1345397D01*
X-1894280Y1323615D01*
X-1858057Y1308612D01*
X-1819604Y1300963D01*
X-1800000Y1300000D01*
X-299999D01*
D01*
X-280397Y1300963D01*
X-241943Y1308611D01*
X-205720Y1323615D01*
X-173121Y1345397D01*
X-145397Y1373120D01*
X-123615Y1405720D01*
X-108611Y1441943D01*
X-100963Y1480396D01*
X-100000Y1500000D01*
X-100000Y3500000D01*
X-100000D01*
Y3600000D01*
X99998D01*
X109800Y3600480D01*
X129028Y3604303D01*
X147141Y3611804D01*
X163441Y3622695D01*
X177304Y3636557D01*
X188195Y3652858D01*
X195696Y3670970D01*
X199519Y3690198D01*
X199999Y3700000D01*
X199999Y3999999D01*
X199999Y3999999D01*
X199997Y4000000D01*
X199036Y4019602D01*
X191391Y4058057D01*
X176389Y4094281D01*
X154607Y4126882D01*
X126883Y4154607D01*
X94282Y4176389D01*
X58058Y4191391D01*
X19603Y4199038D01*
X-1Y4199999D01*
X-1800000Y4200000D01*
D02*
G37*
%LPD*%
G36*
X2900000Y1700000D02*
X1800000D01*
Y3800000D01*
X2900000D01*
Y1700000D01*
D02*
G37*
%LPC*%
G36*
X2808951Y3470000D02*
X2791049D01*
X2774510Y3463149D01*
X2761851Y3450490D01*
X2755000Y3433951D01*
Y3416049D01*
X2761851Y3399510D01*
X2774510Y3386851D01*
X2791049Y3380000D01*
X2808951D01*
X2825490Y3386851D01*
X2838149Y3399510D01*
X2845000Y3416049D01*
Y3433951D01*
X2838149Y3450490D01*
X2825490Y3463149D01*
X2808951Y3470000D01*
D02*
G37*
G36*
X2533951D02*
X2516049D01*
X2499510Y3463149D01*
X2486851Y3450490D01*
X2480000Y3433951D01*
Y3416049D01*
X2486851Y3399510D01*
X2499510Y3386851D01*
X2516049Y3380000D01*
X2533951D01*
X2550490Y3386851D01*
X2563149Y3399510D01*
X2570000Y3416049D01*
Y3433951D01*
X2563149Y3450490D01*
X2550490Y3463149D01*
X2533951Y3470000D01*
D02*
G37*
G36*
X2408951Y3466780D02*
X2391049D01*
X2374510Y3459929D01*
X2361851Y3447270D01*
X2355000Y3430731D01*
Y3412829D01*
X2361851Y3396289D01*
X2374510Y3383631D01*
X2391049Y3376780D01*
X2408951D01*
X2425490Y3383631D01*
X2438149Y3396289D01*
X2445000Y3412829D01*
Y3430731D01*
X2438149Y3447270D01*
X2425490Y3459929D01*
X2408951Y3466780D01*
D02*
G37*
G36*
X2283951Y3470000D02*
X2266049D01*
X2249510Y3463149D01*
X2236851Y3450490D01*
X2230412Y3434944D01*
X2230000Y3433951D01*
X2212171Y3422500D01*
X2194269D01*
X2177730Y3415649D01*
X2165071Y3402990D01*
X2158220Y3386451D01*
Y3368549D01*
X2165071Y3352010D01*
X2177730Y3339351D01*
X2194269Y3332500D01*
X2212171D01*
X2228711Y3339351D01*
X2241369Y3352010D01*
X2247809Y3367556D01*
X2248220Y3368549D01*
X2266049Y3380000D01*
X2283951D01*
X2300490Y3386851D01*
X2313149Y3399510D01*
X2320000Y3416049D01*
Y3433951D01*
X2313149Y3450490D01*
X2300490Y3463149D01*
X2283951Y3470000D01*
D02*
G37*
G36*
X2683951D02*
X2666049D01*
X2649510Y3463149D01*
X2636851Y3450490D01*
X2630000Y3433951D01*
Y3416049D01*
X2636851Y3399510D01*
X2649510Y3386851D01*
X2651989Y3385824D01*
Y3364176D01*
X2649510Y3363149D01*
X2636851Y3350490D01*
X2630000Y3333951D01*
Y3316049D01*
X2636851Y3299510D01*
X2649510Y3286851D01*
X2666049Y3280000D01*
X2683951D01*
X2700490Y3286851D01*
X2713149Y3299510D01*
X2720000Y3316049D01*
Y3333951D01*
X2713149Y3350490D01*
X2700490Y3363149D01*
X2698011Y3364176D01*
Y3385824D01*
X2700490Y3386851D01*
X2713149Y3399510D01*
X2720000Y3416049D01*
Y3433951D01*
X2713149Y3450490D01*
X2700490Y3463149D01*
X2683951Y3470000D01*
D02*
G37*
G36*
X2548943Y3332492D02*
X2531041D01*
X2514501Y3325641D01*
X2501843Y3312982D01*
X2494992Y3296443D01*
Y3278541D01*
X2501843Y3262001D01*
X2514501Y3249343D01*
X2531041Y3242492D01*
X2548943D01*
X2565482Y3249343D01*
X2578141Y3262001D01*
X2584992Y3278541D01*
Y3296443D01*
X2578141Y3312982D01*
X2565482Y3325641D01*
X2548943Y3332492D01*
D02*
G37*
G36*
X2361451Y3285000D02*
X2343549D01*
X2327010Y3278149D01*
X2314351Y3265490D01*
X2307500Y3248951D01*
Y3237301D01*
X2307500Y3232393D01*
X2288598Y3228399D01*
X2287839Y3229501D01*
X2287563Y3229904D01*
X2286761Y3230705D01*
X2274904Y3242562D01*
X2258364Y3249413D01*
X2240462D01*
X2223923Y3242562D01*
X2211264Y3229904D01*
X2204413Y3213364D01*
Y3195462D01*
X2211264Y3178923D01*
X2223923Y3166264D01*
X2240462Y3159413D01*
X2258364D01*
X2274904Y3166264D01*
X2287562Y3178923D01*
X2294413Y3195462D01*
Y3207112D01*
X2294414Y3212020D01*
X2313315Y3216014D01*
X2314074Y3214912D01*
X2314350Y3214509D01*
X2315152Y3213708D01*
X2327010Y3201851D01*
X2343549Y3195000D01*
X2361451D01*
X2377990Y3201851D01*
X2390649Y3214509D01*
X2397500Y3231049D01*
Y3248951D01*
X2390649Y3265490D01*
X2377990Y3278149D01*
X2361451Y3285000D01*
D02*
G37*
G36*
X2660864Y3143087D02*
X2642962D01*
X2626423Y3136236D01*
X2613764Y3123577D01*
X2606913Y3107038D01*
Y3089136D01*
X2613764Y3072596D01*
X2626423Y3059938D01*
X2642962Y3053087D01*
X2660864D01*
X2677404Y3059938D01*
X2690062Y3072596D01*
X2696913Y3089136D01*
Y3107038D01*
X2690062Y3123577D01*
X2677404Y3136236D01*
X2660864Y3143087D01*
D02*
G37*
G36*
X2736443Y2995008D02*
X2718541D01*
X2702001Y2988157D01*
X2689343Y2975498D01*
X2682492Y2958959D01*
Y2941057D01*
X2689343Y2924517D01*
X2702001Y2911859D01*
X2718541Y2905008D01*
X2736443D01*
X2752982Y2911859D01*
X2765641Y2924517D01*
X2772492Y2941057D01*
Y2958959D01*
X2765641Y2975498D01*
X2752982Y2988157D01*
X2736443Y2995008D01*
D02*
G37*
G36*
Y2845008D02*
X2718541D01*
X2702001Y2838157D01*
X2689343Y2825498D01*
X2682492Y2808959D01*
Y2791057D01*
X2689343Y2774517D01*
X2702001Y2761859D01*
X2718541Y2755008D01*
X2736443D01*
X2752982Y2761859D01*
X2765641Y2774517D01*
X2772492Y2791057D01*
Y2808959D01*
X2765641Y2825498D01*
X2752982Y2838157D01*
X2736443Y2845008D01*
D02*
G37*
G36*
X2668951Y2385811D02*
X2651049D01*
X2634510Y2378960D01*
X2621851Y2366302D01*
X2615000Y2349762D01*
Y2331860D01*
X2621851Y2315321D01*
X2634510Y2302662D01*
X2651049Y2295811D01*
X2668951D01*
X2685490Y2302662D01*
X2698149Y2315321D01*
X2705000Y2331860D01*
Y2349762D01*
X2698149Y2366302D01*
X2685490Y2378960D01*
X2668951Y2385811D01*
D02*
G37*
G36*
X2708951Y2245000D02*
X2691049D01*
X2674510Y2238149D01*
X2661851Y2225490D01*
X2655000Y2208951D01*
Y2191049D01*
X2661851Y2174509D01*
X2674510Y2161851D01*
X2691049Y2155000D01*
X2708951D01*
X2725490Y2161851D01*
X2738149Y2174509D01*
X2745000Y2191049D01*
Y2208951D01*
X2738149Y2225490D01*
X2725490Y2238149D01*
X2708951Y2245000D01*
D02*
G37*
G36*
X2046111Y2236500D02*
X2026890D01*
X2008323Y2231525D01*
X1991677Y2221915D01*
X1978086Y2208323D01*
X1968475Y2191677D01*
X1963500Y2173111D01*
Y2153890D01*
X1968475Y2135323D01*
X1971837Y2129500D01*
X1960290Y2109500D01*
X1836500D01*
Y1963500D01*
X1982500D01*
Y1963500D01*
X2002500Y1971837D01*
X2008323Y1968475D01*
X2026890Y1963500D01*
X2046111D01*
X2064677Y1968475D01*
X2081323Y1978086D01*
X2086722Y1983484D01*
X2100000Y1989408D01*
X2113278Y1983484D01*
X2118677Y1978086D01*
X2135323Y1968475D01*
X2153890Y1963500D01*
X2173111D01*
X2191677Y1968475D01*
X2208323Y1978086D01*
X2213722Y1983484D01*
X2227000Y1989408D01*
X2240278Y1983484D01*
X2245677Y1978086D01*
X2262323Y1968475D01*
X2280890Y1963500D01*
X2300111D01*
X2318677Y1968475D01*
X2335323Y1978086D01*
X2348915Y1991677D01*
X2358525Y2008323D01*
X2363500Y2026890D01*
Y2046111D01*
X2358525Y2064677D01*
X2348915Y2081323D01*
X2342052Y2088186D01*
X2336988Y2099960D01*
X2341723Y2114314D01*
X2347314Y2119905D01*
X2356662Y2136095D01*
X2361500Y2154153D01*
Y2172847D01*
X2356662Y2190905D01*
X2347314Y2207095D01*
X2334095Y2220314D01*
X2317905Y2229662D01*
X2299847Y2234500D01*
X2281153D01*
X2263095Y2229662D01*
X2246905Y2220314D01*
X2239850Y2213259D01*
X2227000Y2209205D01*
X2214151Y2213259D01*
X2207095Y2220314D01*
X2190905Y2229662D01*
X2172847Y2234500D01*
X2154153D01*
X2136095Y2229662D01*
X2119905Y2220314D01*
X2114314Y2214723D01*
X2099960Y2209988D01*
X2088186Y2215052D01*
X2081323Y2221915D01*
X2064677Y2231525D01*
X2046111Y2236500D01*
D02*
G37*
G36*
X2758951Y2020000D02*
X2741049D01*
X2724510Y2013149D01*
X2711851Y2000491D01*
X2705000Y1983951D01*
Y1966049D01*
X2711851Y1949510D01*
X2724510Y1936851D01*
X2741049Y1930000D01*
X2758951D01*
X2775491Y1936851D01*
X2788149Y1949510D01*
X2795000Y1966049D01*
Y1983951D01*
X2788149Y2000491D01*
X2775491Y2013149D01*
X2758951Y2020000D01*
D02*
G37*
%LPD*%
G36*
X-500000Y1700000D02*
X-1600000D01*
Y3800000D01*
X-500000D01*
Y1700000D01*
D02*
G37*
%LPC*%
G36*
X-591049Y3470000D02*
X-608951D01*
X-625491Y3463149D01*
X-638149Y3450490D01*
X-645000Y3433951D01*
Y3416049D01*
X-638149Y3399510D01*
X-625491Y3386851D01*
X-608951Y3380000D01*
X-591049D01*
X-574510Y3386851D01*
X-561851Y3399510D01*
X-555000Y3416049D01*
Y3433951D01*
X-561851Y3450490D01*
X-574510Y3463149D01*
X-591049Y3470000D01*
D02*
G37*
G36*
X-866049D02*
X-883951D01*
X-900491Y3463149D01*
X-913149Y3450490D01*
X-920000Y3433951D01*
Y3416049D01*
X-913149Y3399510D01*
X-900491Y3386851D01*
X-883951Y3380000D01*
X-866049D01*
X-849510Y3386851D01*
X-836851Y3399510D01*
X-830000Y3416049D01*
Y3433951D01*
X-836851Y3450490D01*
X-849510Y3463149D01*
X-866049Y3470000D01*
D02*
G37*
G36*
X-991049Y3466780D02*
X-1008951D01*
X-1025491Y3459929D01*
X-1038149Y3447270D01*
X-1045000Y3430731D01*
Y3412829D01*
X-1038149Y3396289D01*
X-1025491Y3383631D01*
X-1008951Y3376780D01*
X-991049D01*
X-974510Y3383631D01*
X-961851Y3396289D01*
X-955000Y3412829D01*
Y3430731D01*
X-961851Y3447270D01*
X-974510Y3459929D01*
X-991049Y3466780D01*
D02*
G37*
G36*
X-1116049Y3470000D02*
X-1133951D01*
X-1150491Y3463149D01*
X-1163149Y3450490D01*
X-1169589Y3434944D01*
X-1170000Y3433951D01*
X-1187829Y3422500D01*
X-1205731D01*
X-1222271Y3415649D01*
X-1234929Y3402990D01*
X-1241780Y3386451D01*
Y3368549D01*
X-1234929Y3352010D01*
X-1222271Y3339351D01*
X-1205731Y3332500D01*
X-1187829D01*
X-1171290Y3339351D01*
X-1158631Y3352010D01*
X-1152192Y3367556D01*
X-1151780Y3368549D01*
X-1133951Y3380000D01*
X-1116049D01*
X-1099510Y3386851D01*
X-1086851Y3399510D01*
X-1080000Y3416049D01*
Y3433951D01*
X-1086851Y3450490D01*
X-1099510Y3463149D01*
X-1116049Y3470000D01*
D02*
G37*
G36*
X-716049D02*
X-733951D01*
X-750491Y3463149D01*
X-763149Y3450490D01*
X-770000Y3433951D01*
Y3416049D01*
X-763149Y3399510D01*
X-750491Y3386851D01*
X-748011Y3385824D01*
Y3364176D01*
X-750491Y3363149D01*
X-763149Y3350490D01*
X-770000Y3333951D01*
Y3316049D01*
X-763149Y3299510D01*
X-750491Y3286851D01*
X-733951Y3280000D01*
X-716049D01*
X-699510Y3286851D01*
X-686851Y3299510D01*
X-680000Y3316049D01*
Y3333951D01*
X-686851Y3350490D01*
X-699510Y3363149D01*
X-701989Y3364176D01*
Y3385824D01*
X-699510Y3386851D01*
X-686851Y3399510D01*
X-680000Y3416049D01*
Y3433951D01*
X-686851Y3450490D01*
X-699510Y3463149D01*
X-716049Y3470000D01*
D02*
G37*
G36*
X-851057Y3332492D02*
X-868959D01*
X-885499Y3325641D01*
X-898157Y3312982D01*
X-905008Y3296443D01*
Y3278541D01*
X-898157Y3262001D01*
X-885499Y3249343D01*
X-868959Y3242492D01*
X-851057D01*
X-834518Y3249343D01*
X-821859Y3262001D01*
X-815009Y3278541D01*
Y3296443D01*
X-821859Y3312982D01*
X-834518Y3325641D01*
X-851057Y3332492D01*
D02*
G37*
G36*
X-1038549Y3285000D02*
X-1056451D01*
X-1072991Y3278149D01*
X-1085649Y3265490D01*
X-1092500Y3248951D01*
Y3237301D01*
X-1092501Y3232393D01*
X-1111402Y3228399D01*
X-1112161Y3229501D01*
X-1112437Y3229904D01*
X-1113239Y3230705D01*
X-1125097Y3242562D01*
X-1141636Y3249413D01*
X-1159538D01*
X-1176077Y3242562D01*
X-1188736Y3229904D01*
X-1195587Y3213364D01*
Y3195462D01*
X-1188736Y3178923D01*
X-1176077Y3166264D01*
X-1159538Y3159413D01*
X-1141636D01*
X-1125097Y3166264D01*
X-1112438Y3178923D01*
X-1105587Y3195462D01*
Y3207112D01*
X-1105587Y3212020D01*
X-1086685Y3216014D01*
X-1085926Y3214912D01*
X-1085650Y3214509D01*
X-1084848Y3213708D01*
X-1072991Y3201851D01*
X-1056451Y3195000D01*
X-1038549D01*
X-1022010Y3201851D01*
X-1009351Y3214509D01*
X-1002500Y3231049D01*
Y3248951D01*
X-1009351Y3265490D01*
X-1022010Y3278149D01*
X-1038549Y3285000D01*
D02*
G37*
G36*
X-739136Y3143087D02*
X-757038D01*
X-773578Y3136236D01*
X-786236Y3123577D01*
X-793087Y3107038D01*
Y3089136D01*
X-786236Y3072596D01*
X-773578Y3059938D01*
X-757038Y3053087D01*
X-739136D01*
X-722597Y3059938D01*
X-709938Y3072596D01*
X-703087Y3089136D01*
Y3107038D01*
X-709938Y3123577D01*
X-722597Y3136236D01*
X-739136Y3143087D01*
D02*
G37*
G36*
X-663558Y2995008D02*
X-681460D01*
X-697999Y2988157D01*
X-710658Y2975498D01*
X-717509Y2958959D01*
Y2941057D01*
X-710658Y2924517D01*
X-697999Y2911859D01*
X-681460Y2905008D01*
X-663558D01*
X-647018Y2911859D01*
X-634360Y2924517D01*
X-627509Y2941057D01*
Y2958959D01*
X-634360Y2975498D01*
X-647018Y2988157D01*
X-663558Y2995008D01*
D02*
G37*
G36*
Y2845008D02*
X-681460D01*
X-697999Y2838157D01*
X-710658Y2825498D01*
X-717509Y2808959D01*
Y2791057D01*
X-710658Y2774517D01*
X-697999Y2761859D01*
X-681460Y2755008D01*
X-663558D01*
X-647018Y2761859D01*
X-634360Y2774517D01*
X-627509Y2791057D01*
Y2808959D01*
X-634360Y2825498D01*
X-647018Y2838157D01*
X-663558Y2845008D01*
D02*
G37*
G36*
X-731049Y2385811D02*
X-748951D01*
X-765491Y2378960D01*
X-778149Y2366302D01*
X-785000Y2349762D01*
Y2331860D01*
X-778149Y2315321D01*
X-765491Y2302662D01*
X-748951Y2295811D01*
X-731049D01*
X-714510Y2302662D01*
X-701851Y2315321D01*
X-695000Y2331860D01*
Y2349762D01*
X-701851Y2366302D01*
X-714510Y2378960D01*
X-731049Y2385811D01*
D02*
G37*
G36*
X-691049Y2245000D02*
X-708951D01*
X-725491Y2238149D01*
X-738149Y2225490D01*
X-745000Y2208951D01*
Y2191049D01*
X-738149Y2174509D01*
X-725491Y2161851D01*
X-708951Y2155000D01*
X-691049D01*
X-674510Y2161851D01*
X-661851Y2174509D01*
X-655000Y2191049D01*
Y2208951D01*
X-661851Y2225490D01*
X-674510Y2238149D01*
X-691049Y2245000D01*
D02*
G37*
G36*
X-1353890Y2236500D02*
X-1373111D01*
X-1391677Y2231525D01*
X-1408323Y2221915D01*
X-1421915Y2208323D01*
X-1431525Y2191677D01*
X-1436500Y2173111D01*
Y2153890D01*
X-1431525Y2135323D01*
X-1428163Y2129500D01*
X-1439710Y2109500D01*
X-1563500D01*
Y1963500D01*
X-1417501D01*
Y1963500D01*
X-1397500Y1971837D01*
X-1391677Y1968475D01*
X-1373111Y1963500D01*
X-1353890D01*
X-1335323Y1968475D01*
X-1318677Y1978086D01*
X-1313279Y1983484D01*
X-1300000Y1989408D01*
X-1286722Y1983484D01*
X-1281323Y1978086D01*
X-1264677Y1968475D01*
X-1246111Y1963500D01*
X-1226890D01*
X-1208323Y1968475D01*
X-1191677Y1978086D01*
X-1186279Y1983484D01*
X-1173000Y1989408D01*
X-1159722Y1983484D01*
X-1154323Y1978086D01*
X-1137677Y1968475D01*
X-1119111Y1963500D01*
X-1099890D01*
X-1081323Y1968475D01*
X-1064677Y1978086D01*
X-1051086Y1991677D01*
X-1041475Y2008323D01*
X-1036500Y2026890D01*
Y2046111D01*
X-1041475Y2064677D01*
X-1051086Y2081323D01*
X-1057949Y2088186D01*
X-1063013Y2099960D01*
X-1058278Y2114314D01*
X-1052686Y2119905D01*
X-1043339Y2136095D01*
X-1038500Y2154153D01*
Y2172847D01*
X-1043339Y2190905D01*
X-1052686Y2207095D01*
X-1065905Y2220314D01*
X-1082095Y2229662D01*
X-1100153Y2234500D01*
X-1118847D01*
X-1136905Y2229662D01*
X-1153095Y2220314D01*
X-1160151Y2213259D01*
X-1173000Y2209205D01*
X-1185850Y2213259D01*
X-1192905Y2220314D01*
X-1209095Y2229662D01*
X-1227153Y2234500D01*
X-1245847D01*
X-1263905Y2229662D01*
X-1280095Y2220314D01*
X-1285687Y2214723D01*
X-1300040Y2209988D01*
X-1311814Y2215052D01*
X-1318677Y2221915D01*
X-1335323Y2231525D01*
X-1353890Y2236500D01*
D02*
G37*
G36*
X-641049Y2020000D02*
X-658951D01*
X-675491Y2013149D01*
X-688149Y2000491D01*
X-695000Y1983951D01*
Y1966049D01*
X-688149Y1949510D01*
X-675491Y1936851D01*
X-658951Y1930000D01*
X-641049D01*
X-624510Y1936851D01*
X-611851Y1949510D01*
X-605000Y1966049D01*
Y1983951D01*
X-611851Y2000491D01*
X-624510Y2013149D01*
X-641049Y2020000D01*
D02*
G37*
G36*
X-3991049Y3470000D02*
X-4008951D01*
X-4025491Y3463149D01*
X-4038149Y3450490D01*
X-4045000Y3433951D01*
Y3416049D01*
X-4038149Y3399510D01*
X-4025491Y3386851D01*
X-4008951Y3380000D01*
X-3991049D01*
X-3974510Y3386851D01*
X-3961851Y3399510D01*
X-3955000Y3416049D01*
Y3433951D01*
X-3961851Y3450490D01*
X-3974510Y3463149D01*
X-3991049Y3470000D01*
D02*
G37*
G36*
X-4266049D02*
X-4283951D01*
X-4300491Y3463149D01*
X-4313149Y3450490D01*
X-4320000Y3433951D01*
Y3416049D01*
X-4313149Y3399510D01*
X-4300491Y3386851D01*
X-4283951Y3380000D01*
X-4266049D01*
X-4249510Y3386851D01*
X-4236851Y3399510D01*
X-4230000Y3416049D01*
Y3433951D01*
X-4236851Y3450490D01*
X-4249510Y3463149D01*
X-4266049Y3470000D01*
D02*
G37*
G36*
X-4391049Y3466780D02*
X-4408951D01*
X-4425491Y3459929D01*
X-4438149Y3447270D01*
X-4445000Y3430731D01*
Y3412829D01*
X-4438149Y3396289D01*
X-4425491Y3383631D01*
X-4408951Y3376780D01*
X-4391049D01*
X-4374510Y3383631D01*
X-4361851Y3396289D01*
X-4355000Y3412829D01*
Y3430731D01*
X-4361851Y3447270D01*
X-4374510Y3459929D01*
X-4391049Y3466780D01*
D02*
G37*
G36*
X-4516049Y3470000D02*
X-4533951D01*
X-4550491Y3463149D01*
X-4563149Y3450490D01*
X-4569589Y3434944D01*
X-4570000Y3433951D01*
X-4587829Y3422500D01*
X-4605731D01*
X-4622270Y3415649D01*
X-4634929Y3402990D01*
X-4641780Y3386451D01*
Y3368549D01*
X-4634929Y3352010D01*
X-4622270Y3339351D01*
X-4605731Y3332500D01*
X-4587829D01*
X-4571290Y3339351D01*
X-4558631Y3352010D01*
X-4552192Y3367556D01*
X-4551780Y3368549D01*
X-4533951Y3380000D01*
X-4516049D01*
X-4499510Y3386851D01*
X-4486851Y3399510D01*
X-4480000Y3416049D01*
Y3433951D01*
X-4486851Y3450490D01*
X-4499510Y3463149D01*
X-4516049Y3470000D01*
D02*
G37*
G36*
X-4116049D02*
X-4133951D01*
X-4150491Y3463149D01*
X-4163149Y3450490D01*
X-4170000Y3433951D01*
Y3416049D01*
X-4163149Y3399510D01*
X-4150491Y3386851D01*
X-4148011Y3385824D01*
Y3364176D01*
X-4150491Y3363149D01*
X-4163149Y3350490D01*
X-4170000Y3333951D01*
Y3316049D01*
X-4163149Y3299510D01*
X-4150491Y3286851D01*
X-4133951Y3280000D01*
X-4116049D01*
X-4099510Y3286851D01*
X-4086851Y3299510D01*
X-4080000Y3316049D01*
Y3333951D01*
X-4086851Y3350490D01*
X-4099510Y3363149D01*
X-4101989Y3364176D01*
Y3385824D01*
X-4099510Y3386851D01*
X-4086851Y3399510D01*
X-4080000Y3416049D01*
Y3433951D01*
X-4086851Y3450490D01*
X-4099510Y3463149D01*
X-4116049Y3470000D01*
D02*
G37*
G36*
X-4251057Y3332492D02*
X-4268959D01*
X-4285499Y3325641D01*
X-4298157Y3312982D01*
X-4305008Y3296443D01*
Y3278541D01*
X-4298157Y3262001D01*
X-4285499Y3249343D01*
X-4268959Y3242492D01*
X-4251057D01*
X-4234518Y3249343D01*
X-4221859Y3262001D01*
X-4215008Y3278541D01*
Y3296443D01*
X-4221859Y3312982D01*
X-4234518Y3325641D01*
X-4251057Y3332492D01*
D02*
G37*
G36*
X-4438549Y3285000D02*
X-4456451D01*
X-4472991Y3278149D01*
X-4485649Y3265490D01*
X-4492500Y3248951D01*
Y3237301D01*
X-4492501Y3232393D01*
X-4511402Y3228399D01*
X-4512161Y3229501D01*
X-4512437Y3229904D01*
X-4513239Y3230705D01*
X-4525096Y3242562D01*
X-4541636Y3249413D01*
X-4559538D01*
X-4576077Y3242562D01*
X-4588736Y3229904D01*
X-4595587Y3213364D01*
Y3195462D01*
X-4588736Y3178923D01*
X-4576077Y3166264D01*
X-4559538Y3159413D01*
X-4541636D01*
X-4525096Y3166264D01*
X-4512438Y3178923D01*
X-4505587Y3195462D01*
Y3207112D01*
X-4505586Y3212020D01*
X-4486685Y3216014D01*
X-4485926Y3214912D01*
X-4485650Y3214509D01*
X-4484848Y3213708D01*
X-4472991Y3201851D01*
X-4456451Y3195000D01*
X-4438549D01*
X-4422010Y3201851D01*
X-4409351Y3214509D01*
X-4402500Y3231049D01*
Y3248951D01*
X-4409351Y3265490D01*
X-4422010Y3278149D01*
X-4438549Y3285000D01*
D02*
G37*
G36*
X-4139136Y3143087D02*
X-4157038D01*
X-4173577Y3136236D01*
X-4186236Y3123577D01*
X-4193087Y3107038D01*
Y3089136D01*
X-4186236Y3072596D01*
X-4173577Y3059938D01*
X-4157038Y3053087D01*
X-4139136D01*
X-4122597Y3059938D01*
X-4109938Y3072596D01*
X-4103087Y3089136D01*
Y3107038D01*
X-4109938Y3123577D01*
X-4122597Y3136236D01*
X-4139136Y3143087D01*
D02*
G37*
G36*
X-4063558Y2995008D02*
X-4081459D01*
X-4097999Y2988157D01*
X-4110658Y2975498D01*
X-4117508Y2958959D01*
Y2941057D01*
X-4110658Y2924517D01*
X-4097999Y2911859D01*
X-4081459Y2905008D01*
X-4063558D01*
X-4047018Y2911859D01*
X-4034359Y2924517D01*
X-4027509Y2941057D01*
Y2958959D01*
X-4034359Y2975498D01*
X-4047018Y2988157D01*
X-4063558Y2995008D01*
D02*
G37*
G36*
Y2845008D02*
X-4081459D01*
X-4097999Y2838157D01*
X-4110658Y2825498D01*
X-4117508Y2808959D01*
Y2791057D01*
X-4110658Y2774517D01*
X-4097999Y2761859D01*
X-4081459Y2755008D01*
X-4063558D01*
X-4047018Y2761859D01*
X-4034359Y2774517D01*
X-4027509Y2791057D01*
Y2808959D01*
X-4034359Y2825498D01*
X-4047018Y2838157D01*
X-4063558Y2845008D01*
D02*
G37*
G36*
X-4131049Y2385811D02*
X-4148951D01*
X-4165491Y2378960D01*
X-4178149Y2366302D01*
X-4185000Y2349762D01*
Y2331860D01*
X-4178149Y2315321D01*
X-4165491Y2302662D01*
X-4148951Y2295811D01*
X-4131049D01*
X-4114510Y2302662D01*
X-4101851Y2315321D01*
X-4095000Y2331860D01*
Y2349762D01*
X-4101851Y2366302D01*
X-4114510Y2378960D01*
X-4131049Y2385811D01*
D02*
G37*
G36*
X-4091049Y2245000D02*
X-4108951D01*
X-4125491Y2238149D01*
X-4138149Y2225490D01*
X-4145000Y2208951D01*
Y2191049D01*
X-4138149Y2174509D01*
X-4125491Y2161851D01*
X-4108951Y2155000D01*
X-4091049D01*
X-4074510Y2161851D01*
X-4061851Y2174509D01*
X-4055000Y2191049D01*
Y2208951D01*
X-4061851Y2225490D01*
X-4074510Y2238149D01*
X-4091049Y2245000D01*
D02*
G37*
G36*
X-4753889Y2236500D02*
X-4773111D01*
X-4791677Y2231525D01*
X-4808323Y2221915D01*
X-4821914Y2208323D01*
X-4831525Y2191677D01*
X-4836500Y2173111D01*
Y2153890D01*
X-4831525Y2135323D01*
X-4828163Y2129500D01*
X-4839710Y2109500D01*
X-4963500D01*
Y1963500D01*
X-4817500D01*
Y1963500D01*
X-4797500Y1971837D01*
X-4791677Y1968475D01*
X-4773111Y1963500D01*
X-4753889D01*
X-4735323Y1968475D01*
X-4718677Y1978086D01*
X-4713278Y1983484D01*
X-4700000Y1989408D01*
X-4686722Y1983484D01*
X-4681323Y1978086D01*
X-4664677Y1968475D01*
X-4646111Y1963500D01*
X-4626889D01*
X-4608323Y1968475D01*
X-4591677Y1978086D01*
X-4586278Y1983484D01*
X-4573000Y1989408D01*
X-4559722Y1983484D01*
X-4554323Y1978086D01*
X-4537677Y1968475D01*
X-4519111Y1963500D01*
X-4499889D01*
X-4481323Y1968475D01*
X-4464677Y1978086D01*
X-4451086Y1991677D01*
X-4441475Y2008323D01*
X-4436500Y2026890D01*
Y2046111D01*
X-4441475Y2064677D01*
X-4451086Y2081323D01*
X-4457948Y2088186D01*
X-4463012Y2099960D01*
X-4458277Y2114314D01*
X-4452686Y2119905D01*
X-4443339Y2136095D01*
X-4438500Y2154153D01*
Y2172847D01*
X-4443339Y2190905D01*
X-4452686Y2207095D01*
X-4465905Y2220314D01*
X-4482095Y2229662D01*
X-4500153Y2234500D01*
X-4518847D01*
X-4536905Y2229662D01*
X-4553095Y2220314D01*
X-4560150Y2213259D01*
X-4573000Y2209205D01*
X-4585850Y2213259D01*
X-4592905Y2220314D01*
X-4609095Y2229662D01*
X-4627153Y2234500D01*
X-4645847D01*
X-4663905Y2229662D01*
X-4680095Y2220314D01*
X-4685686Y2214723D01*
X-4700040Y2209988D01*
X-4711814Y2215052D01*
X-4718677Y2221915D01*
X-4735323Y2231525D01*
X-4753889Y2236500D01*
D02*
G37*
G36*
X-4041049Y2020000D02*
X-4058951D01*
X-4075490Y2013149D01*
X-4088149Y2000491D01*
X-4095000Y1983951D01*
Y1966049D01*
X-4088149Y1949510D01*
X-4075490Y1936851D01*
X-4058951Y1930000D01*
X-4041049D01*
X-4024510Y1936851D01*
X-4011851Y1949510D01*
X-4005000Y1966049D01*
Y1983951D01*
X-4011851Y2000491D01*
X-4024510Y2013149D01*
X-4041049Y2020000D01*
D02*
G37*
%LPD*%
D10*
X4050000Y3247500D02*
D03*
Y2552500D02*
D03*
X650000Y3247500D02*
D03*
Y2552500D02*
D03*
Y5097500D02*
D03*
Y4402500D02*
D03*
X-2750000Y3247500D02*
D03*
Y2552500D02*
D03*
Y5097500D02*
D03*
Y4402500D02*
D03*
X4050000Y5097500D02*
D03*
Y4402500D02*
D03*
X-3860400Y5097500D02*
D03*
Y4402500D02*
D03*
X-1639599Y5097500D02*
D03*
Y4402500D02*
D03*
X-529199Y5097500D02*
D03*
Y4402500D02*
D03*
X1789600Y5097500D02*
D03*
Y4402500D02*
D03*
X2900000Y5097500D02*
D03*
Y4402500D02*
D03*
D11*
X4900000Y3645000D02*
D03*
Y3105000D02*
D03*
Y3295000D02*
D03*
Y3455000D02*
D03*
Y2705000D02*
D03*
Y2895000D02*
D03*
D12*
X4912939Y2264658D02*
D03*
Y2414658D02*
D03*
D13*
X4900000Y3645000D02*
X4903221Y3648222D01*
Y3703221D02*
X4975000Y3775000D01*
Y5075000D01*
X4903221Y3648222D02*
Y3703221D01*
X4750000Y5300000D02*
X4975000Y5075000D01*
X4886040Y1922540D02*
Y2239858D01*
X4800000Y1836500D02*
X4886040Y1922540D01*
Y2239858D02*
X4921182Y2275000D01*
X4925000D01*
X4900000Y3449999D02*
X4900000Y3450000D01*
X4900000Y3295000D02*
Y3449999D01*
X4900000Y2895001D02*
Y3100000D01*
X4900000Y2895000D02*
X4900000Y2895001D01*
Y2414219D02*
Y2425000D01*
Y2700000D02*
X4912939Y2687061D01*
Y2414658D02*
Y2687061D01*
X4800000Y2314219D02*
X4900000Y2414219D01*
X4800000Y1963500D02*
Y2314219D01*
D14*
X-5700000Y3500000D02*
D03*
X5700000D02*
D03*
D15*
X2290500Y2163500D02*
D03*
Y2036500D02*
D03*
X2163500Y2163500D02*
D03*
Y2036500D02*
D03*
X2036500Y2163500D02*
D03*
Y2036500D02*
D03*
X1909500Y2163500D02*
D03*
X-1109500D02*
D03*
Y2036500D02*
D03*
X-1236500Y2163500D02*
D03*
Y2036500D02*
D03*
X-1363500Y2163500D02*
D03*
Y2036500D02*
D03*
X-1490500Y2163500D02*
D03*
X-4509500D02*
D03*
Y2036500D02*
D03*
X-4636500Y2163500D02*
D03*
Y2036500D02*
D03*
X-4763500Y2163500D02*
D03*
Y2036500D02*
D03*
X-4890500Y2163500D02*
D03*
D16*
X1909500Y2036500D02*
D03*
X-1490500D02*
D03*
X-4890500D02*
D03*
D17*
X50000Y1836500D02*
D03*
Y1963500D02*
D03*
Y3786500D02*
D03*
Y3913500D02*
D03*
X-3349999Y1836500D02*
D03*
Y1963500D02*
D03*
Y3786500D02*
D03*
Y3913500D02*
D03*
X4800000Y1963500D02*
D03*
Y1836500D02*
D03*
X3450000Y3786500D02*
D03*
Y3913500D02*
D03*
Y1836500D02*
D03*
Y1963500D02*
D03*
D18*
X-2619000Y6881000D02*
D03*
Y6627000D02*
D03*
Y6373000D02*
D03*
Y6119000D02*
D03*
X-3381000Y6881000D02*
D03*
Y6627000D02*
D03*
Y6373000D02*
D03*
Y6119000D02*
D03*
X381000Y6881000D02*
D03*
Y6627000D02*
D03*
Y6373000D02*
D03*
Y6119000D02*
D03*
X-381000Y6881000D02*
D03*
Y6627000D02*
D03*
Y6373000D02*
D03*
Y6119000D02*
D03*
X3381000Y6881000D02*
D03*
Y6627000D02*
D03*
Y6373000D02*
D03*
Y6119000D02*
D03*
X2619000Y6881000D02*
D03*
Y6627000D02*
D03*
Y6373000D02*
D03*
Y6119000D02*
D03*
D19*
X-3000000Y6500000D02*
D03*
X0D02*
D03*
X3000000D02*
D03*
D20*
X-5700000Y2000000D02*
D03*
Y5000000D02*
D03*
X5700000Y2000000D02*
D03*
Y5000000D02*
D03*
X-5700000Y4000000D02*
D03*
X5700000D02*
D03*
X-1400000Y6600000D02*
D03*
X1400000D02*
D03*
X2100000Y2700000D02*
D03*
X-1300000D02*
D03*
X-4700000D02*
D03*
D21*
X4419000Y6781000D02*
D03*
X4673000D02*
D03*
X4927000D02*
D03*
X5181000D02*
D03*
Y6019000D02*
D03*
X4927000D02*
D03*
X4673000D02*
D03*
X-5181000Y981000D02*
D03*
X-4927000D02*
D03*
X-4673000D02*
D03*
X-4419000D02*
D03*
Y219000D02*
D03*
X-4673000D02*
D03*
X-4927000D02*
D03*
X4419000Y981000D02*
D03*
X4673000D02*
D03*
X4927000D02*
D03*
X5181000D02*
D03*
Y219000D02*
D03*
X4927000D02*
D03*
X4673000D02*
D03*
X-5181000Y6781000D02*
D03*
X-4927000D02*
D03*
X-4673000D02*
D03*
X-4419000D02*
D03*
Y6019000D02*
D03*
X-4673000D02*
D03*
X-4927000D02*
D03*
D22*
X4419000D02*
D03*
X-5181000Y219000D02*
D03*
X4419000D02*
D03*
X-5181000Y6019000D02*
D03*
D23*
X-5700000Y3809500D02*
D03*
Y4190500D02*
D03*
X-5509500Y4000000D02*
D03*
X-5890500D02*
D03*
X5890500D02*
D03*
X5509500D02*
D03*
X5700000Y4190500D02*
D03*
Y3809500D02*
D03*
X-1400000Y6409500D02*
D03*
Y6790500D02*
D03*
X-1209500Y6600000D02*
D03*
X-1590500D02*
D03*
X1400000Y6409500D02*
D03*
Y6790500D02*
D03*
X1590500Y6600000D02*
D03*
X1209500D02*
D03*
X1909500Y2700000D02*
D03*
X2290500D02*
D03*
X2100000Y2890500D02*
D03*
Y2509500D02*
D03*
X-1490500Y2700000D02*
D03*
X-1109500D02*
D03*
X-1300000Y2890500D02*
D03*
Y2509500D02*
D03*
X-4890500Y2700000D02*
D03*
X-4509500D02*
D03*
X-4700000Y2890500D02*
D03*
Y2509500D02*
D03*
D24*
X700000Y3175000D02*
D03*
X850000Y3225000D02*
D03*
X650000Y3325000D02*
D03*
X350000D02*
D03*
X1050000D02*
D03*
X900000Y3175000D02*
D03*
X800000D02*
D03*
X300000D02*
D03*
X500000D02*
D03*
X1050000Y3225000D02*
D03*
X250000Y3325000D02*
D03*
X900000Y3275000D02*
D03*
X1000000Y3175000D02*
D03*
X750000Y3225000D02*
D03*
X950000D02*
D03*
X250000D02*
D03*
X700000Y3275000D02*
D03*
X800000D02*
D03*
X1000000D02*
D03*
X750000Y3325000D02*
D03*
X850000D02*
D03*
X950000D02*
D03*
X400000Y3175000D02*
D03*
X600000D02*
D03*
X350000Y3225000D02*
D03*
X550000D02*
D03*
X450000D02*
D03*
X650000D02*
D03*
X500000Y3275000D02*
D03*
X400000D02*
D03*
X300000D02*
D03*
X600000D02*
D03*
X450000Y3325000D02*
D03*
X550000D02*
D03*
X-2350000D02*
D03*
X-2400000Y3275000D02*
D03*
X-2350000Y3225000D02*
D03*
X-2400000Y3175000D02*
D03*
X-2550000Y3325000D02*
D03*
X-2450000D02*
D03*
X-2600000Y3275000D02*
D03*
X-2650000Y3325000D02*
D03*
X-2750000D02*
D03*
X-2700000Y3275000D02*
D03*
X-2800000D02*
D03*
X-2500000D02*
D03*
X-2450000Y3225000D02*
D03*
X-2550000D02*
D03*
X-2500000Y3175000D02*
D03*
X-2600000D02*
D03*
X-2650000Y3225000D02*
D03*
X-2750000D02*
D03*
X-2700000Y3175000D02*
D03*
X-2800000D02*
D03*
X-2850000Y3325000D02*
D03*
X-2950000D02*
D03*
X-3150000D02*
D03*
X-3050000D02*
D03*
X-3100000Y3275000D02*
D03*
X-2900000D02*
D03*
X-2850000Y3225000D02*
D03*
X-2950000D02*
D03*
X-2900000Y3175000D02*
D03*
X-3000000D02*
D03*
Y3275000D02*
D03*
X-3150000Y3225000D02*
D03*
X-3050000D02*
D03*
X-3100000Y3175000D02*
D03*
X-3400000Y5250000D02*
D03*
X-3300000D02*
D03*
X-3200000D02*
D03*
X5150000Y6600000D02*
D03*
X5050000D02*
D03*
X5200000Y6550000D02*
D03*
X5100000D02*
D03*
X4950000Y6600000D02*
D03*
X4900000Y6550000D02*
D03*
X4850000Y6600000D02*
D03*
X5000000Y6550000D02*
D03*
X4950000Y6500000D02*
D03*
X5150000D02*
D03*
X5200000Y6450000D02*
D03*
X5100000D02*
D03*
X5150000Y6400000D02*
D03*
X5050000D02*
D03*
Y6500000D02*
D03*
X4900000Y6450000D02*
D03*
X5000000D02*
D03*
X4950000Y6400000D02*
D03*
X4750000Y6600000D02*
D03*
X4800000Y6550000D02*
D03*
X4700000D02*
D03*
X4650000Y6600000D02*
D03*
X4600000Y6550000D02*
D03*
X4550000Y6600000D02*
D03*
X4650000Y6500000D02*
D03*
X4550000D02*
D03*
X4850000D02*
D03*
X4800000Y6450000D02*
D03*
X4750000Y6500000D02*
D03*
X4850000Y6400000D02*
D03*
X4750000D02*
D03*
X4700000Y6450000D02*
D03*
X4600000D02*
D03*
X4650000Y6400000D02*
D03*
X4550000D02*
D03*
X5100000Y6350000D02*
D03*
X5200000D02*
D03*
X5000000D02*
D03*
X5150000Y6300000D02*
D03*
X5050000D02*
D03*
X4900000Y6350000D02*
D03*
X4950000Y6300000D02*
D03*
X4850000D02*
D03*
X4900000Y6250000D02*
D03*
X4800000D02*
D03*
X5100000D02*
D03*
X5200000D02*
D03*
X5050000Y6200000D02*
D03*
X5150000D02*
D03*
X5000000Y6250000D02*
D03*
X4850000Y6200000D02*
D03*
X4950000D02*
D03*
X4800000Y6350000D02*
D03*
X4750000Y6300000D02*
D03*
X4700000Y6350000D02*
D03*
Y6250000D02*
D03*
X4650000Y6200000D02*
D03*
X4600000Y6350000D02*
D03*
X4650000Y6300000D02*
D03*
X4550000D02*
D03*
X4600000Y6250000D02*
D03*
X4550000Y6200000D02*
D03*
X4750000D02*
D03*
Y5500000D02*
D03*
X4700000Y5450000D02*
D03*
Y5550000D02*
D03*
X4600000D02*
D03*
X4650000Y5500000D02*
D03*
X4550000D02*
D03*
X4500000Y6550000D02*
D03*
X4450000Y6500000D02*
D03*
Y6600000D02*
D03*
X4500000Y6450000D02*
D03*
X4450000Y6400000D02*
D03*
X4400000Y6550000D02*
D03*
X4350000Y6500000D02*
D03*
Y6600000D02*
D03*
X4400000Y6450000D02*
D03*
X4350000Y6400000D02*
D03*
X4500000Y6350000D02*
D03*
Y6250000D02*
D03*
X4450000Y6300000D02*
D03*
X4500000Y5550000D02*
D03*
X4450000Y6200000D02*
D03*
X4400000Y6250000D02*
D03*
Y6350000D02*
D03*
Y5550000D02*
D03*
X4350000Y6200000D02*
D03*
Y6300000D02*
D03*
X1300000Y5550000D02*
D03*
X1200000D02*
D03*
X800000D02*
D03*
X900000D02*
D03*
X700000D02*
D03*
X1100000D02*
D03*
X1000000D02*
D03*
X3700000D02*
D03*
X3800000D02*
D03*
X3600000D02*
D03*
X4300000D02*
D03*
X4200000D02*
D03*
X3500000D02*
D03*
X3400000D02*
D03*
X4100000D02*
D03*
X4050000Y5500000D02*
D03*
X4000000Y5550000D02*
D03*
X4250000Y5500000D02*
D03*
X4150000D02*
D03*
X3900000Y5550000D02*
D03*
X3750000Y5500000D02*
D03*
X3650000D02*
D03*
X3950000D02*
D03*
X3850000D02*
D03*
X4350000D02*
D03*
X4450000D02*
D03*
X4000000Y5450000D02*
D03*
X4200000D02*
D03*
X4100000D02*
D03*
X3700000D02*
D03*
X3600000D02*
D03*
X3900000D02*
D03*
X3800000D02*
D03*
X1350000Y5500000D02*
D03*
X3350000D02*
D03*
X1250000D02*
D03*
X3550000D02*
D03*
X3450000D02*
D03*
X850000D02*
D03*
X950000D02*
D03*
X750000D02*
D03*
X1150000D02*
D03*
X1050000D02*
D03*
X1200000Y5450000D02*
D03*
X1300000D02*
D03*
X1100000D02*
D03*
X3500000D02*
D03*
X3400000D02*
D03*
X800000D02*
D03*
X700000D02*
D03*
X1000000D02*
D03*
X900000D02*
D03*
X4600000D02*
D03*
X4550000Y5400000D02*
D03*
X4500000Y5450000D02*
D03*
X4750000Y5400000D02*
D03*
X4650000D02*
D03*
X4400000Y5450000D02*
D03*
X4450000Y5400000D02*
D03*
X4350000D02*
D03*
X4400000Y5350000D02*
D03*
X4300000D02*
D03*
X4700000D02*
D03*
X4650000Y5300000D02*
D03*
X4600000Y5350000D02*
D03*
X4750000Y5300000D02*
D03*
X4500000Y5350000D02*
D03*
X4350000Y5300000D02*
D03*
X4550000D02*
D03*
X4450000D02*
D03*
X4300000Y5450000D02*
D03*
X4250000Y5400000D02*
D03*
X4150000D02*
D03*
X4200000Y5350000D02*
D03*
X4100000D02*
D03*
X3950000Y5400000D02*
D03*
X4050000D02*
D03*
X3900000Y5350000D02*
D03*
X4000000D02*
D03*
X3850000Y5300000D02*
D03*
X4150000D02*
D03*
X4250000D02*
D03*
X4100000Y5250000D02*
D03*
X4300000D02*
D03*
X4200000D02*
D03*
X4050000Y5300000D02*
D03*
X3950000D02*
D03*
X4000000Y5250000D02*
D03*
X3900000D02*
D03*
X4500000D02*
D03*
X4600000D02*
D03*
X4400000D02*
D03*
X4700000D02*
D03*
X4450000Y3325000D02*
D03*
X4400000Y3275000D02*
D03*
X4450000Y3225000D02*
D03*
X4400000Y3175000D02*
D03*
X4350000Y3325000D02*
D03*
X4300000Y3275000D02*
D03*
X4350000Y3225000D02*
D03*
X4300000Y3175000D02*
D03*
X4150000Y3325000D02*
D03*
X4250000D02*
D03*
X4200000Y3275000D02*
D03*
X4100000D02*
D03*
X3950000Y3325000D02*
D03*
X4050000D02*
D03*
X3850000D02*
D03*
X4000000Y3275000D02*
D03*
X3900000D02*
D03*
X4150000Y3225000D02*
D03*
X4250000D02*
D03*
X4200000Y3175000D02*
D03*
X4100000D02*
D03*
X4050000Y3225000D02*
D03*
X3950000D02*
D03*
X4000000Y3175000D02*
D03*
X3900000D02*
D03*
X3650000Y5400000D02*
D03*
X3750000D02*
D03*
X3550000D02*
D03*
X3850000D02*
D03*
X3500000Y5350000D02*
D03*
X3350000Y5400000D02*
D03*
X3450000D02*
D03*
X1350000D02*
D03*
X3400000Y5350000D02*
D03*
X1300000D02*
D03*
X3700000D02*
D03*
X3800000D02*
D03*
X3600000D02*
D03*
X3750000Y5300000D02*
D03*
X3650000D02*
D03*
X3350000D02*
D03*
X1350000D02*
D03*
X3550000D02*
D03*
X3450000D02*
D03*
X1050000Y5400000D02*
D03*
X1150000D02*
D03*
X950000D02*
D03*
X1250000D02*
D03*
X1000000Y5350000D02*
D03*
X750000Y5400000D02*
D03*
X850000D02*
D03*
X700000Y5350000D02*
D03*
X900000D02*
D03*
X800000D02*
D03*
X1200000D02*
D03*
X1150000Y5300000D02*
D03*
X1100000Y5350000D02*
D03*
X1250000Y5300000D02*
D03*
X1200000Y5250000D02*
D03*
X850000Y5300000D02*
D03*
X750000D02*
D03*
X1050000D02*
D03*
X950000D02*
D03*
X3700000Y5250000D02*
D03*
X3800000D02*
D03*
X3600000D02*
D03*
X3650000Y3325000D02*
D03*
X1300000Y5250000D02*
D03*
X3400000D02*
D03*
X1100000D02*
D03*
X3500000D02*
D03*
X3800000Y3275000D02*
D03*
X3750000Y3225000D02*
D03*
Y3325000D02*
D03*
X3850000Y3225000D02*
D03*
X3800000Y3175000D02*
D03*
X3700000Y3275000D02*
D03*
Y3175000D02*
D03*
X3650000Y3225000D02*
D03*
X900000Y5250000D02*
D03*
X1000000D02*
D03*
X800000D02*
D03*
X700000D02*
D03*
X-2300000Y5550000D02*
D03*
X-2200000D02*
D03*
X-2400000D02*
D03*
X0D02*
D03*
X-2100000D02*
D03*
X-2800000D02*
D03*
X-2700000D02*
D03*
X-2900000D02*
D03*
X-2500000D02*
D03*
X-2600000D02*
D03*
X400000D02*
D03*
X500000D02*
D03*
X300000D02*
D03*
X600000D02*
D03*
X350000Y5500000D02*
D03*
X200000Y5550000D02*
D03*
X100000D02*
D03*
X-4350000Y6550000D02*
D03*
Y6450000D02*
D03*
Y6350000D02*
D03*
X-4400000Y6400000D02*
D03*
Y6600000D02*
D03*
Y6500000D02*
D03*
X-4450000Y6450000D02*
D03*
X-4400000Y6300000D02*
D03*
X-4450000Y6250000D02*
D03*
X-3300000Y5550000D02*
D03*
X-3200000D02*
D03*
X-3000000D02*
D03*
X-3100000D02*
D03*
X-4350000Y6250000D02*
D03*
X-4400000Y6200000D02*
D03*
X-3400000Y5550000D02*
D03*
X250000Y5500000D02*
D03*
X450000D02*
D03*
X150000D02*
D03*
X650000D02*
D03*
X550000D02*
D03*
X-2150000D02*
D03*
X-2050000D02*
D03*
X-2250000D02*
D03*
X50000D02*
D03*
X-50000D02*
D03*
X300000Y5450000D02*
D03*
X400000D02*
D03*
X200000D02*
D03*
X600000D02*
D03*
X500000D02*
D03*
X-2100000D02*
D03*
X-2200000D02*
D03*
X100000D02*
D03*
X0D02*
D03*
X-2850000Y5500000D02*
D03*
X-2750000D02*
D03*
X-2950000D02*
D03*
X-2550000D02*
D03*
X-2650000D02*
D03*
X-3350000D02*
D03*
X-3250000D02*
D03*
X-3450000D02*
D03*
X-3050000D02*
D03*
X-3150000D02*
D03*
X-2450000D02*
D03*
X-2350000D02*
D03*
X-3000000Y5450000D02*
D03*
X-2500000D02*
D03*
X-2900000D02*
D03*
X-3300000D02*
D03*
X-3400000D02*
D03*
X-3100000D02*
D03*
X-3200000D02*
D03*
X-4600000Y6600000D02*
D03*
X-4500000D02*
D03*
X-4450000Y6550000D02*
D03*
X-4550000D02*
D03*
X-4700000Y6600000D02*
D03*
X-4750000Y6550000D02*
D03*
X-4800000Y6600000D02*
D03*
X-4650000Y6550000D02*
D03*
X-4800000Y6500000D02*
D03*
X-4600000D02*
D03*
X-4500000D02*
D03*
X-4650000Y6450000D02*
D03*
X-4550000D02*
D03*
X-4600000Y6400000D02*
D03*
X-4700000Y6500000D02*
D03*
X-4850000Y6450000D02*
D03*
X-4700000Y6400000D02*
D03*
X-4750000Y6450000D02*
D03*
X-4900000Y6600000D02*
D03*
X-5000000D02*
D03*
X-4850000Y6550000D02*
D03*
X-4950000D02*
D03*
X-5200000Y6600000D02*
D03*
X-5100000D02*
D03*
X-5050000Y6550000D02*
D03*
X-5150000D02*
D03*
X-5000000Y6500000D02*
D03*
X-4900000D02*
D03*
X-5050000Y6450000D02*
D03*
X-4950000D02*
D03*
X-5000000Y6400000D02*
D03*
X-5100000Y6500000D02*
D03*
X-5200000D02*
D03*
X-5150000Y6450000D02*
D03*
X-5200000Y6400000D02*
D03*
X-4500000D02*
D03*
X-4450000Y6350000D02*
D03*
X-4550000D02*
D03*
X-4500000Y6300000D02*
D03*
X-4600000D02*
D03*
X-4750000Y6350000D02*
D03*
X-4650000D02*
D03*
X-4800000Y6400000D02*
D03*
X-4700000Y6300000D02*
D03*
X-4800000D02*
D03*
X-4550000Y6250000D02*
D03*
X-4600000Y6200000D02*
D03*
X-4650000Y6250000D02*
D03*
X-4500000Y6200000D02*
D03*
X-4750000Y6250000D02*
D03*
X-4850000D02*
D03*
X-4700000Y6200000D02*
D03*
X-4800000D02*
D03*
X-4900000Y6400000D02*
D03*
X-4850000Y6350000D02*
D03*
X-4950000D02*
D03*
X-4900000Y6300000D02*
D03*
X-5000000D02*
D03*
X-5100000Y6400000D02*
D03*
X-5050000Y6350000D02*
D03*
X-5150000D02*
D03*
X-5100000Y6300000D02*
D03*
X-5200000D02*
D03*
X-4950000Y6250000D02*
D03*
X-5000000Y6200000D02*
D03*
X-5050000Y6250000D02*
D03*
X-4900000Y6200000D02*
D03*
X-5150000Y6250000D02*
D03*
X-5200000Y6200000D02*
D03*
X-5100000D02*
D03*
X450000Y5400000D02*
D03*
X550000D02*
D03*
X350000D02*
D03*
X650000D02*
D03*
X400000Y5350000D02*
D03*
X150000Y5400000D02*
D03*
X250000D02*
D03*
X100000Y5350000D02*
D03*
X300000D02*
D03*
X200000D02*
D03*
X500000D02*
D03*
X600000D02*
D03*
X450000Y5300000D02*
D03*
X650000D02*
D03*
X550000D02*
D03*
X150000D02*
D03*
X50000D02*
D03*
X350000D02*
D03*
X250000D02*
D03*
X-2150000Y5400000D02*
D03*
X-2050000D02*
D03*
X-2250000D02*
D03*
X50000D02*
D03*
X-50000D02*
D03*
X-2300000Y5450000D02*
D03*
X-2350000Y5400000D02*
D03*
X-2400000Y5450000D02*
D03*
X-2300000Y5350000D02*
D03*
X-2400000D02*
D03*
X-2100000D02*
D03*
X0D02*
D03*
X-2150000Y5300000D02*
D03*
X-50000D02*
D03*
X-2050000D02*
D03*
X-2200000Y5350000D02*
D03*
X-2450000Y5300000D02*
D03*
X-2250000D02*
D03*
X-2350000D02*
D03*
X600000Y5250000D02*
D03*
X500000D02*
D03*
X400000D02*
D03*
X100000D02*
D03*
X200000D02*
D03*
X0D02*
D03*
X300000D02*
D03*
X-2300000D02*
D03*
X-2200000D02*
D03*
X-2400000D02*
D03*
X-2100000D02*
D03*
X-2600000Y5450000D02*
D03*
X-2650000Y5400000D02*
D03*
X-2700000Y5450000D02*
D03*
X-2450000Y5400000D02*
D03*
X-2550000D02*
D03*
X-2800000Y5450000D02*
D03*
X-2850000Y5400000D02*
D03*
X-2950000D02*
D03*
X-2750000D02*
D03*
X-2900000Y5350000D02*
D03*
X-2600000D02*
D03*
X-2500000D02*
D03*
X-2700000D02*
D03*
X-2550000Y5300000D02*
D03*
X-2650000D02*
D03*
X-2800000Y5350000D02*
D03*
X-2950000Y5300000D02*
D03*
X-2750000D02*
D03*
X-2850000D02*
D03*
X-3150000Y5400000D02*
D03*
X-3050000D02*
D03*
X-3200000Y5350000D02*
D03*
X-3000000D02*
D03*
X-3100000D02*
D03*
X-3350000Y5400000D02*
D03*
X-3250000D02*
D03*
X-3450000D02*
D03*
X-3300000Y5350000D02*
D03*
X-3400000D02*
D03*
X-3150000Y5300000D02*
D03*
X-3050000D02*
D03*
X-3250000D02*
D03*
X-3100000Y5250000D02*
D03*
X-3350000Y5300000D02*
D03*
X-3450000D02*
D03*
X-2500000Y5250000D02*
D03*
X-2600000D02*
D03*
X-2700000D02*
D03*
X-2900000D02*
D03*
X-2800000D02*
D03*
X-3000000D02*
D03*
X-5100000Y450000D02*
D03*
X-5200000D02*
D03*
X-5050000Y500000D02*
D03*
X-4900000Y450000D02*
D03*
X-5000000D02*
D03*
X-4850000Y500000D02*
D03*
X-4950000D02*
D03*
X-5150000D02*
D03*
X-5100000Y550000D02*
D03*
X-5200000D02*
D03*
X-5050000Y600000D02*
D03*
X-5150000D02*
D03*
X-5000000Y550000D02*
D03*
X-4900000D02*
D03*
X-5000000Y650000D02*
D03*
X-4950000Y600000D02*
D03*
X-4900000Y650000D02*
D03*
X-4700000Y450000D02*
D03*
X-4600000D02*
D03*
X-4800000D02*
D03*
X-4650000Y500000D02*
D03*
X-4750000D02*
D03*
X-4400000Y450000D02*
D03*
X-4550000Y500000D02*
D03*
X-4500000Y450000D02*
D03*
X-4450000Y500000D02*
D03*
X-4800000Y550000D02*
D03*
X-4700000D02*
D03*
X-4850000Y600000D02*
D03*
X-4650000D02*
D03*
X-4750000D02*
D03*
X-4600000Y550000D02*
D03*
X-4500000D02*
D03*
X-4600000Y650000D02*
D03*
X-4450000Y600000D02*
D03*
X-4550000D02*
D03*
X-5200000Y650000D02*
D03*
X-5100000D02*
D03*
X-5200000Y750000D02*
D03*
X-5150000Y700000D02*
D03*
X-5100000Y750000D02*
D03*
X-4950000Y700000D02*
D03*
X-4850000D02*
D03*
X-5050000D02*
D03*
X-4900000Y750000D02*
D03*
X-5000000D02*
D03*
X-5150000Y800000D02*
D03*
X-5050000D02*
D03*
X-5100000Y850000D02*
D03*
X-5200000D02*
D03*
X-4950000Y800000D02*
D03*
X-4850000D02*
D03*
X-5000000Y850000D02*
D03*
X-4900000D02*
D03*
X-4800000Y650000D02*
D03*
X-4700000D02*
D03*
X-4750000Y700000D02*
D03*
X-4650000D02*
D03*
X-4700000Y750000D02*
D03*
X-4500000Y650000D02*
D03*
X-4450000Y700000D02*
D03*
X-4600000Y750000D02*
D03*
X-4550000Y700000D02*
D03*
X-4500000Y750000D02*
D03*
X-4800000D02*
D03*
X-4650000Y800000D02*
D03*
X-4800000Y850000D02*
D03*
X-4750000Y800000D02*
D03*
X-4700000Y850000D02*
D03*
X-4550000Y800000D02*
D03*
X-4450000D02*
D03*
X-4500000Y850000D02*
D03*
X-4600000D02*
D03*
X-4400000Y550000D02*
D03*
X-4400000Y650000D02*
D03*
Y850000D02*
D03*
Y750000D02*
D03*
X-4350000Y500000D02*
D03*
Y800000D02*
D03*
Y600000D02*
D03*
Y700000D02*
D03*
X-3200000Y1350000D02*
D03*
X-3400000D02*
D03*
X-3300000D02*
D03*
X-3150000Y1400000D02*
D03*
X-2900000Y1350000D02*
D03*
X-2800000D02*
D03*
X-3100000D02*
D03*
X-3000000D02*
D03*
X-2850000Y1400000D02*
D03*
X0Y1350000D02*
D03*
X100000D02*
D03*
X-2300000D02*
D03*
X-2100000D02*
D03*
X-2200000D02*
D03*
X500000D02*
D03*
X600000D02*
D03*
X200000D02*
D03*
X400000D02*
D03*
X300000D02*
D03*
X-2500000D02*
D03*
X-2400000D02*
D03*
X-2700000D02*
D03*
X-2600000D02*
D03*
X-2650000Y1400000D02*
D03*
X450000D02*
D03*
X550000D02*
D03*
X50000D02*
D03*
X350000D02*
D03*
X250000D02*
D03*
X-3050000D02*
D03*
X-2950000D02*
D03*
X-3450000D02*
D03*
X-3250000D02*
D03*
X-3350000D02*
D03*
X-2550000D02*
D03*
X-2450000D02*
D03*
X-2750000D02*
D03*
X-2500000Y1450000D02*
D03*
X-2600000D02*
D03*
X-3100000D02*
D03*
X-3000000D02*
D03*
X-3400000D02*
D03*
X-3200000D02*
D03*
X-3300000D02*
D03*
X-2800000D02*
D03*
X-2700000D02*
D03*
X-2900000D02*
D03*
X-2450000Y1500000D02*
D03*
X-2850000D02*
D03*
X-2050000Y1400000D02*
D03*
X-50000D02*
D03*
X-2350000D02*
D03*
X-2150000D02*
D03*
X-2250000D02*
D03*
X150000D02*
D03*
X650000D02*
D03*
X400000Y1450000D02*
D03*
X600000D02*
D03*
X500000D02*
D03*
X-2200000D02*
D03*
X-2100000D02*
D03*
X-2400000D02*
D03*
X-2300000D02*
D03*
X-2350000Y1500000D02*
D03*
X200000Y1450000D02*
D03*
X300000D02*
D03*
X0D02*
D03*
X100000D02*
D03*
X550000Y1500000D02*
D03*
X-3450000D02*
D03*
X-3350000D02*
D03*
X-3400000Y1550000D02*
D03*
X-3300000D02*
D03*
X-3150000Y1500000D02*
D03*
X-3050000D02*
D03*
X-3250000D02*
D03*
X-3100000Y1550000D02*
D03*
X-3200000D02*
D03*
X-3350000Y1600000D02*
D03*
X-3250000D02*
D03*
X-3450000D02*
D03*
X-3300000Y1650000D02*
D03*
X-3400000D02*
D03*
X-3150000Y1600000D02*
D03*
X-3050000D02*
D03*
X-3200000Y1650000D02*
D03*
X-3000000D02*
D03*
X-3100000D02*
D03*
X-2950000Y1500000D02*
D03*
X-2750000D02*
D03*
X-3000000Y1550000D02*
D03*
X-2800000D02*
D03*
X-2900000D02*
D03*
X-2650000Y1500000D02*
D03*
X-2550000D02*
D03*
X-2700000Y1550000D02*
D03*
X-2500000D02*
D03*
X-2600000D02*
D03*
X-2850000Y1600000D02*
D03*
X-2750000D02*
D03*
X-2950000D02*
D03*
X-2800000Y1650000D02*
D03*
X-2900000D02*
D03*
X-2650000Y1600000D02*
D03*
X-2550000D02*
D03*
X-2700000Y1650000D02*
D03*
X-2500000D02*
D03*
X-2600000D02*
D03*
X-2900000Y4525000D02*
D03*
X-3000000D02*
D03*
X-3150000Y4575000D02*
D03*
X-3100000Y4525000D02*
D03*
X-3150000Y4675000D02*
D03*
X-3100000Y4625000D02*
D03*
X-3050000Y4675000D02*
D03*
Y4575000D02*
D03*
X-2950000D02*
D03*
X-3000000Y4625000D02*
D03*
X-2900000D02*
D03*
X-2950000Y4675000D02*
D03*
X-2700000Y4525000D02*
D03*
X-2800000D02*
D03*
X-2650000Y4575000D02*
D03*
X-2750000D02*
D03*
X-2600000Y4525000D02*
D03*
X-2500000D02*
D03*
X-2550000Y4575000D02*
D03*
X-2850000D02*
D03*
X-2700000Y4625000D02*
D03*
X-2850000Y4675000D02*
D03*
X-2800000Y4625000D02*
D03*
X-2750000Y4675000D02*
D03*
X-2600000Y4625000D02*
D03*
X-2500000D02*
D03*
X-2650000Y4675000D02*
D03*
X-2450000D02*
D03*
X-2550000D02*
D03*
X-2250000Y1500000D02*
D03*
X-2150000D02*
D03*
X-2300000Y1550000D02*
D03*
X-2200000D02*
D03*
X-50000Y1500000D02*
D03*
X50000D02*
D03*
X-2100000Y1550000D02*
D03*
X-2050000Y1500000D02*
D03*
X0Y1550000D02*
D03*
X-2400000D02*
D03*
X-2150000Y1600000D02*
D03*
X-2450000D02*
D03*
X-2250000D02*
D03*
X-2350000D02*
D03*
X-50000D02*
D03*
X50000D02*
D03*
X-2100000Y1650000D02*
D03*
X-2050000Y1600000D02*
D03*
X0Y1650000D02*
D03*
X150000Y1500000D02*
D03*
X250000D02*
D03*
X100000Y1550000D02*
D03*
X300000D02*
D03*
X200000D02*
D03*
X350000Y1500000D02*
D03*
X450000D02*
D03*
X400000Y1550000D02*
D03*
X600000D02*
D03*
X500000D02*
D03*
X250000Y1600000D02*
D03*
X350000D02*
D03*
X100000Y1650000D02*
D03*
X150000Y1600000D02*
D03*
X300000Y1650000D02*
D03*
X550000Y1600000D02*
D03*
X650000D02*
D03*
X450000D02*
D03*
X600000Y1650000D02*
D03*
X500000D02*
D03*
X-2300000D02*
D03*
X-2200000D02*
D03*
X-2400000D02*
D03*
X200000D02*
D03*
X-2400000Y4525000D02*
D03*
X-2350000Y4575000D02*
D03*
X-2450000D02*
D03*
X-2400000Y4625000D02*
D03*
X-2350000Y4675000D02*
D03*
X250000Y4575000D02*
D03*
X300000Y4625000D02*
D03*
X250000Y4675000D02*
D03*
X400000Y1650000D02*
D03*
X400000Y4525000D02*
D03*
X600000D02*
D03*
X500000D02*
D03*
X300000D02*
D03*
X350000Y4575000D02*
D03*
Y4675000D02*
D03*
X400000Y4625000D02*
D03*
X450000Y4675000D02*
D03*
Y4575000D02*
D03*
X550000D02*
D03*
X500000Y4625000D02*
D03*
X600000D02*
D03*
X550000Y4675000D02*
D03*
X3700000Y1350000D02*
D03*
X3800000D02*
D03*
X3500000D02*
D03*
X3600000D02*
D03*
X4200000D02*
D03*
X4300000D02*
D03*
X3900000D02*
D03*
X4100000D02*
D03*
X4000000D02*
D03*
X1000000D02*
D03*
X1100000D02*
D03*
X700000D02*
D03*
X900000D02*
D03*
X800000D02*
D03*
X1300000D02*
D03*
X3400000D02*
D03*
X1200000D02*
D03*
X4250000Y1400000D02*
D03*
X3850000D02*
D03*
X4350000Y450000D02*
D03*
X4400000Y500000D02*
D03*
X4350000Y550000D02*
D03*
X4400000Y600000D02*
D03*
X4350000Y650000D02*
D03*
X4450000Y450000D02*
D03*
Y650000D02*
D03*
Y550000D02*
D03*
X4500000Y600000D02*
D03*
X4350000Y750000D02*
D03*
X4400000Y800000D02*
D03*
X4350000Y850000D02*
D03*
X4400000Y1350000D02*
D03*
X4350000Y1400000D02*
D03*
X4400000Y700000D02*
D03*
X4450000Y750000D02*
D03*
Y850000D02*
D03*
X4500000Y1350000D02*
D03*
X1050000Y1400000D02*
D03*
X1150000D02*
D03*
X750000D02*
D03*
X950000D02*
D03*
X850000D02*
D03*
X1350000D02*
D03*
X3350000D02*
D03*
X1250000D02*
D03*
X3400000Y1450000D02*
D03*
X1300000D02*
D03*
X900000D02*
D03*
X1000000D02*
D03*
X650000Y1500000D02*
D03*
X800000Y1450000D02*
D03*
X700000D02*
D03*
X1100000D02*
D03*
X1200000D02*
D03*
X1250000Y1500000D02*
D03*
X3450000D02*
D03*
X1350000D02*
D03*
X3750000Y1400000D02*
D03*
X3950000D02*
D03*
X3450000D02*
D03*
X3650000D02*
D03*
X3550000D02*
D03*
X4150000D02*
D03*
X4450000D02*
D03*
X4050000D02*
D03*
X4500000Y1450000D02*
D03*
X4400000D02*
D03*
X3700000D02*
D03*
X3800000D02*
D03*
X3500000D02*
D03*
X3600000D02*
D03*
X3850000Y1500000D02*
D03*
X4200000Y1450000D02*
D03*
X4300000D02*
D03*
X3900000D02*
D03*
X4100000D02*
D03*
X4000000D02*
D03*
X4550000Y450000D02*
D03*
X4650000D02*
D03*
X4500000Y500000D02*
D03*
X4600000D02*
D03*
X4700000D02*
D03*
X4750000Y450000D02*
D03*
X4800000Y500000D02*
D03*
X4550000Y550000D02*
D03*
X4650000D02*
D03*
X4550000Y650000D02*
D03*
X4600000Y600000D02*
D03*
X4650000Y650000D02*
D03*
X4750000Y550000D02*
D03*
X4800000Y600000D02*
D03*
X4700000D02*
D03*
X4850000Y650000D02*
D03*
X4750000D02*
D03*
X4950000Y450000D02*
D03*
X5050000D02*
D03*
X4850000D02*
D03*
X5000000Y500000D02*
D03*
X4900000D02*
D03*
X5150000Y450000D02*
D03*
X5100000Y500000D02*
D03*
X5200000D02*
D03*
X5150000Y550000D02*
D03*
X4850000D02*
D03*
X4950000D02*
D03*
X4900000Y600000D02*
D03*
X5000000D02*
D03*
X4950000Y650000D02*
D03*
X5050000Y550000D02*
D03*
X5200000Y600000D02*
D03*
X5050000Y650000D02*
D03*
X5100000Y600000D02*
D03*
X5150000Y650000D02*
D03*
X4500000Y700000D02*
D03*
X4600000D02*
D03*
X4500000Y800000D02*
D03*
X4550000Y750000D02*
D03*
X4600000Y800000D02*
D03*
X4700000Y700000D02*
D03*
X4750000Y750000D02*
D03*
X4650000D02*
D03*
X4700000Y800000D02*
D03*
X4750000Y850000D02*
D03*
X4550000D02*
D03*
X4600000Y1350000D02*
D03*
X4550000Y1400000D02*
D03*
X4650000Y850000D02*
D03*
X4900000Y700000D02*
D03*
X5000000D02*
D03*
X4800000D02*
D03*
X4950000Y750000D02*
D03*
X4850000D02*
D03*
X5100000Y700000D02*
D03*
X5200000D02*
D03*
X5050000Y750000D02*
D03*
X5150000D02*
D03*
X5200000Y800000D02*
D03*
X4800000D02*
D03*
X4900000D02*
D03*
X4950000Y850000D02*
D03*
X4850000D02*
D03*
X5000000Y800000D02*
D03*
X5100000D02*
D03*
X5050000Y850000D02*
D03*
X5150000D02*
D03*
X850000Y1500000D02*
D03*
X950000D02*
D03*
X750000D02*
D03*
X900000Y1550000D02*
D03*
X1050000Y1500000D02*
D03*
X1150000D02*
D03*
X1000000Y1550000D02*
D03*
X1200000D02*
D03*
X1100000D02*
D03*
X700000D02*
D03*
X800000D02*
D03*
X750000Y1600000D02*
D03*
X850000D02*
D03*
X900000Y1650000D02*
D03*
X1050000Y1600000D02*
D03*
X1150000D02*
D03*
X950000D02*
D03*
X1100000Y1650000D02*
D03*
X1000000D02*
D03*
X3350000Y1500000D02*
D03*
X3550000D02*
D03*
X1300000Y1550000D02*
D03*
X3500000D02*
D03*
X3400000D02*
D03*
X3650000Y1500000D02*
D03*
X3750000D02*
D03*
X3600000Y1550000D02*
D03*
X3700000D02*
D03*
X3750000Y1600000D02*
D03*
X3350000D02*
D03*
X3450000D02*
D03*
X1250000D02*
D03*
X1350000D02*
D03*
X3500000Y1650000D02*
D03*
X3550000Y1600000D02*
D03*
X3650000D02*
D03*
X3600000Y1650000D02*
D03*
X3800000D02*
D03*
X3700000D02*
D03*
X700000D02*
D03*
X800000D02*
D03*
X700000Y4525000D02*
D03*
X800000D02*
D03*
X1000000D02*
D03*
X850000Y4575000D02*
D03*
X900000Y4525000D02*
D03*
X950000Y4575000D02*
D03*
X650000D02*
D03*
X750000D02*
D03*
X650000Y4675000D02*
D03*
X700000Y4625000D02*
D03*
X750000Y4675000D02*
D03*
X900000Y4625000D02*
D03*
X1000000D02*
D03*
X800000D02*
D03*
X950000Y4675000D02*
D03*
X850000D02*
D03*
X1300000Y1650000D02*
D03*
X3400000D02*
D03*
X1200000D02*
D03*
X1050000Y4575000D02*
D03*
X3650000D02*
D03*
X1050000Y4675000D02*
D03*
X3700000Y4625000D02*
D03*
X3650000Y4675000D02*
D03*
X3700000Y4525000D02*
D03*
X3800000D02*
D03*
X3750000Y4675000D02*
D03*
Y4575000D02*
D03*
X3800000Y4625000D02*
D03*
X3950000Y1500000D02*
D03*
X4000000Y1550000D02*
D03*
X3800000D02*
D03*
X3900000D02*
D03*
X4150000Y1500000D02*
D03*
X4250000D02*
D03*
X4050000D02*
D03*
X4200000Y1550000D02*
D03*
X4100000D02*
D03*
X3950000Y1600000D02*
D03*
X4050000D02*
D03*
X3850000D02*
D03*
X4000000Y1650000D02*
D03*
X3900000D02*
D03*
X4150000Y1600000D02*
D03*
X4250000D02*
D03*
X4100000Y1650000D02*
D03*
X4300000D02*
D03*
X4200000D02*
D03*
X4350000Y1500000D02*
D03*
X4450000D02*
D03*
X4300000Y1550000D02*
D03*
X4500000D02*
D03*
X4400000D02*
D03*
X4550000Y1500000D02*
D03*
X4450000Y1600000D02*
D03*
X4550000D02*
D03*
X4350000D02*
D03*
X4500000Y1650000D02*
D03*
X4400000D02*
D03*
X4000000Y4525000D02*
D03*
X3900000D02*
D03*
X4100000D02*
D03*
X4150000Y4575000D02*
D03*
X3850000D02*
D03*
X3950000D02*
D03*
X3850000Y4675000D02*
D03*
X3900000Y4625000D02*
D03*
X3950000Y4675000D02*
D03*
X4050000Y4575000D02*
D03*
X4100000Y4625000D02*
D03*
X4000000D02*
D03*
X4150000Y4675000D02*
D03*
X4050000D02*
D03*
X4300000Y4525000D02*
D03*
X4400000D02*
D03*
X4200000D02*
D03*
X4250000Y4575000D02*
D03*
X4200000Y4625000D02*
D03*
X4300000D02*
D03*
X4250000Y4675000D02*
D03*
X4350000Y4575000D02*
D03*
X4450000D02*
D03*
X4350000Y4675000D02*
D03*
X4400000Y4625000D02*
D03*
X4450000Y4675000D02*
D03*
X3950000Y1900000D02*
D03*
X4300000Y1950000D02*
D03*
X4400001Y1850000D02*
D03*
X4500000D02*
D03*
X4000000Y1950000D02*
D03*
X4400001D02*
D03*
X4050000Y2000000D02*
D03*
X4150000D02*
D03*
X4350000Y1900000D02*
D03*
X4450000D02*
D03*
X4550000Y2000000D02*
D03*
X4200000Y1950000D02*
D03*
X4250000Y1900000D02*
D03*
X4450000Y2000000D02*
D03*
X4300000Y1850000D02*
D03*
X4100000Y1950000D02*
D03*
Y1850000D02*
D03*
X4550000Y1900000D02*
D03*
X4200000Y1850000D02*
D03*
X4250000Y2000000D02*
D03*
X4000000Y1850000D02*
D03*
X4150000Y1900000D02*
D03*
X3950000Y2000000D02*
D03*
X4500000Y1950000D02*
D03*
X4050000Y1900000D02*
D03*
X4350000Y2000000D02*
D03*
X3900000Y1850000D02*
D03*
Y1950000D02*
D03*
Y1750000D02*
D03*
X4050000Y1800000D02*
D03*
X4150000D02*
D03*
X4000000Y1750000D02*
D03*
X4200000D02*
D03*
X4550000Y1800000D02*
D03*
X4100000Y1750000D02*
D03*
X4300000D02*
D03*
X4250000Y1800000D02*
D03*
X4450000D02*
D03*
X4350000D02*
D03*
X4500000Y1750000D02*
D03*
X4400001D02*
D03*
X3950000Y1800000D02*
D03*
X4450000Y1700000D02*
D03*
X4550000D02*
D03*
X4350000D02*
D03*
X4150000D02*
D03*
X4250000D02*
D03*
X4050000D02*
D03*
X3850000D02*
D03*
X3950000D02*
D03*
X650000Y1900000D02*
D03*
X1000000Y1950000D02*
D03*
X1100001Y1850000D02*
D03*
X1200000D02*
D03*
X700000Y1950000D02*
D03*
X1100001D02*
D03*
X750000Y2000000D02*
D03*
X850000D02*
D03*
X1050000Y1900000D02*
D03*
X1300000Y1850000D02*
D03*
X1150000Y1900000D02*
D03*
X1250000Y2000000D02*
D03*
X900000Y1950000D02*
D03*
X950000Y1900000D02*
D03*
X1150000Y2000000D02*
D03*
X1300000Y1950000D02*
D03*
X1000000Y1850000D02*
D03*
X800000Y1950000D02*
D03*
Y1850000D02*
D03*
X1250000Y1900000D02*
D03*
X900000Y1850000D02*
D03*
X950000Y2000000D02*
D03*
X700000Y1850000D02*
D03*
X850000Y1900000D02*
D03*
X650000Y2000000D02*
D03*
X1200000Y1950000D02*
D03*
X750000Y1900000D02*
D03*
X1050000Y2000000D02*
D03*
X550000D02*
D03*
X600000Y1850000D02*
D03*
X550000Y1900000D02*
D03*
X600000Y1950000D02*
D03*
X550000Y1800000D02*
D03*
X600000Y1750000D02*
D03*
X750000Y1800000D02*
D03*
X850000D02*
D03*
X700000Y1750000D02*
D03*
X900000D02*
D03*
X1250000Y1800000D02*
D03*
X800000Y1750000D02*
D03*
X1000000D02*
D03*
X950000Y1800000D02*
D03*
X1150000D02*
D03*
X1300000Y1750000D02*
D03*
X1050000Y1800000D02*
D03*
X1200000Y1750000D02*
D03*
X1100001D02*
D03*
X650000Y1800000D02*
D03*
X1150000Y1700000D02*
D03*
X1250000D02*
D03*
X1050000D02*
D03*
X850000D02*
D03*
X950000D02*
D03*
X750000D02*
D03*
X550000D02*
D03*
X650000D02*
D03*
X-2800000Y1750000D02*
D03*
X-2700000D02*
D03*
X-2500000D02*
D03*
X-2600000D02*
D03*
X-2400000D02*
D03*
X-2100000D02*
D03*
X-2200000D02*
D03*
X-2299999D02*
D03*
X-2250000Y1700000D02*
D03*
X-2150000D02*
D03*
X-2350000D02*
D03*
X-2550000D02*
D03*
X-2450000D02*
D03*
X-2650000D02*
D03*
X-2850000D02*
D03*
X-2750000D02*
D03*
Y1900000D02*
D03*
X-2400000Y1950000D02*
D03*
X-2299999Y1850000D02*
D03*
X-2200000D02*
D03*
X-2700000Y1950000D02*
D03*
X-2299999D02*
D03*
X-2650000Y2000000D02*
D03*
X-2550000D02*
D03*
X-2350000Y1900000D02*
D03*
X-2100000Y1850000D02*
D03*
X-2250000Y1900000D02*
D03*
X-2150000Y2000000D02*
D03*
X-2500000Y1950000D02*
D03*
X-2450000Y1900000D02*
D03*
X-2250000Y2000000D02*
D03*
X-2100000Y1950000D02*
D03*
X-2400000Y1850000D02*
D03*
X-2600000Y1950000D02*
D03*
Y1850000D02*
D03*
X-2150000Y1900000D02*
D03*
X-2500000Y1850000D02*
D03*
X-2450000Y2000000D02*
D03*
X-2700000Y1850000D02*
D03*
X-2550000Y1900000D02*
D03*
X-2750000Y2000000D02*
D03*
X-2200000Y1950000D02*
D03*
X-2650000Y1900000D02*
D03*
X-2350000Y2000000D02*
D03*
X-2850000D02*
D03*
X-2800000Y1850000D02*
D03*
X-2850000Y1900000D02*
D03*
X-2800000Y1950000D02*
D03*
X-2850000Y1800000D02*
D03*
X-2650000D02*
D03*
X-2550000D02*
D03*
X-2150000D02*
D03*
X-2450000D02*
D03*
X-2250000D02*
D03*
X-2350000D02*
D03*
X-2750000D02*
D03*
X-5324551Y424538D02*
D03*
Y624539D02*
D03*
Y824539D02*
D03*
Y1224539D02*
D03*
X-5224551D02*
D03*
X-5124551D02*
D03*
X-5024551D02*
D03*
X-4924551D02*
D03*
X-4824551D02*
D03*
X-4724551D02*
D03*
X-4624551D02*
D03*
X-4524551D02*
D03*
X-4424551D02*
D03*
X-4274551Y1124539D02*
D03*
X-4324551Y1224539D02*
D03*
X-4224551Y224538D02*
D03*
X-4174551Y324538D02*
D03*
X-4224551Y424538D02*
D03*
X-4174551Y524538D02*
D03*
X-4224551Y624539D02*
D03*
X-4174551Y724539D02*
D03*
X-4224551Y824539D02*
D03*
X-4174551Y924539D02*
D03*
X-4224551Y1024539D02*
D03*
X-4174551Y1124539D02*
D03*
X-4224551Y1224539D02*
D03*
X-4124551Y224538D02*
D03*
X-4074551Y324538D02*
D03*
X-4124551Y424538D02*
D03*
X-4074551Y524538D02*
D03*
X-4124551Y624539D02*
D03*
X-4074551Y724539D02*
D03*
X-4124551Y824539D02*
D03*
X-4074551Y924539D02*
D03*
X-4124551Y1024539D02*
D03*
X-4074551Y1124539D02*
D03*
X-4124551Y1224539D02*
D03*
X-4024551Y224538D02*
D03*
X-3974551Y324538D02*
D03*
X-4024551Y424538D02*
D03*
X-3974551Y524538D02*
D03*
X-4024551Y624539D02*
D03*
X-3974551Y724539D02*
D03*
X-4024551Y824539D02*
D03*
X-3974551Y924539D02*
D03*
X-4024551Y1024539D02*
D03*
X-3974551Y1124539D02*
D03*
X-4024551Y1224539D02*
D03*
X-3924551Y224538D02*
D03*
X-3874551Y324538D02*
D03*
X-3924551Y424538D02*
D03*
X-3874551Y524538D02*
D03*
X-3924551Y624539D02*
D03*
X-3874551Y724539D02*
D03*
X-3924551Y824539D02*
D03*
X-3874551Y924539D02*
D03*
X-3924551Y1024539D02*
D03*
X-3874551Y1124539D02*
D03*
X-3924551Y1224539D02*
D03*
X-3824551Y224538D02*
D03*
X-3774551Y324538D02*
D03*
X-3824551Y424538D02*
D03*
X-3774551Y524538D02*
D03*
X-3824551Y624539D02*
D03*
X-3774551Y724539D02*
D03*
X-3824551Y824539D02*
D03*
X-3774551Y924539D02*
D03*
X-3824551Y1024539D02*
D03*
X-3774551Y1124539D02*
D03*
X-3824551Y1224539D02*
D03*
X-3724551Y224538D02*
D03*
X-3674551Y324538D02*
D03*
X-3724551Y424538D02*
D03*
X-3674551Y524538D02*
D03*
X-3724551Y624539D02*
D03*
X-3674551Y724539D02*
D03*
X-3724551Y824539D02*
D03*
X-3674551Y924539D02*
D03*
X-3724551Y1024539D02*
D03*
X-3674551Y1124539D02*
D03*
X-3724551Y1224539D02*
D03*
X-3624551Y224538D02*
D03*
X-3574551Y324538D02*
D03*
X-3624551Y424538D02*
D03*
X-3574551Y524538D02*
D03*
X-3624551Y624539D02*
D03*
X-3574551Y724539D02*
D03*
X-3624551Y824539D02*
D03*
X-3574551Y924539D02*
D03*
X-3624551Y1024539D02*
D03*
X-3574551Y1124539D02*
D03*
X-3624551Y1224539D02*
D03*
X-3524550Y224538D02*
D03*
X-3474551Y324538D02*
D03*
X-3524550Y424538D02*
D03*
X-3474551Y524538D02*
D03*
X-3524550Y624539D02*
D03*
X-3474551Y724539D02*
D03*
X-3524550Y824539D02*
D03*
X-3474551Y924539D02*
D03*
X-3524550Y1024539D02*
D03*
X-3474551Y1124539D02*
D03*
X-3524550Y1224539D02*
D03*
X-3474551Y1724539D02*
D03*
Y1924539D02*
D03*
Y2124539D02*
D03*
Y2324539D02*
D03*
Y2524540D02*
D03*
Y2724540D02*
D03*
Y2924540D02*
D03*
X-3424550Y224538D02*
D03*
X-3374551Y324538D02*
D03*
X-3424550Y424538D02*
D03*
X-3374551Y524538D02*
D03*
X-3424550Y624539D02*
D03*
X-3374551Y724539D02*
D03*
X-3424550Y824539D02*
D03*
X-3374551Y924539D02*
D03*
X-3424550Y1024539D02*
D03*
X-3374551Y1124539D02*
D03*
X-3424550Y1224539D02*
D03*
X-3374551Y2124539D02*
D03*
X-3424550Y2224539D02*
D03*
X-3374551Y2324539D02*
D03*
X-3424550Y2424539D02*
D03*
X-3374551Y2524540D02*
D03*
X-3424550Y2624540D02*
D03*
X-3374551Y2724540D02*
D03*
X-3424550Y2824540D02*
D03*
X-3324550Y224538D02*
D03*
X-3274550Y324538D02*
D03*
X-3324550Y424538D02*
D03*
X-3274550Y524538D02*
D03*
X-3324550Y624539D02*
D03*
X-3274550Y724539D02*
D03*
X-3324550Y824539D02*
D03*
X-3274550Y924539D02*
D03*
X-3324550Y1024539D02*
D03*
X-3274550Y1124539D02*
D03*
X-3324550Y1224539D02*
D03*
Y2224539D02*
D03*
X-3274550Y2324539D02*
D03*
X-3324550Y2424539D02*
D03*
X-3274550Y2524540D02*
D03*
X-3324550Y2624540D02*
D03*
X-3274550Y2724540D02*
D03*
X-3324550Y2824540D02*
D03*
X-3224550Y224538D02*
D03*
X-3174550Y324538D02*
D03*
X-3224550Y424538D02*
D03*
X-3174550Y524538D02*
D03*
X-3224550Y624539D02*
D03*
X-3174550Y724539D02*
D03*
X-3224550Y824539D02*
D03*
X-3174550Y924539D02*
D03*
X-3224550Y1024539D02*
D03*
X-3174550Y1124539D02*
D03*
X-3224550Y1224539D02*
D03*
Y2224539D02*
D03*
X-3174550Y2324539D02*
D03*
X-3224550Y2824540D02*
D03*
X-3124550Y224538D02*
D03*
X-3074550Y324538D02*
D03*
X-3124550Y424538D02*
D03*
X-3074550Y524538D02*
D03*
X-3124550Y624539D02*
D03*
X-3074550Y724539D02*
D03*
X-3124550Y824539D02*
D03*
X-3074550Y924539D02*
D03*
X-3124550Y1024539D02*
D03*
X-3074550Y1124539D02*
D03*
X-3124550Y1224539D02*
D03*
Y2224539D02*
D03*
X-3074550Y2324539D02*
D03*
X-3124550Y2824540D02*
D03*
X-3024550Y224538D02*
D03*
X-2974550Y324538D02*
D03*
X-3024550Y424538D02*
D03*
X-2974550Y524538D02*
D03*
X-3024550Y624539D02*
D03*
X-2974550Y724539D02*
D03*
X-3024550Y824539D02*
D03*
X-2974550Y924539D02*
D03*
X-3024550Y1024539D02*
D03*
X-2974550Y1124539D02*
D03*
X-3024550Y1224539D02*
D03*
Y2224539D02*
D03*
X-2974550Y2324539D02*
D03*
X-3024550Y2824540D02*
D03*
X-2924550Y224538D02*
D03*
X-2874550Y324538D02*
D03*
X-2924550Y424538D02*
D03*
X-2874550Y524538D02*
D03*
X-2924550Y624539D02*
D03*
X-2874550Y724539D02*
D03*
X-2924550Y824539D02*
D03*
X-2874550Y924539D02*
D03*
X-2924550Y1024539D02*
D03*
X-2874550Y1124539D02*
D03*
X-2924550Y1224539D02*
D03*
X-2874550Y2124539D02*
D03*
X-2924550Y2224539D02*
D03*
X-2874550Y2324539D02*
D03*
X-2924550Y2824540D02*
D03*
X-2824550Y224538D02*
D03*
X-2774550Y324538D02*
D03*
X-2824550Y424538D02*
D03*
X-2774550Y524538D02*
D03*
X-2824550Y624539D02*
D03*
X-2774550Y724539D02*
D03*
X-2824550Y824539D02*
D03*
X-2774550Y924539D02*
D03*
X-2824550Y1024539D02*
D03*
X-2774550Y1124539D02*
D03*
X-2824550Y1224539D02*
D03*
X-2774550Y2124539D02*
D03*
X-2824550Y2224539D02*
D03*
X-2774550Y2324539D02*
D03*
X-2824550Y2824540D02*
D03*
X-2724550Y224538D02*
D03*
X-2674550Y324538D02*
D03*
X-2724550Y424538D02*
D03*
X-2674550Y524538D02*
D03*
X-2724550Y624539D02*
D03*
X-2674550Y724539D02*
D03*
X-2724550Y824539D02*
D03*
X-2674550Y924539D02*
D03*
X-2724550Y1024539D02*
D03*
X-2674550Y1124539D02*
D03*
X-2724550Y1224539D02*
D03*
X-2674550Y2124539D02*
D03*
X-2724550Y2224539D02*
D03*
X-2674550Y2324539D02*
D03*
X-2724550Y2824540D02*
D03*
X-2624550Y224538D02*
D03*
X-2574550Y324538D02*
D03*
X-2624550Y424538D02*
D03*
X-2574550Y524538D02*
D03*
X-2624550Y624539D02*
D03*
X-2574550Y724539D02*
D03*
X-2624550Y824539D02*
D03*
X-2574550Y924539D02*
D03*
X-2624550Y1024539D02*
D03*
X-2574550Y1124539D02*
D03*
X-2624550Y1224539D02*
D03*
X-2574550Y2124539D02*
D03*
X-2624550Y2224539D02*
D03*
X-2574550Y2324539D02*
D03*
X-2624550Y2824540D02*
D03*
X-2524550Y224538D02*
D03*
X-2474550Y324538D02*
D03*
X-2524550Y424538D02*
D03*
X-2474550Y524538D02*
D03*
X-2524550Y624539D02*
D03*
X-2474550Y724539D02*
D03*
X-2524550Y824539D02*
D03*
X-2474550Y924539D02*
D03*
X-2524550Y1024539D02*
D03*
X-2474550Y1124539D02*
D03*
X-2524550Y1224539D02*
D03*
X-2474550Y2124539D02*
D03*
X-2524550Y2224539D02*
D03*
X-2474550Y2324539D02*
D03*
X-2524550Y2824540D02*
D03*
X-2424550Y224538D02*
D03*
X-2374550Y324538D02*
D03*
X-2424550Y424538D02*
D03*
X-2374550Y524538D02*
D03*
X-2424550Y624539D02*
D03*
X-2374550Y724539D02*
D03*
X-2424550Y824539D02*
D03*
X-2374550Y924539D02*
D03*
X-2424550Y1024539D02*
D03*
X-2374550Y1124539D02*
D03*
X-2424550Y1224539D02*
D03*
X-2374550Y2124539D02*
D03*
X-2424550Y2224539D02*
D03*
X-2374550Y2324539D02*
D03*
X-2424550Y2824540D02*
D03*
X-2324550Y224538D02*
D03*
X-2274550Y324538D02*
D03*
X-2324550Y424538D02*
D03*
X-2274550Y524538D02*
D03*
X-2324550Y624539D02*
D03*
X-2274550Y724539D02*
D03*
X-2324550Y824539D02*
D03*
X-2274550Y924539D02*
D03*
X-2324550Y1024539D02*
D03*
X-2274550Y1124539D02*
D03*
X-2324550Y1224539D02*
D03*
X-2274550Y2124539D02*
D03*
X-2324550Y2224539D02*
D03*
X-2274550Y2324539D02*
D03*
X-2324550Y2824540D02*
D03*
X-2224550Y224538D02*
D03*
X-2174550Y324538D02*
D03*
X-2224550Y424538D02*
D03*
X-2174550Y524538D02*
D03*
X-2224550Y624539D02*
D03*
X-2174550Y724539D02*
D03*
X-2224550Y824539D02*
D03*
X-2174550Y924539D02*
D03*
X-2224550Y1024539D02*
D03*
X-2174550Y1124539D02*
D03*
X-2224550Y1224539D02*
D03*
X-2174550Y2124539D02*
D03*
X-2224550Y2224539D02*
D03*
X-2174550Y2324539D02*
D03*
X-2224550Y2424539D02*
D03*
X-2174550Y2524540D02*
D03*
X-2224550Y2624540D02*
D03*
X-2174550Y2724540D02*
D03*
X-2224550Y2824540D02*
D03*
X-2124550Y224538D02*
D03*
X-2074550Y324538D02*
D03*
X-2124550Y424538D02*
D03*
X-2074550Y524538D02*
D03*
X-2124550Y624539D02*
D03*
X-2074550Y724539D02*
D03*
X-2124550Y824539D02*
D03*
X-2074550Y924539D02*
D03*
X-2124550Y1024539D02*
D03*
X-2074550Y1124539D02*
D03*
X-2124550Y1224539D02*
D03*
X-2074550Y2124539D02*
D03*
X-2124550Y2224539D02*
D03*
X-2074550Y2324539D02*
D03*
X-2124550Y2424539D02*
D03*
X-2074550Y2524540D02*
D03*
X-2124550Y2624540D02*
D03*
X-2074550Y2724540D02*
D03*
X-2124550Y2824540D02*
D03*
X-2074550Y2924540D02*
D03*
X-2024550Y224538D02*
D03*
X-1974550Y324538D02*
D03*
X-2024550Y424538D02*
D03*
X-1974550Y524538D02*
D03*
X-2024550Y624539D02*
D03*
X-1974550Y724539D02*
D03*
X-2024550Y824539D02*
D03*
X-1974550Y924539D02*
D03*
X-2024550Y1024539D02*
D03*
X-1974550Y1124539D02*
D03*
X-2024550Y1224539D02*
D03*
X-1974550Y1324539D02*
D03*
X-1924550Y224538D02*
D03*
X-1874550Y324538D02*
D03*
X-1924550Y424538D02*
D03*
X-1874550Y524538D02*
D03*
X-1924550Y624539D02*
D03*
X-1874550Y724539D02*
D03*
X-1924550Y824539D02*
D03*
X-1874550Y924539D02*
D03*
X-1924550Y1024539D02*
D03*
X-1874550Y1124539D02*
D03*
X-1924550Y1224539D02*
D03*
X-1824550Y224538D02*
D03*
X-1774550Y324538D02*
D03*
X-1824550Y424538D02*
D03*
X-1774550Y524538D02*
D03*
X-1824550Y624539D02*
D03*
X-1774550Y724539D02*
D03*
X-1824550Y824539D02*
D03*
X-1774550Y924539D02*
D03*
X-1824550Y1024539D02*
D03*
X-1774550Y1124539D02*
D03*
X-1824550Y1224539D02*
D03*
X-1724550Y224538D02*
D03*
X-1674550Y324538D02*
D03*
X-1724550Y424538D02*
D03*
X-1674550Y524538D02*
D03*
X-1724550Y624539D02*
D03*
X-1674550Y724539D02*
D03*
X-1724550Y824539D02*
D03*
X-1674550Y924539D02*
D03*
X-1724550Y1024539D02*
D03*
X-1674550Y1124539D02*
D03*
X-1724550Y1224539D02*
D03*
X-1624549Y224538D02*
D03*
X-1574550Y324538D02*
D03*
X-1624549Y424538D02*
D03*
X-1574550Y524538D02*
D03*
X-1624549Y624539D02*
D03*
X-1574550Y724539D02*
D03*
X-1624549Y824539D02*
D03*
X-1574550Y924539D02*
D03*
X-1624549Y1024539D02*
D03*
X-1574550Y1124539D02*
D03*
X-1624549Y1224539D02*
D03*
X-1524549Y224538D02*
D03*
X-1474550Y324538D02*
D03*
X-1524549Y424538D02*
D03*
X-1474550Y524538D02*
D03*
X-1524549Y624539D02*
D03*
X-1474550Y724539D02*
D03*
X-1524549Y824539D02*
D03*
X-1474550Y924539D02*
D03*
X-1524549Y1024539D02*
D03*
X-1474550Y1124539D02*
D03*
X-1524549Y1224539D02*
D03*
X-1424549Y224538D02*
D03*
X-1374549Y324538D02*
D03*
X-1424549Y424538D02*
D03*
X-1374549Y524538D02*
D03*
X-1424549Y624539D02*
D03*
X-1374549Y724539D02*
D03*
X-1424549Y824539D02*
D03*
X-1374549Y924539D02*
D03*
X-1424549Y1024539D02*
D03*
X-1374549Y1124539D02*
D03*
X-1424549Y1224539D02*
D03*
X-1324549Y224538D02*
D03*
X-1274549Y324538D02*
D03*
X-1324549Y424538D02*
D03*
X-1274549Y524538D02*
D03*
X-1324549Y624539D02*
D03*
X-1274549Y724539D02*
D03*
X-1324549Y824539D02*
D03*
X-1274549Y924539D02*
D03*
X-1324549Y1024539D02*
D03*
X-1274549Y1124539D02*
D03*
X-1324549Y1224539D02*
D03*
X-1224549Y224538D02*
D03*
X-1174549Y324538D02*
D03*
X-1224549Y424538D02*
D03*
X-1174549Y524538D02*
D03*
X-1224549Y624539D02*
D03*
X-1174549Y724539D02*
D03*
X-1224549Y824539D02*
D03*
X-1174549Y924539D02*
D03*
X-1224549Y1024539D02*
D03*
X-1174549Y1124539D02*
D03*
X-1224549Y1224539D02*
D03*
X-1124549Y224538D02*
D03*
X-1074549Y324538D02*
D03*
X-1124549Y424538D02*
D03*
X-1074549Y524538D02*
D03*
X-1124549Y624539D02*
D03*
X-1074549Y724539D02*
D03*
X-1124549Y824539D02*
D03*
X-1074549Y924539D02*
D03*
X-1124549Y1024539D02*
D03*
X-1074549Y1124539D02*
D03*
X-1124549Y1224539D02*
D03*
X-1024549Y224538D02*
D03*
X-974549Y324538D02*
D03*
X-1024549Y424538D02*
D03*
X-974549Y524538D02*
D03*
X-1024549Y624539D02*
D03*
X-974549Y724539D02*
D03*
X-1024549Y824539D02*
D03*
X-974549Y924539D02*
D03*
X-1024549Y1024539D02*
D03*
X-974549Y1124539D02*
D03*
X-1024549Y1224539D02*
D03*
X-924549Y224538D02*
D03*
X-874549Y324538D02*
D03*
X-924549Y424538D02*
D03*
X-874549Y524538D02*
D03*
X-924549Y624539D02*
D03*
X-874549Y724539D02*
D03*
X-924549Y824539D02*
D03*
X-874549Y924539D02*
D03*
X-924549Y1024539D02*
D03*
X-874549Y1124539D02*
D03*
X-924549Y1224539D02*
D03*
X-824549Y224538D02*
D03*
X-774549Y324538D02*
D03*
X-824549Y424538D02*
D03*
X-774549Y524538D02*
D03*
X-824549Y624539D02*
D03*
X-774549Y724539D02*
D03*
X-824549Y824539D02*
D03*
X-774549Y924539D02*
D03*
X-824549Y1024539D02*
D03*
X-774549Y1124539D02*
D03*
X-824549Y1224539D02*
D03*
X-724549Y224538D02*
D03*
X-674549Y324538D02*
D03*
X-724549Y424538D02*
D03*
X-674549Y524538D02*
D03*
X-724549Y624539D02*
D03*
X-674549Y724539D02*
D03*
X-724549Y824539D02*
D03*
X-674549Y924539D02*
D03*
X-724549Y1024539D02*
D03*
X-674549Y1124539D02*
D03*
X-724549Y1224539D02*
D03*
X-624549Y224538D02*
D03*
X-574549Y324538D02*
D03*
X-624549Y424538D02*
D03*
X-574549Y524538D02*
D03*
X-624549Y624539D02*
D03*
X-574549Y724539D02*
D03*
X-624549Y824539D02*
D03*
X-574549Y924539D02*
D03*
X-624549Y1024539D02*
D03*
X-574549Y1124539D02*
D03*
X-624549Y1224539D02*
D03*
X-524549Y224538D02*
D03*
X-474549Y324538D02*
D03*
X-524549Y424538D02*
D03*
X-474549Y524538D02*
D03*
X-524549Y624539D02*
D03*
X-474549Y724539D02*
D03*
X-524549Y824539D02*
D03*
X-474549Y924539D02*
D03*
X-524549Y1024539D02*
D03*
X-474549Y1124539D02*
D03*
X-524549Y1224539D02*
D03*
X-424549Y224538D02*
D03*
X-374549Y324538D02*
D03*
X-424549Y424538D02*
D03*
X-374549Y524538D02*
D03*
X-424549Y624539D02*
D03*
X-374549Y724539D02*
D03*
X-424549Y824539D02*
D03*
X-374549Y924539D02*
D03*
X-424549Y1024539D02*
D03*
X-374549Y1124539D02*
D03*
X-424549Y1224539D02*
D03*
X-324549Y224538D02*
D03*
X-274549Y324538D02*
D03*
X-324549Y424538D02*
D03*
X-274549Y524538D02*
D03*
X-324549Y624539D02*
D03*
X-274549Y724539D02*
D03*
X-324549Y824539D02*
D03*
X-274549Y924539D02*
D03*
X-324549Y1024539D02*
D03*
X-274549Y1124539D02*
D03*
X-324549Y1224539D02*
D03*
X-224549Y224538D02*
D03*
X-174549Y324538D02*
D03*
X-224549Y424538D02*
D03*
X-174549Y524538D02*
D03*
X-224549Y624539D02*
D03*
X-174549Y724539D02*
D03*
X-224549Y824539D02*
D03*
X-174549Y924539D02*
D03*
X-224549Y1024539D02*
D03*
X-174549Y1124539D02*
D03*
X-224549Y1224539D02*
D03*
X-124549Y224538D02*
D03*
X-74549Y324538D02*
D03*
X-124549Y424538D02*
D03*
X-74549Y524538D02*
D03*
X-124549Y624539D02*
D03*
X-74549Y724539D02*
D03*
X-124549Y824539D02*
D03*
X-74549Y924539D02*
D03*
X-124549Y1024539D02*
D03*
X-74549Y1124539D02*
D03*
X-124549Y1224539D02*
D03*
X-74549Y1724539D02*
D03*
Y1924539D02*
D03*
Y2124539D02*
D03*
Y2324539D02*
D03*
Y2524540D02*
D03*
Y2724540D02*
D03*
Y2924540D02*
D03*
X-24549Y224538D02*
D03*
X25451Y324538D02*
D03*
X-24549Y424538D02*
D03*
X25451Y524538D02*
D03*
X-24549Y624539D02*
D03*
X25451Y724539D02*
D03*
X-24549Y824539D02*
D03*
X25451Y924539D02*
D03*
X-24549Y1024539D02*
D03*
X25451Y1124539D02*
D03*
X-24549Y1224539D02*
D03*
X25451Y2124539D02*
D03*
X-24549Y2224539D02*
D03*
X25451Y2324539D02*
D03*
X-24549Y2424539D02*
D03*
X25451Y2524540D02*
D03*
X-24549Y2624540D02*
D03*
X25451Y2724540D02*
D03*
X-24549Y2824540D02*
D03*
X75451Y224538D02*
D03*
X125451Y324538D02*
D03*
X75451Y424538D02*
D03*
X125451Y524538D02*
D03*
X75451Y624539D02*
D03*
X125451Y724539D02*
D03*
X75451Y824539D02*
D03*
X125451Y924539D02*
D03*
X75451Y1024539D02*
D03*
X125451Y1124539D02*
D03*
X75451Y1224539D02*
D03*
Y2224539D02*
D03*
X125451Y2324539D02*
D03*
X75451Y2424539D02*
D03*
X125451Y2524540D02*
D03*
X75451Y2624540D02*
D03*
X125451Y2724540D02*
D03*
X75451Y2824540D02*
D03*
X175452Y224538D02*
D03*
X225451Y324538D02*
D03*
X175452Y424538D02*
D03*
X225451Y524538D02*
D03*
X175452Y624539D02*
D03*
X225451Y724539D02*
D03*
X175452Y824539D02*
D03*
X225451Y924539D02*
D03*
X175452Y1024539D02*
D03*
X225451Y1124539D02*
D03*
X175452Y1224539D02*
D03*
Y2224539D02*
D03*
X225451Y2324539D02*
D03*
X175452Y2824540D02*
D03*
X275452Y224538D02*
D03*
X325451Y324538D02*
D03*
X275452Y424538D02*
D03*
X325451Y524538D02*
D03*
X275452Y624539D02*
D03*
X325451Y724539D02*
D03*
X275452Y824539D02*
D03*
X325451Y924539D02*
D03*
X275452Y1024539D02*
D03*
X325451Y1124539D02*
D03*
X275452Y1224539D02*
D03*
Y2224539D02*
D03*
X325451Y2324539D02*
D03*
X275452Y2824540D02*
D03*
X375452Y224538D02*
D03*
X425452Y324538D02*
D03*
X375452Y424538D02*
D03*
X425452Y524538D02*
D03*
X375452Y624539D02*
D03*
X425452Y724539D02*
D03*
X375452Y824539D02*
D03*
X425452Y924539D02*
D03*
X375452Y1024539D02*
D03*
X425452Y1124539D02*
D03*
X375452Y1224539D02*
D03*
Y2224539D02*
D03*
X425452Y2324539D02*
D03*
X375452Y2824540D02*
D03*
X475452Y224538D02*
D03*
X525452Y324538D02*
D03*
X475452Y424538D02*
D03*
X525452Y524538D02*
D03*
X475452Y624539D02*
D03*
X525452Y724539D02*
D03*
X475452Y824539D02*
D03*
X525452Y924539D02*
D03*
X475452Y1024539D02*
D03*
X525452Y1124539D02*
D03*
X475452Y1224539D02*
D03*
X525452Y2124539D02*
D03*
X475452Y2224539D02*
D03*
X525452Y2324539D02*
D03*
X475452Y2824540D02*
D03*
X575452Y224538D02*
D03*
X625452Y324538D02*
D03*
X575452Y424538D02*
D03*
X625452Y524538D02*
D03*
X575452Y624539D02*
D03*
X625452Y724539D02*
D03*
X575452Y824539D02*
D03*
X625452Y924539D02*
D03*
X575452Y1024539D02*
D03*
X625452Y1124539D02*
D03*
X575452Y1224539D02*
D03*
X625452Y2124539D02*
D03*
X575452Y2224539D02*
D03*
X625452Y2324539D02*
D03*
X575452Y2824540D02*
D03*
X675452Y224538D02*
D03*
X725452Y324538D02*
D03*
X675452Y424538D02*
D03*
X725452Y524538D02*
D03*
X675452Y624539D02*
D03*
X725452Y724539D02*
D03*
X675452Y824539D02*
D03*
X725452Y924539D02*
D03*
X675452Y1024539D02*
D03*
X725452Y1124539D02*
D03*
X675452Y1224539D02*
D03*
X725452Y2124539D02*
D03*
X675452Y2224539D02*
D03*
X725452Y2324539D02*
D03*
X675452Y2824540D02*
D03*
X775452Y224538D02*
D03*
X825452Y324538D02*
D03*
X775452Y424538D02*
D03*
X825452Y524538D02*
D03*
X775452Y624539D02*
D03*
X825452Y724539D02*
D03*
X775452Y824539D02*
D03*
X825452Y924539D02*
D03*
X775452Y1024539D02*
D03*
X825452Y1124539D02*
D03*
X775452Y1224539D02*
D03*
X825452Y2124539D02*
D03*
X775452Y2224539D02*
D03*
X825452Y2324539D02*
D03*
X775452Y2824540D02*
D03*
X875452Y224538D02*
D03*
X925452Y324538D02*
D03*
X875452Y424538D02*
D03*
X925452Y524538D02*
D03*
X875452Y624539D02*
D03*
X925452Y724539D02*
D03*
X875452Y824539D02*
D03*
X925452Y924539D02*
D03*
X875452Y1024539D02*
D03*
X925452Y1124539D02*
D03*
X875452Y1224539D02*
D03*
X925452Y2124539D02*
D03*
X875452Y2224539D02*
D03*
X925452Y2324539D02*
D03*
X875452Y2824540D02*
D03*
X975452Y224538D02*
D03*
X1025452Y324538D02*
D03*
X975452Y424538D02*
D03*
X1025452Y524538D02*
D03*
X975452Y624539D02*
D03*
X1025452Y724539D02*
D03*
X975452Y824539D02*
D03*
X1025452Y924539D02*
D03*
X975452Y1024539D02*
D03*
X1025452Y1124539D02*
D03*
X975452Y1224539D02*
D03*
X1025452Y2124539D02*
D03*
X975452Y2224539D02*
D03*
X1025452Y2324539D02*
D03*
X975452Y2824540D02*
D03*
X1075452Y224538D02*
D03*
X1125452Y324538D02*
D03*
X1075452Y424538D02*
D03*
X1125452Y524538D02*
D03*
X1075452Y624539D02*
D03*
X1125452Y724539D02*
D03*
X1075452Y824539D02*
D03*
X1125452Y924539D02*
D03*
X1075452Y1024539D02*
D03*
X1125452Y1124539D02*
D03*
X1075452Y1224539D02*
D03*
X1125452Y2124539D02*
D03*
X1075452Y2224539D02*
D03*
X1125452Y2324539D02*
D03*
X1075452Y2824540D02*
D03*
X1175452Y224538D02*
D03*
X1225452Y324538D02*
D03*
X1175452Y424538D02*
D03*
X1225452Y524538D02*
D03*
X1175452Y624539D02*
D03*
X1225452Y724539D02*
D03*
X1175452Y824539D02*
D03*
X1225452Y924539D02*
D03*
X1175452Y1024539D02*
D03*
X1225452Y1124539D02*
D03*
X1175452Y1224539D02*
D03*
X1225452Y2124539D02*
D03*
X1175452Y2224539D02*
D03*
X1225452Y2324539D02*
D03*
X1175452Y2424539D02*
D03*
X1225452Y2524540D02*
D03*
X1175452Y2624540D02*
D03*
X1225452Y2724540D02*
D03*
X1175452Y2824540D02*
D03*
X1275452Y224538D02*
D03*
X1325452Y324538D02*
D03*
X1275452Y424538D02*
D03*
X1325452Y524538D02*
D03*
X1275452Y624539D02*
D03*
X1325452Y724539D02*
D03*
X1275452Y824539D02*
D03*
X1325452Y924539D02*
D03*
X1275452Y1024539D02*
D03*
X1325452Y1124539D02*
D03*
X1275452Y1224539D02*
D03*
X1325452Y2124539D02*
D03*
X1275452Y2224539D02*
D03*
X1325452Y2324539D02*
D03*
X1275452Y2424539D02*
D03*
X1325452Y2524540D02*
D03*
X1275452Y2624540D02*
D03*
X1325452Y2724540D02*
D03*
X1275452Y2824540D02*
D03*
X1325452Y2924540D02*
D03*
X1375452Y224538D02*
D03*
X1425452Y324538D02*
D03*
X1375452Y424538D02*
D03*
X1425452Y524538D02*
D03*
X1375452Y624539D02*
D03*
X1425452Y724539D02*
D03*
X1375452Y824539D02*
D03*
X1425452Y924539D02*
D03*
X1375452Y1024539D02*
D03*
X1425452Y1124539D02*
D03*
X1375452Y1224539D02*
D03*
X1425452Y1324539D02*
D03*
X1475452Y224538D02*
D03*
X1525452Y324538D02*
D03*
X1475452Y424538D02*
D03*
X1525452Y524538D02*
D03*
X1475452Y624539D02*
D03*
X1525452Y724539D02*
D03*
X1475452Y824539D02*
D03*
X1525452Y924539D02*
D03*
X1475452Y1024539D02*
D03*
X1525452Y1124539D02*
D03*
X1475452Y1224539D02*
D03*
X1575452Y224538D02*
D03*
X1625452Y324538D02*
D03*
X1575452Y424538D02*
D03*
X1625452Y524538D02*
D03*
X1575452Y624539D02*
D03*
X1625452Y724539D02*
D03*
X1575452Y824539D02*
D03*
X1625452Y924539D02*
D03*
X1575452Y1024539D02*
D03*
X1625452Y1124539D02*
D03*
X1575452Y1224539D02*
D03*
X1675452Y224538D02*
D03*
X1725452Y324538D02*
D03*
X1675452Y424538D02*
D03*
X1725452Y524538D02*
D03*
X1675452Y624539D02*
D03*
X1725452Y724539D02*
D03*
X1675452Y824539D02*
D03*
X1725452Y924539D02*
D03*
X1675452Y1024539D02*
D03*
X1725452Y1124539D02*
D03*
X1675452Y1224539D02*
D03*
X1775452Y224538D02*
D03*
X1825452Y324538D02*
D03*
X1775452Y424538D02*
D03*
X1825452Y524538D02*
D03*
X1775452Y624539D02*
D03*
X1825452Y724539D02*
D03*
X1775452Y824539D02*
D03*
X1825452Y924539D02*
D03*
X1775452Y1024539D02*
D03*
X1825452Y1124539D02*
D03*
X1775452Y1224539D02*
D03*
X1875452Y224538D02*
D03*
X1925452Y324538D02*
D03*
X1875452Y424538D02*
D03*
X1925452Y524538D02*
D03*
X1875452Y624539D02*
D03*
X1925452Y724539D02*
D03*
X1875452Y824539D02*
D03*
X1925452Y924539D02*
D03*
X1875452Y1024539D02*
D03*
X1925452Y1124539D02*
D03*
X1875452Y1224539D02*
D03*
X1975452Y224538D02*
D03*
X2025452Y324538D02*
D03*
X1975452Y424538D02*
D03*
X2025452Y524538D02*
D03*
X1975452Y624539D02*
D03*
X2025452Y724539D02*
D03*
X1975452Y824539D02*
D03*
X2025452Y924539D02*
D03*
X1975452Y1024539D02*
D03*
X2025452Y1124539D02*
D03*
X1975452Y1224539D02*
D03*
X2075453Y224538D02*
D03*
X2125452Y324538D02*
D03*
X2075453Y424538D02*
D03*
X2125452Y524538D02*
D03*
X2075453Y624539D02*
D03*
X2125452Y724539D02*
D03*
X2075453Y824539D02*
D03*
X2125452Y924539D02*
D03*
X2075453Y1024539D02*
D03*
X2125452Y1124539D02*
D03*
X2075453Y1224539D02*
D03*
X2175453Y224538D02*
D03*
X2225452Y324538D02*
D03*
X2175453Y424538D02*
D03*
X2225452Y524538D02*
D03*
X2175453Y624539D02*
D03*
X2225452Y724539D02*
D03*
X2175453Y824539D02*
D03*
X2225452Y924539D02*
D03*
X2175453Y1024539D02*
D03*
X2225452Y1124539D02*
D03*
X2175453Y1224539D02*
D03*
X2275453Y224538D02*
D03*
X2325453Y324538D02*
D03*
X2275453Y424538D02*
D03*
X2325453Y524538D02*
D03*
X2275453Y624539D02*
D03*
X2325453Y724539D02*
D03*
X2275453Y824539D02*
D03*
X2325453Y924539D02*
D03*
X2275453Y1024539D02*
D03*
X2325453Y1124539D02*
D03*
X2275453Y1224539D02*
D03*
X2375453Y224538D02*
D03*
X2425453Y324538D02*
D03*
X2375453Y424538D02*
D03*
X2425453Y524538D02*
D03*
X2375453Y624539D02*
D03*
X2425453Y724539D02*
D03*
X2375453Y824539D02*
D03*
X2425453Y924539D02*
D03*
X2375453Y1024539D02*
D03*
X2425453Y1124539D02*
D03*
X2375453Y1224539D02*
D03*
X2475453Y224538D02*
D03*
X2525453Y324538D02*
D03*
X2475453Y424538D02*
D03*
X2525453Y524538D02*
D03*
X2475453Y624539D02*
D03*
X2525453Y724539D02*
D03*
X2475453Y824539D02*
D03*
X2525453Y924539D02*
D03*
X2475453Y1024539D02*
D03*
X2525453Y1124539D02*
D03*
X2475453Y1224539D02*
D03*
X2575453Y224538D02*
D03*
X2625453Y324538D02*
D03*
X2575453Y424538D02*
D03*
X2625453Y524538D02*
D03*
X2575453Y624539D02*
D03*
X2625453Y724539D02*
D03*
X2575453Y824539D02*
D03*
X2625453Y924539D02*
D03*
X2575453Y1024539D02*
D03*
X2625453Y1124539D02*
D03*
X2575453Y1224539D02*
D03*
X2675453Y224538D02*
D03*
X2725453Y324538D02*
D03*
X2675453Y424538D02*
D03*
X2725453Y524538D02*
D03*
X2675453Y624539D02*
D03*
X2725453Y724539D02*
D03*
X2675453Y824539D02*
D03*
X2725453Y924539D02*
D03*
X2675453Y1024539D02*
D03*
X2725453Y1124539D02*
D03*
X2675453Y1224539D02*
D03*
X2775453Y224538D02*
D03*
X2825453Y324538D02*
D03*
X2775453Y424538D02*
D03*
X2825453Y524538D02*
D03*
X2775453Y624539D02*
D03*
X2825453Y724539D02*
D03*
X2775453Y824539D02*
D03*
X2825453Y924539D02*
D03*
X2775453Y1024539D02*
D03*
X2825453Y1124539D02*
D03*
X2775453Y1224539D02*
D03*
X2875453Y224538D02*
D03*
X2925453Y324538D02*
D03*
X2875453Y424538D02*
D03*
X2925453Y524538D02*
D03*
X2875453Y624539D02*
D03*
X2925453Y724539D02*
D03*
X2875453Y824539D02*
D03*
X2925453Y924539D02*
D03*
X2875453Y1024539D02*
D03*
X2925453Y1124539D02*
D03*
X2875453Y1224539D02*
D03*
X2975453Y224538D02*
D03*
X3025453Y324538D02*
D03*
X2975453Y424538D02*
D03*
X3025453Y524538D02*
D03*
X2975453Y624539D02*
D03*
X3025453Y724539D02*
D03*
X2975453Y824539D02*
D03*
X3025453Y924539D02*
D03*
X2975453Y1024539D02*
D03*
X3025453Y1124539D02*
D03*
X2975453Y1224539D02*
D03*
X3075453Y224538D02*
D03*
X3125453Y324538D02*
D03*
X3075453Y424538D02*
D03*
X3125453Y524538D02*
D03*
X3075453Y624539D02*
D03*
X3125453Y724539D02*
D03*
X3075453Y824539D02*
D03*
X3125453Y924539D02*
D03*
X3075453Y1024539D02*
D03*
X3125453Y1124539D02*
D03*
X3075453Y1224539D02*
D03*
X3175453Y224538D02*
D03*
X3225453Y324538D02*
D03*
X3175453Y424538D02*
D03*
X3225453Y524538D02*
D03*
X3175453Y624539D02*
D03*
X3225453Y724539D02*
D03*
X3175453Y824539D02*
D03*
X3225453Y924539D02*
D03*
X3175453Y1024539D02*
D03*
X3225453Y1124539D02*
D03*
X3175453Y1224539D02*
D03*
X3275453Y224538D02*
D03*
X3325453Y324538D02*
D03*
X3275453Y424538D02*
D03*
X3325453Y524538D02*
D03*
X3275453Y624539D02*
D03*
X3325453Y724539D02*
D03*
X3275453Y824539D02*
D03*
X3325453Y924539D02*
D03*
X3275453Y1024539D02*
D03*
X3325453Y1124539D02*
D03*
X3275453Y1224539D02*
D03*
X3325453Y1724539D02*
D03*
Y1924539D02*
D03*
Y2124539D02*
D03*
Y2324539D02*
D03*
Y2524540D02*
D03*
Y2724540D02*
D03*
Y2924540D02*
D03*
X3375453Y224538D02*
D03*
X3425453Y324538D02*
D03*
X3375453Y424538D02*
D03*
X3425453Y524538D02*
D03*
X3375453Y624539D02*
D03*
X3425453Y724539D02*
D03*
X3375453Y824539D02*
D03*
X3425453Y924539D02*
D03*
X3375453Y1024539D02*
D03*
X3425453Y1124539D02*
D03*
X3375453Y1224539D02*
D03*
X3425453Y2124539D02*
D03*
X3375453Y2224539D02*
D03*
X3425453Y2324539D02*
D03*
X3375453Y2424539D02*
D03*
X3425453Y2524540D02*
D03*
X3375453Y2624540D02*
D03*
X3425453Y2724540D02*
D03*
X3375453Y2824540D02*
D03*
X3475453Y224538D02*
D03*
X3525453Y324538D02*
D03*
X3475453Y424538D02*
D03*
X3525453Y524538D02*
D03*
X3475453Y624539D02*
D03*
X3525453Y724539D02*
D03*
X3475453Y824539D02*
D03*
X3525453Y924539D02*
D03*
X3475453Y1024539D02*
D03*
X3525453Y1124539D02*
D03*
X3475453Y1224539D02*
D03*
Y2224539D02*
D03*
X3525453Y2324539D02*
D03*
X3475453Y2424539D02*
D03*
X3525453Y2524540D02*
D03*
X3475453Y2624540D02*
D03*
X3525453Y2724540D02*
D03*
X3475453Y2824540D02*
D03*
X3575453Y224538D02*
D03*
X3625453Y324538D02*
D03*
X3575453Y424538D02*
D03*
X3625453Y524538D02*
D03*
X3575453Y624539D02*
D03*
X3625453Y724539D02*
D03*
X3575453Y824539D02*
D03*
X3625453Y924539D02*
D03*
X3575453Y1024539D02*
D03*
X3625453Y1124539D02*
D03*
X3575453Y1224539D02*
D03*
Y2224539D02*
D03*
X3625453Y2324539D02*
D03*
X3575453Y2824540D02*
D03*
X3675453Y224538D02*
D03*
X3725453Y324538D02*
D03*
X3675453Y424538D02*
D03*
X3725453Y524538D02*
D03*
X3675453Y624539D02*
D03*
X3725453Y724539D02*
D03*
X3675453Y824539D02*
D03*
X3725453Y924539D02*
D03*
X3675453Y1024539D02*
D03*
X3725453Y1124539D02*
D03*
X3675453Y1224539D02*
D03*
Y2224539D02*
D03*
X3725453Y2324539D02*
D03*
X3675453Y2824540D02*
D03*
X3775453Y224538D02*
D03*
X3825453Y324538D02*
D03*
X3775453Y424538D02*
D03*
X3825453Y524538D02*
D03*
X3775453Y624539D02*
D03*
X3825453Y724539D02*
D03*
X3775453Y824539D02*
D03*
X3825453Y924539D02*
D03*
X3775453Y1024539D02*
D03*
X3825453Y1124539D02*
D03*
X3775453Y1224539D02*
D03*
Y2224539D02*
D03*
X3825453Y2324539D02*
D03*
X3775453Y2824540D02*
D03*
X3875454Y224538D02*
D03*
X3925453Y324538D02*
D03*
X3875454Y424538D02*
D03*
X3925453Y524538D02*
D03*
X3875454Y624539D02*
D03*
X3925453Y724539D02*
D03*
X3875454Y824539D02*
D03*
X3925453Y924539D02*
D03*
X3875454Y1024539D02*
D03*
X3925453Y1124539D02*
D03*
X3875454Y1224539D02*
D03*
X3925453Y2124539D02*
D03*
X3875454Y2224539D02*
D03*
X3925453Y2324539D02*
D03*
X3875454Y2824540D02*
D03*
X3975454Y224538D02*
D03*
X4025453Y324538D02*
D03*
X3975454Y424538D02*
D03*
X4025453Y524538D02*
D03*
X3975454Y624539D02*
D03*
X4025453Y724539D02*
D03*
X3975454Y824539D02*
D03*
X4025453Y924539D02*
D03*
X3975454Y1024539D02*
D03*
X4025453Y1124539D02*
D03*
X3975454Y1224539D02*
D03*
X4025453Y2124539D02*
D03*
X3975454Y2224539D02*
D03*
X4025453Y2324539D02*
D03*
X3975454Y2824540D02*
D03*
X4075454Y224538D02*
D03*
X4125454Y324538D02*
D03*
X4075454Y424538D02*
D03*
X4125454Y524538D02*
D03*
X4075454Y624539D02*
D03*
X4125454Y724539D02*
D03*
X4075454Y824539D02*
D03*
X4125454Y924539D02*
D03*
X4075454Y1024539D02*
D03*
X4125454Y1124539D02*
D03*
X4075454Y1224539D02*
D03*
X4125454Y2124539D02*
D03*
X4075454Y2224539D02*
D03*
X4125454Y2324539D02*
D03*
X4075454Y2824540D02*
D03*
X4175454Y224538D02*
D03*
X4225454Y324538D02*
D03*
X4175454Y424538D02*
D03*
X4225454Y524538D02*
D03*
X4175454Y624539D02*
D03*
X4225454Y724539D02*
D03*
X4175454Y824539D02*
D03*
X4225454Y924539D02*
D03*
X4175454Y1024539D02*
D03*
X4225454Y1124539D02*
D03*
X4175454Y1224539D02*
D03*
X4225454Y2124539D02*
D03*
X4175454Y2224539D02*
D03*
X4225454Y2324539D02*
D03*
X4175454Y2824540D02*
D03*
X4275454Y1224539D02*
D03*
X4325454Y2124539D02*
D03*
X4275454Y2224539D02*
D03*
X4325454Y2324539D02*
D03*
X4275454Y2824540D02*
D03*
X4375454Y1224539D02*
D03*
X4425454Y2124539D02*
D03*
X4375454Y2224539D02*
D03*
X4425454Y2324539D02*
D03*
X4375454Y2824540D02*
D03*
X4525454Y1124539D02*
D03*
X4475454Y1224539D02*
D03*
X4525454Y2124539D02*
D03*
X4475454Y2224539D02*
D03*
X4525454Y2324539D02*
D03*
X4475454Y2824540D02*
D03*
X4575454Y1224539D02*
D03*
Y2224539D02*
D03*
X4625454Y2324539D02*
D03*
X4575454Y2424539D02*
D03*
X4625454Y2524540D02*
D03*
X4575454Y2624540D02*
D03*
X4625454Y2724540D02*
D03*
X4575454Y2824540D02*
D03*
X4675454Y1224539D02*
D03*
Y1424539D02*
D03*
X4725454Y1524539D02*
D03*
Y2324539D02*
D03*
Y2524540D02*
D03*
Y2724540D02*
D03*
Y2924540D02*
D03*
X4775454Y1224539D02*
D03*
Y1424539D02*
D03*
X4875454Y1224539D02*
D03*
X4975454D02*
D03*
X5075454D02*
D03*
X5175454D02*
D03*
X5325454Y324538D02*
D03*
X5275454Y424538D02*
D03*
X5325454Y524538D02*
D03*
Y724539D02*
D03*
Y924539D02*
D03*
Y1124539D02*
D03*
X5275454Y1224539D02*
D03*
X5875455Y4624541D02*
D03*
X5925454Y4524541D02*
D03*
X5875455Y4424541D02*
D03*
X5925454Y4324540D02*
D03*
X5875455Y3624540D02*
D03*
X5925454Y3524540D02*
D03*
X5875455Y3424540D02*
D03*
X5925454Y3324540D02*
D03*
X5875455Y3224540D02*
D03*
X5925454Y3124540D02*
D03*
X5875455Y3024540D02*
D03*
X5925454Y2924540D02*
D03*
X5875455Y2824540D02*
D03*
X5925454Y2724540D02*
D03*
X5875455Y2624540D02*
D03*
X5925454Y2524540D02*
D03*
X5875455Y2424539D02*
D03*
X5925454Y2324539D02*
D03*
X5775455Y4624541D02*
D03*
X5825454Y4524541D02*
D03*
X5775455Y4424541D02*
D03*
Y3624540D02*
D03*
X5825454Y3524540D02*
D03*
X5775455Y3424540D02*
D03*
X5825454Y3324540D02*
D03*
X5775455Y3224540D02*
D03*
X5825454Y3124540D02*
D03*
X5775455Y3024540D02*
D03*
X5825454Y2924540D02*
D03*
X5775455Y2824540D02*
D03*
X5825454Y2724540D02*
D03*
X5775455Y2624540D02*
D03*
X5825454Y2524540D02*
D03*
X5775455Y2424539D02*
D03*
X5675454Y4624541D02*
D03*
X5725454Y4524541D02*
D03*
X5675454Y4424541D02*
D03*
Y3624540D02*
D03*
X5725454Y3524540D02*
D03*
X5675454Y3424540D02*
D03*
X5725454Y3324540D02*
D03*
X5675454Y3224540D02*
D03*
X5725454Y3124540D02*
D03*
X5675454Y3024540D02*
D03*
X5725454Y2924540D02*
D03*
X5675454Y2824540D02*
D03*
X5725454Y2724540D02*
D03*
X5675454Y2624540D02*
D03*
X5725454Y2524540D02*
D03*
X5675454Y2424539D02*
D03*
X5575454Y4624541D02*
D03*
X5625454Y4524541D02*
D03*
X5575454Y4424541D02*
D03*
Y3624540D02*
D03*
X5625454Y3524540D02*
D03*
X5575454Y3424540D02*
D03*
X5625454Y3324540D02*
D03*
X5575454Y3224540D02*
D03*
X5625454Y3124540D02*
D03*
X5575454Y3024540D02*
D03*
X5625454Y2924540D02*
D03*
X5575454Y2824540D02*
D03*
X5625454Y2724540D02*
D03*
X5575454Y2624540D02*
D03*
X5625454Y2524540D02*
D03*
X5575454Y2424539D02*
D03*
X5475454Y4624541D02*
D03*
X5525454Y4524541D02*
D03*
X5475454Y4424541D02*
D03*
X5525454Y4324540D02*
D03*
X5475454Y3624540D02*
D03*
X5525454Y3524540D02*
D03*
X5475454Y3424540D02*
D03*
X5525454Y3324540D02*
D03*
X5475454Y3224540D02*
D03*
X5525454Y3124540D02*
D03*
X5475454Y3024540D02*
D03*
X5525454Y2924540D02*
D03*
X5475454Y2824540D02*
D03*
X5525454Y2724540D02*
D03*
X5475454Y2624540D02*
D03*
X5525454Y2524540D02*
D03*
X5475454Y2424539D02*
D03*
X5525454Y2324539D02*
D03*
X-574549Y3724540D02*
D03*
Y1924539D02*
D03*
X-624549Y1824539D02*
D03*
X-674549Y3724540D02*
D03*
X-724549Y1824539D02*
D03*
X-774549Y3724540D02*
D03*
X-824549Y2624540D02*
D03*
Y2424539D02*
D03*
Y2224539D02*
D03*
Y1824539D02*
D03*
X-874549Y3724540D02*
D03*
X-924549Y3024540D02*
D03*
X-874549Y2124539D02*
D03*
X-924549Y1824539D02*
D03*
X-974549Y3724540D02*
D03*
X-1074549D02*
D03*
X-1124549Y2424539D02*
D03*
X-1074549Y2324539D02*
D03*
X-1174549Y3724540D02*
D03*
Y2324539D02*
D03*
X-1274549Y3724540D02*
D03*
X-1324549Y3024540D02*
D03*
X-1274549Y2324539D02*
D03*
X-1374549Y3724540D02*
D03*
Y3324540D02*
D03*
X-1424549Y3224540D02*
D03*
X-1374549Y3124540D02*
D03*
X-1424549Y3024540D02*
D03*
X-1374549Y2324539D02*
D03*
X-1424549Y1824539D02*
D03*
X-1474550Y3724540D02*
D03*
Y3324540D02*
D03*
X-1524549Y3224540D02*
D03*
X-1474550Y3124540D02*
D03*
X-1524549Y3024540D02*
D03*
Y2424539D02*
D03*
X-1474550Y2324539D02*
D03*
Y1924539D02*
D03*
X-1524549Y1824539D02*
D03*
X2825453Y3724540D02*
D03*
Y1924539D02*
D03*
X2775453Y1824539D02*
D03*
X2725453Y3724540D02*
D03*
X2675453Y1824539D02*
D03*
X2625453Y3724540D02*
D03*
X2575453Y2624540D02*
D03*
Y2424539D02*
D03*
Y2224539D02*
D03*
Y1824539D02*
D03*
X2525453Y3724540D02*
D03*
X2475453Y3024540D02*
D03*
X2525453Y2124539D02*
D03*
X2475453Y1824539D02*
D03*
X2425453Y3724540D02*
D03*
X2325453D02*
D03*
X2275453Y2424539D02*
D03*
X2325453Y2324539D02*
D03*
X2225452Y3724540D02*
D03*
Y2324539D02*
D03*
X2125452Y3724540D02*
D03*
X2075453Y3024540D02*
D03*
X2125452Y2324539D02*
D03*
X2025452Y3724540D02*
D03*
Y3324540D02*
D03*
X1975452Y3224540D02*
D03*
X2025452Y3124540D02*
D03*
X1975452Y3024540D02*
D03*
X2025452Y2324539D02*
D03*
X1975452Y1824539D02*
D03*
X1925452Y3724540D02*
D03*
Y3324540D02*
D03*
X1875452Y3224540D02*
D03*
X1925452Y3124540D02*
D03*
X1875452Y3024540D02*
D03*
Y2424539D02*
D03*
X1925452Y2324539D02*
D03*
Y1924539D02*
D03*
X1875452Y1824539D02*
D03*
X-3974551Y3724540D02*
D03*
Y1924539D02*
D03*
X-4024551Y1824539D02*
D03*
X-4074551Y3724540D02*
D03*
X-4124551Y1824539D02*
D03*
X-4174551Y3724540D02*
D03*
X-4224551Y2624540D02*
D03*
Y2424539D02*
D03*
Y2224539D02*
D03*
Y1824539D02*
D03*
X-4274551Y3724540D02*
D03*
X-4324551Y3024540D02*
D03*
X-4274551Y2124539D02*
D03*
X-4324551Y1824539D02*
D03*
X-4374551Y3724540D02*
D03*
X-4474551D02*
D03*
X-4524551Y2424539D02*
D03*
X-4474551Y2324539D02*
D03*
X-4574551Y3724540D02*
D03*
Y2324539D02*
D03*
X-4674551Y3724540D02*
D03*
X-4724551Y3024540D02*
D03*
X-4674551Y2324539D02*
D03*
X-4774551Y3724540D02*
D03*
Y3324540D02*
D03*
X-4824551Y3224540D02*
D03*
X-4774551Y3124540D02*
D03*
X-4824551Y3024540D02*
D03*
X-4774551Y2324539D02*
D03*
X-4824551Y1824539D02*
D03*
X-4874551Y3724540D02*
D03*
Y3324540D02*
D03*
X-4924551Y3224540D02*
D03*
X-4874551Y3124540D02*
D03*
X-4924551Y3024540D02*
D03*
Y2424539D02*
D03*
X-4874551Y2324539D02*
D03*
Y1924539D02*
D03*
X-4924551Y1824539D02*
D03*
X-4974551Y3724540D02*
D03*
X-5024551Y3624540D02*
D03*
X-4974551Y3524540D02*
D03*
X-5024551Y3424540D02*
D03*
X-4974551Y3324540D02*
D03*
X-5024551Y3224540D02*
D03*
X-4974551Y3124540D02*
D03*
X-5024551Y3024540D02*
D03*
X-4974551Y2924540D02*
D03*
X-5024551Y2824540D02*
D03*
Y2624540D02*
D03*
X-4974551Y2524540D02*
D03*
X-5024551Y2424539D02*
D03*
X-4974551Y2324539D02*
D03*
X-5024551Y2224539D02*
D03*
Y2024539D02*
D03*
X-4974551Y1924539D02*
D03*
X-5024551Y1824539D02*
D03*
X-5074551Y3724540D02*
D03*
X-5124551Y3624540D02*
D03*
X-5074551Y3524540D02*
D03*
X-5124551Y3424540D02*
D03*
X-5074551Y3324540D02*
D03*
X-5124551Y3224540D02*
D03*
X-5074551Y3124540D02*
D03*
X-5124551Y3024540D02*
D03*
X-5074551Y2924540D02*
D03*
X-5124551Y2824540D02*
D03*
X-5074551Y2724540D02*
D03*
X-5124551Y2624540D02*
D03*
X-5074551Y2524540D02*
D03*
X-5124551Y2424539D02*
D03*
X-5074551Y2324539D02*
D03*
X-5124551Y2224539D02*
D03*
X-5074551Y2124539D02*
D03*
X-5124551Y2024539D02*
D03*
X-5074551Y1924539D02*
D03*
X-5124551Y1824539D02*
D03*
X-5174551Y3724540D02*
D03*
X-5224551Y3624540D02*
D03*
X-5174551Y3524540D02*
D03*
X-5224551Y3424540D02*
D03*
X-5174551Y3324540D02*
D03*
X-5224551Y3224540D02*
D03*
X-5174551Y3124540D02*
D03*
X-5224551Y3024540D02*
D03*
X-5174551Y2924540D02*
D03*
X-5224551Y2824540D02*
D03*
X-5174551Y2724540D02*
D03*
X-5224551Y2624540D02*
D03*
X-5174551Y2524540D02*
D03*
X-5224551Y2424539D02*
D03*
X-5174551Y2324539D02*
D03*
X-5224551Y2224539D02*
D03*
X-5174551Y2124539D02*
D03*
X-5224551Y2024539D02*
D03*
X-5174551Y1924539D02*
D03*
X-5224551Y1824539D02*
D03*
X-5274552Y3724540D02*
D03*
X-5324551Y3624540D02*
D03*
X-5274552Y3524540D02*
D03*
X-5324551Y3424540D02*
D03*
X-5274552Y3324540D02*
D03*
X-5324551Y3224540D02*
D03*
X-5274552Y3124540D02*
D03*
X-5324551Y3024540D02*
D03*
X-5274552Y2924540D02*
D03*
X-5324551Y2824540D02*
D03*
X-5274552Y2724540D02*
D03*
X-5324551Y2624540D02*
D03*
X-5274552Y2524540D02*
D03*
X-5324551Y2424539D02*
D03*
X-5274552Y2324539D02*
D03*
X-5324551Y2224539D02*
D03*
X-5274552Y2124539D02*
D03*
X-5324551Y2024539D02*
D03*
X-5274552Y1924539D02*
D03*
X-5324551Y1824539D02*
D03*
X-5374552Y3724540D02*
D03*
X-5424552Y3624540D02*
D03*
X-5374552Y3524540D02*
D03*
X-5424552Y3424540D02*
D03*
X-5374552Y3324540D02*
D03*
X-5424552Y3224540D02*
D03*
X-5374552Y3124540D02*
D03*
X-5424552Y3024540D02*
D03*
X-5374552Y2924540D02*
D03*
X-5424552Y2824540D02*
D03*
X-5374552Y2724540D02*
D03*
X-5424552Y2624540D02*
D03*
X-5374552Y2524540D02*
D03*
X-5424552Y2424539D02*
D03*
X-5374552Y2324539D02*
D03*
X-5524552Y4624541D02*
D03*
X-5474552Y4524541D02*
D03*
X-5524552Y4424541D02*
D03*
X-5474552Y4324540D02*
D03*
X-5524552Y3624540D02*
D03*
X-5474552Y3524540D02*
D03*
X-5524552Y3424540D02*
D03*
X-5474552Y3324540D02*
D03*
X-5524552Y3224540D02*
D03*
X-5474552Y3124540D02*
D03*
X-5524552Y3024540D02*
D03*
X-5474552Y2924540D02*
D03*
X-5524552Y2824540D02*
D03*
X-5474552Y2724540D02*
D03*
X-5524552Y2624540D02*
D03*
X-5474552Y2524540D02*
D03*
X-5524552Y2424539D02*
D03*
X-5474552Y2324539D02*
D03*
X-5624552Y4624541D02*
D03*
X-5574552Y4524541D02*
D03*
X-5624552Y4424541D02*
D03*
Y3624540D02*
D03*
X-5574552Y3524540D02*
D03*
X-5624552Y3424540D02*
D03*
X-5574552Y3324540D02*
D03*
X-5624552Y3224540D02*
D03*
X-5574552Y3124540D02*
D03*
X-5624552Y3024540D02*
D03*
X-5574552Y2924540D02*
D03*
X-5624552Y2824540D02*
D03*
X-5574552Y2724540D02*
D03*
X-5624552Y2624540D02*
D03*
X-5574552Y2524540D02*
D03*
X-5624552Y2424539D02*
D03*
X-5724552Y4624541D02*
D03*
X-5674552Y4524541D02*
D03*
X-5724552Y4424541D02*
D03*
Y3624540D02*
D03*
X-5674552Y3524540D02*
D03*
X-5724552Y3424540D02*
D03*
X-5674552Y3324540D02*
D03*
X-5724552Y3224540D02*
D03*
X-5674552Y3124540D02*
D03*
X-5724552Y3024540D02*
D03*
X-5674552Y2924540D02*
D03*
X-5724552Y2824540D02*
D03*
X-5674552Y2724540D02*
D03*
X-5724552Y2624540D02*
D03*
X-5674552Y2524540D02*
D03*
X-5724552Y2424539D02*
D03*
X-5824552Y4624541D02*
D03*
X-5774552Y4524541D02*
D03*
X-5824552Y4424541D02*
D03*
Y3624540D02*
D03*
X-5774552Y3524540D02*
D03*
X-5824552Y3424540D02*
D03*
X-5774552Y3324540D02*
D03*
X-5824552Y3224540D02*
D03*
X-5774552Y3124540D02*
D03*
X-5824552Y3024540D02*
D03*
X-5774552Y2924540D02*
D03*
X-5824552Y2824540D02*
D03*
X-5774552Y2724540D02*
D03*
X-5824552Y2624540D02*
D03*
X-5774552Y2524540D02*
D03*
X-5824552Y2424539D02*
D03*
X-5924552Y4624541D02*
D03*
X-5874552Y4524541D02*
D03*
X-5924552Y4424541D02*
D03*
X-5874552Y4324540D02*
D03*
X-5924552Y3624540D02*
D03*
X-5874552Y3524540D02*
D03*
X-5924552Y3424540D02*
D03*
X-5874552Y3324540D02*
D03*
X-5924552Y3224540D02*
D03*
X-5874552Y3124540D02*
D03*
X-5924552Y3024540D02*
D03*
X-5874552Y2924540D02*
D03*
X-5924552Y2824540D02*
D03*
X-5874552Y2724540D02*
D03*
X-5924552Y2624540D02*
D03*
X-5874552Y2524540D02*
D03*
X-5924552Y2424539D02*
D03*
X-5874552Y2324539D02*
D03*
X-2700000Y6750000D02*
D03*
X-3300000D02*
D03*
Y6250000D02*
D03*
X-2700000D02*
D03*
X-2800000Y6050000D02*
D03*
X-2900000D02*
D03*
X-3000000D02*
D03*
X-3100000D02*
D03*
X-3200000D02*
D03*
X-3150000Y6800000D02*
D03*
Y6900000D02*
D03*
X-3200000Y6850000D02*
D03*
X-3250000Y6800000D02*
D03*
Y6900000D02*
D03*
X-2950000D02*
D03*
X-3000000Y6850000D02*
D03*
X-3050000Y6900000D02*
D03*
X-2750000Y6800000D02*
D03*
Y6900000D02*
D03*
X-2800000Y6850000D02*
D03*
X-2850000Y6800000D02*
D03*
Y6900000D02*
D03*
X-2900000Y6850000D02*
D03*
X-3100000D02*
D03*
X-3100000Y6150000D02*
D03*
X-2900000D02*
D03*
X-2850000Y6200000D02*
D03*
Y6100000D02*
D03*
X-2800000Y6150000D02*
D03*
X-2750000Y6200000D02*
D03*
Y6100000D02*
D03*
X-3050000D02*
D03*
X-3000000Y6150000D02*
D03*
X-2950000Y6100000D02*
D03*
X-3250000Y6200000D02*
D03*
Y6100000D02*
D03*
X-3200000Y6150000D02*
D03*
X-3150000Y6200000D02*
D03*
Y6100000D02*
D03*
X-3050000Y6800000D02*
D03*
X-2950000D02*
D03*
X-3050000Y6200000D02*
D03*
X-2950000D02*
D03*
X-3200000Y6250000D02*
D03*
X-2800000D02*
D03*
Y6750000D02*
D03*
X-3200000D02*
D03*
X-3250000Y6700000D02*
D03*
X-2750000D02*
D03*
Y6300000D02*
D03*
X-3250000D02*
D03*
X300000Y6750000D02*
D03*
X-300000D02*
D03*
Y6250000D02*
D03*
X300000D02*
D03*
X200000Y6050000D02*
D03*
X100000D02*
D03*
X0D02*
D03*
X-100000D02*
D03*
X-200000D02*
D03*
X-150000Y6800000D02*
D03*
Y6900000D02*
D03*
X-200000Y6850000D02*
D03*
X-250000Y6800000D02*
D03*
Y6900000D02*
D03*
X50000D02*
D03*
X0Y6850000D02*
D03*
X-50000Y6900000D02*
D03*
X250000Y6800000D02*
D03*
Y6900000D02*
D03*
X200000Y6850000D02*
D03*
X150000Y6800000D02*
D03*
Y6900000D02*
D03*
X100000Y6850000D02*
D03*
X-100000D02*
D03*
X-100000Y6150000D02*
D03*
X100000D02*
D03*
X150000Y6200000D02*
D03*
Y6100000D02*
D03*
X200000Y6150000D02*
D03*
X250000Y6200000D02*
D03*
Y6100000D02*
D03*
X-50000D02*
D03*
X-0Y6150000D02*
D03*
X50000Y6100000D02*
D03*
X-250000Y6200000D02*
D03*
Y6100000D02*
D03*
X-200000Y6150000D02*
D03*
X-150000Y6200000D02*
D03*
Y6100000D02*
D03*
X-50000Y6800000D02*
D03*
X50000D02*
D03*
X-50000Y6200000D02*
D03*
X50000D02*
D03*
X-200000Y6250000D02*
D03*
X200000D02*
D03*
Y6750000D02*
D03*
X-200000D02*
D03*
X-250000Y6700000D02*
D03*
X250000D02*
D03*
Y6300000D02*
D03*
X-250000D02*
D03*
X-4400000Y3421780D02*
D03*
X-4220000Y2740000D02*
D03*
X-4150000Y2540000D02*
D03*
X-4775000Y3425000D02*
D03*
X-4140000Y2340811D02*
D03*
X-4447500Y3240000D02*
D03*
X-4550587Y3204413D02*
D03*
X-4275000Y3425000D02*
D03*
X-4596780Y3377500D02*
D03*
X-4525000Y3425000D02*
D03*
X-4050000Y1975000D02*
D03*
X-4000000Y3425000D02*
D03*
X-4100000Y2200000D02*
D03*
X-4148087Y3098087D02*
D03*
X-4072508Y2950008D02*
D03*
Y2800008D02*
D03*
X-4125000Y3425000D02*
D03*
Y3325000D02*
D03*
X-4260008Y3287492D02*
D03*
X-1000000Y3421780D02*
D03*
X-820000Y2740000D02*
D03*
X-750000Y2540000D02*
D03*
X-1375000Y3425000D02*
D03*
X-740000Y2340811D02*
D03*
X-1047500Y3240000D02*
D03*
X-1150587Y3204413D02*
D03*
X-875000Y3425000D02*
D03*
X-1196780Y3377500D02*
D03*
X-1125000Y3425000D02*
D03*
X-650000Y1975000D02*
D03*
X-600000Y3425000D02*
D03*
X-700000Y2200000D02*
D03*
X-748087Y3098087D02*
D03*
X-672509Y2950008D02*
D03*
Y2800008D02*
D03*
X-725000Y3425000D02*
D03*
Y3325000D02*
D03*
X-860008Y3287492D02*
D03*
X2580000Y2740000D02*
D03*
X2650000Y2540000D02*
D03*
X2249413Y3204413D02*
D03*
X2660000Y2340811D02*
D03*
X2400000Y3421780D02*
D03*
X2275000Y3425000D02*
D03*
X2750000Y1975000D02*
D03*
X2700000Y2200000D02*
D03*
X2675000Y3325000D02*
D03*
X2539992Y3287492D02*
D03*
X2651913Y3098087D02*
D03*
X2727492Y2800008D02*
D03*
Y2950008D02*
D03*
X2800000Y3425000D02*
D03*
X2675000D02*
D03*
X2352500Y3240000D02*
D03*
X2525000Y3425000D02*
D03*
X2203220Y3377500D02*
D03*
X2025000Y3425000D02*
D03*
X2750000Y6300000D02*
D03*
X3250000D02*
D03*
Y6700000D02*
D03*
X2750000D02*
D03*
X2800000Y6750000D02*
D03*
X3200000D02*
D03*
Y6250000D02*
D03*
X2800000D02*
D03*
X3050000Y6200000D02*
D03*
X2950000D02*
D03*
X3050000Y6800000D02*
D03*
X2950000D02*
D03*
X2850000Y6100000D02*
D03*
Y6200000D02*
D03*
X2800000Y6150000D02*
D03*
X2750000Y6100000D02*
D03*
Y6200000D02*
D03*
X3050000Y6100000D02*
D03*
X3000000Y6150000D02*
D03*
X2950000Y6100000D02*
D03*
X3250000D02*
D03*
Y6200000D02*
D03*
X3200000Y6150000D02*
D03*
X3150000Y6100000D02*
D03*
Y6200000D02*
D03*
X3100000Y6150000D02*
D03*
X2900000D02*
D03*
X2900000Y6850000D02*
D03*
X3100000D02*
D03*
X3150000Y6900000D02*
D03*
Y6800000D02*
D03*
X3200000Y6850000D02*
D03*
X3250000Y6900000D02*
D03*
Y6800000D02*
D03*
X2950000Y6900000D02*
D03*
X3000000Y6850000D02*
D03*
X3050000Y6900000D02*
D03*
X2750000D02*
D03*
Y6800000D02*
D03*
X2800000Y6850000D02*
D03*
X2850000Y6900000D02*
D03*
Y6800000D02*
D03*
X2800000Y6050000D02*
D03*
X2900000D02*
D03*
X3000000D02*
D03*
X3100000D02*
D03*
X3200000D02*
D03*
X3300000Y6250000D02*
D03*
X2700000D02*
D03*
Y6750000D02*
D03*
X3300000D02*
D03*
D25*
X-4247508Y2950008D02*
D03*
X-847509D02*
D03*
X2552492D02*
D03*
%TF.MD5,21db2eb2251798e9dbb39fae14506315*%
M02*
