%TF.GenerationSoftware,Altium Limited,Altium Designer,26.2.0 (7)*%
G04 Layer_Color=0*
%FSLAX45Y45*%
%MOMM*%
%TF.SameCoordinates,DD637A2D-7E0C-40B3-9281-A5126D6BEA63*%
%TF.FilePolarity,Positive*%
%TF.FileFunction,Plated,1,4,PTH,Drill*%
%TF.Part,Single*%
G01*
G75*
%TA.AperFunction,ComponentDrill*%
%ADD70C,0.71000*%
%ADD71C,0.78740*%
%ADD72C,1.45000*%
%ADD73C,5.00000*%
%ADD74C,4.40000*%
%ADD75C,3.00000*%
%ADD76C,3.00000*%
%ADD77C,1.47500*%
%TA.AperFunction,ViaDrill,NotFilled*%
%ADD78C,0.33020*%
%ADD79C,0.30000*%
%ADD80C,0.25000*%
D70*
X2290500Y2163500D02*
D03*
Y2036500D02*
D03*
X2163500Y2163500D02*
D03*
Y2036500D02*
D03*
X2036500Y2163500D02*
D03*
Y2036500D02*
D03*
X1909500Y2163500D02*
D03*
Y2036500D02*
D03*
X-1109500Y2163500D02*
D03*
Y2036500D02*
D03*
X-1236500Y2163500D02*
D03*
Y2036500D02*
D03*
X-1363500Y2163500D02*
D03*
Y2036500D02*
D03*
X-1490500Y2163500D02*
D03*
Y2036500D02*
D03*
X-4509500Y2163500D02*
D03*
Y2036500D02*
D03*
X-4636500Y2163500D02*
D03*
Y2036500D02*
D03*
X-4763500Y2163500D02*
D03*
Y2036500D02*
D03*
X-4890500Y2163500D02*
D03*
Y2036500D02*
D03*
D71*
X50000Y1836500D02*
D03*
Y1963500D02*
D03*
Y3786500D02*
D03*
Y3913500D02*
D03*
X-3349999Y1836500D02*
D03*
Y1963500D02*
D03*
Y3786500D02*
D03*
Y3913500D02*
D03*
X4800000Y1963500D02*
D03*
Y1836500D02*
D03*
X3450000Y3786500D02*
D03*
Y3913500D02*
D03*
Y1836500D02*
D03*
Y1963500D02*
D03*
D72*
X-2619000Y6881000D02*
D03*
Y6627000D02*
D03*
Y6373000D02*
D03*
Y6119000D02*
D03*
X-3381000Y6881000D02*
D03*
Y6627000D02*
D03*
Y6373000D02*
D03*
Y6119000D02*
D03*
X381000Y6881000D02*
D03*
Y6627000D02*
D03*
Y6373000D02*
D03*
Y6119000D02*
D03*
X-381000Y6881000D02*
D03*
Y6627000D02*
D03*
Y6373000D02*
D03*
Y6119000D02*
D03*
X3381000Y6881000D02*
D03*
Y6627000D02*
D03*
Y6373000D02*
D03*
Y6119000D02*
D03*
X2619000Y6881000D02*
D03*
Y6627000D02*
D03*
Y6373000D02*
D03*
Y6119000D02*
D03*
D73*
X-3000000Y6500000D02*
D03*
X0D02*
D03*
X3000000D02*
D03*
D74*
X-5700000Y2000000D02*
D03*
Y5000000D02*
D03*
X5700000Y2000000D02*
D03*
Y5000000D02*
D03*
D75*
X-5700000Y4000000D02*
D03*
X-1400000Y6600000D02*
D03*
X1400000D02*
D03*
D76*
X5700000Y4000000D02*
D03*
X2100000Y2700000D02*
D03*
X-1300000D02*
D03*
X-4700000D02*
D03*
D77*
X4419000Y6781000D02*
D03*
X4673000D02*
D03*
X4927000D02*
D03*
X5181000D02*
D03*
Y6019000D02*
D03*
X4927000D02*
D03*
X4673000D02*
D03*
X4419000D02*
D03*
X-5181000Y981000D02*
D03*
X-4927000D02*
D03*
X-4673000D02*
D03*
X-4419000D02*
D03*
Y219000D02*
D03*
X-4673000D02*
D03*
X-4927000D02*
D03*
X-5181000D02*
D03*
X4419000Y981000D02*
D03*
X4673000D02*
D03*
X4927000D02*
D03*
X5181000D02*
D03*
Y219000D02*
D03*
X4927000D02*
D03*
X4673000D02*
D03*
X4419000D02*
D03*
X-5181000Y6781000D02*
D03*
X-4927000D02*
D03*
X-4673000D02*
D03*
X-4419000D02*
D03*
Y6019000D02*
D03*
X-4673000D02*
D03*
X-4927000D02*
D03*
X-5181000D02*
D03*
D78*
X-5700000Y3809500D02*
D03*
Y4190500D02*
D03*
X-5509500Y4000000D02*
D03*
X-5890500D02*
D03*
X5890500D02*
D03*
X5509500D02*
D03*
X5700000Y4190500D02*
D03*
Y3809500D02*
D03*
X-1400000Y6409500D02*
D03*
Y6790500D02*
D03*
X-1209500Y6600000D02*
D03*
X-1590500D02*
D03*
X1400000Y6409500D02*
D03*
Y6790500D02*
D03*
X1590500Y6600000D02*
D03*
X1209500D02*
D03*
X1909500Y2700000D02*
D03*
X2290500D02*
D03*
X2100000Y2890500D02*
D03*
Y2509500D02*
D03*
X-1490500Y2700000D02*
D03*
X-1109500D02*
D03*
X-1300000Y2890500D02*
D03*
Y2509500D02*
D03*
X-4890500Y2700000D02*
D03*
X-4509500D02*
D03*
X-4700000Y2890500D02*
D03*
Y2509500D02*
D03*
D79*
X700000Y3175000D02*
D03*
X850000Y3225000D02*
D03*
X650000Y3325000D02*
D03*
X350000D02*
D03*
X1050000D02*
D03*
X900000Y3175000D02*
D03*
X800000D02*
D03*
X300000D02*
D03*
X500000D02*
D03*
X1050000Y3225000D02*
D03*
X250000Y3325000D02*
D03*
X900000Y3275000D02*
D03*
X1000000Y3175000D02*
D03*
X750000Y3225000D02*
D03*
X950000D02*
D03*
X250000D02*
D03*
X700000Y3275000D02*
D03*
X800000D02*
D03*
X1000000D02*
D03*
X750000Y3325000D02*
D03*
X850000D02*
D03*
X950000D02*
D03*
X400000Y3175000D02*
D03*
X600000D02*
D03*
X350000Y3225000D02*
D03*
X550000D02*
D03*
X450000D02*
D03*
X650000D02*
D03*
X500000Y3275000D02*
D03*
X400000D02*
D03*
X300000D02*
D03*
X600000D02*
D03*
X450000Y3325000D02*
D03*
X550000D02*
D03*
X-2350000D02*
D03*
X-2400000Y3275000D02*
D03*
X-2350000Y3225000D02*
D03*
X-2400000Y3175000D02*
D03*
X-2550000Y3325000D02*
D03*
X-2450000D02*
D03*
X-2600000Y3275000D02*
D03*
X-2650000Y3325000D02*
D03*
X-2750000D02*
D03*
X-2700000Y3275000D02*
D03*
X-2800000D02*
D03*
X-2500000D02*
D03*
X-2450000Y3225000D02*
D03*
X-2550000D02*
D03*
X-2500000Y3175000D02*
D03*
X-2600000D02*
D03*
X-2650000Y3225000D02*
D03*
X-2750000D02*
D03*
X-2700000Y3175000D02*
D03*
X-2800000D02*
D03*
X-2850000Y3325000D02*
D03*
X-2950000D02*
D03*
X-3150000D02*
D03*
X-3050000D02*
D03*
X-3100000Y3275000D02*
D03*
X-2900000D02*
D03*
X-2850000Y3225000D02*
D03*
X-2950000D02*
D03*
X-2900000Y3175000D02*
D03*
X-3000000D02*
D03*
Y3275000D02*
D03*
X-3150000Y3225000D02*
D03*
X-3050000D02*
D03*
X-3100000Y3175000D02*
D03*
X-3400000Y5250000D02*
D03*
X-3300000D02*
D03*
X-3200000D02*
D03*
X5150000Y6600000D02*
D03*
X5050000D02*
D03*
X5200000Y6550000D02*
D03*
X5100000D02*
D03*
X4950000Y6600000D02*
D03*
X4900000Y6550000D02*
D03*
X4850000Y6600000D02*
D03*
X5000000Y6550000D02*
D03*
X4950000Y6500000D02*
D03*
X5150000D02*
D03*
X5200000Y6450000D02*
D03*
X5100000D02*
D03*
X5150000Y6400000D02*
D03*
X5050000D02*
D03*
Y6500000D02*
D03*
X4900000Y6450000D02*
D03*
X5000000D02*
D03*
X4950000Y6400000D02*
D03*
X4750000Y6600000D02*
D03*
X4800000Y6550000D02*
D03*
X4700000D02*
D03*
X4650000Y6600000D02*
D03*
X4600000Y6550000D02*
D03*
X4550000Y6600000D02*
D03*
X4650000Y6500000D02*
D03*
X4550000D02*
D03*
X4850000D02*
D03*
X4800000Y6450000D02*
D03*
X4750000Y6500000D02*
D03*
X4850000Y6400000D02*
D03*
X4750000D02*
D03*
X4700000Y6450000D02*
D03*
X4600000D02*
D03*
X4650000Y6400000D02*
D03*
X4550000D02*
D03*
X5100000Y6350000D02*
D03*
X5200000D02*
D03*
X5000000D02*
D03*
X5150000Y6300000D02*
D03*
X5050000D02*
D03*
X4900000Y6350000D02*
D03*
X4950000Y6300000D02*
D03*
X4850000D02*
D03*
X4900000Y6250000D02*
D03*
X4800000D02*
D03*
X5100000D02*
D03*
X5200000D02*
D03*
X5050000Y6200000D02*
D03*
X5150000D02*
D03*
X5000000Y6250000D02*
D03*
X4850000Y6200000D02*
D03*
X4950000D02*
D03*
X4800000Y6350000D02*
D03*
X4750000Y6300000D02*
D03*
X4700000Y6350000D02*
D03*
Y6250000D02*
D03*
X4650000Y6200000D02*
D03*
X4600000Y6350000D02*
D03*
X4650000Y6300000D02*
D03*
X4550000D02*
D03*
X4600000Y6250000D02*
D03*
X4550000Y6200000D02*
D03*
X4750000D02*
D03*
Y5500000D02*
D03*
X4700000Y5450000D02*
D03*
Y5550000D02*
D03*
X4600000D02*
D03*
X4650000Y5500000D02*
D03*
X4550000D02*
D03*
X4500000Y6550000D02*
D03*
X4450000Y6500000D02*
D03*
Y6600000D02*
D03*
X4500000Y6450000D02*
D03*
X4450000Y6400000D02*
D03*
X4400000Y6550000D02*
D03*
X4350000Y6500000D02*
D03*
Y6600000D02*
D03*
X4400000Y6450000D02*
D03*
X4350000Y6400000D02*
D03*
X4500000Y6350000D02*
D03*
Y6250000D02*
D03*
X4450000Y6300000D02*
D03*
X4500000Y5550000D02*
D03*
X4450000Y6200000D02*
D03*
X4400000Y6250000D02*
D03*
Y6350000D02*
D03*
Y5550000D02*
D03*
X4350000Y6200000D02*
D03*
Y6300000D02*
D03*
X1300000Y5550000D02*
D03*
X1200000D02*
D03*
X800000D02*
D03*
X900000D02*
D03*
X700000D02*
D03*
X1100000D02*
D03*
X1000000D02*
D03*
X3700000D02*
D03*
X3800000D02*
D03*
X3600000D02*
D03*
X4300000D02*
D03*
X4200000D02*
D03*
X3500000D02*
D03*
X3400000D02*
D03*
X4100000D02*
D03*
X4050000Y5500000D02*
D03*
X4000000Y5550000D02*
D03*
X4250000Y5500000D02*
D03*
X4150000D02*
D03*
X3900000Y5550000D02*
D03*
X3750000Y5500000D02*
D03*
X3650000D02*
D03*
X3950000D02*
D03*
X3850000D02*
D03*
X4350000D02*
D03*
X4450000D02*
D03*
X4000000Y5450000D02*
D03*
X4200000D02*
D03*
X4100000D02*
D03*
X3700000D02*
D03*
X3600000D02*
D03*
X3900000D02*
D03*
X3800000D02*
D03*
X1350000Y5500000D02*
D03*
X3350000D02*
D03*
X1250000D02*
D03*
X3550000D02*
D03*
X3450000D02*
D03*
X850000D02*
D03*
X950000D02*
D03*
X750000D02*
D03*
X1150000D02*
D03*
X1050000D02*
D03*
X1200000Y5450000D02*
D03*
X1300000D02*
D03*
X1100000D02*
D03*
X3500000D02*
D03*
X3400000D02*
D03*
X800000D02*
D03*
X700000D02*
D03*
X1000000D02*
D03*
X900000D02*
D03*
X4600000D02*
D03*
X4550000Y5400000D02*
D03*
X4500000Y5450000D02*
D03*
X4750000Y5400000D02*
D03*
X4650000D02*
D03*
X4400000Y5450000D02*
D03*
X4450000Y5400000D02*
D03*
X4350000D02*
D03*
X4400000Y5350000D02*
D03*
X4300000D02*
D03*
X4700000D02*
D03*
X4650000Y5300000D02*
D03*
X4600000Y5350000D02*
D03*
X4750000Y5300000D02*
D03*
X4500000Y5350000D02*
D03*
X4350000Y5300000D02*
D03*
X4550000D02*
D03*
X4450000D02*
D03*
X4300000Y5450000D02*
D03*
X4250000Y5400000D02*
D03*
X4150000D02*
D03*
X4200000Y5350000D02*
D03*
X4100000D02*
D03*
X3950000Y5400000D02*
D03*
X4050000D02*
D03*
X3900000Y5350000D02*
D03*
X4000000D02*
D03*
X3850000Y5300000D02*
D03*
X4150000D02*
D03*
X4250000D02*
D03*
X4100000Y5250000D02*
D03*
X4300000D02*
D03*
X4200000D02*
D03*
X4050000Y5300000D02*
D03*
X3950000D02*
D03*
X4000000Y5250000D02*
D03*
X3900000D02*
D03*
X4500000D02*
D03*
X4600000D02*
D03*
X4400000D02*
D03*
X4700000D02*
D03*
X4450000Y3325000D02*
D03*
X4400000Y3275000D02*
D03*
X4450000Y3225000D02*
D03*
X4400000Y3175000D02*
D03*
X4350000Y3325000D02*
D03*
X4300000Y3275000D02*
D03*
X4350000Y3225000D02*
D03*
X4300000Y3175000D02*
D03*
X4150000Y3325000D02*
D03*
X4250000D02*
D03*
X4200000Y3275000D02*
D03*
X4100000D02*
D03*
X3950000Y3325000D02*
D03*
X4050000D02*
D03*
X3850000D02*
D03*
X4000000Y3275000D02*
D03*
X3900000D02*
D03*
X4150000Y3225000D02*
D03*
X4250000D02*
D03*
X4200000Y3175000D02*
D03*
X4100000D02*
D03*
X4050000Y3225000D02*
D03*
X3950000D02*
D03*
X4000000Y3175000D02*
D03*
X3900000D02*
D03*
X3650000Y5400000D02*
D03*
X3750000D02*
D03*
X3550000D02*
D03*
X3850000D02*
D03*
X3500000Y5350000D02*
D03*
X3350000Y5400000D02*
D03*
X3450000D02*
D03*
X1350000D02*
D03*
X3400000Y5350000D02*
D03*
X1300000D02*
D03*
X3700000D02*
D03*
X3800000D02*
D03*
X3600000D02*
D03*
X3750000Y5300000D02*
D03*
X3650000D02*
D03*
X3350000D02*
D03*
X1350000D02*
D03*
X3550000D02*
D03*
X3450000D02*
D03*
X1050000Y5400000D02*
D03*
X1150000D02*
D03*
X950000D02*
D03*
X1250000D02*
D03*
X1000000Y5350000D02*
D03*
X750000Y5400000D02*
D03*
X850000D02*
D03*
X700000Y5350000D02*
D03*
X900000D02*
D03*
X800000D02*
D03*
X1200000D02*
D03*
X1150000Y5300000D02*
D03*
X1100000Y5350000D02*
D03*
X1250000Y5300000D02*
D03*
X1200000Y5250000D02*
D03*
X850000Y5300000D02*
D03*
X750000D02*
D03*
X1050000D02*
D03*
X950000D02*
D03*
X3700000Y5250000D02*
D03*
X3800000D02*
D03*
X3600000D02*
D03*
X3650000Y3325000D02*
D03*
X1300000Y5250000D02*
D03*
X3400000D02*
D03*
X1100000D02*
D03*
X3500000D02*
D03*
X3800000Y3275000D02*
D03*
X3750000Y3225000D02*
D03*
Y3325000D02*
D03*
X3850000Y3225000D02*
D03*
X3800000Y3175000D02*
D03*
X3700000Y3275000D02*
D03*
Y3175000D02*
D03*
X3650000Y3225000D02*
D03*
X900000Y5250000D02*
D03*
X1000000D02*
D03*
X800000D02*
D03*
X700000D02*
D03*
X-2300000Y5550000D02*
D03*
X-2200000D02*
D03*
X-2400000D02*
D03*
X0D02*
D03*
X-2100000D02*
D03*
X-2800000D02*
D03*
X-2700000D02*
D03*
X-2900000D02*
D03*
X-2500000D02*
D03*
X-2600000D02*
D03*
X400000D02*
D03*
X500000D02*
D03*
X300000D02*
D03*
X600000D02*
D03*
X350000Y5500000D02*
D03*
X200000Y5550000D02*
D03*
X100000D02*
D03*
X-4350000Y6550000D02*
D03*
Y6450000D02*
D03*
Y6350000D02*
D03*
X-4400000Y6400000D02*
D03*
Y6600000D02*
D03*
Y6500000D02*
D03*
X-4450000Y6450000D02*
D03*
X-4400000Y6300000D02*
D03*
X-4450000Y6250000D02*
D03*
X-3300000Y5550000D02*
D03*
X-3200000D02*
D03*
X-3000000D02*
D03*
X-3100000D02*
D03*
X-4350000Y6250000D02*
D03*
X-4400000Y6200000D02*
D03*
X-3400000Y5550000D02*
D03*
X250000Y5500000D02*
D03*
X450000D02*
D03*
X150000D02*
D03*
X650000D02*
D03*
X550000D02*
D03*
X-2150000D02*
D03*
X-2050000D02*
D03*
X-2250000D02*
D03*
X50000D02*
D03*
X-50000D02*
D03*
X300000Y5450000D02*
D03*
X400000D02*
D03*
X200000D02*
D03*
X600000D02*
D03*
X500000D02*
D03*
X-2100000D02*
D03*
X-2200000D02*
D03*
X100000D02*
D03*
X0D02*
D03*
X-2850000Y5500000D02*
D03*
X-2750000D02*
D03*
X-2950000D02*
D03*
X-2550000D02*
D03*
X-2650000D02*
D03*
X-3350000D02*
D03*
X-3250000D02*
D03*
X-3450000D02*
D03*
X-3050000D02*
D03*
X-3150000D02*
D03*
X-2450000D02*
D03*
X-2350000D02*
D03*
X-3000000Y5450000D02*
D03*
X-2500000D02*
D03*
X-2900000D02*
D03*
X-3300000D02*
D03*
X-3400000D02*
D03*
X-3100000D02*
D03*
X-3200000D02*
D03*
X-4600000Y6600000D02*
D03*
X-4500000D02*
D03*
X-4450000Y6550000D02*
D03*
X-4550000D02*
D03*
X-4700000Y6600000D02*
D03*
X-4750000Y6550000D02*
D03*
X-4800000Y6600000D02*
D03*
X-4650000Y6550000D02*
D03*
X-4800000Y6500000D02*
D03*
X-4600000D02*
D03*
X-4500000D02*
D03*
X-4650000Y6450000D02*
D03*
X-4550000D02*
D03*
X-4600000Y6400000D02*
D03*
X-4700000Y6500000D02*
D03*
X-4850000Y6450000D02*
D03*
X-4700000Y6400000D02*
D03*
X-4750000Y6450000D02*
D03*
X-4900000Y6600000D02*
D03*
X-5000000D02*
D03*
X-4850000Y6550000D02*
D03*
X-4950000D02*
D03*
X-5200000Y6600000D02*
D03*
X-5100000D02*
D03*
X-5050000Y6550000D02*
D03*
X-5150000D02*
D03*
X-5000000Y6500000D02*
D03*
X-4900000D02*
D03*
X-5050000Y6450000D02*
D03*
X-4950000D02*
D03*
X-5000000Y6400000D02*
D03*
X-5100000Y6500000D02*
D03*
X-5200000D02*
D03*
X-5150000Y6450000D02*
D03*
X-5200000Y6400000D02*
D03*
X-4500000D02*
D03*
X-4450000Y6350000D02*
D03*
X-4550000D02*
D03*
X-4500000Y6300000D02*
D03*
X-4600000D02*
D03*
X-4750000Y6350000D02*
D03*
X-4650000D02*
D03*
X-4800000Y6400000D02*
D03*
X-4700000Y6300000D02*
D03*
X-4800000D02*
D03*
X-4550000Y6250000D02*
D03*
X-4600000Y6200000D02*
D03*
X-4650000Y6250000D02*
D03*
X-4500000Y6200000D02*
D03*
X-4750000Y6250000D02*
D03*
X-4850000D02*
D03*
X-4700000Y6200000D02*
D03*
X-4800000D02*
D03*
X-4900000Y6400000D02*
D03*
X-4850000Y6350000D02*
D03*
X-4950000D02*
D03*
X-4900000Y6300000D02*
D03*
X-5000000D02*
D03*
X-5100000Y6400000D02*
D03*
X-5050000Y6350000D02*
D03*
X-5150000D02*
D03*
X-5100000Y6300000D02*
D03*
X-5200000D02*
D03*
X-4950000Y6250000D02*
D03*
X-5000000Y6200000D02*
D03*
X-5050000Y6250000D02*
D03*
X-4900000Y6200000D02*
D03*
X-5150000Y6250000D02*
D03*
X-5200000Y6200000D02*
D03*
X-5100000D02*
D03*
X450000Y5400000D02*
D03*
X550000D02*
D03*
X350000D02*
D03*
X650000D02*
D03*
X400000Y5350000D02*
D03*
X150000Y5400000D02*
D03*
X250000D02*
D03*
X100000Y5350000D02*
D03*
X300000D02*
D03*
X200000D02*
D03*
X500000D02*
D03*
X600000D02*
D03*
X450000Y5300000D02*
D03*
X650000D02*
D03*
X550000D02*
D03*
X150000D02*
D03*
X50000D02*
D03*
X350000D02*
D03*
X250000D02*
D03*
X-2150000Y5400000D02*
D03*
X-2050000D02*
D03*
X-2250000D02*
D03*
X50000D02*
D03*
X-50000D02*
D03*
X-2300000Y5450000D02*
D03*
X-2350000Y5400000D02*
D03*
X-2400000Y5450000D02*
D03*
X-2300000Y5350000D02*
D03*
X-2400000D02*
D03*
X-2100000D02*
D03*
X0D02*
D03*
X-2150000Y5300000D02*
D03*
X-50000D02*
D03*
X-2050000D02*
D03*
X-2200000Y5350000D02*
D03*
X-2450000Y5300000D02*
D03*
X-2250000D02*
D03*
X-2350000D02*
D03*
X600000Y5250000D02*
D03*
X500000D02*
D03*
X400000D02*
D03*
X100000D02*
D03*
X200000D02*
D03*
X0D02*
D03*
X300000D02*
D03*
X-2300000D02*
D03*
X-2200000D02*
D03*
X-2400000D02*
D03*
X-2100000D02*
D03*
X-2600000Y5450000D02*
D03*
X-2650000Y5400000D02*
D03*
X-2700000Y5450000D02*
D03*
X-2450000Y5400000D02*
D03*
X-2550000D02*
D03*
X-2800000Y5450000D02*
D03*
X-2850000Y5400000D02*
D03*
X-2950000D02*
D03*
X-2750000D02*
D03*
X-2900000Y5350000D02*
D03*
X-2600000D02*
D03*
X-2500000D02*
D03*
X-2700000D02*
D03*
X-2550000Y5300000D02*
D03*
X-2650000D02*
D03*
X-2800000Y5350000D02*
D03*
X-2950000Y5300000D02*
D03*
X-2750000D02*
D03*
X-2850000D02*
D03*
X-3150000Y5400000D02*
D03*
X-3050000D02*
D03*
X-3200000Y5350000D02*
D03*
X-3000000D02*
D03*
X-3100000D02*
D03*
X-3350000Y5400000D02*
D03*
X-3250000D02*
D03*
X-3450000D02*
D03*
X-3300000Y5350000D02*
D03*
X-3400000D02*
D03*
X-3150000Y5300000D02*
D03*
X-3050000D02*
D03*
X-3250000D02*
D03*
X-3100000Y5250000D02*
D03*
X-3350000Y5300000D02*
D03*
X-3450000D02*
D03*
X-2500000Y5250000D02*
D03*
X-2600000D02*
D03*
X-2700000D02*
D03*
X-2900000D02*
D03*
X-2800000D02*
D03*
X-3000000D02*
D03*
X-5100000Y450000D02*
D03*
X-5200000D02*
D03*
X-5050000Y500000D02*
D03*
X-4900000Y450000D02*
D03*
X-5000000D02*
D03*
X-4850000Y500000D02*
D03*
X-4950000D02*
D03*
X-5150000D02*
D03*
X-5100000Y550000D02*
D03*
X-5200000D02*
D03*
X-5050000Y600000D02*
D03*
X-5150000D02*
D03*
X-5000000Y550000D02*
D03*
X-4900000D02*
D03*
X-5000000Y650000D02*
D03*
X-4950000Y600000D02*
D03*
X-4900000Y650000D02*
D03*
X-4700000Y450000D02*
D03*
X-4600000D02*
D03*
X-4800000D02*
D03*
X-4650000Y500000D02*
D03*
X-4750000D02*
D03*
X-4400000Y450000D02*
D03*
X-4550000Y500000D02*
D03*
X-4500000Y450000D02*
D03*
X-4450000Y500000D02*
D03*
X-4800000Y550000D02*
D03*
X-4700000D02*
D03*
X-4850000Y600000D02*
D03*
X-4650000D02*
D03*
X-4750000D02*
D03*
X-4600000Y550000D02*
D03*
X-4500000D02*
D03*
X-4600000Y650000D02*
D03*
X-4450000Y600000D02*
D03*
X-4550000D02*
D03*
X-5200000Y650000D02*
D03*
X-5100000D02*
D03*
X-5200000Y750000D02*
D03*
X-5150000Y700000D02*
D03*
X-5100000Y750000D02*
D03*
X-4950000Y700000D02*
D03*
X-4850000D02*
D03*
X-5050000D02*
D03*
X-4900000Y750000D02*
D03*
X-5000000D02*
D03*
X-5150000Y800000D02*
D03*
X-5050000D02*
D03*
X-5100000Y850000D02*
D03*
X-5200000D02*
D03*
X-4950000Y800000D02*
D03*
X-4850000D02*
D03*
X-5000000Y850000D02*
D03*
X-4900000D02*
D03*
X-4800000Y650000D02*
D03*
X-4700000D02*
D03*
X-4750000Y700000D02*
D03*
X-4650000D02*
D03*
X-4700000Y750000D02*
D03*
X-4500000Y650000D02*
D03*
X-4450000Y700000D02*
D03*
X-4600000Y750000D02*
D03*
X-4550000Y700000D02*
D03*
X-4500000Y750000D02*
D03*
X-4800000D02*
D03*
X-4650000Y800000D02*
D03*
X-4800000Y850000D02*
D03*
X-4750000Y800000D02*
D03*
X-4700000Y850000D02*
D03*
X-4550000Y800000D02*
D03*
X-4450000D02*
D03*
X-4500000Y850000D02*
D03*
X-4600000D02*
D03*
X-4400000Y550000D02*
D03*
X-4400000Y650000D02*
D03*
Y850000D02*
D03*
Y750000D02*
D03*
X-4350000Y500000D02*
D03*
Y800000D02*
D03*
Y600000D02*
D03*
Y700000D02*
D03*
X-3200000Y1350000D02*
D03*
X-3400000D02*
D03*
X-3300000D02*
D03*
X-3150000Y1400000D02*
D03*
X-2900000Y1350000D02*
D03*
X-2800000D02*
D03*
X-3100000D02*
D03*
X-3000000D02*
D03*
X-2850000Y1400000D02*
D03*
X0Y1350000D02*
D03*
X100000D02*
D03*
X-2300000D02*
D03*
X-2100000D02*
D03*
X-2200000D02*
D03*
X500000D02*
D03*
X600000D02*
D03*
X200000D02*
D03*
X400000D02*
D03*
X300000D02*
D03*
X-2500000D02*
D03*
X-2400000D02*
D03*
X-2700000D02*
D03*
X-2600000D02*
D03*
X-2650000Y1400000D02*
D03*
X450000D02*
D03*
X550000D02*
D03*
X50000D02*
D03*
X350000D02*
D03*
X250000D02*
D03*
X-3050000D02*
D03*
X-2950000D02*
D03*
X-3450000D02*
D03*
X-3250000D02*
D03*
X-3350000D02*
D03*
X-2550000D02*
D03*
X-2450000D02*
D03*
X-2750000D02*
D03*
X-2500000Y1450000D02*
D03*
X-2600000D02*
D03*
X-3100000D02*
D03*
X-3000000D02*
D03*
X-3400000D02*
D03*
X-3200000D02*
D03*
X-3300000D02*
D03*
X-2800000D02*
D03*
X-2700000D02*
D03*
X-2900000D02*
D03*
X-2450000Y1500000D02*
D03*
X-2850000D02*
D03*
X-2050000Y1400000D02*
D03*
X-50000D02*
D03*
X-2350000D02*
D03*
X-2150000D02*
D03*
X-2250000D02*
D03*
X150000D02*
D03*
X650000D02*
D03*
X400000Y1450000D02*
D03*
X600000D02*
D03*
X500000D02*
D03*
X-2200000D02*
D03*
X-2100000D02*
D03*
X-2400000D02*
D03*
X-2300000D02*
D03*
X-2350000Y1500000D02*
D03*
X200000Y1450000D02*
D03*
X300000D02*
D03*
X0D02*
D03*
X100000D02*
D03*
X550000Y1500000D02*
D03*
X-3450000D02*
D03*
X-3350000D02*
D03*
X-3400000Y1550000D02*
D03*
X-3300000D02*
D03*
X-3150000Y1500000D02*
D03*
X-3050000D02*
D03*
X-3250000D02*
D03*
X-3100000Y1550000D02*
D03*
X-3200000D02*
D03*
X-3350000Y1600000D02*
D03*
X-3250000D02*
D03*
X-3450000D02*
D03*
X-3300000Y1650000D02*
D03*
X-3400000D02*
D03*
X-3150000Y1600000D02*
D03*
X-3050000D02*
D03*
X-3200000Y1650000D02*
D03*
X-3000000D02*
D03*
X-3100000D02*
D03*
X-2950000Y1500000D02*
D03*
X-2750000D02*
D03*
X-3000000Y1550000D02*
D03*
X-2800000D02*
D03*
X-2900000D02*
D03*
X-2650000Y1500000D02*
D03*
X-2550000D02*
D03*
X-2700000Y1550000D02*
D03*
X-2500000D02*
D03*
X-2600000D02*
D03*
X-2850000Y1600000D02*
D03*
X-2750000D02*
D03*
X-2950000D02*
D03*
X-2800000Y1650000D02*
D03*
X-2900000D02*
D03*
X-2650000Y1600000D02*
D03*
X-2550000D02*
D03*
X-2700000Y1650000D02*
D03*
X-2500000D02*
D03*
X-2600000D02*
D03*
X-2900000Y4525000D02*
D03*
X-3000000D02*
D03*
X-3150000Y4575000D02*
D03*
X-3100000Y4525000D02*
D03*
X-3150000Y4675000D02*
D03*
X-3100000Y4625000D02*
D03*
X-3050000Y4675000D02*
D03*
Y4575000D02*
D03*
X-2950000D02*
D03*
X-3000000Y4625000D02*
D03*
X-2900000D02*
D03*
X-2950000Y4675000D02*
D03*
X-2700000Y4525000D02*
D03*
X-2800000D02*
D03*
X-2650000Y4575000D02*
D03*
X-2750000D02*
D03*
X-2600000Y4525000D02*
D03*
X-2500000D02*
D03*
X-2550000Y4575000D02*
D03*
X-2850000D02*
D03*
X-2700000Y4625000D02*
D03*
X-2850000Y4675000D02*
D03*
X-2800000Y4625000D02*
D03*
X-2750000Y4675000D02*
D03*
X-2600000Y4625000D02*
D03*
X-2500000D02*
D03*
X-2650000Y4675000D02*
D03*
X-2450000D02*
D03*
X-2550000D02*
D03*
X-2250000Y1500000D02*
D03*
X-2150000D02*
D03*
X-2300000Y1550000D02*
D03*
X-2200000D02*
D03*
X-50000Y1500000D02*
D03*
X50000D02*
D03*
X-2100000Y1550000D02*
D03*
X-2050000Y1500000D02*
D03*
X0Y1550000D02*
D03*
X-2400000D02*
D03*
X-2150000Y1600000D02*
D03*
X-2450000D02*
D03*
X-2250000D02*
D03*
X-2350000D02*
D03*
X-50000D02*
D03*
X50000D02*
D03*
X-2100000Y1650000D02*
D03*
X-2050000Y1600000D02*
D03*
X0Y1650000D02*
D03*
X150000Y1500000D02*
D03*
X250000D02*
D03*
X100000Y1550000D02*
D03*
X300000D02*
D03*
X200000D02*
D03*
X350000Y1500000D02*
D03*
X450000D02*
D03*
X400000Y1550000D02*
D03*
X600000D02*
D03*
X500000D02*
D03*
X250000Y1600000D02*
D03*
X350000D02*
D03*
X100000Y1650000D02*
D03*
X150000Y1600000D02*
D03*
X300000Y1650000D02*
D03*
X550000Y1600000D02*
D03*
X650000D02*
D03*
X450000D02*
D03*
X600000Y1650000D02*
D03*
X500000D02*
D03*
X-2300000D02*
D03*
X-2200000D02*
D03*
X-2400000D02*
D03*
X200000D02*
D03*
X-2400000Y4525000D02*
D03*
X-2350000Y4575000D02*
D03*
X-2450000D02*
D03*
X-2400000Y4625000D02*
D03*
X-2350000Y4675000D02*
D03*
X250000Y4575000D02*
D03*
X300000Y4625000D02*
D03*
X250000Y4675000D02*
D03*
X400000Y1650000D02*
D03*
X400000Y4525000D02*
D03*
X600000D02*
D03*
X500000D02*
D03*
X300000D02*
D03*
X350000Y4575000D02*
D03*
Y4675000D02*
D03*
X400000Y4625000D02*
D03*
X450000Y4675000D02*
D03*
Y4575000D02*
D03*
X550000D02*
D03*
X500000Y4625000D02*
D03*
X600000D02*
D03*
X550000Y4675000D02*
D03*
X3700000Y1350000D02*
D03*
X3800000D02*
D03*
X3500000D02*
D03*
X3600000D02*
D03*
X4200000D02*
D03*
X4300000D02*
D03*
X3900000D02*
D03*
X4100000D02*
D03*
X4000000D02*
D03*
X1000000D02*
D03*
X1100000D02*
D03*
X700000D02*
D03*
X900000D02*
D03*
X800000D02*
D03*
X1300000D02*
D03*
X3400000D02*
D03*
X1200000D02*
D03*
X4250000Y1400000D02*
D03*
X3850000D02*
D03*
X4350000Y450000D02*
D03*
X4400000Y500000D02*
D03*
X4350000Y550000D02*
D03*
X4400000Y600000D02*
D03*
X4350000Y650000D02*
D03*
X4450000Y450000D02*
D03*
Y650000D02*
D03*
Y550000D02*
D03*
X4500000Y600000D02*
D03*
X4350000Y750000D02*
D03*
X4400000Y800000D02*
D03*
X4350000Y850000D02*
D03*
X4400000Y1350000D02*
D03*
X4350000Y1400000D02*
D03*
X4400000Y700000D02*
D03*
X4450000Y750000D02*
D03*
Y850000D02*
D03*
X4500000Y1350000D02*
D03*
X1050000Y1400000D02*
D03*
X1150000D02*
D03*
X750000D02*
D03*
X950000D02*
D03*
X850000D02*
D03*
X1350000D02*
D03*
X3350000D02*
D03*
X1250000D02*
D03*
X3400000Y1450000D02*
D03*
X1300000D02*
D03*
X900000D02*
D03*
X1000000D02*
D03*
X650000Y1500000D02*
D03*
X800000Y1450000D02*
D03*
X700000D02*
D03*
X1100000D02*
D03*
X1200000D02*
D03*
X1250000Y1500000D02*
D03*
X3450000D02*
D03*
X1350000D02*
D03*
X3750000Y1400000D02*
D03*
X3950000D02*
D03*
X3450000D02*
D03*
X3650000D02*
D03*
X3550000D02*
D03*
X4150000D02*
D03*
X4450000D02*
D03*
X4050000D02*
D03*
X4500000Y1450000D02*
D03*
X4400000D02*
D03*
X3700000D02*
D03*
X3800000D02*
D03*
X3500000D02*
D03*
X3600000D02*
D03*
X3850000Y1500000D02*
D03*
X4200000Y1450000D02*
D03*
X4300000D02*
D03*
X3900000D02*
D03*
X4100000D02*
D03*
X4000000D02*
D03*
X4550000Y450000D02*
D03*
X4650000D02*
D03*
X4500000Y500000D02*
D03*
X4600000D02*
D03*
X4700000D02*
D03*
X4750000Y450000D02*
D03*
X4800000Y500000D02*
D03*
X4550000Y550000D02*
D03*
X4650000D02*
D03*
X4550000Y650000D02*
D03*
X4600000Y600000D02*
D03*
X4650000Y650000D02*
D03*
X4750000Y550000D02*
D03*
X4800000Y600000D02*
D03*
X4700000D02*
D03*
X4850000Y650000D02*
D03*
X4750000D02*
D03*
X4950000Y450000D02*
D03*
X5050000D02*
D03*
X4850000D02*
D03*
X5000000Y500000D02*
D03*
X4900000D02*
D03*
X5150000Y450000D02*
D03*
X5100000Y500000D02*
D03*
X5200000D02*
D03*
X5150000Y550000D02*
D03*
X4850000D02*
D03*
X4950000D02*
D03*
X4900000Y600000D02*
D03*
X5000000D02*
D03*
X4950000Y650000D02*
D03*
X5050000Y550000D02*
D03*
X5200000Y600000D02*
D03*
X5050000Y650000D02*
D03*
X5100000Y600000D02*
D03*
X5150000Y650000D02*
D03*
X4500000Y700000D02*
D03*
X4600000D02*
D03*
X4500000Y800000D02*
D03*
X4550000Y750000D02*
D03*
X4600000Y800000D02*
D03*
X4700000Y700000D02*
D03*
X4750000Y750000D02*
D03*
X4650000D02*
D03*
X4700000Y800000D02*
D03*
X4750000Y850000D02*
D03*
X4550000D02*
D03*
X4600000Y1350000D02*
D03*
X4550000Y1400000D02*
D03*
X4650000Y850000D02*
D03*
X4900000Y700000D02*
D03*
X5000000D02*
D03*
X4800000D02*
D03*
X4950000Y750000D02*
D03*
X4850000D02*
D03*
X5100000Y700000D02*
D03*
X5200000D02*
D03*
X5050000Y750000D02*
D03*
X5150000D02*
D03*
X5200000Y800000D02*
D03*
X4800000D02*
D03*
X4900000D02*
D03*
X4950000Y850000D02*
D03*
X4850000D02*
D03*
X5000000Y800000D02*
D03*
X5100000D02*
D03*
X5050000Y850000D02*
D03*
X5150000D02*
D03*
X850000Y1500000D02*
D03*
X950000D02*
D03*
X750000D02*
D03*
X900000Y1550000D02*
D03*
X1050000Y1500000D02*
D03*
X1150000D02*
D03*
X1000000Y1550000D02*
D03*
X1200000D02*
D03*
X1100000D02*
D03*
X700000D02*
D03*
X800000D02*
D03*
X750000Y1600000D02*
D03*
X850000D02*
D03*
X900000Y1650000D02*
D03*
X1050000Y1600000D02*
D03*
X1150000D02*
D03*
X950000D02*
D03*
X1100000Y1650000D02*
D03*
X1000000D02*
D03*
X3350000Y1500000D02*
D03*
X3550000D02*
D03*
X1300000Y1550000D02*
D03*
X3500000D02*
D03*
X3400000D02*
D03*
X3650000Y1500000D02*
D03*
X3750000D02*
D03*
X3600000Y1550000D02*
D03*
X3700000D02*
D03*
X3750000Y1600000D02*
D03*
X3350000D02*
D03*
X3450000D02*
D03*
X1250000D02*
D03*
X1350000D02*
D03*
X3500000Y1650000D02*
D03*
X3550000Y1600000D02*
D03*
X3650000D02*
D03*
X3600000Y1650000D02*
D03*
X3800000D02*
D03*
X3700000D02*
D03*
X700000D02*
D03*
X800000D02*
D03*
X700000Y4525000D02*
D03*
X800000D02*
D03*
X1000000D02*
D03*
X850000Y4575000D02*
D03*
X900000Y4525000D02*
D03*
X950000Y4575000D02*
D03*
X650000D02*
D03*
X750000D02*
D03*
X650000Y4675000D02*
D03*
X700000Y4625000D02*
D03*
X750000Y4675000D02*
D03*
X900000Y4625000D02*
D03*
X1000000D02*
D03*
X800000D02*
D03*
X950000Y4675000D02*
D03*
X850000D02*
D03*
X1300000Y1650000D02*
D03*
X3400000D02*
D03*
X1200000D02*
D03*
X1050000Y4575000D02*
D03*
X3650000D02*
D03*
X1050000Y4675000D02*
D03*
X3700000Y4625000D02*
D03*
X3650000Y4675000D02*
D03*
X3700000Y4525000D02*
D03*
X3800000D02*
D03*
X3750000Y4675000D02*
D03*
Y4575000D02*
D03*
X3800000Y4625000D02*
D03*
X3950000Y1500000D02*
D03*
X4000000Y1550000D02*
D03*
X3800000D02*
D03*
X3900000D02*
D03*
X4150000Y1500000D02*
D03*
X4250000D02*
D03*
X4050000D02*
D03*
X4200000Y1550000D02*
D03*
X4100000D02*
D03*
X3950000Y1600000D02*
D03*
X4050000D02*
D03*
X3850000D02*
D03*
X4000000Y1650000D02*
D03*
X3900000D02*
D03*
X4150000Y1600000D02*
D03*
X4250000D02*
D03*
X4100000Y1650000D02*
D03*
X4300000D02*
D03*
X4200000D02*
D03*
X4350000Y1500000D02*
D03*
X4450000D02*
D03*
X4300000Y1550000D02*
D03*
X4500000D02*
D03*
X4400000D02*
D03*
X4550000Y1500000D02*
D03*
X4450000Y1600000D02*
D03*
X4550000D02*
D03*
X4350000D02*
D03*
X4500000Y1650000D02*
D03*
X4400000D02*
D03*
X4000000Y4525000D02*
D03*
X3900000D02*
D03*
X4100000D02*
D03*
X4150000Y4575000D02*
D03*
X3850000D02*
D03*
X3950000D02*
D03*
X3850000Y4675000D02*
D03*
X3900000Y4625000D02*
D03*
X3950000Y4675000D02*
D03*
X4050000Y4575000D02*
D03*
X4100000Y4625000D02*
D03*
X4000000D02*
D03*
X4150000Y4675000D02*
D03*
X4050000D02*
D03*
X4300000Y4525000D02*
D03*
X4400000D02*
D03*
X4200000D02*
D03*
X4250000Y4575000D02*
D03*
X4200000Y4625000D02*
D03*
X4300000D02*
D03*
X4250000Y4675000D02*
D03*
X4350000Y4575000D02*
D03*
X4450000D02*
D03*
X4350000Y4675000D02*
D03*
X4400000Y4625000D02*
D03*
X4450000Y4675000D02*
D03*
X3950000Y1900000D02*
D03*
X4300000Y1950000D02*
D03*
X4400001Y1850000D02*
D03*
X4500000D02*
D03*
X4000000Y1950000D02*
D03*
X4400001D02*
D03*
X4050000Y2000000D02*
D03*
X4150000D02*
D03*
X4350000Y1900000D02*
D03*
X4450000D02*
D03*
X4550000Y2000000D02*
D03*
X4200000Y1950000D02*
D03*
X4250000Y1900000D02*
D03*
X4450000Y2000000D02*
D03*
X4300000Y1850000D02*
D03*
X4100000Y1950000D02*
D03*
Y1850000D02*
D03*
X4550000Y1900000D02*
D03*
X4200000Y1850000D02*
D03*
X4250000Y2000000D02*
D03*
X4000000Y1850000D02*
D03*
X4150000Y1900000D02*
D03*
X3950000Y2000000D02*
D03*
X4500000Y1950000D02*
D03*
X4050000Y1900000D02*
D03*
X4350000Y2000000D02*
D03*
X3900000Y1850000D02*
D03*
Y1950000D02*
D03*
Y1750000D02*
D03*
X4050000Y1800000D02*
D03*
X4150000D02*
D03*
X4000000Y1750000D02*
D03*
X4200000D02*
D03*
X4550000Y1800000D02*
D03*
X4100000Y1750000D02*
D03*
X4300000D02*
D03*
X4250000Y1800000D02*
D03*
X4450000D02*
D03*
X4350000D02*
D03*
X4500000Y1750000D02*
D03*
X4400001D02*
D03*
X3950000Y1800000D02*
D03*
X4450000Y1700000D02*
D03*
X4550000D02*
D03*
X4350000D02*
D03*
X4150000D02*
D03*
X4250000D02*
D03*
X4050000D02*
D03*
X3850000D02*
D03*
X3950000D02*
D03*
X650000Y1900000D02*
D03*
X1000000Y1950000D02*
D03*
X1100001Y1850000D02*
D03*
X1200000D02*
D03*
X700000Y1950000D02*
D03*
X1100001D02*
D03*
X750000Y2000000D02*
D03*
X850000D02*
D03*
X1050000Y1900000D02*
D03*
X1300000Y1850000D02*
D03*
X1150000Y1900000D02*
D03*
X1250000Y2000000D02*
D03*
X900000Y1950000D02*
D03*
X950000Y1900000D02*
D03*
X1150000Y2000000D02*
D03*
X1300000Y1950000D02*
D03*
X1000000Y1850000D02*
D03*
X800000Y1950000D02*
D03*
Y1850000D02*
D03*
X1250000Y1900000D02*
D03*
X900000Y1850000D02*
D03*
X950000Y2000000D02*
D03*
X700000Y1850000D02*
D03*
X850000Y1900000D02*
D03*
X650000Y2000000D02*
D03*
X1200000Y1950000D02*
D03*
X750000Y1900000D02*
D03*
X1050000Y2000000D02*
D03*
X550000D02*
D03*
X600000Y1850000D02*
D03*
X550000Y1900000D02*
D03*
X600000Y1950000D02*
D03*
X550000Y1800000D02*
D03*
X600000Y1750000D02*
D03*
X750000Y1800000D02*
D03*
X850000D02*
D03*
X700000Y1750000D02*
D03*
X900000D02*
D03*
X1250000Y1800000D02*
D03*
X800000Y1750000D02*
D03*
X1000000D02*
D03*
X950000Y1800000D02*
D03*
X1150000D02*
D03*
X1300000Y1750000D02*
D03*
X1050000Y1800000D02*
D03*
X1200000Y1750000D02*
D03*
X1100001D02*
D03*
X650000Y1800000D02*
D03*
X1150000Y1700000D02*
D03*
X1250000D02*
D03*
X1050000D02*
D03*
X850000D02*
D03*
X950000D02*
D03*
X750000D02*
D03*
X550000D02*
D03*
X650000D02*
D03*
X-2800000Y1750000D02*
D03*
X-2700000D02*
D03*
X-2500000D02*
D03*
X-2600000D02*
D03*
X-2400000D02*
D03*
X-2100000D02*
D03*
X-2200000D02*
D03*
X-2299999D02*
D03*
X-2250000Y1700000D02*
D03*
X-2150000D02*
D03*
X-2350000D02*
D03*
X-2550000D02*
D03*
X-2450000D02*
D03*
X-2650000D02*
D03*
X-2850000D02*
D03*
X-2750000D02*
D03*
Y1900000D02*
D03*
X-2400000Y1950000D02*
D03*
X-2299999Y1850000D02*
D03*
X-2200000D02*
D03*
X-2700000Y1950000D02*
D03*
X-2299999D02*
D03*
X-2650000Y2000000D02*
D03*
X-2550000D02*
D03*
X-2350000Y1900000D02*
D03*
X-2100000Y1850000D02*
D03*
X-2250000Y1900000D02*
D03*
X-2150000Y2000000D02*
D03*
X-2500000Y1950000D02*
D03*
X-2450000Y1900000D02*
D03*
X-2250000Y2000000D02*
D03*
X-2100000Y1950000D02*
D03*
X-2400000Y1850000D02*
D03*
X-2600000Y1950000D02*
D03*
Y1850000D02*
D03*
X-2150000Y1900000D02*
D03*
X-2500000Y1850000D02*
D03*
X-2450000Y2000000D02*
D03*
X-2700000Y1850000D02*
D03*
X-2550000Y1900000D02*
D03*
X-2750000Y2000000D02*
D03*
X-2200000Y1950000D02*
D03*
X-2650000Y1900000D02*
D03*
X-2350000Y2000000D02*
D03*
X-2850000D02*
D03*
X-2800000Y1850000D02*
D03*
X-2850000Y1900000D02*
D03*
X-2800000Y1950000D02*
D03*
X-2850000Y1800000D02*
D03*
X-2650000D02*
D03*
X-2550000D02*
D03*
X-2150000D02*
D03*
X-2450000D02*
D03*
X-2250000D02*
D03*
X-2350000D02*
D03*
X-2750000D02*
D03*
X-5324551Y424538D02*
D03*
Y624539D02*
D03*
Y824539D02*
D03*
Y1224539D02*
D03*
X-5224551D02*
D03*
X-5124551D02*
D03*
X-5024551D02*
D03*
X-4924551D02*
D03*
X-4824551D02*
D03*
X-4724551D02*
D03*
X-4624551D02*
D03*
X-4524551D02*
D03*
X-4424551D02*
D03*
X-4274551Y1124539D02*
D03*
X-4324551Y1224539D02*
D03*
X-4224551Y224538D02*
D03*
X-4174551Y324538D02*
D03*
X-4224551Y424538D02*
D03*
X-4174551Y524538D02*
D03*
X-4224551Y624539D02*
D03*
X-4174551Y724539D02*
D03*
X-4224551Y824539D02*
D03*
X-4174551Y924539D02*
D03*
X-4224551Y1024539D02*
D03*
X-4174551Y1124539D02*
D03*
X-4224551Y1224539D02*
D03*
X-4124551Y224538D02*
D03*
X-4074551Y324538D02*
D03*
X-4124551Y424538D02*
D03*
X-4074551Y524538D02*
D03*
X-4124551Y624539D02*
D03*
X-4074551Y724539D02*
D03*
X-4124551Y824539D02*
D03*
X-4074551Y924539D02*
D03*
X-4124551Y1024539D02*
D03*
X-4074551Y1124539D02*
D03*
X-4124551Y1224539D02*
D03*
X-4024551Y224538D02*
D03*
X-3974551Y324538D02*
D03*
X-4024551Y424538D02*
D03*
X-3974551Y524538D02*
D03*
X-4024551Y624539D02*
D03*
X-3974551Y724539D02*
D03*
X-4024551Y824539D02*
D03*
X-3974551Y924539D02*
D03*
X-4024551Y1024539D02*
D03*
X-3974551Y1124539D02*
D03*
X-4024551Y1224539D02*
D03*
X-3924551Y224538D02*
D03*
X-3874551Y324538D02*
D03*
X-3924551Y424538D02*
D03*
X-3874551Y524538D02*
D03*
X-3924551Y624539D02*
D03*
X-3874551Y724539D02*
D03*
X-3924551Y824539D02*
D03*
X-3874551Y924539D02*
D03*
X-3924551Y1024539D02*
D03*
X-3874551Y1124539D02*
D03*
X-3924551Y1224539D02*
D03*
X-3824551Y224538D02*
D03*
X-3774551Y324538D02*
D03*
X-3824551Y424538D02*
D03*
X-3774551Y524538D02*
D03*
X-3824551Y624539D02*
D03*
X-3774551Y724539D02*
D03*
X-3824551Y824539D02*
D03*
X-3774551Y924539D02*
D03*
X-3824551Y1024539D02*
D03*
X-3774551Y1124539D02*
D03*
X-3824551Y1224539D02*
D03*
X-3724551Y224538D02*
D03*
X-3674551Y324538D02*
D03*
X-3724551Y424538D02*
D03*
X-3674551Y524538D02*
D03*
X-3724551Y624539D02*
D03*
X-3674551Y724539D02*
D03*
X-3724551Y824539D02*
D03*
X-3674551Y924539D02*
D03*
X-3724551Y1024539D02*
D03*
X-3674551Y1124539D02*
D03*
X-3724551Y1224539D02*
D03*
X-3624551Y224538D02*
D03*
X-3574551Y324538D02*
D03*
X-3624551Y424538D02*
D03*
X-3574551Y524538D02*
D03*
X-3624551Y624539D02*
D03*
X-3574551Y724539D02*
D03*
X-3624551Y824539D02*
D03*
X-3574551Y924539D02*
D03*
X-3624551Y1024539D02*
D03*
X-3574551Y1124539D02*
D03*
X-3624551Y1224539D02*
D03*
X-3524550Y224538D02*
D03*
X-3474551Y324538D02*
D03*
X-3524550Y424538D02*
D03*
X-3474551Y524538D02*
D03*
X-3524550Y624539D02*
D03*
X-3474551Y724539D02*
D03*
X-3524550Y824539D02*
D03*
X-3474551Y924539D02*
D03*
X-3524550Y1024539D02*
D03*
X-3474551Y1124539D02*
D03*
X-3524550Y1224539D02*
D03*
X-3474551Y1724539D02*
D03*
Y1924539D02*
D03*
Y2124539D02*
D03*
Y2324539D02*
D03*
Y2524540D02*
D03*
Y2724540D02*
D03*
Y2924540D02*
D03*
X-3424550Y224538D02*
D03*
X-3374551Y324538D02*
D03*
X-3424550Y424538D02*
D03*
X-3374551Y524538D02*
D03*
X-3424550Y624539D02*
D03*
X-3374551Y724539D02*
D03*
X-3424550Y824539D02*
D03*
X-3374551Y924539D02*
D03*
X-3424550Y1024539D02*
D03*
X-3374551Y1124539D02*
D03*
X-3424550Y1224539D02*
D03*
X-3374551Y2124539D02*
D03*
X-3424550Y2224539D02*
D03*
X-3374551Y2324539D02*
D03*
X-3424550Y2424539D02*
D03*
X-3374551Y2524540D02*
D03*
X-3424550Y2624540D02*
D03*
X-3374551Y2724540D02*
D03*
X-3424550Y2824540D02*
D03*
X-3324550Y224538D02*
D03*
X-3274550Y324538D02*
D03*
X-3324550Y424538D02*
D03*
X-3274550Y524538D02*
D03*
X-3324550Y624539D02*
D03*
X-3274550Y724539D02*
D03*
X-3324550Y824539D02*
D03*
X-3274550Y924539D02*
D03*
X-3324550Y1024539D02*
D03*
X-3274550Y1124539D02*
D03*
X-3324550Y1224539D02*
D03*
Y2224539D02*
D03*
X-3274550Y2324539D02*
D03*
X-3324550Y2424539D02*
D03*
X-3274550Y2524540D02*
D03*
X-3324550Y2624540D02*
D03*
X-3274550Y2724540D02*
D03*
X-3324550Y2824540D02*
D03*
X-3224550Y224538D02*
D03*
X-3174550Y324538D02*
D03*
X-3224550Y424538D02*
D03*
X-3174550Y524538D02*
D03*
X-3224550Y624539D02*
D03*
X-3174550Y724539D02*
D03*
X-3224550Y824539D02*
D03*
X-3174550Y924539D02*
D03*
X-3224550Y1024539D02*
D03*
X-3174550Y1124539D02*
D03*
X-3224550Y1224539D02*
D03*
Y2224539D02*
D03*
X-3174550Y2324539D02*
D03*
X-3224550Y2824540D02*
D03*
X-3124550Y224538D02*
D03*
X-3074550Y324538D02*
D03*
X-3124550Y424538D02*
D03*
X-3074550Y524538D02*
D03*
X-3124550Y624539D02*
D03*
X-3074550Y724539D02*
D03*
X-3124550Y824539D02*
D03*
X-3074550Y924539D02*
D03*
X-3124550Y1024539D02*
D03*
X-3074550Y1124539D02*
D03*
X-3124550Y1224539D02*
D03*
Y2224539D02*
D03*
X-3074550Y2324539D02*
D03*
X-3124550Y2824540D02*
D03*
X-3024550Y224538D02*
D03*
X-2974550Y324538D02*
D03*
X-3024550Y424538D02*
D03*
X-2974550Y524538D02*
D03*
X-3024550Y624539D02*
D03*
X-2974550Y724539D02*
D03*
X-3024550Y824539D02*
D03*
X-2974550Y924539D02*
D03*
X-3024550Y1024539D02*
D03*
X-2974550Y1124539D02*
D03*
X-3024550Y1224539D02*
D03*
Y2224539D02*
D03*
X-2974550Y2324539D02*
D03*
X-3024550Y2824540D02*
D03*
X-2924550Y224538D02*
D03*
X-2874550Y324538D02*
D03*
X-2924550Y424538D02*
D03*
X-2874550Y524538D02*
D03*
X-2924550Y624539D02*
D03*
X-2874550Y724539D02*
D03*
X-2924550Y824539D02*
D03*
X-2874550Y924539D02*
D03*
X-2924550Y1024539D02*
D03*
X-2874550Y1124539D02*
D03*
X-2924550Y1224539D02*
D03*
X-2874550Y2124539D02*
D03*
X-2924550Y2224539D02*
D03*
X-2874550Y2324539D02*
D03*
X-2924550Y2824540D02*
D03*
X-2824550Y224538D02*
D03*
X-2774550Y324538D02*
D03*
X-2824550Y424538D02*
D03*
X-2774550Y524538D02*
D03*
X-2824550Y624539D02*
D03*
X-2774550Y724539D02*
D03*
X-2824550Y824539D02*
D03*
X-2774550Y924539D02*
D03*
X-2824550Y1024539D02*
D03*
X-2774550Y1124539D02*
D03*
X-2824550Y1224539D02*
D03*
X-2774550Y2124539D02*
D03*
X-2824550Y2224539D02*
D03*
X-2774550Y2324539D02*
D03*
X-2824550Y2824540D02*
D03*
X-2724550Y224538D02*
D03*
X-2674550Y324538D02*
D03*
X-2724550Y424538D02*
D03*
X-2674550Y524538D02*
D03*
X-2724550Y624539D02*
D03*
X-2674550Y724539D02*
D03*
X-2724550Y824539D02*
D03*
X-2674550Y924539D02*
D03*
X-2724550Y1024539D02*
D03*
X-2674550Y1124539D02*
D03*
X-2724550Y1224539D02*
D03*
X-2674550Y2124539D02*
D03*
X-2724550Y2224539D02*
D03*
X-2674550Y2324539D02*
D03*
X-2724550Y2824540D02*
D03*
X-2624550Y224538D02*
D03*
X-2574550Y324538D02*
D03*
X-2624550Y424538D02*
D03*
X-2574550Y524538D02*
D03*
X-2624550Y624539D02*
D03*
X-2574550Y724539D02*
D03*
X-2624550Y824539D02*
D03*
X-2574550Y924539D02*
D03*
X-2624550Y1024539D02*
D03*
X-2574550Y1124539D02*
D03*
X-2624550Y1224539D02*
D03*
X-2574550Y2124539D02*
D03*
X-2624550Y2224539D02*
D03*
X-2574550Y2324539D02*
D03*
X-2624550Y2824540D02*
D03*
X-2524550Y224538D02*
D03*
X-2474550Y324538D02*
D03*
X-2524550Y424538D02*
D03*
X-2474550Y524538D02*
D03*
X-2524550Y624539D02*
D03*
X-2474550Y724539D02*
D03*
X-2524550Y824539D02*
D03*
X-2474550Y924539D02*
D03*
X-2524550Y1024539D02*
D03*
X-2474550Y1124539D02*
D03*
X-2524550Y1224539D02*
D03*
X-2474550Y2124539D02*
D03*
X-2524550Y2224539D02*
D03*
X-2474550Y2324539D02*
D03*
X-2524550Y2824540D02*
D03*
X-2424550Y224538D02*
D03*
X-2374550Y324538D02*
D03*
X-2424550Y424538D02*
D03*
X-2374550Y524538D02*
D03*
X-2424550Y624539D02*
D03*
X-2374550Y724539D02*
D03*
X-2424550Y824539D02*
D03*
X-2374550Y924539D02*
D03*
X-2424550Y1024539D02*
D03*
X-2374550Y1124539D02*
D03*
X-2424550Y1224539D02*
D03*
X-2374550Y2124539D02*
D03*
X-2424550Y2224539D02*
D03*
X-2374550Y2324539D02*
D03*
X-2424550Y2824540D02*
D03*
X-2324550Y224538D02*
D03*
X-2274550Y324538D02*
D03*
X-2324550Y424538D02*
D03*
X-2274550Y524538D02*
D03*
X-2324550Y624539D02*
D03*
X-2274550Y724539D02*
D03*
X-2324550Y824539D02*
D03*
X-2274550Y924539D02*
D03*
X-2324550Y1024539D02*
D03*
X-2274550Y1124539D02*
D03*
X-2324550Y1224539D02*
D03*
X-2274550Y2124539D02*
D03*
X-2324550Y2224539D02*
D03*
X-2274550Y2324539D02*
D03*
X-2324550Y2824540D02*
D03*
X-2224550Y224538D02*
D03*
X-2174550Y324538D02*
D03*
X-2224550Y424538D02*
D03*
X-2174550Y524538D02*
D03*
X-2224550Y624539D02*
D03*
X-2174550Y724539D02*
D03*
X-2224550Y824539D02*
D03*
X-2174550Y924539D02*
D03*
X-2224550Y1024539D02*
D03*
X-2174550Y1124539D02*
D03*
X-2224550Y1224539D02*
D03*
X-2174550Y2124539D02*
D03*
X-2224550Y2224539D02*
D03*
X-2174550Y2324539D02*
D03*
X-2224550Y2424539D02*
D03*
X-2174550Y2524540D02*
D03*
X-2224550Y2624540D02*
D03*
X-2174550Y2724540D02*
D03*
X-2224550Y2824540D02*
D03*
X-2124550Y224538D02*
D03*
X-2074550Y324538D02*
D03*
X-2124550Y424538D02*
D03*
X-2074550Y524538D02*
D03*
X-2124550Y624539D02*
D03*
X-2074550Y724539D02*
D03*
X-2124550Y824539D02*
D03*
X-2074550Y924539D02*
D03*
X-2124550Y1024539D02*
D03*
X-2074550Y1124539D02*
D03*
X-2124550Y1224539D02*
D03*
X-2074550Y2124539D02*
D03*
X-2124550Y2224539D02*
D03*
X-2074550Y2324539D02*
D03*
X-2124550Y2424539D02*
D03*
X-2074550Y2524540D02*
D03*
X-2124550Y2624540D02*
D03*
X-2074550Y2724540D02*
D03*
X-2124550Y2824540D02*
D03*
X-2074550Y2924540D02*
D03*
X-2024550Y224538D02*
D03*
X-1974550Y324538D02*
D03*
X-2024550Y424538D02*
D03*
X-1974550Y524538D02*
D03*
X-2024550Y624539D02*
D03*
X-1974550Y724539D02*
D03*
X-2024550Y824539D02*
D03*
X-1974550Y924539D02*
D03*
X-2024550Y1024539D02*
D03*
X-1974550Y1124539D02*
D03*
X-2024550Y1224539D02*
D03*
X-1974550Y1324539D02*
D03*
X-1924550Y224538D02*
D03*
X-1874550Y324538D02*
D03*
X-1924550Y424538D02*
D03*
X-1874550Y524538D02*
D03*
X-1924550Y624539D02*
D03*
X-1874550Y724539D02*
D03*
X-1924550Y824539D02*
D03*
X-1874550Y924539D02*
D03*
X-1924550Y1024539D02*
D03*
X-1874550Y1124539D02*
D03*
X-1924550Y1224539D02*
D03*
X-1824550Y224538D02*
D03*
X-1774550Y324538D02*
D03*
X-1824550Y424538D02*
D03*
X-1774550Y524538D02*
D03*
X-1824550Y624539D02*
D03*
X-1774550Y724539D02*
D03*
X-1824550Y824539D02*
D03*
X-1774550Y924539D02*
D03*
X-1824550Y1024539D02*
D03*
X-1774550Y1124539D02*
D03*
X-1824550Y1224539D02*
D03*
X-1724550Y224538D02*
D03*
X-1674550Y324538D02*
D03*
X-1724550Y424538D02*
D03*
X-1674550Y524538D02*
D03*
X-1724550Y624539D02*
D03*
X-1674550Y724539D02*
D03*
X-1724550Y824539D02*
D03*
X-1674550Y924539D02*
D03*
X-1724550Y1024539D02*
D03*
X-1674550Y1124539D02*
D03*
X-1724550Y1224539D02*
D03*
X-1624549Y224538D02*
D03*
X-1574550Y324538D02*
D03*
X-1624549Y424538D02*
D03*
X-1574550Y524538D02*
D03*
X-1624549Y624539D02*
D03*
X-1574550Y724539D02*
D03*
X-1624549Y824539D02*
D03*
X-1574550Y924539D02*
D03*
X-1624549Y1024539D02*
D03*
X-1574550Y1124539D02*
D03*
X-1624549Y1224539D02*
D03*
X-1524549Y224538D02*
D03*
X-1474550Y324538D02*
D03*
X-1524549Y424538D02*
D03*
X-1474550Y524538D02*
D03*
X-1524549Y624539D02*
D03*
X-1474550Y724539D02*
D03*
X-1524549Y824539D02*
D03*
X-1474550Y924539D02*
D03*
X-1524549Y1024539D02*
D03*
X-1474550Y1124539D02*
D03*
X-1524549Y1224539D02*
D03*
X-1424549Y224538D02*
D03*
X-1374549Y324538D02*
D03*
X-1424549Y424538D02*
D03*
X-1374549Y524538D02*
D03*
X-1424549Y624539D02*
D03*
X-1374549Y724539D02*
D03*
X-1424549Y824539D02*
D03*
X-1374549Y924539D02*
D03*
X-1424549Y1024539D02*
D03*
X-1374549Y1124539D02*
D03*
X-1424549Y1224539D02*
D03*
X-1324549Y224538D02*
D03*
X-1274549Y324538D02*
D03*
X-1324549Y424538D02*
D03*
X-1274549Y524538D02*
D03*
X-1324549Y624539D02*
D03*
X-1274549Y724539D02*
D03*
X-1324549Y824539D02*
D03*
X-1274549Y924539D02*
D03*
X-1324549Y1024539D02*
D03*
X-1274549Y1124539D02*
D03*
X-1324549Y1224539D02*
D03*
X-1224549Y224538D02*
D03*
X-1174549Y324538D02*
D03*
X-1224549Y424538D02*
D03*
X-1174549Y524538D02*
D03*
X-1224549Y624539D02*
D03*
X-1174549Y724539D02*
D03*
X-1224549Y824539D02*
D03*
X-1174549Y924539D02*
D03*
X-1224549Y1024539D02*
D03*
X-1174549Y1124539D02*
D03*
X-1224549Y1224539D02*
D03*
X-1124549Y224538D02*
D03*
X-1074549Y324538D02*
D03*
X-1124549Y424538D02*
D03*
X-1074549Y524538D02*
D03*
X-1124549Y624539D02*
D03*
X-1074549Y724539D02*
D03*
X-1124549Y824539D02*
D03*
X-1074549Y924539D02*
D03*
X-1124549Y1024539D02*
D03*
X-1074549Y1124539D02*
D03*
X-1124549Y1224539D02*
D03*
X-1024549Y224538D02*
D03*
X-974549Y324538D02*
D03*
X-1024549Y424538D02*
D03*
X-974549Y524538D02*
D03*
X-1024549Y624539D02*
D03*
X-974549Y724539D02*
D03*
X-1024549Y824539D02*
D03*
X-974549Y924539D02*
D03*
X-1024549Y1024539D02*
D03*
X-974549Y1124539D02*
D03*
X-1024549Y1224539D02*
D03*
X-924549Y224538D02*
D03*
X-874549Y324538D02*
D03*
X-924549Y424538D02*
D03*
X-874549Y524538D02*
D03*
X-924549Y624539D02*
D03*
X-874549Y724539D02*
D03*
X-924549Y824539D02*
D03*
X-874549Y924539D02*
D03*
X-924549Y1024539D02*
D03*
X-874549Y1124539D02*
D03*
X-924549Y1224539D02*
D03*
X-824549Y224538D02*
D03*
X-774549Y324538D02*
D03*
X-824549Y424538D02*
D03*
X-774549Y524538D02*
D03*
X-824549Y624539D02*
D03*
X-774549Y724539D02*
D03*
X-824549Y824539D02*
D03*
X-774549Y924539D02*
D03*
X-824549Y1024539D02*
D03*
X-774549Y1124539D02*
D03*
X-824549Y1224539D02*
D03*
X-724549Y224538D02*
D03*
X-674549Y324538D02*
D03*
X-724549Y424538D02*
D03*
X-674549Y524538D02*
D03*
X-724549Y624539D02*
D03*
X-674549Y724539D02*
D03*
X-724549Y824539D02*
D03*
X-674549Y924539D02*
D03*
X-724549Y1024539D02*
D03*
X-674549Y1124539D02*
D03*
X-724549Y1224539D02*
D03*
X-624549Y224538D02*
D03*
X-574549Y324538D02*
D03*
X-624549Y424538D02*
D03*
X-574549Y524538D02*
D03*
X-624549Y624539D02*
D03*
X-574549Y724539D02*
D03*
X-624549Y824539D02*
D03*
X-574549Y924539D02*
D03*
X-624549Y1024539D02*
D03*
X-574549Y1124539D02*
D03*
X-624549Y1224539D02*
D03*
X-524549Y224538D02*
D03*
X-474549Y324538D02*
D03*
X-524549Y424538D02*
D03*
X-474549Y524538D02*
D03*
X-524549Y624539D02*
D03*
X-474549Y724539D02*
D03*
X-524549Y824539D02*
D03*
X-474549Y924539D02*
D03*
X-524549Y1024539D02*
D03*
X-474549Y1124539D02*
D03*
X-524549Y1224539D02*
D03*
X-424549Y224538D02*
D03*
X-374549Y324538D02*
D03*
X-424549Y424538D02*
D03*
X-374549Y524538D02*
D03*
X-424549Y624539D02*
D03*
X-374549Y724539D02*
D03*
X-424549Y824539D02*
D03*
X-374549Y924539D02*
D03*
X-424549Y1024539D02*
D03*
X-374549Y1124539D02*
D03*
X-424549Y1224539D02*
D03*
X-324549Y224538D02*
D03*
X-274549Y324538D02*
D03*
X-324549Y424538D02*
D03*
X-274549Y524538D02*
D03*
X-324549Y624539D02*
D03*
X-274549Y724539D02*
D03*
X-324549Y824539D02*
D03*
X-274549Y924539D02*
D03*
X-324549Y1024539D02*
D03*
X-274549Y1124539D02*
D03*
X-324549Y1224539D02*
D03*
X-224549Y224538D02*
D03*
X-174549Y324538D02*
D03*
X-224549Y424538D02*
D03*
X-174549Y524538D02*
D03*
X-224549Y624539D02*
D03*
X-174549Y724539D02*
D03*
X-224549Y824539D02*
D03*
X-174549Y924539D02*
D03*
X-224549Y1024539D02*
D03*
X-174549Y1124539D02*
D03*
X-224549Y1224539D02*
D03*
X-124549Y224538D02*
D03*
X-74549Y324538D02*
D03*
X-124549Y424538D02*
D03*
X-74549Y524538D02*
D03*
X-124549Y624539D02*
D03*
X-74549Y724539D02*
D03*
X-124549Y824539D02*
D03*
X-74549Y924539D02*
D03*
X-124549Y1024539D02*
D03*
X-74549Y1124539D02*
D03*
X-124549Y1224539D02*
D03*
X-74549Y1724539D02*
D03*
Y1924539D02*
D03*
Y2124539D02*
D03*
Y2324539D02*
D03*
Y2524540D02*
D03*
Y2724540D02*
D03*
Y2924540D02*
D03*
X-24549Y224538D02*
D03*
X25451Y324538D02*
D03*
X-24549Y424538D02*
D03*
X25451Y524538D02*
D03*
X-24549Y624539D02*
D03*
X25451Y724539D02*
D03*
X-24549Y824539D02*
D03*
X25451Y924539D02*
D03*
X-24549Y1024539D02*
D03*
X25451Y1124539D02*
D03*
X-24549Y1224539D02*
D03*
X25451Y2124539D02*
D03*
X-24549Y2224539D02*
D03*
X25451Y2324539D02*
D03*
X-24549Y2424539D02*
D03*
X25451Y2524540D02*
D03*
X-24549Y2624540D02*
D03*
X25451Y2724540D02*
D03*
X-24549Y2824540D02*
D03*
X75451Y224538D02*
D03*
X125451Y324538D02*
D03*
X75451Y424538D02*
D03*
X125451Y524538D02*
D03*
X75451Y624539D02*
D03*
X125451Y724539D02*
D03*
X75451Y824539D02*
D03*
X125451Y924539D02*
D03*
X75451Y1024539D02*
D03*
X125451Y1124539D02*
D03*
X75451Y1224539D02*
D03*
Y2224539D02*
D03*
X125451Y2324539D02*
D03*
X75451Y2424539D02*
D03*
X125451Y2524540D02*
D03*
X75451Y2624540D02*
D03*
X125451Y2724540D02*
D03*
X75451Y2824540D02*
D03*
X175452Y224538D02*
D03*
X225451Y324538D02*
D03*
X175452Y424538D02*
D03*
X225451Y524538D02*
D03*
X175452Y624539D02*
D03*
X225451Y724539D02*
D03*
X175452Y824539D02*
D03*
X225451Y924539D02*
D03*
X175452Y1024539D02*
D03*
X225451Y1124539D02*
D03*
X175452Y1224539D02*
D03*
Y2224539D02*
D03*
X225451Y2324539D02*
D03*
X175452Y2824540D02*
D03*
X275452Y224538D02*
D03*
X325451Y324538D02*
D03*
X275452Y424538D02*
D03*
X325451Y524538D02*
D03*
X275452Y624539D02*
D03*
X325451Y724539D02*
D03*
X275452Y824539D02*
D03*
X325451Y924539D02*
D03*
X275452Y1024539D02*
D03*
X325451Y1124539D02*
D03*
X275452Y1224539D02*
D03*
Y2224539D02*
D03*
X325451Y2324539D02*
D03*
X275452Y2824540D02*
D03*
X375452Y224538D02*
D03*
X425452Y324538D02*
D03*
X375452Y424538D02*
D03*
X425452Y524538D02*
D03*
X375452Y624539D02*
D03*
X425452Y724539D02*
D03*
X375452Y824539D02*
D03*
X425452Y924539D02*
D03*
X375452Y1024539D02*
D03*
X425452Y1124539D02*
D03*
X375452Y1224539D02*
D03*
Y2224539D02*
D03*
X425452Y2324539D02*
D03*
X375452Y2824540D02*
D03*
X475452Y224538D02*
D03*
X525452Y324538D02*
D03*
X475452Y424538D02*
D03*
X525452Y524538D02*
D03*
X475452Y624539D02*
D03*
X525452Y724539D02*
D03*
X475452Y824539D02*
D03*
X525452Y924539D02*
D03*
X475452Y1024539D02*
D03*
X525452Y1124539D02*
D03*
X475452Y1224539D02*
D03*
X525452Y2124539D02*
D03*
X475452Y2224539D02*
D03*
X525452Y2324539D02*
D03*
X475452Y2824540D02*
D03*
X575452Y224538D02*
D03*
X625452Y324538D02*
D03*
X575452Y424538D02*
D03*
X625452Y524538D02*
D03*
X575452Y624539D02*
D03*
X625452Y724539D02*
D03*
X575452Y824539D02*
D03*
X625452Y924539D02*
D03*
X575452Y1024539D02*
D03*
X625452Y1124539D02*
D03*
X575452Y1224539D02*
D03*
X625452Y2124539D02*
D03*
X575452Y2224539D02*
D03*
X625452Y2324539D02*
D03*
X575452Y2824540D02*
D03*
X675452Y224538D02*
D03*
X725452Y324538D02*
D03*
X675452Y424538D02*
D03*
X725452Y524538D02*
D03*
X675452Y624539D02*
D03*
X725452Y724539D02*
D03*
X675452Y824539D02*
D03*
X725452Y924539D02*
D03*
X675452Y1024539D02*
D03*
X725452Y1124539D02*
D03*
X675452Y1224539D02*
D03*
X725452Y2124539D02*
D03*
X675452Y2224539D02*
D03*
X725452Y2324539D02*
D03*
X675452Y2824540D02*
D03*
X775452Y224538D02*
D03*
X825452Y324538D02*
D03*
X775452Y424538D02*
D03*
X825452Y524538D02*
D03*
X775452Y624539D02*
D03*
X825452Y724539D02*
D03*
X775452Y824539D02*
D03*
X825452Y924539D02*
D03*
X775452Y1024539D02*
D03*
X825452Y1124539D02*
D03*
X775452Y1224539D02*
D03*
X825452Y2124539D02*
D03*
X775452Y2224539D02*
D03*
X825452Y2324539D02*
D03*
X775452Y2824540D02*
D03*
X875452Y224538D02*
D03*
X925452Y324538D02*
D03*
X875452Y424538D02*
D03*
X925452Y524538D02*
D03*
X875452Y624539D02*
D03*
X925452Y724539D02*
D03*
X875452Y824539D02*
D03*
X925452Y924539D02*
D03*
X875452Y1024539D02*
D03*
X925452Y1124539D02*
D03*
X875452Y1224539D02*
D03*
X925452Y2124539D02*
D03*
X875452Y2224539D02*
D03*
X925452Y2324539D02*
D03*
X875452Y2824540D02*
D03*
X975452Y224538D02*
D03*
X1025452Y324538D02*
D03*
X975452Y424538D02*
D03*
X1025452Y524538D02*
D03*
X975452Y624539D02*
D03*
X1025452Y724539D02*
D03*
X975452Y824539D02*
D03*
X1025452Y924539D02*
D03*
X975452Y1024539D02*
D03*
X1025452Y1124539D02*
D03*
X975452Y1224539D02*
D03*
X1025452Y2124539D02*
D03*
X975452Y2224539D02*
D03*
X1025452Y2324539D02*
D03*
X975452Y2824540D02*
D03*
X1075452Y224538D02*
D03*
X1125452Y324538D02*
D03*
X1075452Y424538D02*
D03*
X1125452Y524538D02*
D03*
X1075452Y624539D02*
D03*
X1125452Y724539D02*
D03*
X1075452Y824539D02*
D03*
X1125452Y924539D02*
D03*
X1075452Y1024539D02*
D03*
X1125452Y1124539D02*
D03*
X1075452Y1224539D02*
D03*
X1125452Y2124539D02*
D03*
X1075452Y2224539D02*
D03*
X1125452Y2324539D02*
D03*
X1075452Y2824540D02*
D03*
X1175452Y224538D02*
D03*
X1225452Y324538D02*
D03*
X1175452Y424538D02*
D03*
X1225452Y524538D02*
D03*
X1175452Y624539D02*
D03*
X1225452Y724539D02*
D03*
X1175452Y824539D02*
D03*
X1225452Y924539D02*
D03*
X1175452Y1024539D02*
D03*
X1225452Y1124539D02*
D03*
X1175452Y1224539D02*
D03*
X1225452Y2124539D02*
D03*
X1175452Y2224539D02*
D03*
X1225452Y2324539D02*
D03*
X1175452Y2424539D02*
D03*
X1225452Y2524540D02*
D03*
X1175452Y2624540D02*
D03*
X1225452Y2724540D02*
D03*
X1175452Y2824540D02*
D03*
X1275452Y224538D02*
D03*
X1325452Y324538D02*
D03*
X1275452Y424538D02*
D03*
X1325452Y524538D02*
D03*
X1275452Y624539D02*
D03*
X1325452Y724539D02*
D03*
X1275452Y824539D02*
D03*
X1325452Y924539D02*
D03*
X1275452Y1024539D02*
D03*
X1325452Y1124539D02*
D03*
X1275452Y1224539D02*
D03*
X1325452Y2124539D02*
D03*
X1275452Y2224539D02*
D03*
X1325452Y2324539D02*
D03*
X1275452Y2424539D02*
D03*
X1325452Y2524540D02*
D03*
X1275452Y2624540D02*
D03*
X1325452Y2724540D02*
D03*
X1275452Y2824540D02*
D03*
X1325452Y2924540D02*
D03*
X1375452Y224538D02*
D03*
X1425452Y324538D02*
D03*
X1375452Y424538D02*
D03*
X1425452Y524538D02*
D03*
X1375452Y624539D02*
D03*
X1425452Y724539D02*
D03*
X1375452Y824539D02*
D03*
X1425452Y924539D02*
D03*
X1375452Y1024539D02*
D03*
X1425452Y1124539D02*
D03*
X1375452Y1224539D02*
D03*
X1425452Y1324539D02*
D03*
X1475452Y224538D02*
D03*
X1525452Y324538D02*
D03*
X1475452Y424538D02*
D03*
X1525452Y524538D02*
D03*
X1475452Y624539D02*
D03*
X1525452Y724539D02*
D03*
X1475452Y824539D02*
D03*
X1525452Y924539D02*
D03*
X1475452Y1024539D02*
D03*
X1525452Y1124539D02*
D03*
X1475452Y1224539D02*
D03*
X1575452Y224538D02*
D03*
X1625452Y324538D02*
D03*
X1575452Y424538D02*
D03*
X1625452Y524538D02*
D03*
X1575452Y624539D02*
D03*
X1625452Y724539D02*
D03*
X1575452Y824539D02*
D03*
X1625452Y924539D02*
D03*
X1575452Y1024539D02*
D03*
X1625452Y1124539D02*
D03*
X1575452Y1224539D02*
D03*
X1675452Y224538D02*
D03*
X1725452Y324538D02*
D03*
X1675452Y424538D02*
D03*
X1725452Y524538D02*
D03*
X1675452Y624539D02*
D03*
X1725452Y724539D02*
D03*
X1675452Y824539D02*
D03*
X1725452Y924539D02*
D03*
X1675452Y1024539D02*
D03*
X1725452Y1124539D02*
D03*
X1675452Y1224539D02*
D03*
X1775452Y224538D02*
D03*
X1825452Y324538D02*
D03*
X1775452Y424538D02*
D03*
X1825452Y524538D02*
D03*
X1775452Y624539D02*
D03*
X1825452Y724539D02*
D03*
X1775452Y824539D02*
D03*
X1825452Y924539D02*
D03*
X1775452Y1024539D02*
D03*
X1825452Y1124539D02*
D03*
X1775452Y1224539D02*
D03*
X1875452Y224538D02*
D03*
X1925452Y324538D02*
D03*
X1875452Y424538D02*
D03*
X1925452Y524538D02*
D03*
X1875452Y624539D02*
D03*
X1925452Y724539D02*
D03*
X1875452Y824539D02*
D03*
X1925452Y924539D02*
D03*
X1875452Y1024539D02*
D03*
X1925452Y1124539D02*
D03*
X1875452Y1224539D02*
D03*
X1975452Y224538D02*
D03*
X2025452Y324538D02*
D03*
X1975452Y424538D02*
D03*
X2025452Y524538D02*
D03*
X1975452Y624539D02*
D03*
X2025452Y724539D02*
D03*
X1975452Y824539D02*
D03*
X2025452Y924539D02*
D03*
X1975452Y1024539D02*
D03*
X2025452Y1124539D02*
D03*
X1975452Y1224539D02*
D03*
X2075453Y224538D02*
D03*
X2125452Y324538D02*
D03*
X2075453Y424538D02*
D03*
X2125452Y524538D02*
D03*
X2075453Y624539D02*
D03*
X2125452Y724539D02*
D03*
X2075453Y824539D02*
D03*
X2125452Y924539D02*
D03*
X2075453Y1024539D02*
D03*
X2125452Y1124539D02*
D03*
X2075453Y1224539D02*
D03*
X2175453Y224538D02*
D03*
X2225452Y324538D02*
D03*
X2175453Y424538D02*
D03*
X2225452Y524538D02*
D03*
X2175453Y624539D02*
D03*
X2225452Y724539D02*
D03*
X2175453Y824539D02*
D03*
X2225452Y924539D02*
D03*
X2175453Y1024539D02*
D03*
X2225452Y1124539D02*
D03*
X2175453Y1224539D02*
D03*
X2275453Y224538D02*
D03*
X2325453Y324538D02*
D03*
X2275453Y424538D02*
D03*
X2325453Y524538D02*
D03*
X2275453Y624539D02*
D03*
X2325453Y724539D02*
D03*
X2275453Y824539D02*
D03*
X2325453Y924539D02*
D03*
X2275453Y1024539D02*
D03*
X2325453Y1124539D02*
D03*
X2275453Y1224539D02*
D03*
X2375453Y224538D02*
D03*
X2425453Y324538D02*
D03*
X2375453Y424538D02*
D03*
X2425453Y524538D02*
D03*
X2375453Y624539D02*
D03*
X2425453Y724539D02*
D03*
X2375453Y824539D02*
D03*
X2425453Y924539D02*
D03*
X2375453Y1024539D02*
D03*
X2425453Y1124539D02*
D03*
X2375453Y1224539D02*
D03*
X2475453Y224538D02*
D03*
X2525453Y324538D02*
D03*
X2475453Y424538D02*
D03*
X2525453Y524538D02*
D03*
X2475453Y624539D02*
D03*
X2525453Y724539D02*
D03*
X2475453Y824539D02*
D03*
X2525453Y924539D02*
D03*
X2475453Y1024539D02*
D03*
X2525453Y1124539D02*
D03*
X2475453Y1224539D02*
D03*
X2575453Y224538D02*
D03*
X2625453Y324538D02*
D03*
X2575453Y424538D02*
D03*
X2625453Y524538D02*
D03*
X2575453Y624539D02*
D03*
X2625453Y724539D02*
D03*
X2575453Y824539D02*
D03*
X2625453Y924539D02*
D03*
X2575453Y1024539D02*
D03*
X2625453Y1124539D02*
D03*
X2575453Y1224539D02*
D03*
X2675453Y224538D02*
D03*
X2725453Y324538D02*
D03*
X2675453Y424538D02*
D03*
X2725453Y524538D02*
D03*
X2675453Y624539D02*
D03*
X2725453Y724539D02*
D03*
X2675453Y824539D02*
D03*
X2725453Y924539D02*
D03*
X2675453Y1024539D02*
D03*
X2725453Y1124539D02*
D03*
X2675453Y1224539D02*
D03*
X2775453Y224538D02*
D03*
X2825453Y324538D02*
D03*
X2775453Y424538D02*
D03*
X2825453Y524538D02*
D03*
X2775453Y624539D02*
D03*
X2825453Y724539D02*
D03*
X2775453Y824539D02*
D03*
X2825453Y924539D02*
D03*
X2775453Y1024539D02*
D03*
X2825453Y1124539D02*
D03*
X2775453Y1224539D02*
D03*
X2875453Y224538D02*
D03*
X2925453Y324538D02*
D03*
X2875453Y424538D02*
D03*
X2925453Y524538D02*
D03*
X2875453Y624539D02*
D03*
X2925453Y724539D02*
D03*
X2875453Y824539D02*
D03*
X2925453Y924539D02*
D03*
X2875453Y1024539D02*
D03*
X2925453Y1124539D02*
D03*
X2875453Y1224539D02*
D03*
X2975453Y224538D02*
D03*
X3025453Y324538D02*
D03*
X2975453Y424538D02*
D03*
X3025453Y524538D02*
D03*
X2975453Y624539D02*
D03*
X3025453Y724539D02*
D03*
X2975453Y824539D02*
D03*
X3025453Y924539D02*
D03*
X2975453Y1024539D02*
D03*
X3025453Y1124539D02*
D03*
X2975453Y1224539D02*
D03*
X3075453Y224538D02*
D03*
X3125453Y324538D02*
D03*
X3075453Y424538D02*
D03*
X3125453Y524538D02*
D03*
X3075453Y624539D02*
D03*
X3125453Y724539D02*
D03*
X3075453Y824539D02*
D03*
X3125453Y924539D02*
D03*
X3075453Y1024539D02*
D03*
X3125453Y1124539D02*
D03*
X3075453Y1224539D02*
D03*
X3175453Y224538D02*
D03*
X3225453Y324538D02*
D03*
X3175453Y424538D02*
D03*
X3225453Y524538D02*
D03*
X3175453Y624539D02*
D03*
X3225453Y724539D02*
D03*
X3175453Y824539D02*
D03*
X3225453Y924539D02*
D03*
X3175453Y1024539D02*
D03*
X3225453Y1124539D02*
D03*
X3175453Y1224539D02*
D03*
X3275453Y224538D02*
D03*
X3325453Y324538D02*
D03*
X3275453Y424538D02*
D03*
X3325453Y524538D02*
D03*
X3275453Y624539D02*
D03*
X3325453Y724539D02*
D03*
X3275453Y824539D02*
D03*
X3325453Y924539D02*
D03*
X3275453Y1024539D02*
D03*
X3325453Y1124539D02*
D03*
X3275453Y1224539D02*
D03*
X3325453Y1724539D02*
D03*
Y1924539D02*
D03*
Y2124539D02*
D03*
Y2324539D02*
D03*
Y2524540D02*
D03*
Y2724540D02*
D03*
Y2924540D02*
D03*
X3375453Y224538D02*
D03*
X3425453Y324538D02*
D03*
X3375453Y424538D02*
D03*
X3425453Y524538D02*
D03*
X3375453Y624539D02*
D03*
X3425453Y724539D02*
D03*
X3375453Y824539D02*
D03*
X3425453Y924539D02*
D03*
X3375453Y1024539D02*
D03*
X3425453Y1124539D02*
D03*
X3375453Y1224539D02*
D03*
X3425453Y2124539D02*
D03*
X3375453Y2224539D02*
D03*
X3425453Y2324539D02*
D03*
X3375453Y2424539D02*
D03*
X3425453Y2524540D02*
D03*
X3375453Y2624540D02*
D03*
X3425453Y2724540D02*
D03*
X3375453Y2824540D02*
D03*
X3475453Y224538D02*
D03*
X3525453Y324538D02*
D03*
X3475453Y424538D02*
D03*
X3525453Y524538D02*
D03*
X3475453Y624539D02*
D03*
X3525453Y724539D02*
D03*
X3475453Y824539D02*
D03*
X3525453Y924539D02*
D03*
X3475453Y1024539D02*
D03*
X3525453Y1124539D02*
D03*
X3475453Y1224539D02*
D03*
Y2224539D02*
D03*
X3525453Y2324539D02*
D03*
X3475453Y2424539D02*
D03*
X3525453Y2524540D02*
D03*
X3475453Y2624540D02*
D03*
X3525453Y2724540D02*
D03*
X3475453Y2824540D02*
D03*
X3575453Y224538D02*
D03*
X3625453Y324538D02*
D03*
X3575453Y424538D02*
D03*
X3625453Y524538D02*
D03*
X3575453Y624539D02*
D03*
X3625453Y724539D02*
D03*
X3575453Y824539D02*
D03*
X3625453Y924539D02*
D03*
X3575453Y1024539D02*
D03*
X3625453Y1124539D02*
D03*
X3575453Y1224539D02*
D03*
Y2224539D02*
D03*
X3625453Y2324539D02*
D03*
X3575453Y2824540D02*
D03*
X3675453Y224538D02*
D03*
X3725453Y324538D02*
D03*
X3675453Y424538D02*
D03*
X3725453Y524538D02*
D03*
X3675453Y624539D02*
D03*
X3725453Y724539D02*
D03*
X3675453Y824539D02*
D03*
X3725453Y924539D02*
D03*
X3675453Y1024539D02*
D03*
X3725453Y1124539D02*
D03*
X3675453Y1224539D02*
D03*
Y2224539D02*
D03*
X3725453Y2324539D02*
D03*
X3675453Y2824540D02*
D03*
X3775453Y224538D02*
D03*
X3825453Y324538D02*
D03*
X3775453Y424538D02*
D03*
X3825453Y524538D02*
D03*
X3775453Y624539D02*
D03*
X3825453Y724539D02*
D03*
X3775453Y824539D02*
D03*
X3825453Y924539D02*
D03*
X3775453Y1024539D02*
D03*
X3825453Y1124539D02*
D03*
X3775453Y1224539D02*
D03*
Y2224539D02*
D03*
X3825453Y2324539D02*
D03*
X3775453Y2824540D02*
D03*
X3875454Y224538D02*
D03*
X3925453Y324538D02*
D03*
X3875454Y424538D02*
D03*
X3925453Y524538D02*
D03*
X3875454Y624539D02*
D03*
X3925453Y724539D02*
D03*
X3875454Y824539D02*
D03*
X3925453Y924539D02*
D03*
X3875454Y1024539D02*
D03*
X3925453Y1124539D02*
D03*
X3875454Y1224539D02*
D03*
X3925453Y2124539D02*
D03*
X3875454Y2224539D02*
D03*
X3925453Y2324539D02*
D03*
X3875454Y2824540D02*
D03*
X3975454Y224538D02*
D03*
X4025453Y324538D02*
D03*
X3975454Y424538D02*
D03*
X4025453Y524538D02*
D03*
X3975454Y624539D02*
D03*
X4025453Y724539D02*
D03*
X3975454Y824539D02*
D03*
X4025453Y924539D02*
D03*
X3975454Y1024539D02*
D03*
X4025453Y1124539D02*
D03*
X3975454Y1224539D02*
D03*
X4025453Y2124539D02*
D03*
X3975454Y2224539D02*
D03*
X4025453Y2324539D02*
D03*
X3975454Y2824540D02*
D03*
X4075454Y224538D02*
D03*
X4125454Y324538D02*
D03*
X4075454Y424538D02*
D03*
X4125454Y524538D02*
D03*
X4075454Y624539D02*
D03*
X4125454Y724539D02*
D03*
X4075454Y824539D02*
D03*
X4125454Y924539D02*
D03*
X4075454Y1024539D02*
D03*
X4125454Y1124539D02*
D03*
X4075454Y1224539D02*
D03*
X4125454Y2124539D02*
D03*
X4075454Y2224539D02*
D03*
X4125454Y2324539D02*
D03*
X4075454Y2824540D02*
D03*
X4175454Y224538D02*
D03*
X4225454Y324538D02*
D03*
X4175454Y424538D02*
D03*
X4225454Y524538D02*
D03*
X4175454Y624539D02*
D03*
X4225454Y724539D02*
D03*
X4175454Y824539D02*
D03*
X4225454Y924539D02*
D03*
X4175454Y1024539D02*
D03*
X4225454Y1124539D02*
D03*
X4175454Y1224539D02*
D03*
X4225454Y2124539D02*
D03*
X4175454Y2224539D02*
D03*
X4225454Y2324539D02*
D03*
X4175454Y2824540D02*
D03*
X4275454Y1224539D02*
D03*
X4325454Y2124539D02*
D03*
X4275454Y2224539D02*
D03*
X4325454Y2324539D02*
D03*
X4275454Y2824540D02*
D03*
X4375454Y1224539D02*
D03*
X4425454Y2124539D02*
D03*
X4375454Y2224539D02*
D03*
X4425454Y2324539D02*
D03*
X4375454Y2824540D02*
D03*
X4525454Y1124539D02*
D03*
X4475454Y1224539D02*
D03*
X4525454Y2124539D02*
D03*
X4475454Y2224539D02*
D03*
X4525454Y2324539D02*
D03*
X4475454Y2824540D02*
D03*
X4575454Y1224539D02*
D03*
Y2224539D02*
D03*
X4625454Y2324539D02*
D03*
X4575454Y2424539D02*
D03*
X4625454Y2524540D02*
D03*
X4575454Y2624540D02*
D03*
X4625454Y2724540D02*
D03*
X4575454Y2824540D02*
D03*
X4675454Y1224539D02*
D03*
Y1424539D02*
D03*
X4725454Y1524539D02*
D03*
Y2324539D02*
D03*
Y2524540D02*
D03*
Y2724540D02*
D03*
Y2924540D02*
D03*
X4775454Y1224539D02*
D03*
Y1424539D02*
D03*
X4875454Y1224539D02*
D03*
X4975454D02*
D03*
X5075454D02*
D03*
X5175454D02*
D03*
X5325454Y324538D02*
D03*
X5275454Y424538D02*
D03*
X5325454Y524538D02*
D03*
Y724539D02*
D03*
Y924539D02*
D03*
Y1124539D02*
D03*
X5275454Y1224539D02*
D03*
X5875455Y4624541D02*
D03*
X5925454Y4524541D02*
D03*
X5875455Y4424541D02*
D03*
X5925454Y4324540D02*
D03*
X5875455Y3624540D02*
D03*
X5925454Y3524540D02*
D03*
X5875455Y3424540D02*
D03*
X5925454Y3324540D02*
D03*
X5875455Y3224540D02*
D03*
X5925454Y3124540D02*
D03*
X5875455Y3024540D02*
D03*
X5925454Y2924540D02*
D03*
X5875455Y2824540D02*
D03*
X5925454Y2724540D02*
D03*
X5875455Y2624540D02*
D03*
X5925454Y2524540D02*
D03*
X5875455Y2424539D02*
D03*
X5925454Y2324539D02*
D03*
X5775455Y4624541D02*
D03*
X5825454Y4524541D02*
D03*
X5775455Y4424541D02*
D03*
Y3624540D02*
D03*
X5825454Y3524540D02*
D03*
X5775455Y3424540D02*
D03*
X5825454Y3324540D02*
D03*
X5775455Y3224540D02*
D03*
X5825454Y3124540D02*
D03*
X5775455Y3024540D02*
D03*
X5825454Y2924540D02*
D03*
X5775455Y2824540D02*
D03*
X5825454Y2724540D02*
D03*
X5775455Y2624540D02*
D03*
X5825454Y2524540D02*
D03*
X5775455Y2424539D02*
D03*
X5675454Y4624541D02*
D03*
X5725454Y4524541D02*
D03*
X5675454Y4424541D02*
D03*
Y3624540D02*
D03*
X5725454Y3524540D02*
D03*
X5675454Y3424540D02*
D03*
X5725454Y3324540D02*
D03*
X5675454Y3224540D02*
D03*
X5725454Y3124540D02*
D03*
X5675454Y3024540D02*
D03*
X5725454Y2924540D02*
D03*
X5675454Y2824540D02*
D03*
X5725454Y2724540D02*
D03*
X5675454Y2624540D02*
D03*
X5725454Y2524540D02*
D03*
X5675454Y2424539D02*
D03*
X5575454Y4624541D02*
D03*
X5625454Y4524541D02*
D03*
X5575454Y4424541D02*
D03*
Y3624540D02*
D03*
X5625454Y3524540D02*
D03*
X5575454Y3424540D02*
D03*
X5625454Y3324540D02*
D03*
X5575454Y3224540D02*
D03*
X5625454Y3124540D02*
D03*
X5575454Y3024540D02*
D03*
X5625454Y2924540D02*
D03*
X5575454Y2824540D02*
D03*
X5625454Y2724540D02*
D03*
X5575454Y2624540D02*
D03*
X5625454Y2524540D02*
D03*
X5575454Y2424539D02*
D03*
X5475454Y4624541D02*
D03*
X5525454Y4524541D02*
D03*
X5475454Y4424541D02*
D03*
X5525454Y4324540D02*
D03*
X5475454Y3624540D02*
D03*
X5525454Y3524540D02*
D03*
X5475454Y3424540D02*
D03*
X5525454Y3324540D02*
D03*
X5475454Y3224540D02*
D03*
X5525454Y3124540D02*
D03*
X5475454Y3024540D02*
D03*
X5525454Y2924540D02*
D03*
X5475454Y2824540D02*
D03*
X5525454Y2724540D02*
D03*
X5475454Y2624540D02*
D03*
X5525454Y2524540D02*
D03*
X5475454Y2424539D02*
D03*
X5525454Y2324539D02*
D03*
X-574549Y3724540D02*
D03*
Y1924539D02*
D03*
X-624549Y1824539D02*
D03*
X-674549Y3724540D02*
D03*
X-724549Y1824539D02*
D03*
X-774549Y3724540D02*
D03*
X-824549Y2624540D02*
D03*
Y2424539D02*
D03*
Y2224539D02*
D03*
Y1824539D02*
D03*
X-874549Y3724540D02*
D03*
X-924549Y3024540D02*
D03*
X-874549Y2124539D02*
D03*
X-924549Y1824539D02*
D03*
X-974549Y3724540D02*
D03*
X-1074549D02*
D03*
X-1124549Y2424539D02*
D03*
X-1074549Y2324539D02*
D03*
X-1174549Y3724540D02*
D03*
Y2324539D02*
D03*
X-1274549Y3724540D02*
D03*
X-1324549Y3024540D02*
D03*
X-1274549Y2324539D02*
D03*
X-1374549Y3724540D02*
D03*
Y3324540D02*
D03*
X-1424549Y3224540D02*
D03*
X-1374549Y3124540D02*
D03*
X-1424549Y3024540D02*
D03*
X-1374549Y2324539D02*
D03*
X-1424549Y1824539D02*
D03*
X-1474550Y3724540D02*
D03*
Y3324540D02*
D03*
X-1524549Y3224540D02*
D03*
X-1474550Y3124540D02*
D03*
X-1524549Y3024540D02*
D03*
Y2424539D02*
D03*
X-1474550Y2324539D02*
D03*
Y1924539D02*
D03*
X-1524549Y1824539D02*
D03*
X2825453Y3724540D02*
D03*
Y1924539D02*
D03*
X2775453Y1824539D02*
D03*
X2725453Y3724540D02*
D03*
X2675453Y1824539D02*
D03*
X2625453Y3724540D02*
D03*
X2575453Y2624540D02*
D03*
Y2424539D02*
D03*
Y2224539D02*
D03*
Y1824539D02*
D03*
X2525453Y3724540D02*
D03*
X2475453Y3024540D02*
D03*
X2525453Y2124539D02*
D03*
X2475453Y1824539D02*
D03*
X2425453Y3724540D02*
D03*
X2325453D02*
D03*
X2275453Y2424539D02*
D03*
X2325453Y2324539D02*
D03*
X2225452Y3724540D02*
D03*
Y2324539D02*
D03*
X2125452Y3724540D02*
D03*
X2075453Y3024540D02*
D03*
X2125452Y2324539D02*
D03*
X2025452Y3724540D02*
D03*
Y3324540D02*
D03*
X1975452Y3224540D02*
D03*
X2025452Y3124540D02*
D03*
X1975452Y3024540D02*
D03*
X2025452Y2324539D02*
D03*
X1975452Y1824539D02*
D03*
X1925452Y3724540D02*
D03*
Y3324540D02*
D03*
X1875452Y3224540D02*
D03*
X1925452Y3124540D02*
D03*
X1875452Y3024540D02*
D03*
Y2424539D02*
D03*
X1925452Y2324539D02*
D03*
Y1924539D02*
D03*
X1875452Y1824539D02*
D03*
X-3974551Y3724540D02*
D03*
Y1924539D02*
D03*
X-4024551Y1824539D02*
D03*
X-4074551Y3724540D02*
D03*
X-4124551Y1824539D02*
D03*
X-4174551Y3724540D02*
D03*
X-4224551Y2624540D02*
D03*
Y2424539D02*
D03*
Y2224539D02*
D03*
Y1824539D02*
D03*
X-4274551Y3724540D02*
D03*
X-4324551Y3024540D02*
D03*
X-4274551Y2124539D02*
D03*
X-4324551Y1824539D02*
D03*
X-4374551Y3724540D02*
D03*
X-4474551D02*
D03*
X-4524551Y2424539D02*
D03*
X-4474551Y2324539D02*
D03*
X-4574551Y3724540D02*
D03*
Y2324539D02*
D03*
X-4674551Y3724540D02*
D03*
X-4724551Y3024540D02*
D03*
X-4674551Y2324539D02*
D03*
X-4774551Y3724540D02*
D03*
Y3324540D02*
D03*
X-4824551Y3224540D02*
D03*
X-4774551Y3124540D02*
D03*
X-4824551Y3024540D02*
D03*
X-4774551Y2324539D02*
D03*
X-4824551Y1824539D02*
D03*
X-4874551Y3724540D02*
D03*
Y3324540D02*
D03*
X-4924551Y3224540D02*
D03*
X-4874551Y3124540D02*
D03*
X-4924551Y3024540D02*
D03*
Y2424539D02*
D03*
X-4874551Y2324539D02*
D03*
Y1924539D02*
D03*
X-4924551Y1824539D02*
D03*
X-4974551Y3724540D02*
D03*
X-5024551Y3624540D02*
D03*
X-4974551Y3524540D02*
D03*
X-5024551Y3424540D02*
D03*
X-4974551Y3324540D02*
D03*
X-5024551Y3224540D02*
D03*
X-4974551Y3124540D02*
D03*
X-5024551Y3024540D02*
D03*
X-4974551Y2924540D02*
D03*
X-5024551Y2824540D02*
D03*
Y2624540D02*
D03*
X-4974551Y2524540D02*
D03*
X-5024551Y2424539D02*
D03*
X-4974551Y2324539D02*
D03*
X-5024551Y2224539D02*
D03*
Y2024539D02*
D03*
X-4974551Y1924539D02*
D03*
X-5024551Y1824539D02*
D03*
X-5074551Y3724540D02*
D03*
X-5124551Y3624540D02*
D03*
X-5074551Y3524540D02*
D03*
X-5124551Y3424540D02*
D03*
X-5074551Y3324540D02*
D03*
X-5124551Y3224540D02*
D03*
X-5074551Y3124540D02*
D03*
X-5124551Y3024540D02*
D03*
X-5074551Y2924540D02*
D03*
X-5124551Y2824540D02*
D03*
X-5074551Y2724540D02*
D03*
X-5124551Y2624540D02*
D03*
X-5074551Y2524540D02*
D03*
X-5124551Y2424539D02*
D03*
X-5074551Y2324539D02*
D03*
X-5124551Y2224539D02*
D03*
X-5074551Y2124539D02*
D03*
X-5124551Y2024539D02*
D03*
X-5074551Y1924539D02*
D03*
X-5124551Y1824539D02*
D03*
X-5174551Y3724540D02*
D03*
X-5224551Y3624540D02*
D03*
X-5174551Y3524540D02*
D03*
X-5224551Y3424540D02*
D03*
X-5174551Y3324540D02*
D03*
X-5224551Y3224540D02*
D03*
X-5174551Y3124540D02*
D03*
X-5224551Y3024540D02*
D03*
X-5174551Y2924540D02*
D03*
X-5224551Y2824540D02*
D03*
X-5174551Y2724540D02*
D03*
X-5224551Y2624540D02*
D03*
X-5174551Y2524540D02*
D03*
X-5224551Y2424539D02*
D03*
X-5174551Y2324539D02*
D03*
X-5224551Y2224539D02*
D03*
X-5174551Y2124539D02*
D03*
X-5224551Y2024539D02*
D03*
X-5174551Y1924539D02*
D03*
X-5224551Y1824539D02*
D03*
X-5274552Y3724540D02*
D03*
X-5324551Y3624540D02*
D03*
X-5274552Y3524540D02*
D03*
X-5324551Y3424540D02*
D03*
X-5274552Y3324540D02*
D03*
X-5324551Y3224540D02*
D03*
X-5274552Y3124540D02*
D03*
X-5324551Y3024540D02*
D03*
X-5274552Y2924540D02*
D03*
X-5324551Y2824540D02*
D03*
X-5274552Y2724540D02*
D03*
X-5324551Y2624540D02*
D03*
X-5274552Y2524540D02*
D03*
X-5324551Y2424539D02*
D03*
X-5274552Y2324539D02*
D03*
X-5324551Y2224539D02*
D03*
X-5274552Y2124539D02*
D03*
X-5324551Y2024539D02*
D03*
X-5274552Y1924539D02*
D03*
X-5324551Y1824539D02*
D03*
X-5374552Y3724540D02*
D03*
X-5424552Y3624540D02*
D03*
X-5374552Y3524540D02*
D03*
X-5424552Y3424540D02*
D03*
X-5374552Y3324540D02*
D03*
X-5424552Y3224540D02*
D03*
X-5374552Y3124540D02*
D03*
X-5424552Y3024540D02*
D03*
X-5374552Y2924540D02*
D03*
X-5424552Y2824540D02*
D03*
X-5374552Y2724540D02*
D03*
X-5424552Y2624540D02*
D03*
X-5374552Y2524540D02*
D03*
X-5424552Y2424539D02*
D03*
X-5374552Y2324539D02*
D03*
X-5524552Y4624541D02*
D03*
X-5474552Y4524541D02*
D03*
X-5524552Y4424541D02*
D03*
X-5474552Y4324540D02*
D03*
X-5524552Y3624540D02*
D03*
X-5474552Y3524540D02*
D03*
X-5524552Y3424540D02*
D03*
X-5474552Y3324540D02*
D03*
X-5524552Y3224540D02*
D03*
X-5474552Y3124540D02*
D03*
X-5524552Y3024540D02*
D03*
X-5474552Y2924540D02*
D03*
X-5524552Y2824540D02*
D03*
X-5474552Y2724540D02*
D03*
X-5524552Y2624540D02*
D03*
X-5474552Y2524540D02*
D03*
X-5524552Y2424539D02*
D03*
X-5474552Y2324539D02*
D03*
X-5624552Y4624541D02*
D03*
X-5574552Y4524541D02*
D03*
X-5624552Y4424541D02*
D03*
Y3624540D02*
D03*
X-5574552Y3524540D02*
D03*
X-5624552Y3424540D02*
D03*
X-5574552Y3324540D02*
D03*
X-5624552Y3224540D02*
D03*
X-5574552Y3124540D02*
D03*
X-5624552Y3024540D02*
D03*
X-5574552Y2924540D02*
D03*
X-5624552Y2824540D02*
D03*
X-5574552Y2724540D02*
D03*
X-5624552Y2624540D02*
D03*
X-5574552Y2524540D02*
D03*
X-5624552Y2424539D02*
D03*
X-5724552Y4624541D02*
D03*
X-5674552Y4524541D02*
D03*
X-5724552Y4424541D02*
D03*
Y3624540D02*
D03*
X-5674552Y3524540D02*
D03*
X-5724552Y3424540D02*
D03*
X-5674552Y3324540D02*
D03*
X-5724552Y3224540D02*
D03*
X-5674552Y3124540D02*
D03*
X-5724552Y3024540D02*
D03*
X-5674552Y2924540D02*
D03*
X-5724552Y2824540D02*
D03*
X-5674552Y2724540D02*
D03*
X-5724552Y2624540D02*
D03*
X-5674552Y2524540D02*
D03*
X-5724552Y2424539D02*
D03*
X-5824552Y4624541D02*
D03*
X-5774552Y4524541D02*
D03*
X-5824552Y4424541D02*
D03*
Y3624540D02*
D03*
X-5774552Y3524540D02*
D03*
X-5824552Y3424540D02*
D03*
X-5774552Y3324540D02*
D03*
X-5824552Y3224540D02*
D03*
X-5774552Y3124540D02*
D03*
X-5824552Y3024540D02*
D03*
X-5774552Y2924540D02*
D03*
X-5824552Y2824540D02*
D03*
X-5774552Y2724540D02*
D03*
X-5824552Y2624540D02*
D03*
X-5774552Y2524540D02*
D03*
X-5824552Y2424539D02*
D03*
X-5924552Y4624541D02*
D03*
X-5874552Y4524541D02*
D03*
X-5924552Y4424541D02*
D03*
X-5874552Y4324540D02*
D03*
X-5924552Y3624540D02*
D03*
X-5874552Y3524540D02*
D03*
X-5924552Y3424540D02*
D03*
X-5874552Y3324540D02*
D03*
X-5924552Y3224540D02*
D03*
X-5874552Y3124540D02*
D03*
X-5924552Y3024540D02*
D03*
X-5874552Y2924540D02*
D03*
X-5924552Y2824540D02*
D03*
X-5874552Y2724540D02*
D03*
X-5924552Y2624540D02*
D03*
X-5874552Y2524540D02*
D03*
X-5924552Y2424539D02*
D03*
X-5874552Y2324539D02*
D03*
X-2700000Y6750000D02*
D03*
X-3300000D02*
D03*
Y6250000D02*
D03*
X-2700000D02*
D03*
X-2800000Y6050000D02*
D03*
X-2900000D02*
D03*
X-3000000D02*
D03*
X-3100000D02*
D03*
X-3200000D02*
D03*
X-3150000Y6800000D02*
D03*
Y6900000D02*
D03*
X-3200000Y6850000D02*
D03*
X-3250000Y6800000D02*
D03*
Y6900000D02*
D03*
X-2950000D02*
D03*
X-3000000Y6850000D02*
D03*
X-3050000Y6900000D02*
D03*
X-2750000Y6800000D02*
D03*
Y6900000D02*
D03*
X-2800000Y6850000D02*
D03*
X-2850000Y6800000D02*
D03*
Y6900000D02*
D03*
X-2900000Y6850000D02*
D03*
X-3100000D02*
D03*
X-3100000Y6150000D02*
D03*
X-2900000D02*
D03*
X-2850000Y6200000D02*
D03*
Y6100000D02*
D03*
X-2800000Y6150000D02*
D03*
X-2750000Y6200000D02*
D03*
Y6100000D02*
D03*
X-3050000D02*
D03*
X-3000000Y6150000D02*
D03*
X-2950000Y6100000D02*
D03*
X-3250000Y6200000D02*
D03*
Y6100000D02*
D03*
X-3200000Y6150000D02*
D03*
X-3150000Y6200000D02*
D03*
Y6100000D02*
D03*
X-3050000Y6800000D02*
D03*
X-2950000D02*
D03*
X-3050000Y6200000D02*
D03*
X-2950000D02*
D03*
X-3200000Y6250000D02*
D03*
X-2800000D02*
D03*
Y6750000D02*
D03*
X-3200000D02*
D03*
X-3250000Y6700000D02*
D03*
X-2750000D02*
D03*
Y6300000D02*
D03*
X-3250000D02*
D03*
X300000Y6750000D02*
D03*
X-300000D02*
D03*
Y6250000D02*
D03*
X300000D02*
D03*
X200000Y6050000D02*
D03*
X100000D02*
D03*
X0D02*
D03*
X-100000D02*
D03*
X-200000D02*
D03*
X-150000Y6800000D02*
D03*
Y6900000D02*
D03*
X-200000Y6850000D02*
D03*
X-250000Y6800000D02*
D03*
Y6900000D02*
D03*
X50000D02*
D03*
X0Y6850000D02*
D03*
X-50000Y6900000D02*
D03*
X250000Y6800000D02*
D03*
Y6900000D02*
D03*
X200000Y6850000D02*
D03*
X150000Y6800000D02*
D03*
Y6900000D02*
D03*
X100000Y6850000D02*
D03*
X-100000D02*
D03*
X-100000Y6150000D02*
D03*
X100000D02*
D03*
X150000Y6200000D02*
D03*
Y6100000D02*
D03*
X200000Y6150000D02*
D03*
X250000Y6200000D02*
D03*
Y6100000D02*
D03*
X-50000D02*
D03*
X-0Y6150000D02*
D03*
X50000Y6100000D02*
D03*
X-250000Y6200000D02*
D03*
Y6100000D02*
D03*
X-200000Y6150000D02*
D03*
X-150000Y6200000D02*
D03*
Y6100000D02*
D03*
X-50000Y6800000D02*
D03*
X50000D02*
D03*
X-50000Y6200000D02*
D03*
X50000D02*
D03*
X-200000Y6250000D02*
D03*
X200000D02*
D03*
Y6750000D02*
D03*
X-200000D02*
D03*
X-250000Y6700000D02*
D03*
X250000D02*
D03*
Y6300000D02*
D03*
X-250000D02*
D03*
X-4400000Y3421780D02*
D03*
X-4220000Y2740000D02*
D03*
X-4150000Y2540000D02*
D03*
X-4775000Y3425000D02*
D03*
X-4140000Y2340811D02*
D03*
X-4447500Y3240000D02*
D03*
X-4550587Y3204413D02*
D03*
X-4275000Y3425000D02*
D03*
X-4596780Y3377500D02*
D03*
X-4525000Y3425000D02*
D03*
X-4050000Y1975000D02*
D03*
X-4000000Y3425000D02*
D03*
X-4100000Y2200000D02*
D03*
X-4148087Y3098087D02*
D03*
X-4072508Y2950008D02*
D03*
Y2800008D02*
D03*
X-4125000Y3425000D02*
D03*
Y3325000D02*
D03*
X-4260008Y3287492D02*
D03*
X-1000000Y3421780D02*
D03*
X-820000Y2740000D02*
D03*
X-750000Y2540000D02*
D03*
X-1375000Y3425000D02*
D03*
X-740000Y2340811D02*
D03*
X-1047500Y3240000D02*
D03*
X-1150587Y3204413D02*
D03*
X-875000Y3425000D02*
D03*
X-1196780Y3377500D02*
D03*
X-1125000Y3425000D02*
D03*
X-650000Y1975000D02*
D03*
X-600000Y3425000D02*
D03*
X-700000Y2200000D02*
D03*
X-748087Y3098087D02*
D03*
X-672509Y2950008D02*
D03*
Y2800008D02*
D03*
X-725000Y3425000D02*
D03*
Y3325000D02*
D03*
X-860008Y3287492D02*
D03*
X2580000Y2740000D02*
D03*
X2650000Y2540000D02*
D03*
X2249413Y3204413D02*
D03*
X2660000Y2340811D02*
D03*
X2400000Y3421780D02*
D03*
X2275000Y3425000D02*
D03*
X2750000Y1975000D02*
D03*
X2700000Y2200000D02*
D03*
X2675000Y3325000D02*
D03*
X2539992Y3287492D02*
D03*
X2651913Y3098087D02*
D03*
X2727492Y2800008D02*
D03*
Y2950008D02*
D03*
X2800000Y3425000D02*
D03*
X2675000D02*
D03*
X2352500Y3240000D02*
D03*
X2525000Y3425000D02*
D03*
X2203220Y3377500D02*
D03*
X2025000Y3425000D02*
D03*
X2750000Y6300000D02*
D03*
X3250000D02*
D03*
Y6700000D02*
D03*
X2750000D02*
D03*
X2800000Y6750000D02*
D03*
X3200000D02*
D03*
Y6250000D02*
D03*
X2800000D02*
D03*
X3050000Y6200000D02*
D03*
X2950000D02*
D03*
X3050000Y6800000D02*
D03*
X2950000D02*
D03*
X2850000Y6100000D02*
D03*
Y6200000D02*
D03*
X2800000Y6150000D02*
D03*
X2750000Y6100000D02*
D03*
Y6200000D02*
D03*
X3050000Y6100000D02*
D03*
X3000000Y6150000D02*
D03*
X2950000Y6100000D02*
D03*
X3250000D02*
D03*
Y6200000D02*
D03*
X3200000Y6150000D02*
D03*
X3150000Y6100000D02*
D03*
Y6200000D02*
D03*
X3100000Y6150000D02*
D03*
X2900000D02*
D03*
X2900000Y6850000D02*
D03*
X3100000D02*
D03*
X3150000Y6900000D02*
D03*
Y6800000D02*
D03*
X3200000Y6850000D02*
D03*
X3250000Y6900000D02*
D03*
Y6800000D02*
D03*
X2950000Y6900000D02*
D03*
X3000000Y6850000D02*
D03*
X3050000Y6900000D02*
D03*
X2750000D02*
D03*
Y6800000D02*
D03*
X2800000Y6850000D02*
D03*
X2850000Y6900000D02*
D03*
Y6800000D02*
D03*
X2800000Y6050000D02*
D03*
X2900000D02*
D03*
X3000000D02*
D03*
X3100000D02*
D03*
X3200000D02*
D03*
X3300000Y6250000D02*
D03*
X2700000D02*
D03*
Y6750000D02*
D03*
X3300000D02*
D03*
D80*
X-4247508Y2950008D02*
D03*
X-847509D02*
D03*
X2552492D02*
D03*
%TF.MD5,2f72779fc4406449a41794fb71bd80af*%
M02*
