%TF.GenerationSoftware,Altium Limited,Altium Designer,26.2.0 (7)*%
G04 Layer_Color=8388736*
%FSLAX45Y45*%
%MOMM*%
%TF.SameCoordinates,DD637A2D-7E0C-40B3-9281-A5126D6BEA63*%
%TF.FilePolarity,Positive*%
%TF.FileFunction,Other,Top_Designator*%
%TF.Part,Single*%
G01*
G75*
%TA.AperFunction,NonConductor*%
%ADD50C,0.15000*%
D50*
X-5625025Y1800065D02*
X-5774976D01*
X-5724992Y1850049D01*
X-5774976Y1900033D01*
X-5625025D01*
Y1950016D02*
X-5774976D01*
Y2024992D01*
X-5749984Y2049984D01*
X-5700001D01*
X-5675009Y2024992D01*
Y1950016D01*
X-5749984Y2099968D02*
X-5774976Y2124960D01*
Y2174944D01*
X-5749984Y2199935D01*
X-5724992D01*
X-5700001Y2174944D01*
Y2149952D01*
Y2174944D01*
X-5675009Y2199935D01*
X-5650017D01*
X-5625025Y2174944D01*
Y2124960D01*
X-5650017Y2099968D01*
X-5625025Y4800065D02*
X-5774976D01*
X-5724992Y4850049D01*
X-5774976Y4900033D01*
X-5625025D01*
Y4950017D02*
X-5774976D01*
Y5024992D01*
X-5749984Y5049984D01*
X-5700000D01*
X-5675008Y5024992D01*
Y4950017D01*
X-5625025Y5174944D02*
X-5774976D01*
X-5700000Y5099968D01*
Y5199935D01*
X5774975Y1800065D02*
X5625024D01*
X5675008Y1850049D01*
X5625024Y1900033D01*
X5774975D01*
Y1950016D02*
X5625024D01*
Y2024992D01*
X5650016Y2049984D01*
X5700000D01*
X5724991Y2024992D01*
Y1950016D01*
X5625024Y2099968D02*
Y2199935D01*
X5650016D01*
X5749983Y2099968D01*
X5774975D01*
X5774975Y4800065D02*
X5625024D01*
X5675008Y4850049D01*
X5625024Y4900033D01*
X5774975D01*
Y4950017D02*
X5625024D01*
Y5024992D01*
X5650016Y5049984D01*
X5700000D01*
X5724992Y5024992D01*
Y4950017D01*
X5650016Y5099968D02*
X5625024Y5124960D01*
Y5174944D01*
X5650016Y5199935D01*
X5675008D01*
X5700000Y5174944D01*
X5724992Y5199935D01*
X5749984D01*
X5774975Y5174944D01*
Y5124960D01*
X5749984Y5099968D01*
X5724992D01*
X5700000Y5124960D01*
X5675008Y5099968D01*
X5650016D01*
X5700000Y5124960D02*
Y5174944D01*
%TF.MD5,1df54c413e1ab27cddbee4219e8914a7*%
M02*
