%TF.GenerationSoftware,Altium Limited,Altium Designer,26.2.0 (7)*%
G04 Layer_Physical_Order=3*
G04 Layer_Color=8388736*
%FSLAX45Y45*%
%MOMM*%
%TF.SameCoordinates,DD637A2D-7E0C-40B3-9281-A5126D6BEA63*%
%TF.FilePolarity,Positive*%
%TF.FileFunction,Copper,L3,Inr,Signal*%
%TF.Part,Single*%
G01*
G75*
%TA.AperFunction,ComponentPad*%
%ADD15C,1.06000*%
%ADD16R,1.06000X1.06000*%
%ADD17C,1.06680*%
%ADD18C,1.80000*%
%ADD19C,5.00000*%
%ADD20C,6.00000*%
%ADD21C,2.21300*%
%ADD22R,2.21300X2.21300*%
%TA.AperFunction,ViaPad*%
%ADD23C,0.63500*%
%ADD24C,0.50000*%
%ADD25C,0.45000*%
%TA.AperFunction,Conductor*%
%ADD26C,0.30000*%
%ADD27C,0.38100*%
%ADD28C,0.40000*%
G36*
X2000000Y6300000D02*
X1000000D01*
Y6968924D01*
X2000000D01*
Y6300000D01*
D02*
G37*
G36*
X-1000000D02*
X-2000000D01*
Y6968924D01*
X-1000000D01*
Y6300000D01*
D02*
G37*
G36*
X3500000Y6100000D02*
Y6090151D01*
X3496157Y6070831D01*
X3488619Y6052632D01*
X3477675Y6036254D01*
X3463746Y6022325D01*
X3447368Y6011381D01*
X3429169Y6003843D01*
X3409849Y6000000D01*
X3400000D01*
Y6000000D01*
X2600000D01*
X2590151Y6000000D01*
X2570831Y6003842D01*
X2552632Y6011381D01*
X2536254Y6022324D01*
X2522325Y6036253D01*
X2511381Y6052631D01*
X2503843Y6070830D01*
X2500000Y6090150D01*
X2500000Y6099999D01*
Y6100000D01*
Y6968924D01*
X3500000D01*
X3500000Y6100000D01*
D02*
G37*
G36*
X500000D02*
Y6090151D01*
X496157Y6070831D01*
X488619Y6052632D01*
X477675Y6036254D01*
X463746Y6022325D01*
X447368Y6011381D01*
X429169Y6003843D01*
X409849Y6000000D01*
X400000D01*
Y6000000D01*
X-400000D01*
X-409849Y6000000D01*
X-429169Y6003842D01*
X-447368Y6011381D01*
X-463746Y6022324D01*
X-477675Y6036253D01*
X-488619Y6052631D01*
X-496157Y6070830D01*
X-500000Y6090150D01*
X-500000Y6099999D01*
Y6100000D01*
Y6968924D01*
X500000D01*
X500000Y6100000D01*
D02*
G37*
G36*
X-2500000D02*
Y6090151D01*
X-2503843Y6070831D01*
X-2511382Y6052632D01*
X-2522325Y6036254D01*
X-2536254Y6022325D01*
X-2552632Y6011381D01*
X-2570831Y6003843D01*
X-2590151Y6000000D01*
X-2600000D01*
Y6000000D01*
X-3400000D01*
X-3409849Y6000000D01*
X-3429169Y6003842D01*
X-3447368Y6011381D01*
X-3463746Y6022324D01*
X-3477675Y6036253D01*
X-3488619Y6052631D01*
X-3496157Y6070830D01*
X-3500000Y6090150D01*
X-3500000Y6099999D01*
Y6100000D01*
Y6968924D01*
X-2500000D01*
X-2500000Y6100000D01*
D02*
G37*
G36*
X5968924Y1700000D02*
X5400863D01*
X5400862Y5300000D01*
X5968924D01*
Y1700000D01*
D02*
G37*
G36*
X-5400863Y4900003D02*
X-5400863Y4899999D01*
X-5400862Y4199999D01*
X-5400000Y4193451D01*
Y3800000D01*
X-3900000D01*
Y1700000D01*
X-5968924D01*
Y5300000D01*
X-5400863D01*
Y4900003D01*
D02*
G37*
G36*
X-3300000Y5899999D02*
X3299999D01*
X4100000Y5900000D01*
X4100481Y5890198D01*
X4104306Y5870971D01*
X4111808Y5852860D01*
X4122699Y5836560D01*
X4136560Y5822699D01*
X4152860Y5811808D01*
X4170971Y5804306D01*
X4190198Y5800481D01*
X4199999Y5800000D01*
X5199999D01*
X5200000Y5799999D01*
X5200000Y5800000D01*
X5200004D01*
X5218403Y5798298D01*
X5229169Y5796157D01*
X5247368Y5788619D01*
X5263746Y5777675D01*
X5277675Y5763746D01*
X5288619Y5747368D01*
X5296157Y5729169D01*
X5300000Y5709849D01*
X5299999Y5700000D01*
X5300000Y1300000D01*
Y1299999D01*
X5300011D01*
X5318726Y1298233D01*
X5329168Y1296156D01*
X5347367Y1288618D01*
X5363746Y1277675D01*
X5377675Y1263746D01*
X5388618Y1247367D01*
X5396157Y1229168D01*
X5400000Y1209849D01*
Y1200000D01*
X5400000Y200000D01*
X5400000D01*
Y190150D01*
X5396157Y170831D01*
X5388619Y152632D01*
X5377675Y136253D01*
X5363746Y122325D01*
X5347368Y111381D01*
X5329169Y103843D01*
X5309849Y100000D01*
X-5309849D01*
X-5329169Y103843D01*
X-5347368Y111381D01*
X-5363746Y122325D01*
X-5377675Y136254D01*
X-5388619Y152632D01*
X-5396157Y170831D01*
X-5400000Y190151D01*
Y200000D01*
X-5400000Y1200000D01*
Y1209849D01*
X-5396158Y1229169D01*
X-5388619Y1247368D01*
X-5377676Y1263746D01*
X-5363747Y1277675D01*
X-5347368Y1288619D01*
X-5329169Y1296157D01*
X-5309850Y1300000D01*
X-3699999D01*
D01*
X-3680397Y1300963D01*
X-3641943Y1308611D01*
X-3605720Y1323615D01*
X-3573121Y1345397D01*
X-3545397Y1373120D01*
X-3523615Y1405720D01*
X-3508611Y1441943D01*
X-3500963Y1480396D01*
X-3500000Y1500000D01*
X-3500000Y3600000D01*
X-3300001D01*
X-3290199Y3600481D01*
X-3270973Y3604306D01*
X-3252863Y3611807D01*
X-3236564Y3622698D01*
X-3222703Y3636559D01*
X-3211813Y3652858D01*
X-3204311Y3670968D01*
X-3200487Y3690194D01*
X-3200006Y3699995D01*
X-3200000Y3700000D01*
X-3200000Y4000000D01*
X-3200964Y4019603D01*
X-3208613Y4058057D01*
X-3223617Y4094279D01*
X-3245400Y4126878D01*
X-3273124Y4154601D01*
X-3305724Y4176382D01*
X-3341947Y4191385D01*
X-3380400Y4199033D01*
X-3399999Y4199995D01*
X-3400001Y4199999D01*
X-3400001Y4199999D01*
X-5299999D01*
X-5300001Y4899999D01*
X5000000Y4900000D01*
D01*
X-5300000D01*
Y5800000D01*
X-4200000D01*
X-4190199Y5800481D01*
X-4170972Y5804305D01*
X-4152860Y5811807D01*
X-4136560Y5822698D01*
X-4122699Y5836560D01*
X-4111808Y5852860D01*
X-4104306Y5870971D01*
X-4100482Y5890198D01*
X-4100000Y5900000D01*
X-4100000Y5900000D01*
X-3300000Y5899999D01*
D02*
G37*
%LPC*%
G36*
X-3991049Y3470000D02*
X-4008951D01*
X-4025491Y3463149D01*
X-4038149Y3450490D01*
X-4045000Y3433951D01*
Y3416049D01*
X-4038149Y3399510D01*
X-4035686Y3397046D01*
Y3002956D01*
X-4055686Y2991747D01*
X-4057197Y2992373D01*
X-4107303Y3042480D01*
Y3078957D01*
X-4103087Y3089136D01*
Y3107038D01*
X-4109938Y3123577D01*
X-4122597Y3136236D01*
X-4139136Y3143087D01*
X-4157038D01*
X-4173577Y3136236D01*
X-4186236Y3123577D01*
X-4193087Y3107038D01*
Y3089136D01*
X-4188870Y3078957D01*
Y3025588D01*
X-4188871Y3025586D01*
X-4185766Y3009979D01*
X-4176925Y2996748D01*
X-4114874Y2934697D01*
X-4113292Y2930878D01*
Y2819138D01*
X-4117508Y2808959D01*
Y2791057D01*
X-4113292Y2780878D01*
Y2400104D01*
X-4131049Y2385811D01*
X-4148951D01*
X-4165491Y2378960D01*
X-4178149Y2366302D01*
X-4185000Y2349762D01*
Y2331860D01*
X-4178149Y2315321D01*
X-4165491Y2302662D01*
X-4148951Y2295811D01*
X-4148056D01*
X-4138871Y2284619D01*
X-4138871Y2284618D01*
Y2223749D01*
X-4142365Y2215312D01*
X-4357635Y2000042D01*
X-4377635Y2008326D01*
Y2099511D01*
X-4366218Y2110928D01*
X-4358329Y2112497D01*
X-4345413Y2121128D01*
X-4269297Y2197244D01*
X-4260666Y2210161D01*
X-4257635Y2225398D01*
Y2866742D01*
X-4260666Y2881978D01*
X-4269296Y2894895D01*
X-4505105Y3130703D01*
X-4518022Y3139334D01*
X-4524995Y3140721D01*
X-4527779Y3143505D01*
X-4525229Y3165135D01*
X-4523675Y3167686D01*
X-4522633Y3168727D01*
X-4483087D01*
X-4469430Y3171444D01*
X-4457853Y3179180D01*
X-4442033Y3195000D01*
X-4438549D01*
X-4422010Y3201851D01*
X-4409351Y3214509D01*
X-4402500Y3231049D01*
Y3234533D01*
X-4384471Y3252561D01*
X-4361753D01*
X-4348096Y3255278D01*
X-4336519Y3263014D01*
X-4323486Y3276047D01*
X-4301405Y3269843D01*
X-4298157Y3262001D01*
X-4285499Y3249343D01*
X-4268959Y3242492D01*
X-4251057D01*
X-4234518Y3249343D01*
X-4232055Y3251806D01*
X-4176215D01*
X-4169068Y3247031D01*
X-4155412Y3244314D01*
X-4150000D01*
X-4136344Y3247031D01*
X-4124766Y3254766D01*
X-4117031Y3266344D01*
X-4116641Y3268304D01*
X-4099767Y3285178D01*
X-4096916Y3289445D01*
X-4086851Y3299510D01*
X-4080000Y3316049D01*
Y3333951D01*
X-4086851Y3350490D01*
X-4089314Y3352954D01*
Y3397046D01*
X-4086851Y3399510D01*
X-4080000Y3416049D01*
Y3433951D01*
X-4086851Y3450490D01*
X-4099510Y3463149D01*
X-4116049Y3470000D01*
X-4133951D01*
X-4150491Y3463149D01*
X-4163149Y3450490D01*
X-4170000Y3433951D01*
Y3416049D01*
X-4163149Y3399510D01*
X-4160686Y3397046D01*
Y3352954D01*
X-4163149Y3350490D01*
X-4170000Y3333951D01*
Y3323178D01*
X-4232055D01*
X-4234518Y3325641D01*
X-4242359Y3328889D01*
X-4245603Y3333812D01*
X-4249802Y3349374D01*
X-4249615Y3351894D01*
X-4245858Y3357517D01*
X-4243141Y3371173D01*
Y3393220D01*
X-4236851Y3399510D01*
X-4230000Y3416049D01*
Y3433951D01*
X-4236851Y3450490D01*
X-4249510Y3463149D01*
X-4266049Y3470000D01*
X-4283951D01*
X-4300491Y3463149D01*
X-4313149Y3450490D01*
X-4320000Y3433951D01*
Y3416049D01*
X-4314513Y3402801D01*
Y3385955D01*
X-4376534Y3323933D01*
X-4398344D01*
X-4401345Y3327219D01*
X-4406460Y3335252D01*
X-4408710Y3342443D01*
X-4401272Y3353576D01*
X-4398634Y3366839D01*
X-4387027Y3378446D01*
X-4374510Y3383631D01*
X-4361851Y3396289D01*
X-4355000Y3412829D01*
Y3430731D01*
X-4361851Y3447270D01*
X-4374510Y3459929D01*
X-4391049Y3466780D01*
X-4408951D01*
X-4425491Y3459929D01*
X-4438149Y3447270D01*
X-4443334Y3434753D01*
X-4460000Y3418087D01*
X-4480000Y3426371D01*
Y3433951D01*
X-4486851Y3450490D01*
X-4499510Y3463149D01*
X-4516049Y3470000D01*
X-4533951D01*
X-4550491Y3463149D01*
X-4563149Y3450490D01*
X-4570000Y3433951D01*
X-4587829Y3422500D01*
X-4605731D01*
X-4622270Y3415649D01*
X-4629717Y3408202D01*
X-4645601D01*
X-4660837Y3405171D01*
X-4673754Y3396540D01*
X-4733270Y3337024D01*
X-4741901Y3324108D01*
X-4744932Y3308871D01*
Y3174734D01*
X-4741901Y3159497D01*
X-4733270Y3146580D01*
X-4597586Y3010896D01*
X-4584670Y3002266D01*
X-4577696Y3000879D01*
X-4400765Y2823947D01*
Y2268192D01*
X-4415650Y2253307D01*
X-4444047Y2281704D01*
X-4456963Y2290335D01*
X-4472200Y2293365D01*
X-4673800D01*
X-4689036Y2290335D01*
X-4701953Y2281704D01*
X-4748580Y2235077D01*
X-4753889Y2236500D01*
X-4773111D01*
X-4791677Y2231525D01*
X-4808323Y2221915D01*
X-4821914Y2208323D01*
X-4831525Y2191677D01*
X-4836500Y2173111D01*
Y2153890D01*
X-4831525Y2135323D01*
X-4828163Y2129500D01*
X-4839710Y2109500D01*
X-4963500D01*
Y1963500D01*
X-4867967D01*
X-4709634Y1805167D01*
X-4698056Y1797431D01*
X-4684400Y1794714D01*
X-4424131D01*
X-4410475Y1797431D01*
X-4398897Y1805167D01*
X-4351250Y1852814D01*
X-4131088D01*
X-4117432Y1855531D01*
X-4105854Y1863267D01*
X-4037757Y1931364D01*
X-4024510Y1936851D01*
X-4011851Y1949510D01*
X-4006364Y1962757D01*
X-3949767Y2019354D01*
X-3942031Y2030932D01*
X-3939314Y2044588D01*
Y2719588D01*
X-3942031Y2733244D01*
X-3949767Y2744822D01*
X-3964314Y2759369D01*
Y3397046D01*
X-3961851Y3399510D01*
X-3955000Y3416049D01*
Y3433951D01*
X-3961851Y3450490D01*
X-3974510Y3463149D01*
X-3991049Y3470000D01*
D02*
G37*
%LPD*%
G36*
X-4134148Y3118949D02*
X-4127225Y3112026D01*
X-4123479Y3102981D01*
Y3093192D01*
X-4126143Y3086760D01*
X-4127695Y3078957D01*
Y3042481D01*
X-4127696Y3042480D01*
X-4126143Y3034676D01*
X-4121723Y3028060D01*
X-4121722Y3028060D01*
X-4071617Y2977954D01*
X-4068331Y2975758D01*
X-4068306Y2975729D01*
X-4068227Y2975689D01*
X-4065002Y2973534D01*
X-4063491Y2972908D01*
X-4062299Y2972671D01*
X-4061215Y2972119D01*
X-4058428Y2971901D01*
X-4055687Y2971355D01*
X-4055686Y2971355D01*
X-4053068Y2971366D01*
X-4042338Y2964858D01*
X-4040183Y2962906D01*
X-4035686Y2957066D01*
Y2744588D01*
X-4032969Y2730932D01*
X-4027244Y2722363D01*
X-4026610Y2720318D01*
X-4026836Y2714108D01*
X-4031851Y2697687D01*
X-4041338Y2692616D01*
X-4043653Y2690715D01*
X-4046144Y2689051D01*
X-4046706Y2688210D01*
X-4047488Y2687568D01*
X-4048901Y2684926D01*
X-4050565Y2682435D01*
X-4050762Y2681444D01*
X-4051239Y2680551D01*
X-4051533Y2677568D01*
X-4052117Y2674632D01*
Y2632715D01*
X-4072117Y2615000D01*
X-4092900D01*
Y2780878D01*
X-4094452Y2788681D01*
X-4097117Y2795113D01*
Y2804902D01*
X-4094452Y2811334D01*
X-4092900Y2819138D01*
Y2930878D01*
X-4094452Y2938681D01*
X-4096034Y2942500D01*
X-4096034Y2942501D01*
X-4100455Y2949116D01*
X-4161086Y3009747D01*
X-4166558Y3017936D01*
X-4168479Y3027593D01*
Y3078957D01*
X-4170031Y3086760D01*
X-4172695Y3093192D01*
Y3102981D01*
X-4168949Y3112026D01*
X-4162026Y3118949D01*
X-4152982Y3122695D01*
X-4143192D01*
X-4134148Y3118949D01*
D02*
G37*
G36*
X-4010686Y2684628D02*
Y2059370D01*
X-4050055Y2020000D01*
X-4058951D01*
X-4075490Y2013149D01*
X-4088149Y2000491D01*
X-4095000Y1983951D01*
Y1975055D01*
X-4145870Y1924186D01*
X-4292006D01*
X-4299660Y1942664D01*
X-4084689Y2157635D01*
X-4074510Y2161851D01*
X-4061851Y2174509D01*
X-4055000Y2191049D01*
Y2208951D01*
X-4057304Y2214511D01*
Y2267726D01*
X-4043671Y2281359D01*
X-4043670Y2281359D01*
X-4034829Y2294591D01*
X-4031725Y2310198D01*
X-4031725Y2310199D01*
Y2674632D01*
X-4011725Y2685322D01*
X-4010686Y2684628D01*
D02*
G37*
%LPC*%
G36*
X4800000Y5700000D02*
X3400000D01*
X3300000Y5700000D01*
X3290198Y5699518D01*
X3270971Y5695694D01*
X3252859Y5688192D01*
X3236560Y5677301D01*
X3222698Y5663439D01*
X3211807Y5647139D01*
X3204305Y5629028D01*
X3200481Y5609800D01*
X3200000Y5599999D01*
Y5200000D01*
X3200481Y5190198D01*
X3204306Y5170971D01*
X3211808Y5152860D01*
X3222699Y5136560D01*
X3236560Y5122699D01*
X3252860Y5111808D01*
X3270971Y5104306D01*
X3290198Y5100481D01*
X3300000Y5100000D01*
X4800000D01*
X4809802Y5100481D01*
X4829028Y5104306D01*
X4847140Y5111808D01*
X4863439Y5122699D01*
X4877301Y5136560D01*
X4888192Y5152860D01*
X4895694Y5170971D01*
X4899519Y5190198D01*
X4900000Y5200000D01*
X4900000Y5600000D01*
X4899518Y5609801D01*
X4895694Y5629028D01*
X4888192Y5647139D01*
X4877301Y5663439D01*
X4863439Y5677301D01*
X4847140Y5688192D01*
X4829028Y5695694D01*
X4809802Y5699518D01*
X4800000Y5700000D01*
Y5700000D01*
D02*
G37*
G36*
X1400000D02*
X100000D01*
X-100000Y5700000D01*
X-109802Y5699518D01*
X-129029Y5695694D01*
X-147141Y5688192D01*
X-163441Y5677301D01*
X-177303Y5663439D01*
X-188194Y5647139D01*
X-195695Y5629027D01*
X-199519Y5609800D01*
X-200000Y5599998D01*
Y5200000D01*
X-199519Y5190198D01*
X-195694Y5170971D01*
X-188192Y5152860D01*
X-177301Y5136561D01*
X-163440Y5122699D01*
X-147140Y5111808D01*
X-129029Y5104306D01*
X-109802Y5100482D01*
X-100000Y5100000D01*
X-100000Y5100000D01*
X1400000D01*
X1410560Y5100519D01*
X1431273Y5104639D01*
X1450784Y5112721D01*
X1468345Y5124454D01*
X1483278Y5139388D01*
X1495011Y5156948D01*
X1503093Y5176460D01*
X1507213Y5197173D01*
X1507732Y5207733D01*
X1507736Y5207736D01*
X1507735Y5592264D01*
X1507217Y5602824D01*
X1503096Y5623538D01*
X1495014Y5643050D01*
X1483280Y5660610D01*
X1468346Y5675544D01*
X1450784Y5687277D01*
X1431272Y5695359D01*
X1418423Y5697914D01*
X1410558Y5699478D01*
X1400056Y5699993D01*
X1400000Y5700000D01*
Y5700000D01*
D02*
G37*
G36*
X-2000000D02*
X-3200000D01*
X-3500000Y5700000D01*
X-3509802Y5699519D01*
X-3529030Y5695695D01*
X-3547142Y5688193D01*
X-3563442Y5677302D01*
X-3577305Y5663439D01*
X-3588195Y5647138D01*
X-3595696Y5629026D01*
X-3599519Y5609798D01*
X-3600000Y5599996D01*
Y5200000D01*
X-3599519Y5190198D01*
X-3595694Y5170971D01*
X-3588192Y5152860D01*
X-3577301Y5136560D01*
X-3563439Y5122699D01*
X-3547140Y5111808D01*
X-3529029Y5104306D01*
X-3509802Y5100482D01*
X-3500000Y5100000D01*
X-3500000Y5100000D01*
X-2000000D01*
X-1990199Y5100481D01*
X-1970973Y5104306D01*
X-1952863Y5111807D01*
X-1936564Y5122698D01*
X-1922703Y5136559D01*
X-1911812Y5152858D01*
X-1904311Y5170968D01*
X-1900486Y5190194D01*
X-1900005Y5199995D01*
X-1900000Y5200000D01*
X-1900001Y5600000D01*
X-1900482Y5609801D01*
X-1904307Y5629028D01*
X-1911809Y5647139D01*
X-1922700Y5663439D01*
X-1936563Y5677300D01*
X-1952863Y5688191D01*
X-1970975Y5695691D01*
X-1981448Y5697774D01*
X-1990202Y5699515D01*
X-1999938Y5699992D01*
X-2000000Y5700000D01*
Y5700000D01*
D02*
G37*
G36*
X5000000Y3925641D02*
X4999999Y3600000D01*
X5000000D01*
Y3925641D01*
D02*
G37*
G36*
X4500000Y3500000D02*
X3599998D01*
Y3499998D01*
X3590197Y3499517D01*
X3570970Y3495694D01*
X3552858Y3488192D01*
X3536559Y3477302D01*
X3522697Y3463440D01*
X3511806Y3447140D01*
X3504305Y3429029D01*
X3500481Y3409802D01*
X3500000Y3400000D01*
Y3099999D01*
X3500481Y3090198D01*
X3504305Y3070971D01*
X3511807Y3052860D01*
X3522698Y3036560D01*
X3536560Y3022698D01*
X3552860Y3011807D01*
X3570971Y3004305D01*
X3590198Y3000481D01*
X3599999Y3000000D01*
X4499999Y3000000D01*
X4509801Y3000482D01*
X4529028Y3004306D01*
X4547139Y3011808D01*
X4563439Y3022699D01*
X4577301Y3036560D01*
X4588192Y3052860D01*
X4595694Y3070971D01*
X4599518Y3090198D01*
X4599999Y3100000D01*
X4600000Y3100000D01*
X4599998Y3399999D01*
X4599517Y3409801D01*
X4595694Y3429028D01*
X4588193Y3447140D01*
X4577302Y3463440D01*
X4563440Y3477302D01*
X4547140Y3488193D01*
X4529029Y3495695D01*
X4518369Y3497815D01*
X4509801Y3499519D01*
X4500003Y3500000D01*
X4500000Y3500000D01*
Y3500000D01*
D02*
G37*
G36*
X1100000D02*
X200000Y3500000D01*
X200000Y3499999D01*
X190198Y3499518D01*
X170971Y3495693D01*
X152860Y3488191D01*
X136561Y3477300D01*
X122699Y3463439D01*
X111808Y3447139D01*
X104306Y3429028D01*
X100482Y3409802D01*
X100000Y3400000D01*
X100000Y3100000D01*
X100481Y3090198D01*
X104306Y3070971D01*
X111807Y3052860D01*
X122699Y3036560D01*
X136560Y3022699D01*
X152860Y3011808D01*
X170971Y3004306D01*
X190198Y3000481D01*
X200000Y3000000D01*
X1100000D01*
Y3000000D01*
X1109802Y3000482D01*
X1129028Y3004306D01*
X1147139Y3011808D01*
X1163439Y3022699D01*
X1177301Y3036561D01*
X1188192Y3052861D01*
X1195694Y3070972D01*
X1199518Y3090198D01*
X1200000Y3100000D01*
X1200000Y3400000D01*
X1200000Y3400000D01*
X1200000Y3400000D01*
X1199999Y3400010D01*
X1199518Y3409801D01*
X1197814Y3418369D01*
X1195694Y3429028D01*
X1188192Y3447139D01*
X1177301Y3463439D01*
X1163439Y3477301D01*
X1147139Y3488192D01*
X1129028Y3495694D01*
X1109801Y3499518D01*
X1100000Y3500000D01*
Y3500000D01*
D02*
G37*
G36*
X-2300000D02*
X-3200000D01*
X-3200001Y3499999D01*
X-3209802Y3499518D01*
X-3229029Y3495693D01*
X-3247140Y3488191D01*
X-3263439Y3477300D01*
X-3277301Y3463439D01*
X-3288192Y3447139D01*
X-3295694Y3429028D01*
X-3299519Y3409802D01*
X-3300000Y3400000D01*
Y3100000D01*
X-3299519Y3090198D01*
X-3295694Y3070971D01*
X-3288193Y3052860D01*
X-3277302Y3036560D01*
X-3263440Y3022699D01*
X-3247140Y3011808D01*
X-3229029Y3004306D01*
X-3209802Y3000481D01*
X-3200001Y3000000D01*
X-2300000D01*
X-2290199Y3000481D01*
X-2270972Y3004306D01*
X-2252861Y3011808D01*
X-2236561Y3022699D01*
X-2222699Y3036561D01*
X-2211808Y3052860D01*
X-2204306Y3070972D01*
X-2200482Y3090198D01*
X-2200000Y3100000D01*
X-2200000Y3400000D01*
X-2200000Y3400000D01*
X-2200000Y3400000D01*
X-2200001Y3400010D01*
X-2200482Y3409801D01*
X-2202186Y3418369D01*
X-2204306Y3429028D01*
X-2211808Y3447139D01*
X-2222699Y3463439D01*
X-2236561Y3477301D01*
X-2252861Y3488192D01*
X-2270972Y3495694D01*
X-2290199Y3499518D01*
X-2300000Y3500000D01*
Y3500000D01*
D02*
G37*
G36*
X-3336394Y2066840D02*
X-3363604D01*
X-3389887Y2059798D01*
X-3413452Y2046193D01*
X-3432692Y2026953D01*
X-3446297Y2003388D01*
X-3453339Y1977105D01*
Y1949895D01*
X-3446297Y1923613D01*
X-3432692Y1900048D01*
X-3432644Y1900000D01*
X-3432692Y1899953D01*
X-3446297Y1876388D01*
X-3453339Y1850105D01*
Y1822895D01*
X-3446297Y1796613D01*
X-3432692Y1773048D01*
X-3413452Y1753808D01*
X-3389887Y1740203D01*
X-3363604Y1733160D01*
X-3336394D01*
X-3310112Y1740203D01*
X-3286547Y1753808D01*
X-3267307Y1773048D01*
X-3253702Y1796613D01*
X-3246659Y1822895D01*
Y1850105D01*
X-3253702Y1876388D01*
X-3267307Y1899953D01*
X-3267355Y1900000D01*
X-3267307Y1900048D01*
X-3253702Y1923613D01*
X-3246659Y1949895D01*
Y1977105D01*
X-3253702Y2003388D01*
X-3267307Y2026953D01*
X-3286547Y2046193D01*
X-3310112Y2059798D01*
X-3336394Y2066840D01*
D02*
G37*
G36*
X3463605Y2066840D02*
X3436395D01*
X3410112Y2059798D01*
X3386548Y2046193D01*
X3367307Y2026952D01*
X3353702Y2003388D01*
X3346660Y1977105D01*
Y1949895D01*
X3353702Y1923612D01*
X3367307Y1900048D01*
X3367355Y1900000D01*
X3367307Y1899952D01*
X3353702Y1876388D01*
X3346660Y1850105D01*
Y1822895D01*
X3353702Y1796612D01*
X3367307Y1773048D01*
X3386548Y1753808D01*
X3410112Y1740203D01*
X3436395Y1733160D01*
X3463605D01*
X3489888Y1740203D01*
X3513452Y1753808D01*
X3532692Y1773048D01*
X3546297Y1796612D01*
X3553340Y1822895D01*
Y1850105D01*
X3546297Y1876388D01*
X3532692Y1899952D01*
X3532645Y1900000D01*
X3532692Y1900048D01*
X3546297Y1923612D01*
X3553340Y1949895D01*
Y1977105D01*
X3546297Y2003388D01*
X3532692Y2026952D01*
X3513452Y2046193D01*
X3489888Y2059798D01*
X3463605Y2066840D01*
D02*
G37*
G36*
X63605D02*
X36395D01*
X10112Y2059798D01*
X-13452Y2046193D01*
X-32693Y2026952D01*
X-46298Y2003388D01*
X-53340Y1977105D01*
Y1949895D01*
X-46298Y1923612D01*
X-32693Y1900048D01*
X-32645Y1900000D01*
X-32693Y1899952D01*
X-46298Y1876388D01*
X-53340Y1850105D01*
Y1822895D01*
X-46298Y1796612D01*
X-32693Y1773048D01*
X-13452Y1753808D01*
X10112Y1740203D01*
X36395Y1733160D01*
X63605D01*
X89888Y1740203D01*
X113452Y1753808D01*
X132692Y1773048D01*
X146297Y1796612D01*
X153340Y1822895D01*
Y1850105D01*
X146297Y1876388D01*
X132692Y1899952D01*
X132645Y1900000D01*
X132692Y1900048D01*
X146297Y1923612D01*
X153340Y1949895D01*
Y1977105D01*
X146297Y2003388D01*
X132692Y2026952D01*
X113452Y2046193D01*
X89888Y2059798D01*
X63605Y2066840D01*
D02*
G37*
G36*
X4999999Y2100003D02*
X4600000Y2099999D01*
X4600000Y1700000D01*
X4999999Y1700000D01*
X4999999Y1500000D01*
Y2100003D01*
D02*
G37*
G36*
X3400000Y4200000D02*
X3400000Y4199999D01*
X1599999Y4199998D01*
X1580395Y4199037D01*
X1541941Y4191389D01*
X1505718Y4176386D01*
X1473118Y4154604D01*
X1445394Y4126880D01*
X1423612Y4094281D01*
X1408609Y4058057D01*
X1400962Y4019603D01*
X1400000Y4000000D01*
Y3600000D01*
Y1500000D01*
X1400963Y1480396D01*
X1408612Y1441942D01*
X1423615Y1405720D01*
X1445397Y1373121D01*
X1473121Y1345397D01*
X1505720Y1323615D01*
X1541943Y1308612D01*
X1580396Y1300963D01*
X1600000Y1300000D01*
X3099999D01*
X3119602Y1300962D01*
X3158056Y1308610D01*
X3194280Y1323613D01*
X3226879Y1345395D01*
X3254603Y1373119D01*
X3276385Y1405719D01*
X3291389Y1441942D01*
X3299037Y1480396D01*
X3299999Y1500000D01*
X3300000Y1500000D01*
X3300000Y3500000D01*
X3300000D01*
Y3600000D01*
X3499999Y3600000D01*
X3509801Y3600480D01*
X3529029Y3604303D01*
X3547141Y3611804D01*
X3563442Y3622695D01*
X3577304Y3636557D01*
X3588195Y3652858D01*
X3595696Y3670970D01*
X3599519Y3690198D01*
X3599999Y3700000D01*
X3599999Y3700000D01*
X3599995Y3999997D01*
X3599034Y4019601D01*
X3591389Y4058056D01*
X3576388Y4094281D01*
X3554607Y4126882D01*
X3526883Y4154606D01*
X3494283Y4176389D01*
X3458059Y4191391D01*
X3419604Y4199038D01*
X3400001Y4199999D01*
X3400000Y4200000D01*
D02*
G37*
G36*
X-1D02*
X-1Y4199999D01*
X-1800000Y4199999D01*
X-1819604Y4199037D01*
X-1858059Y4191390D01*
X-1894282Y4176387D01*
X-1926882Y4154605D01*
X-1954606Y4126881D01*
X-1976388Y4094281D01*
X-1991391Y4058058D01*
X-1999038Y4019603D01*
X-2000000Y4000000D01*
Y3500000D01*
Y1500000D01*
X-1999037Y1480396D01*
X-1991388Y1441942D01*
X-1976385Y1405720D01*
X-1954603Y1373121D01*
X-1926879Y1345397D01*
X-1894280Y1323615D01*
X-1858057Y1308612D01*
X-1819604Y1300963D01*
X-1800000Y1300000D01*
X-299999D01*
D01*
X-280397Y1300963D01*
X-241943Y1308611D01*
X-205720Y1323615D01*
X-173121Y1345397D01*
X-145397Y1373120D01*
X-123615Y1405720D01*
X-108611Y1441943D01*
X-100963Y1480396D01*
X-100000Y1500000D01*
X-100000Y3500000D01*
X-100000D01*
Y3600000D01*
X99999D01*
X109801Y3600480D01*
X129029Y3604303D01*
X147141Y3611804D01*
X163442Y3622695D01*
X177304Y3636557D01*
X188195Y3652858D01*
X195696Y3670970D01*
X199519Y3690198D01*
X199999Y3700000D01*
X200000Y3700001D01*
X199998Y3999999D01*
X199037Y4019603D01*
X191393Y4058059D01*
X176391Y4094283D01*
X154609Y4126885D01*
X126885Y4154609D01*
X94284Y4176391D01*
X58059Y4191393D01*
X19603Y4199039D01*
X0Y4199999D01*
X-1Y4200000D01*
D02*
G37*
%LPD*%
G36*
X2900000Y1700000D02*
X1800000D01*
Y3800000D01*
X2900000D01*
Y1700000D01*
D02*
G37*
%LPC*%
G36*
X2808951Y3470000D02*
X2791049D01*
X2774510Y3463149D01*
X2761851Y3450490D01*
X2755000Y3433951D01*
Y3416049D01*
X2761851Y3399510D01*
X2764314Y3397046D01*
Y3002956D01*
X2744314Y2991747D01*
X2742803Y2992373D01*
X2692697Y3042480D01*
Y3078957D01*
X2696913Y3089136D01*
Y3107038D01*
X2690062Y3123577D01*
X2677404Y3136236D01*
X2660864Y3143087D01*
X2642962D01*
X2626423Y3136236D01*
X2613764Y3123577D01*
X2606913Y3107038D01*
Y3089136D01*
X2611130Y3078957D01*
Y3025588D01*
X2611129Y3025586D01*
X2614234Y3009979D01*
X2623075Y2996748D01*
X2685126Y2934697D01*
X2686708Y2930878D01*
Y2819138D01*
X2682492Y2808959D01*
Y2791057D01*
X2686708Y2780878D01*
Y2400104D01*
X2668951Y2385811D01*
X2651049D01*
X2634510Y2378960D01*
X2621851Y2366302D01*
X2615000Y2349762D01*
Y2331860D01*
X2621851Y2315321D01*
X2634510Y2302662D01*
X2651049Y2295811D01*
X2651944D01*
X2661129Y2284619D01*
X2661130Y2284618D01*
Y2223749D01*
X2657635Y2215312D01*
X2442365Y2000042D01*
X2422365Y2008326D01*
Y2099511D01*
X2433782Y2110928D01*
X2441671Y2112497D01*
X2454587Y2121128D01*
X2530704Y2197244D01*
X2539335Y2210161D01*
X2542365Y2225398D01*
Y2866742D01*
X2539335Y2881978D01*
X2530704Y2894895D01*
X2294895Y3130703D01*
X2281978Y3139334D01*
X2275005Y3140721D01*
X2272221Y3143505D01*
X2274771Y3165135D01*
X2276325Y3167686D01*
X2277367Y3168727D01*
X2316913D01*
X2330570Y3171444D01*
X2342147Y3179180D01*
X2357967Y3195000D01*
X2361451D01*
X2377990Y3201851D01*
X2390649Y3214509D01*
X2397500Y3231049D01*
Y3234533D01*
X2415529Y3252561D01*
X2438247D01*
X2451904Y3255278D01*
X2463481Y3263014D01*
X2476514Y3276047D01*
X2498595Y3269843D01*
X2501843Y3262001D01*
X2514501Y3249343D01*
X2531041Y3242492D01*
X2548943D01*
X2565482Y3249343D01*
X2567946Y3251806D01*
X2623785D01*
X2630932Y3247031D01*
X2644588Y3244314D01*
X2650000D01*
X2663656Y3247031D01*
X2675234Y3254766D01*
X2682969Y3266344D01*
X2683359Y3268304D01*
X2700234Y3285178D01*
X2703085Y3289445D01*
X2713149Y3299510D01*
X2720000Y3316049D01*
Y3333951D01*
X2713149Y3350490D01*
X2710686Y3352954D01*
Y3397046D01*
X2713149Y3399510D01*
X2720000Y3416049D01*
Y3433951D01*
X2713149Y3450490D01*
X2700490Y3463149D01*
X2683951Y3470000D01*
X2666049D01*
X2649510Y3463149D01*
X2636851Y3450490D01*
X2630000Y3433951D01*
Y3416049D01*
X2636851Y3399510D01*
X2639314Y3397046D01*
Y3352954D01*
X2636851Y3350490D01*
X2630000Y3333951D01*
Y3323178D01*
X2567946D01*
X2565482Y3325641D01*
X2557641Y3328889D01*
X2554397Y3333812D01*
X2550198Y3349374D01*
X2550386Y3351894D01*
X2554142Y3357517D01*
X2556859Y3371173D01*
Y3393220D01*
X2563149Y3399510D01*
X2570000Y3416049D01*
Y3433951D01*
X2563149Y3450490D01*
X2550490Y3463149D01*
X2533951Y3470000D01*
X2516049D01*
X2499510Y3463149D01*
X2486851Y3450490D01*
X2480000Y3433951D01*
Y3416049D01*
X2485488Y3402801D01*
Y3385955D01*
X2423466Y3323933D01*
X2401656D01*
X2398655Y3327219D01*
X2393540Y3335252D01*
X2391290Y3342443D01*
X2398728Y3353576D01*
X2401366Y3366839D01*
X2412973Y3378446D01*
X2425490Y3383631D01*
X2438149Y3396289D01*
X2445000Y3412829D01*
Y3430731D01*
X2438149Y3447270D01*
X2425490Y3459929D01*
X2408951Y3466780D01*
X2391049D01*
X2374510Y3459929D01*
X2361851Y3447270D01*
X2356666Y3434753D01*
X2340000Y3418087D01*
X2320000Y3426371D01*
Y3433951D01*
X2313149Y3450490D01*
X2300490Y3463149D01*
X2283951Y3470000D01*
X2266049D01*
X2249510Y3463149D01*
X2236851Y3450490D01*
X2230000Y3433951D01*
X2212171Y3422500D01*
X2194269D01*
X2177730Y3415649D01*
X2170283Y3408202D01*
X2154400D01*
X2139163Y3405171D01*
X2126246Y3396540D01*
X2066730Y3337024D01*
X2058099Y3324108D01*
X2055069Y3308871D01*
Y3174734D01*
X2058099Y3159497D01*
X2066730Y3146580D01*
X2202414Y3010896D01*
X2215331Y3002266D01*
X2222304Y3000879D01*
X2399235Y2823947D01*
Y2268192D01*
X2384350Y2253307D01*
X2355953Y2281704D01*
X2343037Y2290335D01*
X2327800Y2293365D01*
X2126200D01*
X2110964Y2290335D01*
X2098047Y2281704D01*
X2051420Y2235077D01*
X2046111Y2236500D01*
X2026890D01*
X2008323Y2231525D01*
X1991677Y2221915D01*
X1978086Y2208323D01*
X1968475Y2191677D01*
X1963500Y2173111D01*
Y2153890D01*
X1968475Y2135323D01*
X1971837Y2129500D01*
X1960290Y2109500D01*
X1836500D01*
Y1963500D01*
X1932033D01*
X2090366Y1805167D01*
X2101944Y1797431D01*
X2115600Y1794714D01*
X2375869D01*
X2389525Y1797431D01*
X2401103Y1805167D01*
X2448750Y1852814D01*
X2668912D01*
X2682568Y1855531D01*
X2694146Y1863267D01*
X2762243Y1931364D01*
X2775491Y1936851D01*
X2788149Y1949510D01*
X2793637Y1962757D01*
X2850234Y2019354D01*
X2857969Y2030932D01*
X2860686Y2044588D01*
Y2719588D01*
X2857969Y2733244D01*
X2850234Y2744822D01*
X2835686Y2759369D01*
Y3397046D01*
X2838149Y3399510D01*
X2845000Y3416049D01*
Y3433951D01*
X2838149Y3450490D01*
X2825490Y3463149D01*
X2808951Y3470000D01*
D02*
G37*
%LPD*%
G36*
X2665852Y3118949D02*
X2672775Y3112026D01*
X2676521Y3102981D01*
Y3093192D01*
X2673857Y3086760D01*
X2672305Y3078957D01*
Y3042481D01*
X2672305Y3042480D01*
X2673857Y3034676D01*
X2678277Y3028060D01*
X2678278Y3028060D01*
X2728383Y2977954D01*
X2731669Y2975758D01*
X2731694Y2975729D01*
X2731773Y2975689D01*
X2734998Y2973534D01*
X2736509Y2972908D01*
X2737701Y2972671D01*
X2738785Y2972119D01*
X2741572Y2971901D01*
X2744313Y2971355D01*
X2744314Y2971355D01*
X2746933Y2971366D01*
X2757662Y2964858D01*
X2759817Y2962906D01*
X2764314Y2957066D01*
Y2744588D01*
X2767031Y2730932D01*
X2772756Y2722363D01*
X2773390Y2720318D01*
X2773164Y2714108D01*
X2768149Y2697687D01*
X2758662Y2692616D01*
X2756347Y2690715D01*
X2753856Y2689051D01*
X2753294Y2688210D01*
X2752512Y2687568D01*
X2751099Y2684926D01*
X2749435Y2682435D01*
X2749238Y2681444D01*
X2748761Y2680551D01*
X2748467Y2677568D01*
X2747883Y2674632D01*
Y2632715D01*
X2727883Y2615000D01*
X2707100D01*
Y2780878D01*
X2705548Y2788681D01*
X2702884Y2795113D01*
Y2804902D01*
X2705548Y2811334D01*
X2707100Y2819138D01*
Y2930878D01*
X2705548Y2938681D01*
X2703966Y2942500D01*
X2703966Y2942501D01*
X2699546Y2949116D01*
X2638914Y3009747D01*
X2633443Y3017936D01*
X2631522Y3027593D01*
Y3078957D01*
X2629969Y3086760D01*
X2627305Y3093192D01*
Y3102981D01*
X2631051Y3112026D01*
X2637974Y3118949D01*
X2647019Y3122695D01*
X2656808D01*
X2665852Y3118949D01*
D02*
G37*
G36*
X2789314Y2684628D02*
Y2059370D01*
X2749945Y2020000D01*
X2741049D01*
X2724510Y2013149D01*
X2711851Y2000491D01*
X2705000Y1983951D01*
Y1975055D01*
X2654131Y1924186D01*
X2507994D01*
X2500340Y1942664D01*
X2715312Y2157635D01*
X2725490Y2161851D01*
X2738149Y2174509D01*
X2745000Y2191049D01*
Y2208951D01*
X2742697Y2214511D01*
Y2267726D01*
X2756329Y2281359D01*
X2756330Y2281359D01*
X2765171Y2294591D01*
X2768275Y2310198D01*
X2768275Y2310199D01*
Y2674632D01*
X2788275Y2685322D01*
X2789314Y2684628D01*
D02*
G37*
G36*
X-500000Y1700000D02*
X-1600000D01*
Y3800000D01*
X-500000D01*
Y1700000D01*
D02*
G37*
%LPC*%
G36*
X-591049Y3470000D02*
X-608951D01*
X-625491Y3463149D01*
X-638149Y3450490D01*
X-645000Y3433951D01*
Y3416049D01*
X-638149Y3399510D01*
X-635686Y3397046D01*
Y3002956D01*
X-655686Y2991747D01*
X-657198Y2992373D01*
X-707304Y3042480D01*
Y3078957D01*
X-703087Y3089136D01*
Y3107038D01*
X-709938Y3123577D01*
X-722597Y3136236D01*
X-739136Y3143087D01*
X-757038D01*
X-773578Y3136236D01*
X-786236Y3123577D01*
X-793087Y3107038D01*
Y3089136D01*
X-788871Y3078957D01*
Y3025588D01*
X-788871Y3025586D01*
X-785766Y3009979D01*
X-776926Y2996748D01*
X-714874Y2934697D01*
X-713292Y2930878D01*
Y2819138D01*
X-717509Y2808959D01*
Y2791057D01*
X-713292Y2780878D01*
Y2400104D01*
X-731050Y2385811D01*
X-748951D01*
X-765491Y2378960D01*
X-778149Y2366302D01*
X-785000Y2349762D01*
Y2331860D01*
X-778149Y2315321D01*
X-765491Y2302662D01*
X-748951Y2295811D01*
X-748056D01*
X-738871Y2284619D01*
X-738871Y2284618D01*
Y2223749D01*
X-742366Y2215312D01*
X-957635Y2000042D01*
X-977635Y2008326D01*
Y2099511D01*
X-966218Y2110928D01*
X-958330Y2112497D01*
X-945413Y2121128D01*
X-869297Y2197244D01*
X-860666Y2210161D01*
X-857635Y2225398D01*
Y2866742D01*
X-860666Y2881978D01*
X-869296Y2894895D01*
X-1105105Y3130703D01*
X-1118022Y3139334D01*
X-1124995Y3140721D01*
X-1127779Y3143505D01*
X-1125229Y3165135D01*
X-1123675Y3167686D01*
X-1122633Y3168727D01*
X-1083087D01*
X-1069431Y3171444D01*
X-1057853Y3179180D01*
X-1042033Y3195000D01*
X-1038549D01*
X-1022010Y3201851D01*
X-1009351Y3214509D01*
X-1002500Y3231049D01*
Y3234533D01*
X-984471Y3252561D01*
X-961753D01*
X-948097Y3255278D01*
X-936519Y3263014D01*
X-923486Y3276047D01*
X-901406Y3269843D01*
X-898157Y3262001D01*
X-885499Y3249343D01*
X-868959Y3242492D01*
X-851057D01*
X-834518Y3249343D01*
X-832055Y3251806D01*
X-776215D01*
X-769069Y3247031D01*
X-755412Y3244314D01*
X-750000D01*
X-736344Y3247031D01*
X-724767Y3254766D01*
X-717031Y3266344D01*
X-716641Y3268304D01*
X-699767Y3285178D01*
X-696916Y3289445D01*
X-686851Y3299510D01*
X-680000Y3316049D01*
Y3333951D01*
X-686851Y3350490D01*
X-689315Y3352954D01*
Y3397046D01*
X-686851Y3399510D01*
X-680000Y3416049D01*
Y3433951D01*
X-686851Y3450490D01*
X-699510Y3463149D01*
X-716049Y3470000D01*
X-733951D01*
X-750491Y3463149D01*
X-763149Y3450490D01*
X-770000Y3433951D01*
Y3416049D01*
X-763149Y3399510D01*
X-760686Y3397046D01*
Y3352954D01*
X-763149Y3350490D01*
X-770000Y3333951D01*
Y3323178D01*
X-832055D01*
X-834518Y3325641D01*
X-842360Y3328889D01*
X-845603Y3333812D01*
X-849802Y3349374D01*
X-849615Y3351894D01*
X-845858Y3357517D01*
X-843141Y3371173D01*
Y3393220D01*
X-836851Y3399510D01*
X-830000Y3416049D01*
Y3433951D01*
X-836851Y3450490D01*
X-849510Y3463149D01*
X-866049Y3470000D01*
X-883951D01*
X-900491Y3463149D01*
X-913149Y3450490D01*
X-920000Y3433951D01*
Y3416049D01*
X-914513Y3402801D01*
Y3385955D01*
X-976534Y3323933D01*
X-998344D01*
X-1001345Y3327219D01*
X-1006460Y3335252D01*
X-1008710Y3342443D01*
X-1001272Y3353576D01*
X-998634Y3366839D01*
X-987027Y3378446D01*
X-974510Y3383631D01*
X-961851Y3396289D01*
X-955000Y3412829D01*
Y3430731D01*
X-961851Y3447270D01*
X-974510Y3459929D01*
X-991049Y3466780D01*
X-1008951D01*
X-1025491Y3459929D01*
X-1038149Y3447270D01*
X-1043334Y3434753D01*
X-1060000Y3418087D01*
X-1080000Y3426371D01*
Y3433951D01*
X-1086851Y3450490D01*
X-1099510Y3463149D01*
X-1116049Y3470000D01*
X-1133951D01*
X-1150491Y3463149D01*
X-1163149Y3450490D01*
X-1170000Y3433951D01*
X-1187829Y3422500D01*
X-1205731D01*
X-1222271Y3415649D01*
X-1229718Y3408202D01*
X-1245601D01*
X-1260837Y3405171D01*
X-1273754Y3396540D01*
X-1333270Y3337024D01*
X-1341901Y3324108D01*
X-1344932Y3308871D01*
Y3174734D01*
X-1341901Y3159497D01*
X-1333270Y3146580D01*
X-1197587Y3010896D01*
X-1184670Y3002266D01*
X-1177696Y3000879D01*
X-1000765Y2823947D01*
Y2268192D01*
X-1015650Y2253307D01*
X-1044047Y2281704D01*
X-1056964Y2290335D01*
X-1072200Y2293365D01*
X-1273800D01*
X-1289037Y2290335D01*
X-1301953Y2281704D01*
X-1348580Y2235077D01*
X-1353890Y2236500D01*
X-1373111D01*
X-1391677Y2231525D01*
X-1408323Y2221915D01*
X-1421915Y2208323D01*
X-1431525Y2191677D01*
X-1436500Y2173111D01*
Y2153890D01*
X-1431525Y2135323D01*
X-1428163Y2129500D01*
X-1439710Y2109500D01*
X-1563500D01*
Y1963500D01*
X-1467968D01*
X-1309634Y1805167D01*
X-1298057Y1797431D01*
X-1284400Y1794714D01*
X-1024131D01*
X-1010475Y1797431D01*
X-998898Y1805167D01*
X-951250Y1852814D01*
X-731088D01*
X-717432Y1855531D01*
X-705855Y1863267D01*
X-637757Y1931364D01*
X-624510Y1936851D01*
X-611851Y1949510D01*
X-606364Y1962757D01*
X-549767Y2019354D01*
X-542031Y2030932D01*
X-539315Y2044588D01*
Y2719588D01*
X-542031Y2733244D01*
X-549767Y2744822D01*
X-564315Y2759369D01*
Y3397046D01*
X-561851Y3399510D01*
X-555000Y3416049D01*
Y3433951D01*
X-561851Y3450490D01*
X-574510Y3463149D01*
X-591049Y3470000D01*
D02*
G37*
%LPD*%
G36*
X-734148Y3118949D02*
X-727225Y3112026D01*
X-723479Y3102981D01*
Y3093192D01*
X-726143Y3086760D01*
X-727696Y3078957D01*
Y3042481D01*
X-727696Y3042480D01*
X-726143Y3034676D01*
X-721723Y3028060D01*
X-721722Y3028060D01*
X-671617Y2977954D01*
X-668331Y2975758D01*
X-668306Y2975729D01*
X-668227Y2975689D01*
X-665002Y2973534D01*
X-663491Y2972908D01*
X-662299Y2972671D01*
X-661216Y2972119D01*
X-658428Y2971901D01*
X-655688Y2971355D01*
X-655686Y2971355D01*
X-653068Y2971366D01*
X-642339Y2964858D01*
X-640183Y2962906D01*
X-635686Y2957066D01*
Y2744588D01*
X-632970Y2730932D01*
X-627244Y2722363D01*
X-626610Y2720318D01*
X-626836Y2714108D01*
X-631851Y2697687D01*
X-641338Y2692616D01*
X-643654Y2690715D01*
X-646145Y2689051D01*
X-646707Y2688210D01*
X-647488Y2687568D01*
X-648901Y2684926D01*
X-650565Y2682435D01*
X-650762Y2681444D01*
X-651239Y2680551D01*
X-651533Y2677568D01*
X-652117Y2674632D01*
Y2615000D01*
X-692900Y2615000D01*
Y2780878D01*
X-694453Y2788681D01*
X-697117Y2795113D01*
Y2804902D01*
X-694453Y2811334D01*
X-692900Y2819138D01*
Y2930878D01*
X-694453Y2938681D01*
X-696034Y2942500D01*
X-696034Y2942501D01*
X-700455Y2949116D01*
X-761086Y3009747D01*
X-766558Y3017936D01*
X-768479Y3027593D01*
Y3078957D01*
X-770031Y3086760D01*
X-772695Y3093192D01*
Y3102981D01*
X-768949Y3112026D01*
X-762026Y3118949D01*
X-752982Y3122695D01*
X-743193D01*
X-734148Y3118949D01*
D02*
G37*
G36*
X-610686Y2684628D02*
Y2059370D01*
X-650056Y2020000D01*
X-658951D01*
X-675491Y2013149D01*
X-688149Y2000491D01*
X-695000Y1983951D01*
Y1975055D01*
X-745870Y1924186D01*
X-892006D01*
X-899660Y1942664D01*
X-684689Y2157635D01*
X-674510Y2161851D01*
X-661851Y2174509D01*
X-655000Y2191049D01*
Y2208951D01*
X-657304Y2214511D01*
Y2267726D01*
X-643671Y2281359D01*
X-643670Y2281359D01*
X-634829Y2294591D01*
X-631725Y2310198D01*
X-631725Y2310199D01*
Y2674632D01*
X-611725Y2685322D01*
X-610686Y2684628D01*
D02*
G37*
D15*
X2290500Y2163500D02*
D03*
Y2036500D02*
D03*
X2163500Y2163500D02*
D03*
Y2036500D02*
D03*
X2036500Y2163500D02*
D03*
Y2036500D02*
D03*
X1909500Y2163500D02*
D03*
X-1109500D02*
D03*
Y2036500D02*
D03*
X-1236500Y2163500D02*
D03*
Y2036500D02*
D03*
X-1363500Y2163500D02*
D03*
Y2036500D02*
D03*
X-1490500Y2163500D02*
D03*
X-4509500D02*
D03*
Y2036500D02*
D03*
X-4636500Y2163500D02*
D03*
Y2036500D02*
D03*
X-4763500Y2163500D02*
D03*
Y2036500D02*
D03*
X-4890500Y2163500D02*
D03*
D16*
X1909500Y2036500D02*
D03*
X-1490500D02*
D03*
X-4890500D02*
D03*
D17*
X50000Y1836500D02*
D03*
Y1963500D02*
D03*
Y3786500D02*
D03*
Y3913500D02*
D03*
X-3349999Y1836500D02*
D03*
Y1963500D02*
D03*
Y3786500D02*
D03*
Y3913500D02*
D03*
X4800000Y1963500D02*
D03*
Y1836500D02*
D03*
X3450000Y3786500D02*
D03*
Y3913500D02*
D03*
Y1836500D02*
D03*
Y1963500D02*
D03*
D18*
X-2619000Y6881000D02*
D03*
Y6627000D02*
D03*
Y6373000D02*
D03*
Y6119000D02*
D03*
X-3381000Y6881000D02*
D03*
Y6627000D02*
D03*
Y6373000D02*
D03*
Y6119000D02*
D03*
X381000Y6881000D02*
D03*
Y6627000D02*
D03*
Y6373000D02*
D03*
Y6119000D02*
D03*
X-381000Y6881000D02*
D03*
Y6627000D02*
D03*
Y6373000D02*
D03*
Y6119000D02*
D03*
X3381000Y6881000D02*
D03*
Y6627000D02*
D03*
Y6373000D02*
D03*
Y6119000D02*
D03*
X2619000Y6881000D02*
D03*
Y6627000D02*
D03*
Y6373000D02*
D03*
Y6119000D02*
D03*
D19*
X-3000000Y6500000D02*
D03*
X0D02*
D03*
X3000000D02*
D03*
D20*
X-5700000Y2000000D02*
D03*
Y5000000D02*
D03*
X5700000Y2000000D02*
D03*
Y5000000D02*
D03*
X-5700000Y4000000D02*
D03*
X5700000D02*
D03*
X-1400000Y6600000D02*
D03*
X1400000D02*
D03*
X2100000Y2700000D02*
D03*
X-1300000D02*
D03*
X-4700000D02*
D03*
D21*
X4419000Y6781000D02*
D03*
X4673000D02*
D03*
X4927000D02*
D03*
X5181000D02*
D03*
Y6019000D02*
D03*
X4927000D02*
D03*
X4673000D02*
D03*
X-5181000Y981000D02*
D03*
X-4927000D02*
D03*
X-4673000D02*
D03*
X-4419000D02*
D03*
Y219000D02*
D03*
X-4673000D02*
D03*
X-4927000D02*
D03*
X4419000Y981000D02*
D03*
X4673000D02*
D03*
X4927000D02*
D03*
X5181000D02*
D03*
Y219000D02*
D03*
X4927000D02*
D03*
X4673000D02*
D03*
X-5181000Y6781000D02*
D03*
X-4927000D02*
D03*
X-4673000D02*
D03*
X-4419000D02*
D03*
Y6019000D02*
D03*
X-4673000D02*
D03*
X-4927000D02*
D03*
D22*
X4419000D02*
D03*
X-5181000Y219000D02*
D03*
X4419000D02*
D03*
X-5181000Y6019000D02*
D03*
D23*
X-5700000Y3809500D02*
D03*
Y4190500D02*
D03*
X-5509500Y4000000D02*
D03*
X-5890500D02*
D03*
X5890500D02*
D03*
X5509500D02*
D03*
X5700000Y4190500D02*
D03*
Y3809500D02*
D03*
X-1400000Y6409500D02*
D03*
Y6790500D02*
D03*
X-1209500Y6600000D02*
D03*
X-1590500D02*
D03*
X1400000Y6409500D02*
D03*
Y6790500D02*
D03*
X1590500Y6600000D02*
D03*
X1209500D02*
D03*
X1909500Y2700000D02*
D03*
X2290500D02*
D03*
X2100000Y2890500D02*
D03*
Y2509500D02*
D03*
X-1490500Y2700000D02*
D03*
X-1109500D02*
D03*
X-1300000Y2890500D02*
D03*
Y2509500D02*
D03*
X-4890500Y2700000D02*
D03*
X-4509500D02*
D03*
X-4700000Y2890500D02*
D03*
Y2509500D02*
D03*
D24*
X700000Y3175000D02*
D03*
X850000Y3225000D02*
D03*
X650000Y3325000D02*
D03*
X350000D02*
D03*
X1050000D02*
D03*
X900000Y3175000D02*
D03*
X800000D02*
D03*
X300000D02*
D03*
X500000D02*
D03*
X1050000Y3225000D02*
D03*
X250000Y3325000D02*
D03*
X900000Y3275000D02*
D03*
X1000000Y3175000D02*
D03*
X750000Y3225000D02*
D03*
X950000D02*
D03*
X250000D02*
D03*
X700000Y3275000D02*
D03*
X800000D02*
D03*
X1000000D02*
D03*
X750000Y3325000D02*
D03*
X850000D02*
D03*
X950000D02*
D03*
X400000Y3175000D02*
D03*
X600000D02*
D03*
X350000Y3225000D02*
D03*
X550000D02*
D03*
X450000D02*
D03*
X650000D02*
D03*
X500000Y3275000D02*
D03*
X400000D02*
D03*
X300000D02*
D03*
X600000D02*
D03*
X450000Y3325000D02*
D03*
X550000D02*
D03*
X-2350000D02*
D03*
X-2400000Y3275000D02*
D03*
X-2350000Y3225000D02*
D03*
X-2400000Y3175000D02*
D03*
X-2550000Y3325000D02*
D03*
X-2450000D02*
D03*
X-2600000Y3275000D02*
D03*
X-2650000Y3325000D02*
D03*
X-2750000D02*
D03*
X-2700000Y3275000D02*
D03*
X-2800000D02*
D03*
X-2500000D02*
D03*
X-2450000Y3225000D02*
D03*
X-2550000D02*
D03*
X-2500000Y3175000D02*
D03*
X-2600000D02*
D03*
X-2650000Y3225000D02*
D03*
X-2750000D02*
D03*
X-2700000Y3175000D02*
D03*
X-2800000D02*
D03*
X-2850000Y3325000D02*
D03*
X-2950000D02*
D03*
X-3150000D02*
D03*
X-3050000D02*
D03*
X-3100000Y3275000D02*
D03*
X-2900000D02*
D03*
X-2850000Y3225000D02*
D03*
X-2950000D02*
D03*
X-2900000Y3175000D02*
D03*
X-3000000D02*
D03*
Y3275000D02*
D03*
X-3150000Y3225000D02*
D03*
X-3050000D02*
D03*
X-3100000Y3175000D02*
D03*
X-3400000Y5250000D02*
D03*
X-3300000D02*
D03*
X-3200000D02*
D03*
X5150000Y6600000D02*
D03*
X5050000D02*
D03*
X5200000Y6550000D02*
D03*
X5100000D02*
D03*
X4950000Y6600000D02*
D03*
X4900000Y6550000D02*
D03*
X4850000Y6600000D02*
D03*
X5000000Y6550000D02*
D03*
X4950000Y6500000D02*
D03*
X5150000D02*
D03*
X5200000Y6450000D02*
D03*
X5100000D02*
D03*
X5150000Y6400000D02*
D03*
X5050000D02*
D03*
Y6500000D02*
D03*
X4900000Y6450000D02*
D03*
X5000000D02*
D03*
X4950000Y6400000D02*
D03*
X4750000Y6600000D02*
D03*
X4800000Y6550000D02*
D03*
X4700000D02*
D03*
X4650000Y6600000D02*
D03*
X4600000Y6550000D02*
D03*
X4550000Y6600000D02*
D03*
X4650000Y6500000D02*
D03*
X4550000D02*
D03*
X4850000D02*
D03*
X4800000Y6450000D02*
D03*
X4750000Y6500000D02*
D03*
X4850000Y6400000D02*
D03*
X4750000D02*
D03*
X4700000Y6450000D02*
D03*
X4600000D02*
D03*
X4650000Y6400000D02*
D03*
X4550000D02*
D03*
X5100000Y6350000D02*
D03*
X5200000D02*
D03*
X5000000D02*
D03*
X5150000Y6300000D02*
D03*
X5050000D02*
D03*
X4900000Y6350000D02*
D03*
X4950000Y6300000D02*
D03*
X4850000D02*
D03*
X4900000Y6250000D02*
D03*
X4800000D02*
D03*
X5100000D02*
D03*
X5200000D02*
D03*
X5050000Y6200000D02*
D03*
X5150000D02*
D03*
X5000000Y6250000D02*
D03*
X4850000Y6200000D02*
D03*
X4950000D02*
D03*
X4800000Y6350000D02*
D03*
X4750000Y6300000D02*
D03*
X4700000Y6350000D02*
D03*
Y6250000D02*
D03*
X4650000Y6200000D02*
D03*
X4600000Y6350000D02*
D03*
X4650000Y6300000D02*
D03*
X4550000D02*
D03*
X4600000Y6250000D02*
D03*
X4550000Y6200000D02*
D03*
X4750000D02*
D03*
Y5500000D02*
D03*
X4700000Y5450000D02*
D03*
Y5550000D02*
D03*
X4600000D02*
D03*
X4650000Y5500000D02*
D03*
X4550000D02*
D03*
X4500000Y6550000D02*
D03*
X4450000Y6500000D02*
D03*
Y6600000D02*
D03*
X4500000Y6450000D02*
D03*
X4450000Y6400000D02*
D03*
X4400000Y6550000D02*
D03*
X4350000Y6500000D02*
D03*
Y6600000D02*
D03*
X4400000Y6450000D02*
D03*
X4350000Y6400000D02*
D03*
X4500000Y6350000D02*
D03*
Y6250000D02*
D03*
X4450000Y6300000D02*
D03*
X4500000Y5550000D02*
D03*
X4450000Y6200000D02*
D03*
X4400000Y6250000D02*
D03*
Y6350000D02*
D03*
Y5550000D02*
D03*
X4350000Y6200000D02*
D03*
Y6300000D02*
D03*
X1300000Y5550000D02*
D03*
X1200000D02*
D03*
X800000D02*
D03*
X900000D02*
D03*
X700000D02*
D03*
X1100000D02*
D03*
X1000000D02*
D03*
X3700000D02*
D03*
X3800000D02*
D03*
X3600000D02*
D03*
X4300000D02*
D03*
X4200000D02*
D03*
X3500000D02*
D03*
X3400000D02*
D03*
X4100000D02*
D03*
X4050000Y5500000D02*
D03*
X4000000Y5550000D02*
D03*
X4250000Y5500000D02*
D03*
X4150000D02*
D03*
X3900000Y5550000D02*
D03*
X3750000Y5500000D02*
D03*
X3650000D02*
D03*
X3950000D02*
D03*
X3850000D02*
D03*
X4350000D02*
D03*
X4450000D02*
D03*
X4000000Y5450000D02*
D03*
X4200000D02*
D03*
X4100000D02*
D03*
X3700000D02*
D03*
X3600000D02*
D03*
X3900000D02*
D03*
X3800000D02*
D03*
X1350000Y5500000D02*
D03*
X3350000D02*
D03*
X1250000D02*
D03*
X3550000D02*
D03*
X3450000D02*
D03*
X850000D02*
D03*
X950000D02*
D03*
X750000D02*
D03*
X1150000D02*
D03*
X1050000D02*
D03*
X1200000Y5450000D02*
D03*
X1300000D02*
D03*
X1100000D02*
D03*
X3500000D02*
D03*
X3400000D02*
D03*
X800000D02*
D03*
X700000D02*
D03*
X1000000D02*
D03*
X900000D02*
D03*
X4600000D02*
D03*
X4550000Y5400000D02*
D03*
X4500000Y5450000D02*
D03*
X4750000Y5400000D02*
D03*
X4650000D02*
D03*
X4400000Y5450000D02*
D03*
X4450000Y5400000D02*
D03*
X4350000D02*
D03*
X4400000Y5350000D02*
D03*
X4300000D02*
D03*
X4700000D02*
D03*
X4650000Y5300000D02*
D03*
X4600000Y5350000D02*
D03*
X4750000Y5300000D02*
D03*
X4500000Y5350000D02*
D03*
X4350000Y5300000D02*
D03*
X4550000D02*
D03*
X4450000D02*
D03*
X4300000Y5450000D02*
D03*
X4250000Y5400000D02*
D03*
X4150000D02*
D03*
X4200000Y5350000D02*
D03*
X4100000D02*
D03*
X3950000Y5400000D02*
D03*
X4050000D02*
D03*
X3900000Y5350000D02*
D03*
X4000000D02*
D03*
X3850000Y5300000D02*
D03*
X4150000D02*
D03*
X4250000D02*
D03*
X4100000Y5250000D02*
D03*
X4300000D02*
D03*
X4200000D02*
D03*
X4050000Y5300000D02*
D03*
X3950000D02*
D03*
X4000000Y5250000D02*
D03*
X3900000D02*
D03*
X4500000D02*
D03*
X4600000D02*
D03*
X4400000D02*
D03*
X4700000D02*
D03*
X4450000Y3325000D02*
D03*
X4400000Y3275000D02*
D03*
X4450000Y3225000D02*
D03*
X4400000Y3175000D02*
D03*
X4350000Y3325000D02*
D03*
X4300000Y3275000D02*
D03*
X4350000Y3225000D02*
D03*
X4300000Y3175000D02*
D03*
X4150000Y3325000D02*
D03*
X4250000D02*
D03*
X4200000Y3275000D02*
D03*
X4100000D02*
D03*
X3950000Y3325000D02*
D03*
X4050000D02*
D03*
X3850000D02*
D03*
X4000000Y3275000D02*
D03*
X3900000D02*
D03*
X4150000Y3225000D02*
D03*
X4250000D02*
D03*
X4200000Y3175000D02*
D03*
X4100000D02*
D03*
X4050000Y3225000D02*
D03*
X3950000D02*
D03*
X4000000Y3175000D02*
D03*
X3900000D02*
D03*
X3650000Y5400000D02*
D03*
X3750000D02*
D03*
X3550000D02*
D03*
X3850000D02*
D03*
X3500000Y5350000D02*
D03*
X3350000Y5400000D02*
D03*
X3450000D02*
D03*
X1350000D02*
D03*
X3400000Y5350000D02*
D03*
X1300000D02*
D03*
X3700000D02*
D03*
X3800000D02*
D03*
X3600000D02*
D03*
X3750000Y5300000D02*
D03*
X3650000D02*
D03*
X3350000D02*
D03*
X1350000D02*
D03*
X3550000D02*
D03*
X3450000D02*
D03*
X1050000Y5400000D02*
D03*
X1150000D02*
D03*
X950000D02*
D03*
X1250000D02*
D03*
X1000000Y5350000D02*
D03*
X750000Y5400000D02*
D03*
X850000D02*
D03*
X700000Y5350000D02*
D03*
X900000D02*
D03*
X800000D02*
D03*
X1200000D02*
D03*
X1150000Y5300000D02*
D03*
X1100000Y5350000D02*
D03*
X1250000Y5300000D02*
D03*
X1200000Y5250000D02*
D03*
X850000Y5300000D02*
D03*
X750000D02*
D03*
X1050000D02*
D03*
X950000D02*
D03*
X3700000Y5250000D02*
D03*
X3800000D02*
D03*
X3600000D02*
D03*
X3650000Y3325000D02*
D03*
X1300000Y5250000D02*
D03*
X3400000D02*
D03*
X1100000D02*
D03*
X3500000D02*
D03*
X3800000Y3275000D02*
D03*
X3750000Y3225000D02*
D03*
Y3325000D02*
D03*
X3850000Y3225000D02*
D03*
X3800000Y3175000D02*
D03*
X3700000Y3275000D02*
D03*
Y3175000D02*
D03*
X3650000Y3225000D02*
D03*
X900000Y5250000D02*
D03*
X1000000D02*
D03*
X800000D02*
D03*
X700000D02*
D03*
X-2300000Y5550000D02*
D03*
X-2200000D02*
D03*
X-2400000D02*
D03*
X0D02*
D03*
X-2100000D02*
D03*
X-2800000D02*
D03*
X-2700000D02*
D03*
X-2900000D02*
D03*
X-2500000D02*
D03*
X-2600000D02*
D03*
X400000D02*
D03*
X500000D02*
D03*
X300000D02*
D03*
X600000D02*
D03*
X350000Y5500000D02*
D03*
X200000Y5550000D02*
D03*
X100000D02*
D03*
X-4350000Y6550000D02*
D03*
Y6450000D02*
D03*
Y6350000D02*
D03*
X-4400000Y6400000D02*
D03*
Y6600000D02*
D03*
Y6500000D02*
D03*
X-4450000Y6450000D02*
D03*
X-4400000Y6300000D02*
D03*
X-4450000Y6250000D02*
D03*
X-3300000Y5550000D02*
D03*
X-3200000D02*
D03*
X-3000000D02*
D03*
X-3100000D02*
D03*
X-4350000Y6250000D02*
D03*
X-4400000Y6200000D02*
D03*
X-3400000Y5550000D02*
D03*
X250000Y5500000D02*
D03*
X450000D02*
D03*
X150000D02*
D03*
X650000D02*
D03*
X550000D02*
D03*
X-2150000D02*
D03*
X-2050000D02*
D03*
X-2250000D02*
D03*
X50000D02*
D03*
X-50000D02*
D03*
X300000Y5450000D02*
D03*
X400000D02*
D03*
X200000D02*
D03*
X600000D02*
D03*
X500000D02*
D03*
X-2100000D02*
D03*
X-2200000D02*
D03*
X100000D02*
D03*
X0D02*
D03*
X-2850000Y5500000D02*
D03*
X-2750000D02*
D03*
X-2950000D02*
D03*
X-2550000D02*
D03*
X-2650000D02*
D03*
X-3350000D02*
D03*
X-3250000D02*
D03*
X-3450000D02*
D03*
X-3050000D02*
D03*
X-3150000D02*
D03*
X-2450000D02*
D03*
X-2350000D02*
D03*
X-3000000Y5450000D02*
D03*
X-2500000D02*
D03*
X-2900000D02*
D03*
X-3300000D02*
D03*
X-3400000D02*
D03*
X-3100000D02*
D03*
X-3200000D02*
D03*
X-4600000Y6600000D02*
D03*
X-4500000D02*
D03*
X-4450000Y6550000D02*
D03*
X-4550000D02*
D03*
X-4700000Y6600000D02*
D03*
X-4750000Y6550000D02*
D03*
X-4800000Y6600000D02*
D03*
X-4650000Y6550000D02*
D03*
X-4800000Y6500000D02*
D03*
X-4600000D02*
D03*
X-4500000D02*
D03*
X-4650000Y6450000D02*
D03*
X-4550000D02*
D03*
X-4600000Y6400000D02*
D03*
X-4700000Y6500000D02*
D03*
X-4850000Y6450000D02*
D03*
X-4700000Y6400000D02*
D03*
X-4750000Y6450000D02*
D03*
X-4900000Y6600000D02*
D03*
X-5000000D02*
D03*
X-4850000Y6550000D02*
D03*
X-4950000D02*
D03*
X-5200000Y6600000D02*
D03*
X-5100000D02*
D03*
X-5050000Y6550000D02*
D03*
X-5150000D02*
D03*
X-5000000Y6500000D02*
D03*
X-4900000D02*
D03*
X-5050000Y6450000D02*
D03*
X-4950000D02*
D03*
X-5000000Y6400000D02*
D03*
X-5100000Y6500000D02*
D03*
X-5200000D02*
D03*
X-5150000Y6450000D02*
D03*
X-5200000Y6400000D02*
D03*
X-4500000D02*
D03*
X-4450000Y6350000D02*
D03*
X-4550000D02*
D03*
X-4500000Y6300000D02*
D03*
X-4600000D02*
D03*
X-4750000Y6350000D02*
D03*
X-4650000D02*
D03*
X-4800000Y6400000D02*
D03*
X-4700000Y6300000D02*
D03*
X-4800000D02*
D03*
X-4550000Y6250000D02*
D03*
X-4600000Y6200000D02*
D03*
X-4650000Y6250000D02*
D03*
X-4500000Y6200000D02*
D03*
X-4750000Y6250000D02*
D03*
X-4850000D02*
D03*
X-4700000Y6200000D02*
D03*
X-4800000D02*
D03*
X-4900000Y6400000D02*
D03*
X-4850000Y6350000D02*
D03*
X-4950000D02*
D03*
X-4900000Y6300000D02*
D03*
X-5000000D02*
D03*
X-5100000Y6400000D02*
D03*
X-5050000Y6350000D02*
D03*
X-5150000D02*
D03*
X-5100000Y6300000D02*
D03*
X-5200000D02*
D03*
X-4950000Y6250000D02*
D03*
X-5000000Y6200000D02*
D03*
X-5050000Y6250000D02*
D03*
X-4900000Y6200000D02*
D03*
X-5150000Y6250000D02*
D03*
X-5200000Y6200000D02*
D03*
X-5100000D02*
D03*
X450000Y5400000D02*
D03*
X550000D02*
D03*
X350000D02*
D03*
X650000D02*
D03*
X400000Y5350000D02*
D03*
X150000Y5400000D02*
D03*
X250000D02*
D03*
X100000Y5350000D02*
D03*
X300000D02*
D03*
X200000D02*
D03*
X500000D02*
D03*
X600000D02*
D03*
X450000Y5300000D02*
D03*
X650000D02*
D03*
X550000D02*
D03*
X150000D02*
D03*
X50000D02*
D03*
X350000D02*
D03*
X250000D02*
D03*
X-2150000Y5400000D02*
D03*
X-2050000D02*
D03*
X-2250000D02*
D03*
X50000D02*
D03*
X-50000D02*
D03*
X-2300000Y5450000D02*
D03*
X-2350000Y5400000D02*
D03*
X-2400000Y5450000D02*
D03*
X-2300000Y5350000D02*
D03*
X-2400000D02*
D03*
X-2100000D02*
D03*
X0D02*
D03*
X-2150000Y5300000D02*
D03*
X-50000D02*
D03*
X-2050000D02*
D03*
X-2200000Y5350000D02*
D03*
X-2450000Y5300000D02*
D03*
X-2250000D02*
D03*
X-2350000D02*
D03*
X600000Y5250000D02*
D03*
X500000D02*
D03*
X400000D02*
D03*
X100000D02*
D03*
X200000D02*
D03*
X0D02*
D03*
X300000D02*
D03*
X-2300000D02*
D03*
X-2200000D02*
D03*
X-2400000D02*
D03*
X-2100000D02*
D03*
X-2600000Y5450000D02*
D03*
X-2650000Y5400000D02*
D03*
X-2700000Y5450000D02*
D03*
X-2450000Y5400000D02*
D03*
X-2550000D02*
D03*
X-2800000Y5450000D02*
D03*
X-2850000Y5400000D02*
D03*
X-2950000D02*
D03*
X-2750000D02*
D03*
X-2900000Y5350000D02*
D03*
X-2600000D02*
D03*
X-2500000D02*
D03*
X-2700000D02*
D03*
X-2550000Y5300000D02*
D03*
X-2650000D02*
D03*
X-2800000Y5350000D02*
D03*
X-2950000Y5300000D02*
D03*
X-2750000D02*
D03*
X-2850000D02*
D03*
X-3150000Y5400000D02*
D03*
X-3050000D02*
D03*
X-3200000Y5350000D02*
D03*
X-3000000D02*
D03*
X-3100000D02*
D03*
X-3350000Y5400000D02*
D03*
X-3250000D02*
D03*
X-3450000D02*
D03*
X-3300000Y5350000D02*
D03*
X-3400000D02*
D03*
X-3150000Y5300000D02*
D03*
X-3050000D02*
D03*
X-3250000D02*
D03*
X-3100000Y5250000D02*
D03*
X-3350000Y5300000D02*
D03*
X-3450000D02*
D03*
X-2500000Y5250000D02*
D03*
X-2600000D02*
D03*
X-2700000D02*
D03*
X-2900000D02*
D03*
X-2800000D02*
D03*
X-3000000D02*
D03*
X-5100000Y450000D02*
D03*
X-5200000D02*
D03*
X-5050000Y500000D02*
D03*
X-4900000Y450000D02*
D03*
X-5000000D02*
D03*
X-4850000Y500000D02*
D03*
X-4950000D02*
D03*
X-5150000D02*
D03*
X-5100000Y550000D02*
D03*
X-5200000D02*
D03*
X-5050000Y600000D02*
D03*
X-5150000D02*
D03*
X-5000000Y550000D02*
D03*
X-4900000D02*
D03*
X-5000000Y650000D02*
D03*
X-4950000Y600000D02*
D03*
X-4900000Y650000D02*
D03*
X-4700000Y450000D02*
D03*
X-4600000D02*
D03*
X-4800000D02*
D03*
X-4650000Y500000D02*
D03*
X-4750000D02*
D03*
X-4400000Y450000D02*
D03*
X-4550000Y500000D02*
D03*
X-4500000Y450000D02*
D03*
X-4450000Y500000D02*
D03*
X-4800000Y550000D02*
D03*
X-4700000D02*
D03*
X-4850000Y600000D02*
D03*
X-4650000D02*
D03*
X-4750000D02*
D03*
X-4600000Y550000D02*
D03*
X-4500000D02*
D03*
X-4600000Y650000D02*
D03*
X-4450000Y600000D02*
D03*
X-4550000D02*
D03*
X-5200000Y650000D02*
D03*
X-5100000D02*
D03*
X-5200000Y750000D02*
D03*
X-5150000Y700000D02*
D03*
X-5100000Y750000D02*
D03*
X-4950000Y700000D02*
D03*
X-4850000D02*
D03*
X-5050000D02*
D03*
X-4900000Y750000D02*
D03*
X-5000000D02*
D03*
X-5150000Y800000D02*
D03*
X-5050000D02*
D03*
X-5100000Y850000D02*
D03*
X-5200000D02*
D03*
X-4950000Y800000D02*
D03*
X-4850000D02*
D03*
X-5000000Y850000D02*
D03*
X-4900000D02*
D03*
X-4800000Y650000D02*
D03*
X-4700000D02*
D03*
X-4750000Y700000D02*
D03*
X-4650000D02*
D03*
X-4700000Y750000D02*
D03*
X-4500000Y650000D02*
D03*
X-4450000Y700000D02*
D03*
X-4600000Y750000D02*
D03*
X-4550000Y700000D02*
D03*
X-4500000Y750000D02*
D03*
X-4800000D02*
D03*
X-4650000Y800000D02*
D03*
X-4800000Y850000D02*
D03*
X-4750000Y800000D02*
D03*
X-4700000Y850000D02*
D03*
X-4550000Y800000D02*
D03*
X-4450000D02*
D03*
X-4500000Y850000D02*
D03*
X-4600000D02*
D03*
X-4400000Y550000D02*
D03*
X-4400000Y650000D02*
D03*
Y850000D02*
D03*
Y750000D02*
D03*
X-4350000Y500000D02*
D03*
Y800000D02*
D03*
Y600000D02*
D03*
Y700000D02*
D03*
X-3200000Y1350000D02*
D03*
X-3400000D02*
D03*
X-3300000D02*
D03*
X-3150000Y1400000D02*
D03*
X-2900000Y1350000D02*
D03*
X-2800000D02*
D03*
X-3100000D02*
D03*
X-3000000D02*
D03*
X-2850000Y1400000D02*
D03*
X0Y1350000D02*
D03*
X100000D02*
D03*
X-2300000D02*
D03*
X-2100000D02*
D03*
X-2200000D02*
D03*
X500000D02*
D03*
X600000D02*
D03*
X200000D02*
D03*
X400000D02*
D03*
X300000D02*
D03*
X-2500000D02*
D03*
X-2400000D02*
D03*
X-2700000D02*
D03*
X-2600000D02*
D03*
X-2650000Y1400000D02*
D03*
X450000D02*
D03*
X550000D02*
D03*
X50000D02*
D03*
X350000D02*
D03*
X250000D02*
D03*
X-3050000D02*
D03*
X-2950000D02*
D03*
X-3450000D02*
D03*
X-3250000D02*
D03*
X-3350000D02*
D03*
X-2550000D02*
D03*
X-2450000D02*
D03*
X-2750000D02*
D03*
X-2500000Y1450000D02*
D03*
X-2600000D02*
D03*
X-3100000D02*
D03*
X-3000000D02*
D03*
X-3400000D02*
D03*
X-3200000D02*
D03*
X-3300000D02*
D03*
X-2800000D02*
D03*
X-2700000D02*
D03*
X-2900000D02*
D03*
X-2450000Y1500000D02*
D03*
X-2850000D02*
D03*
X-2050000Y1400000D02*
D03*
X-50000D02*
D03*
X-2350000D02*
D03*
X-2150000D02*
D03*
X-2250000D02*
D03*
X150000D02*
D03*
X650000D02*
D03*
X400000Y1450000D02*
D03*
X600000D02*
D03*
X500000D02*
D03*
X-2200000D02*
D03*
X-2100000D02*
D03*
X-2400000D02*
D03*
X-2300000D02*
D03*
X-2350000Y1500000D02*
D03*
X200000Y1450000D02*
D03*
X300000D02*
D03*
X0D02*
D03*
X100000D02*
D03*
X550000Y1500000D02*
D03*
X-3450000D02*
D03*
X-3350000D02*
D03*
X-3400000Y1550000D02*
D03*
X-3300000D02*
D03*
X-3150000Y1500000D02*
D03*
X-3050000D02*
D03*
X-3250000D02*
D03*
X-3100000Y1550000D02*
D03*
X-3200000D02*
D03*
X-3350000Y1600000D02*
D03*
X-3250000D02*
D03*
X-3450000D02*
D03*
X-3300000Y1650000D02*
D03*
X-3400000D02*
D03*
X-3150000Y1600000D02*
D03*
X-3050000D02*
D03*
X-3200000Y1650000D02*
D03*
X-3000000D02*
D03*
X-3100000D02*
D03*
X-2950000Y1500000D02*
D03*
X-2750000D02*
D03*
X-3000000Y1550000D02*
D03*
X-2800000D02*
D03*
X-2900000D02*
D03*
X-2650000Y1500000D02*
D03*
X-2550000D02*
D03*
X-2700000Y1550000D02*
D03*
X-2500000D02*
D03*
X-2600000D02*
D03*
X-2850000Y1600000D02*
D03*
X-2750000D02*
D03*
X-2950000D02*
D03*
X-2800000Y1650000D02*
D03*
X-2900000D02*
D03*
X-2650000Y1600000D02*
D03*
X-2550000D02*
D03*
X-2700000Y1650000D02*
D03*
X-2500000D02*
D03*
X-2600000D02*
D03*
X-2900000Y4525000D02*
D03*
X-3000000D02*
D03*
X-3150000Y4575000D02*
D03*
X-3100000Y4525000D02*
D03*
X-3150000Y4675000D02*
D03*
X-3100000Y4625000D02*
D03*
X-3050000Y4675000D02*
D03*
Y4575000D02*
D03*
X-2950000D02*
D03*
X-3000000Y4625000D02*
D03*
X-2900000D02*
D03*
X-2950000Y4675000D02*
D03*
X-2700000Y4525000D02*
D03*
X-2800000D02*
D03*
X-2650000Y4575000D02*
D03*
X-2750000D02*
D03*
X-2600000Y4525000D02*
D03*
X-2500000D02*
D03*
X-2550000Y4575000D02*
D03*
X-2850000D02*
D03*
X-2700000Y4625000D02*
D03*
X-2850000Y4675000D02*
D03*
X-2800000Y4625000D02*
D03*
X-2750000Y4675000D02*
D03*
X-2600000Y4625000D02*
D03*
X-2500000D02*
D03*
X-2650000Y4675000D02*
D03*
X-2450000D02*
D03*
X-2550000D02*
D03*
X-2250000Y1500000D02*
D03*
X-2150000D02*
D03*
X-2300000Y1550000D02*
D03*
X-2200000D02*
D03*
X-50000Y1500000D02*
D03*
X50000D02*
D03*
X-2100000Y1550000D02*
D03*
X-2050000Y1500000D02*
D03*
X0Y1550000D02*
D03*
X-2400000D02*
D03*
X-2150000Y1600000D02*
D03*
X-2450000D02*
D03*
X-2250000D02*
D03*
X-2350000D02*
D03*
X-50000D02*
D03*
X50000D02*
D03*
X-2100000Y1650000D02*
D03*
X-2050000Y1600000D02*
D03*
X0Y1650000D02*
D03*
X150000Y1500000D02*
D03*
X250000D02*
D03*
X100000Y1550000D02*
D03*
X300000D02*
D03*
X200000D02*
D03*
X350000Y1500000D02*
D03*
X450000D02*
D03*
X400000Y1550000D02*
D03*
X600000D02*
D03*
X500000D02*
D03*
X250000Y1600000D02*
D03*
X350000D02*
D03*
X100000Y1650000D02*
D03*
X150000Y1600000D02*
D03*
X300000Y1650000D02*
D03*
X550000Y1600000D02*
D03*
X650000D02*
D03*
X450000D02*
D03*
X600000Y1650000D02*
D03*
X500000D02*
D03*
X-2300000D02*
D03*
X-2200000D02*
D03*
X-2400000D02*
D03*
X200000D02*
D03*
X-2400000Y4525000D02*
D03*
X-2350000Y4575000D02*
D03*
X-2450000D02*
D03*
X-2400000Y4625000D02*
D03*
X-2350000Y4675000D02*
D03*
X250000Y4575000D02*
D03*
X300000Y4625000D02*
D03*
X250000Y4675000D02*
D03*
X400000Y1650000D02*
D03*
X400000Y4525000D02*
D03*
X600000D02*
D03*
X500000D02*
D03*
X300000D02*
D03*
X350000Y4575000D02*
D03*
Y4675000D02*
D03*
X400000Y4625000D02*
D03*
X450000Y4675000D02*
D03*
Y4575000D02*
D03*
X550000D02*
D03*
X500000Y4625000D02*
D03*
X600000D02*
D03*
X550000Y4675000D02*
D03*
X3700000Y1350000D02*
D03*
X3800000D02*
D03*
X3500000D02*
D03*
X3600000D02*
D03*
X4200000D02*
D03*
X4300000D02*
D03*
X3900000D02*
D03*
X4100000D02*
D03*
X4000000D02*
D03*
X1000000D02*
D03*
X1100000D02*
D03*
X700000D02*
D03*
X900000D02*
D03*
X800000D02*
D03*
X1300000D02*
D03*
X3400000D02*
D03*
X1200000D02*
D03*
X4250000Y1400000D02*
D03*
X3850000D02*
D03*
X4350000Y450000D02*
D03*
X4400000Y500000D02*
D03*
X4350000Y550000D02*
D03*
X4400000Y600000D02*
D03*
X4350000Y650000D02*
D03*
X4450000Y450000D02*
D03*
Y650000D02*
D03*
Y550000D02*
D03*
X4500000Y600000D02*
D03*
X4350000Y750000D02*
D03*
X4400000Y800000D02*
D03*
X4350000Y850000D02*
D03*
X4400000Y1350000D02*
D03*
X4350000Y1400000D02*
D03*
X4400000Y700000D02*
D03*
X4450000Y750000D02*
D03*
Y850000D02*
D03*
X4500000Y1350000D02*
D03*
X1050000Y1400000D02*
D03*
X1150000D02*
D03*
X750000D02*
D03*
X950000D02*
D03*
X850000D02*
D03*
X1350000D02*
D03*
X3350000D02*
D03*
X1250000D02*
D03*
X3400000Y1450000D02*
D03*
X1300000D02*
D03*
X900000D02*
D03*
X1000000D02*
D03*
X650000Y1500000D02*
D03*
X800000Y1450000D02*
D03*
X700000D02*
D03*
X1100000D02*
D03*
X1200000D02*
D03*
X1250000Y1500000D02*
D03*
X3450000D02*
D03*
X1350000D02*
D03*
X3750000Y1400000D02*
D03*
X3950000D02*
D03*
X3450000D02*
D03*
X3650000D02*
D03*
X3550000D02*
D03*
X4150000D02*
D03*
X4450000D02*
D03*
X4050000D02*
D03*
X4500000Y1450000D02*
D03*
X4400000D02*
D03*
X3700000D02*
D03*
X3800000D02*
D03*
X3500000D02*
D03*
X3600000D02*
D03*
X3850000Y1500000D02*
D03*
X4200000Y1450000D02*
D03*
X4300000D02*
D03*
X3900000D02*
D03*
X4100000D02*
D03*
X4000000D02*
D03*
X4550000Y450000D02*
D03*
X4650000D02*
D03*
X4500000Y500000D02*
D03*
X4600000D02*
D03*
X4700000D02*
D03*
X4750000Y450000D02*
D03*
X4800000Y500000D02*
D03*
X4550000Y550000D02*
D03*
X4650000D02*
D03*
X4550000Y650000D02*
D03*
X4600000Y600000D02*
D03*
X4650000Y650000D02*
D03*
X4750000Y550000D02*
D03*
X4800000Y600000D02*
D03*
X4700000D02*
D03*
X4850000Y650000D02*
D03*
X4750000D02*
D03*
X4950000Y450000D02*
D03*
X5050000D02*
D03*
X4850000D02*
D03*
X5000000Y500000D02*
D03*
X4900000D02*
D03*
X5150000Y450000D02*
D03*
X5100000Y500000D02*
D03*
X5200000D02*
D03*
X5150000Y550000D02*
D03*
X4850000D02*
D03*
X4950000D02*
D03*
X4900000Y600000D02*
D03*
X5000000D02*
D03*
X4950000Y650000D02*
D03*
X5050000Y550000D02*
D03*
X5200000Y600000D02*
D03*
X5050000Y650000D02*
D03*
X5100000Y600000D02*
D03*
X5150000Y650000D02*
D03*
X4500000Y700000D02*
D03*
X4600000D02*
D03*
X4500000Y800000D02*
D03*
X4550000Y750000D02*
D03*
X4600000Y800000D02*
D03*
X4700000Y700000D02*
D03*
X4750000Y750000D02*
D03*
X4650000D02*
D03*
X4700000Y800000D02*
D03*
X4750000Y850000D02*
D03*
X4550000D02*
D03*
X4600000Y1350000D02*
D03*
X4550000Y1400000D02*
D03*
X4650000Y850000D02*
D03*
X4900000Y700000D02*
D03*
X5000000D02*
D03*
X4800000D02*
D03*
X4950000Y750000D02*
D03*
X4850000D02*
D03*
X5100000Y700000D02*
D03*
X5200000D02*
D03*
X5050000Y750000D02*
D03*
X5150000D02*
D03*
X5200000Y800000D02*
D03*
X4800000D02*
D03*
X4900000D02*
D03*
X4950000Y850000D02*
D03*
X4850000D02*
D03*
X5000000Y800000D02*
D03*
X5100000D02*
D03*
X5050000Y850000D02*
D03*
X5150000D02*
D03*
X850000Y1500000D02*
D03*
X950000D02*
D03*
X750000D02*
D03*
X900000Y1550000D02*
D03*
X1050000Y1500000D02*
D03*
X1150000D02*
D03*
X1000000Y1550000D02*
D03*
X1200000D02*
D03*
X1100000D02*
D03*
X700000D02*
D03*
X800000D02*
D03*
X750000Y1600000D02*
D03*
X850000D02*
D03*
X900000Y1650000D02*
D03*
X1050000Y1600000D02*
D03*
X1150000D02*
D03*
X950000D02*
D03*
X1100000Y1650000D02*
D03*
X1000000D02*
D03*
X3350000Y1500000D02*
D03*
X3550000D02*
D03*
X1300000Y1550000D02*
D03*
X3500000D02*
D03*
X3400000D02*
D03*
X3650000Y1500000D02*
D03*
X3750000D02*
D03*
X3600000Y1550000D02*
D03*
X3700000D02*
D03*
X3750000Y1600000D02*
D03*
X3350000D02*
D03*
X3450000D02*
D03*
X1250000D02*
D03*
X1350000D02*
D03*
X3500000Y1650000D02*
D03*
X3550000Y1600000D02*
D03*
X3650000D02*
D03*
X3600000Y1650000D02*
D03*
X3800000D02*
D03*
X3700000D02*
D03*
X700000D02*
D03*
X800000D02*
D03*
X700000Y4525000D02*
D03*
X800000D02*
D03*
X1000000D02*
D03*
X850000Y4575000D02*
D03*
X900000Y4525000D02*
D03*
X950000Y4575000D02*
D03*
X650000D02*
D03*
X750000D02*
D03*
X650000Y4675000D02*
D03*
X700000Y4625000D02*
D03*
X750000Y4675000D02*
D03*
X900000Y4625000D02*
D03*
X1000000D02*
D03*
X800000D02*
D03*
X950000Y4675000D02*
D03*
X850000D02*
D03*
X1300000Y1650000D02*
D03*
X3400000D02*
D03*
X1200000D02*
D03*
X1050000Y4575000D02*
D03*
X3650000D02*
D03*
X1050000Y4675000D02*
D03*
X3700000Y4625000D02*
D03*
X3650000Y4675000D02*
D03*
X3700000Y4525000D02*
D03*
X3800000D02*
D03*
X3750000Y4675000D02*
D03*
Y4575000D02*
D03*
X3800000Y4625000D02*
D03*
X3950000Y1500000D02*
D03*
X4000000Y1550000D02*
D03*
X3800000D02*
D03*
X3900000D02*
D03*
X4150000Y1500000D02*
D03*
X4250000D02*
D03*
X4050000D02*
D03*
X4200000Y1550000D02*
D03*
X4100000D02*
D03*
X3950000Y1600000D02*
D03*
X4050000D02*
D03*
X3850000D02*
D03*
X4000000Y1650000D02*
D03*
X3900000D02*
D03*
X4150000Y1600000D02*
D03*
X4250000D02*
D03*
X4100000Y1650000D02*
D03*
X4300000D02*
D03*
X4200000D02*
D03*
X4350000Y1500000D02*
D03*
X4450000D02*
D03*
X4300000Y1550000D02*
D03*
X4500000D02*
D03*
X4400000D02*
D03*
X4550000Y1500000D02*
D03*
X4450000Y1600000D02*
D03*
X4550000D02*
D03*
X4350000D02*
D03*
X4500000Y1650000D02*
D03*
X4400000D02*
D03*
X4000000Y4525000D02*
D03*
X3900000D02*
D03*
X4100000D02*
D03*
X4150000Y4575000D02*
D03*
X3850000D02*
D03*
X3950000D02*
D03*
X3850000Y4675000D02*
D03*
X3900000Y4625000D02*
D03*
X3950000Y4675000D02*
D03*
X4050000Y4575000D02*
D03*
X4100000Y4625000D02*
D03*
X4000000D02*
D03*
X4150000Y4675000D02*
D03*
X4050000D02*
D03*
X4300000Y4525000D02*
D03*
X4400000D02*
D03*
X4200000D02*
D03*
X4250000Y4575000D02*
D03*
X4200000Y4625000D02*
D03*
X4300000D02*
D03*
X4250000Y4675000D02*
D03*
X4350000Y4575000D02*
D03*
X4450000D02*
D03*
X4350000Y4675000D02*
D03*
X4400000Y4625000D02*
D03*
X4450000Y4675000D02*
D03*
X3950000Y1900000D02*
D03*
X4300000Y1950000D02*
D03*
X4400001Y1850000D02*
D03*
X4500000D02*
D03*
X4000000Y1950000D02*
D03*
X4400001D02*
D03*
X4050000Y2000000D02*
D03*
X4150000D02*
D03*
X4350000Y1900000D02*
D03*
X4450000D02*
D03*
X4550000Y2000000D02*
D03*
X4200000Y1950000D02*
D03*
X4250000Y1900000D02*
D03*
X4450000Y2000000D02*
D03*
X4300000Y1850000D02*
D03*
X4100000Y1950000D02*
D03*
Y1850000D02*
D03*
X4550000Y1900000D02*
D03*
X4200000Y1850000D02*
D03*
X4250000Y2000000D02*
D03*
X4000000Y1850000D02*
D03*
X4150000Y1900000D02*
D03*
X3950000Y2000000D02*
D03*
X4500000Y1950000D02*
D03*
X4050000Y1900000D02*
D03*
X4350000Y2000000D02*
D03*
X3900000Y1850000D02*
D03*
Y1950000D02*
D03*
Y1750000D02*
D03*
X4050000Y1800000D02*
D03*
X4150000D02*
D03*
X4000000Y1750000D02*
D03*
X4200000D02*
D03*
X4550000Y1800000D02*
D03*
X4100000Y1750000D02*
D03*
X4300000D02*
D03*
X4250000Y1800000D02*
D03*
X4450000D02*
D03*
X4350000D02*
D03*
X4500000Y1750000D02*
D03*
X4400001D02*
D03*
X3950000Y1800000D02*
D03*
X4450000Y1700000D02*
D03*
X4550000D02*
D03*
X4350000D02*
D03*
X4150000D02*
D03*
X4250000D02*
D03*
X4050000D02*
D03*
X3850000D02*
D03*
X3950000D02*
D03*
X650000Y1900000D02*
D03*
X1000000Y1950000D02*
D03*
X1100001Y1850000D02*
D03*
X1200000D02*
D03*
X700000Y1950000D02*
D03*
X1100001D02*
D03*
X750000Y2000000D02*
D03*
X850000D02*
D03*
X1050000Y1900000D02*
D03*
X1300000Y1850000D02*
D03*
X1150000Y1900000D02*
D03*
X1250000Y2000000D02*
D03*
X900000Y1950000D02*
D03*
X950000Y1900000D02*
D03*
X1150000Y2000000D02*
D03*
X1300000Y1950000D02*
D03*
X1000000Y1850000D02*
D03*
X800000Y1950000D02*
D03*
Y1850000D02*
D03*
X1250000Y1900000D02*
D03*
X900000Y1850000D02*
D03*
X950000Y2000000D02*
D03*
X700000Y1850000D02*
D03*
X850000Y1900000D02*
D03*
X650000Y2000000D02*
D03*
X1200000Y1950000D02*
D03*
X750000Y1900000D02*
D03*
X1050000Y2000000D02*
D03*
X550000D02*
D03*
X600000Y1850000D02*
D03*
X550000Y1900000D02*
D03*
X600000Y1950000D02*
D03*
X550000Y1800000D02*
D03*
X600000Y1750000D02*
D03*
X750000Y1800000D02*
D03*
X850000D02*
D03*
X700000Y1750000D02*
D03*
X900000D02*
D03*
X1250000Y1800000D02*
D03*
X800000Y1750000D02*
D03*
X1000000D02*
D03*
X950000Y1800000D02*
D03*
X1150000D02*
D03*
X1300000Y1750000D02*
D03*
X1050000Y1800000D02*
D03*
X1200000Y1750000D02*
D03*
X1100001D02*
D03*
X650000Y1800000D02*
D03*
X1150000Y1700000D02*
D03*
X1250000D02*
D03*
X1050000D02*
D03*
X850000D02*
D03*
X950000D02*
D03*
X750000D02*
D03*
X550000D02*
D03*
X650000D02*
D03*
X-2800000Y1750000D02*
D03*
X-2700000D02*
D03*
X-2500000D02*
D03*
X-2600000D02*
D03*
X-2400000D02*
D03*
X-2100000D02*
D03*
X-2200000D02*
D03*
X-2299999D02*
D03*
X-2250000Y1700000D02*
D03*
X-2150000D02*
D03*
X-2350000D02*
D03*
X-2550000D02*
D03*
X-2450000D02*
D03*
X-2650000D02*
D03*
X-2850000D02*
D03*
X-2750000D02*
D03*
Y1900000D02*
D03*
X-2400000Y1950000D02*
D03*
X-2299999Y1850000D02*
D03*
X-2200000D02*
D03*
X-2700000Y1950000D02*
D03*
X-2299999D02*
D03*
X-2650000Y2000000D02*
D03*
X-2550000D02*
D03*
X-2350000Y1900000D02*
D03*
X-2100000Y1850000D02*
D03*
X-2250000Y1900000D02*
D03*
X-2150000Y2000000D02*
D03*
X-2500000Y1950000D02*
D03*
X-2450000Y1900000D02*
D03*
X-2250000Y2000000D02*
D03*
X-2100000Y1950000D02*
D03*
X-2400000Y1850000D02*
D03*
X-2600000Y1950000D02*
D03*
Y1850000D02*
D03*
X-2150000Y1900000D02*
D03*
X-2500000Y1850000D02*
D03*
X-2450000Y2000000D02*
D03*
X-2700000Y1850000D02*
D03*
X-2550000Y1900000D02*
D03*
X-2750000Y2000000D02*
D03*
X-2200000Y1950000D02*
D03*
X-2650000Y1900000D02*
D03*
X-2350000Y2000000D02*
D03*
X-2850000D02*
D03*
X-2800000Y1850000D02*
D03*
X-2850000Y1900000D02*
D03*
X-2800000Y1950000D02*
D03*
X-2850000Y1800000D02*
D03*
X-2650000D02*
D03*
X-2550000D02*
D03*
X-2150000D02*
D03*
X-2450000D02*
D03*
X-2250000D02*
D03*
X-2350000D02*
D03*
X-2750000D02*
D03*
X-5324551Y424538D02*
D03*
Y624539D02*
D03*
Y824539D02*
D03*
Y1224539D02*
D03*
X-5224551D02*
D03*
X-5124551D02*
D03*
X-5024551D02*
D03*
X-4924551D02*
D03*
X-4824551D02*
D03*
X-4724551D02*
D03*
X-4624551D02*
D03*
X-4524551D02*
D03*
X-4424551D02*
D03*
X-4274551Y1124539D02*
D03*
X-4324551Y1224539D02*
D03*
X-4224551Y224538D02*
D03*
X-4174551Y324538D02*
D03*
X-4224551Y424538D02*
D03*
X-4174551Y524538D02*
D03*
X-4224551Y624539D02*
D03*
X-4174551Y724539D02*
D03*
X-4224551Y824539D02*
D03*
X-4174551Y924539D02*
D03*
X-4224551Y1024539D02*
D03*
X-4174551Y1124539D02*
D03*
X-4224551Y1224539D02*
D03*
X-4124551Y224538D02*
D03*
X-4074551Y324538D02*
D03*
X-4124551Y424538D02*
D03*
X-4074551Y524538D02*
D03*
X-4124551Y624539D02*
D03*
X-4074551Y724539D02*
D03*
X-4124551Y824539D02*
D03*
X-4074551Y924539D02*
D03*
X-4124551Y1024539D02*
D03*
X-4074551Y1124539D02*
D03*
X-4124551Y1224539D02*
D03*
X-4024551Y224538D02*
D03*
X-3974551Y324538D02*
D03*
X-4024551Y424538D02*
D03*
X-3974551Y524538D02*
D03*
X-4024551Y624539D02*
D03*
X-3974551Y724539D02*
D03*
X-4024551Y824539D02*
D03*
X-3974551Y924539D02*
D03*
X-4024551Y1024539D02*
D03*
X-3974551Y1124539D02*
D03*
X-4024551Y1224539D02*
D03*
X-3924551Y224538D02*
D03*
X-3874551Y324538D02*
D03*
X-3924551Y424538D02*
D03*
X-3874551Y524538D02*
D03*
X-3924551Y624539D02*
D03*
X-3874551Y724539D02*
D03*
X-3924551Y824539D02*
D03*
X-3874551Y924539D02*
D03*
X-3924551Y1024539D02*
D03*
X-3874551Y1124539D02*
D03*
X-3924551Y1224539D02*
D03*
X-3824551Y224538D02*
D03*
X-3774551Y324538D02*
D03*
X-3824551Y424538D02*
D03*
X-3774551Y524538D02*
D03*
X-3824551Y624539D02*
D03*
X-3774551Y724539D02*
D03*
X-3824551Y824539D02*
D03*
X-3774551Y924539D02*
D03*
X-3824551Y1024539D02*
D03*
X-3774551Y1124539D02*
D03*
X-3824551Y1224539D02*
D03*
X-3724551Y224538D02*
D03*
X-3674551Y324538D02*
D03*
X-3724551Y424538D02*
D03*
X-3674551Y524538D02*
D03*
X-3724551Y624539D02*
D03*
X-3674551Y724539D02*
D03*
X-3724551Y824539D02*
D03*
X-3674551Y924539D02*
D03*
X-3724551Y1024539D02*
D03*
X-3674551Y1124539D02*
D03*
X-3724551Y1224539D02*
D03*
X-3624551Y224538D02*
D03*
X-3574551Y324538D02*
D03*
X-3624551Y424538D02*
D03*
X-3574551Y524538D02*
D03*
X-3624551Y624539D02*
D03*
X-3574551Y724539D02*
D03*
X-3624551Y824539D02*
D03*
X-3574551Y924539D02*
D03*
X-3624551Y1024539D02*
D03*
X-3574551Y1124539D02*
D03*
X-3624551Y1224539D02*
D03*
X-3524550Y224538D02*
D03*
X-3474551Y324538D02*
D03*
X-3524550Y424538D02*
D03*
X-3474551Y524538D02*
D03*
X-3524550Y624539D02*
D03*
X-3474551Y724539D02*
D03*
X-3524550Y824539D02*
D03*
X-3474551Y924539D02*
D03*
X-3524550Y1024539D02*
D03*
X-3474551Y1124539D02*
D03*
X-3524550Y1224539D02*
D03*
X-3474551Y1724539D02*
D03*
Y1924539D02*
D03*
Y2124539D02*
D03*
Y2324539D02*
D03*
Y2524540D02*
D03*
Y2724540D02*
D03*
Y2924540D02*
D03*
X-3424550Y224538D02*
D03*
X-3374551Y324538D02*
D03*
X-3424550Y424538D02*
D03*
X-3374551Y524538D02*
D03*
X-3424550Y624539D02*
D03*
X-3374551Y724539D02*
D03*
X-3424550Y824539D02*
D03*
X-3374551Y924539D02*
D03*
X-3424550Y1024539D02*
D03*
X-3374551Y1124539D02*
D03*
X-3424550Y1224539D02*
D03*
X-3374551Y2124539D02*
D03*
X-3424550Y2224539D02*
D03*
X-3374551Y2324539D02*
D03*
X-3424550Y2424539D02*
D03*
X-3374551Y2524540D02*
D03*
X-3424550Y2624540D02*
D03*
X-3374551Y2724540D02*
D03*
X-3424550Y2824540D02*
D03*
X-3324550Y224538D02*
D03*
X-3274550Y324538D02*
D03*
X-3324550Y424538D02*
D03*
X-3274550Y524538D02*
D03*
X-3324550Y624539D02*
D03*
X-3274550Y724539D02*
D03*
X-3324550Y824539D02*
D03*
X-3274550Y924539D02*
D03*
X-3324550Y1024539D02*
D03*
X-3274550Y1124539D02*
D03*
X-3324550Y1224539D02*
D03*
Y2224539D02*
D03*
X-3274550Y2324539D02*
D03*
X-3324550Y2424539D02*
D03*
X-3274550Y2524540D02*
D03*
X-3324550Y2624540D02*
D03*
X-3274550Y2724540D02*
D03*
X-3324550Y2824540D02*
D03*
X-3224550Y224538D02*
D03*
X-3174550Y324538D02*
D03*
X-3224550Y424538D02*
D03*
X-3174550Y524538D02*
D03*
X-3224550Y624539D02*
D03*
X-3174550Y724539D02*
D03*
X-3224550Y824539D02*
D03*
X-3174550Y924539D02*
D03*
X-3224550Y1024539D02*
D03*
X-3174550Y1124539D02*
D03*
X-3224550Y1224539D02*
D03*
Y2224539D02*
D03*
X-3174550Y2324539D02*
D03*
X-3224550Y2824540D02*
D03*
X-3124550Y224538D02*
D03*
X-3074550Y324538D02*
D03*
X-3124550Y424538D02*
D03*
X-3074550Y524538D02*
D03*
X-3124550Y624539D02*
D03*
X-3074550Y724539D02*
D03*
X-3124550Y824539D02*
D03*
X-3074550Y924539D02*
D03*
X-3124550Y1024539D02*
D03*
X-3074550Y1124539D02*
D03*
X-3124550Y1224539D02*
D03*
Y2224539D02*
D03*
X-3074550Y2324539D02*
D03*
X-3124550Y2824540D02*
D03*
X-3024550Y224538D02*
D03*
X-2974550Y324538D02*
D03*
X-3024550Y424538D02*
D03*
X-2974550Y524538D02*
D03*
X-3024550Y624539D02*
D03*
X-2974550Y724539D02*
D03*
X-3024550Y824539D02*
D03*
X-2974550Y924539D02*
D03*
X-3024550Y1024539D02*
D03*
X-2974550Y1124539D02*
D03*
X-3024550Y1224539D02*
D03*
Y2224539D02*
D03*
X-2974550Y2324539D02*
D03*
X-3024550Y2824540D02*
D03*
X-2924550Y224538D02*
D03*
X-2874550Y324538D02*
D03*
X-2924550Y424538D02*
D03*
X-2874550Y524538D02*
D03*
X-2924550Y624539D02*
D03*
X-2874550Y724539D02*
D03*
X-2924550Y824539D02*
D03*
X-2874550Y924539D02*
D03*
X-2924550Y1024539D02*
D03*
X-2874550Y1124539D02*
D03*
X-2924550Y1224539D02*
D03*
X-2874550Y2124539D02*
D03*
X-2924550Y2224539D02*
D03*
X-2874550Y2324539D02*
D03*
X-2924550Y2824540D02*
D03*
X-2824550Y224538D02*
D03*
X-2774550Y324538D02*
D03*
X-2824550Y424538D02*
D03*
X-2774550Y524538D02*
D03*
X-2824550Y624539D02*
D03*
X-2774550Y724539D02*
D03*
X-2824550Y824539D02*
D03*
X-2774550Y924539D02*
D03*
X-2824550Y1024539D02*
D03*
X-2774550Y1124539D02*
D03*
X-2824550Y1224539D02*
D03*
X-2774550Y2124539D02*
D03*
X-2824550Y2224539D02*
D03*
X-2774550Y2324539D02*
D03*
X-2824550Y2824540D02*
D03*
X-2724550Y224538D02*
D03*
X-2674550Y324538D02*
D03*
X-2724550Y424538D02*
D03*
X-2674550Y524538D02*
D03*
X-2724550Y624539D02*
D03*
X-2674550Y724539D02*
D03*
X-2724550Y824539D02*
D03*
X-2674550Y924539D02*
D03*
X-2724550Y1024539D02*
D03*
X-2674550Y1124539D02*
D03*
X-2724550Y1224539D02*
D03*
X-2674550Y2124539D02*
D03*
X-2724550Y2224539D02*
D03*
X-2674550Y2324539D02*
D03*
X-2724550Y2824540D02*
D03*
X-2624550Y224538D02*
D03*
X-2574550Y324538D02*
D03*
X-2624550Y424538D02*
D03*
X-2574550Y524538D02*
D03*
X-2624550Y624539D02*
D03*
X-2574550Y724539D02*
D03*
X-2624550Y824539D02*
D03*
X-2574550Y924539D02*
D03*
X-2624550Y1024539D02*
D03*
X-2574550Y1124539D02*
D03*
X-2624550Y1224539D02*
D03*
X-2574550Y2124539D02*
D03*
X-2624550Y2224539D02*
D03*
X-2574550Y2324539D02*
D03*
X-2624550Y2824540D02*
D03*
X-2524550Y224538D02*
D03*
X-2474550Y324538D02*
D03*
X-2524550Y424538D02*
D03*
X-2474550Y524538D02*
D03*
X-2524550Y624539D02*
D03*
X-2474550Y724539D02*
D03*
X-2524550Y824539D02*
D03*
X-2474550Y924539D02*
D03*
X-2524550Y1024539D02*
D03*
X-2474550Y1124539D02*
D03*
X-2524550Y1224539D02*
D03*
X-2474550Y2124539D02*
D03*
X-2524550Y2224539D02*
D03*
X-2474550Y2324539D02*
D03*
X-2524550Y2824540D02*
D03*
X-2424550Y224538D02*
D03*
X-2374550Y324538D02*
D03*
X-2424550Y424538D02*
D03*
X-2374550Y524538D02*
D03*
X-2424550Y624539D02*
D03*
X-2374550Y724539D02*
D03*
X-2424550Y824539D02*
D03*
X-2374550Y924539D02*
D03*
X-2424550Y1024539D02*
D03*
X-2374550Y1124539D02*
D03*
X-2424550Y1224539D02*
D03*
X-2374550Y2124539D02*
D03*
X-2424550Y2224539D02*
D03*
X-2374550Y2324539D02*
D03*
X-2424550Y2824540D02*
D03*
X-2324550Y224538D02*
D03*
X-2274550Y324538D02*
D03*
X-2324550Y424538D02*
D03*
X-2274550Y524538D02*
D03*
X-2324550Y624539D02*
D03*
X-2274550Y724539D02*
D03*
X-2324550Y824539D02*
D03*
X-2274550Y924539D02*
D03*
X-2324550Y1024539D02*
D03*
X-2274550Y1124539D02*
D03*
X-2324550Y1224539D02*
D03*
X-2274550Y2124539D02*
D03*
X-2324550Y2224539D02*
D03*
X-2274550Y2324539D02*
D03*
X-2324550Y2824540D02*
D03*
X-2224550Y224538D02*
D03*
X-2174550Y324538D02*
D03*
X-2224550Y424538D02*
D03*
X-2174550Y524538D02*
D03*
X-2224550Y624539D02*
D03*
X-2174550Y724539D02*
D03*
X-2224550Y824539D02*
D03*
X-2174550Y924539D02*
D03*
X-2224550Y1024539D02*
D03*
X-2174550Y1124539D02*
D03*
X-2224550Y1224539D02*
D03*
X-2174550Y2124539D02*
D03*
X-2224550Y2224539D02*
D03*
X-2174550Y2324539D02*
D03*
X-2224550Y2424539D02*
D03*
X-2174550Y2524540D02*
D03*
X-2224550Y2624540D02*
D03*
X-2174550Y2724540D02*
D03*
X-2224550Y2824540D02*
D03*
X-2124550Y224538D02*
D03*
X-2074550Y324538D02*
D03*
X-2124550Y424538D02*
D03*
X-2074550Y524538D02*
D03*
X-2124550Y624539D02*
D03*
X-2074550Y724539D02*
D03*
X-2124550Y824539D02*
D03*
X-2074550Y924539D02*
D03*
X-2124550Y1024539D02*
D03*
X-2074550Y1124539D02*
D03*
X-2124550Y1224539D02*
D03*
X-2074550Y2124539D02*
D03*
X-2124550Y2224539D02*
D03*
X-2074550Y2324539D02*
D03*
X-2124550Y2424539D02*
D03*
X-2074550Y2524540D02*
D03*
X-2124550Y2624540D02*
D03*
X-2074550Y2724540D02*
D03*
X-2124550Y2824540D02*
D03*
X-2074550Y2924540D02*
D03*
X-2024550Y224538D02*
D03*
X-1974550Y324538D02*
D03*
X-2024550Y424538D02*
D03*
X-1974550Y524538D02*
D03*
X-2024550Y624539D02*
D03*
X-1974550Y724539D02*
D03*
X-2024550Y824539D02*
D03*
X-1974550Y924539D02*
D03*
X-2024550Y1024539D02*
D03*
X-1974550Y1124539D02*
D03*
X-2024550Y1224539D02*
D03*
X-1974550Y1324539D02*
D03*
X-1924550Y224538D02*
D03*
X-1874550Y324538D02*
D03*
X-1924550Y424538D02*
D03*
X-1874550Y524538D02*
D03*
X-1924550Y624539D02*
D03*
X-1874550Y724539D02*
D03*
X-1924550Y824539D02*
D03*
X-1874550Y924539D02*
D03*
X-1924550Y1024539D02*
D03*
X-1874550Y1124539D02*
D03*
X-1924550Y1224539D02*
D03*
X-1824550Y224538D02*
D03*
X-1774550Y324538D02*
D03*
X-1824550Y424538D02*
D03*
X-1774550Y524538D02*
D03*
X-1824550Y624539D02*
D03*
X-1774550Y724539D02*
D03*
X-1824550Y824539D02*
D03*
X-1774550Y924539D02*
D03*
X-1824550Y1024539D02*
D03*
X-1774550Y1124539D02*
D03*
X-1824550Y1224539D02*
D03*
X-1724550Y224538D02*
D03*
X-1674550Y324538D02*
D03*
X-1724550Y424538D02*
D03*
X-1674550Y524538D02*
D03*
X-1724550Y624539D02*
D03*
X-1674550Y724539D02*
D03*
X-1724550Y824539D02*
D03*
X-1674550Y924539D02*
D03*
X-1724550Y1024539D02*
D03*
X-1674550Y1124539D02*
D03*
X-1724550Y1224539D02*
D03*
X-1624549Y224538D02*
D03*
X-1574550Y324538D02*
D03*
X-1624549Y424538D02*
D03*
X-1574550Y524538D02*
D03*
X-1624549Y624539D02*
D03*
X-1574550Y724539D02*
D03*
X-1624549Y824539D02*
D03*
X-1574550Y924539D02*
D03*
X-1624549Y1024539D02*
D03*
X-1574550Y1124539D02*
D03*
X-1624549Y1224539D02*
D03*
X-1524549Y224538D02*
D03*
X-1474550Y324538D02*
D03*
X-1524549Y424538D02*
D03*
X-1474550Y524538D02*
D03*
X-1524549Y624539D02*
D03*
X-1474550Y724539D02*
D03*
X-1524549Y824539D02*
D03*
X-1474550Y924539D02*
D03*
X-1524549Y1024539D02*
D03*
X-1474550Y1124539D02*
D03*
X-1524549Y1224539D02*
D03*
X-1424549Y224538D02*
D03*
X-1374549Y324538D02*
D03*
X-1424549Y424538D02*
D03*
X-1374549Y524538D02*
D03*
X-1424549Y624539D02*
D03*
X-1374549Y724539D02*
D03*
X-1424549Y824539D02*
D03*
X-1374549Y924539D02*
D03*
X-1424549Y1024539D02*
D03*
X-1374549Y1124539D02*
D03*
X-1424549Y1224539D02*
D03*
X-1324549Y224538D02*
D03*
X-1274549Y324538D02*
D03*
X-1324549Y424538D02*
D03*
X-1274549Y524538D02*
D03*
X-1324549Y624539D02*
D03*
X-1274549Y724539D02*
D03*
X-1324549Y824539D02*
D03*
X-1274549Y924539D02*
D03*
X-1324549Y1024539D02*
D03*
X-1274549Y1124539D02*
D03*
X-1324549Y1224539D02*
D03*
X-1224549Y224538D02*
D03*
X-1174549Y324538D02*
D03*
X-1224549Y424538D02*
D03*
X-1174549Y524538D02*
D03*
X-1224549Y624539D02*
D03*
X-1174549Y724539D02*
D03*
X-1224549Y824539D02*
D03*
X-1174549Y924539D02*
D03*
X-1224549Y1024539D02*
D03*
X-1174549Y1124539D02*
D03*
X-1224549Y1224539D02*
D03*
X-1124549Y224538D02*
D03*
X-1074549Y324538D02*
D03*
X-1124549Y424538D02*
D03*
X-1074549Y524538D02*
D03*
X-1124549Y624539D02*
D03*
X-1074549Y724539D02*
D03*
X-1124549Y824539D02*
D03*
X-1074549Y924539D02*
D03*
X-1124549Y1024539D02*
D03*
X-1074549Y1124539D02*
D03*
X-1124549Y1224539D02*
D03*
X-1024549Y224538D02*
D03*
X-974549Y324538D02*
D03*
X-1024549Y424538D02*
D03*
X-974549Y524538D02*
D03*
X-1024549Y624539D02*
D03*
X-974549Y724539D02*
D03*
X-1024549Y824539D02*
D03*
X-974549Y924539D02*
D03*
X-1024549Y1024539D02*
D03*
X-974549Y1124539D02*
D03*
X-1024549Y1224539D02*
D03*
X-924549Y224538D02*
D03*
X-874549Y324538D02*
D03*
X-924549Y424538D02*
D03*
X-874549Y524538D02*
D03*
X-924549Y624539D02*
D03*
X-874549Y724539D02*
D03*
X-924549Y824539D02*
D03*
X-874549Y924539D02*
D03*
X-924549Y1024539D02*
D03*
X-874549Y1124539D02*
D03*
X-924549Y1224539D02*
D03*
X-824549Y224538D02*
D03*
X-774549Y324538D02*
D03*
X-824549Y424538D02*
D03*
X-774549Y524538D02*
D03*
X-824549Y624539D02*
D03*
X-774549Y724539D02*
D03*
X-824549Y824539D02*
D03*
X-774549Y924539D02*
D03*
X-824549Y1024539D02*
D03*
X-774549Y1124539D02*
D03*
X-824549Y1224539D02*
D03*
X-724549Y224538D02*
D03*
X-674549Y324538D02*
D03*
X-724549Y424538D02*
D03*
X-674549Y524538D02*
D03*
X-724549Y624539D02*
D03*
X-674549Y724539D02*
D03*
X-724549Y824539D02*
D03*
X-674549Y924539D02*
D03*
X-724549Y1024539D02*
D03*
X-674549Y1124539D02*
D03*
X-724549Y1224539D02*
D03*
X-624549Y224538D02*
D03*
X-574549Y324538D02*
D03*
X-624549Y424538D02*
D03*
X-574549Y524538D02*
D03*
X-624549Y624539D02*
D03*
X-574549Y724539D02*
D03*
X-624549Y824539D02*
D03*
X-574549Y924539D02*
D03*
X-624549Y1024539D02*
D03*
X-574549Y1124539D02*
D03*
X-624549Y1224539D02*
D03*
X-524549Y224538D02*
D03*
X-474549Y324538D02*
D03*
X-524549Y424538D02*
D03*
X-474549Y524538D02*
D03*
X-524549Y624539D02*
D03*
X-474549Y724539D02*
D03*
X-524549Y824539D02*
D03*
X-474549Y924539D02*
D03*
X-524549Y1024539D02*
D03*
X-474549Y1124539D02*
D03*
X-524549Y1224539D02*
D03*
X-424549Y224538D02*
D03*
X-374549Y324538D02*
D03*
X-424549Y424538D02*
D03*
X-374549Y524538D02*
D03*
X-424549Y624539D02*
D03*
X-374549Y724539D02*
D03*
X-424549Y824539D02*
D03*
X-374549Y924539D02*
D03*
X-424549Y1024539D02*
D03*
X-374549Y1124539D02*
D03*
X-424549Y1224539D02*
D03*
X-324549Y224538D02*
D03*
X-274549Y324538D02*
D03*
X-324549Y424538D02*
D03*
X-274549Y524538D02*
D03*
X-324549Y624539D02*
D03*
X-274549Y724539D02*
D03*
X-324549Y824539D02*
D03*
X-274549Y924539D02*
D03*
X-324549Y1024539D02*
D03*
X-274549Y1124539D02*
D03*
X-324549Y1224539D02*
D03*
X-224549Y224538D02*
D03*
X-174549Y324538D02*
D03*
X-224549Y424538D02*
D03*
X-174549Y524538D02*
D03*
X-224549Y624539D02*
D03*
X-174549Y724539D02*
D03*
X-224549Y824539D02*
D03*
X-174549Y924539D02*
D03*
X-224549Y1024539D02*
D03*
X-174549Y1124539D02*
D03*
X-224549Y1224539D02*
D03*
X-124549Y224538D02*
D03*
X-74549Y324538D02*
D03*
X-124549Y424538D02*
D03*
X-74549Y524538D02*
D03*
X-124549Y624539D02*
D03*
X-74549Y724539D02*
D03*
X-124549Y824539D02*
D03*
X-74549Y924539D02*
D03*
X-124549Y1024539D02*
D03*
X-74549Y1124539D02*
D03*
X-124549Y1224539D02*
D03*
X-74549Y1724539D02*
D03*
Y1924539D02*
D03*
Y2124539D02*
D03*
Y2324539D02*
D03*
Y2524540D02*
D03*
Y2724540D02*
D03*
Y2924540D02*
D03*
X-24549Y224538D02*
D03*
X25451Y324538D02*
D03*
X-24549Y424538D02*
D03*
X25451Y524538D02*
D03*
X-24549Y624539D02*
D03*
X25451Y724539D02*
D03*
X-24549Y824539D02*
D03*
X25451Y924539D02*
D03*
X-24549Y1024539D02*
D03*
X25451Y1124539D02*
D03*
X-24549Y1224539D02*
D03*
X25451Y2124539D02*
D03*
X-24549Y2224539D02*
D03*
X25451Y2324539D02*
D03*
X-24549Y2424539D02*
D03*
X25451Y2524540D02*
D03*
X-24549Y2624540D02*
D03*
X25451Y2724540D02*
D03*
X-24549Y2824540D02*
D03*
X75451Y224538D02*
D03*
X125451Y324538D02*
D03*
X75451Y424538D02*
D03*
X125451Y524538D02*
D03*
X75451Y624539D02*
D03*
X125451Y724539D02*
D03*
X75451Y824539D02*
D03*
X125451Y924539D02*
D03*
X75451Y1024539D02*
D03*
X125451Y1124539D02*
D03*
X75451Y1224539D02*
D03*
Y2224539D02*
D03*
X125451Y2324539D02*
D03*
X75451Y2424539D02*
D03*
X125451Y2524540D02*
D03*
X75451Y2624540D02*
D03*
X125451Y2724540D02*
D03*
X75451Y2824540D02*
D03*
X175452Y224538D02*
D03*
X225451Y324538D02*
D03*
X175452Y424538D02*
D03*
X225451Y524538D02*
D03*
X175452Y624539D02*
D03*
X225451Y724539D02*
D03*
X175452Y824539D02*
D03*
X225451Y924539D02*
D03*
X175452Y1024539D02*
D03*
X225451Y1124539D02*
D03*
X175452Y1224539D02*
D03*
Y2224539D02*
D03*
X225451Y2324539D02*
D03*
X175452Y2824540D02*
D03*
X275452Y224538D02*
D03*
X325451Y324538D02*
D03*
X275452Y424538D02*
D03*
X325451Y524538D02*
D03*
X275452Y624539D02*
D03*
X325451Y724539D02*
D03*
X275452Y824539D02*
D03*
X325451Y924539D02*
D03*
X275452Y1024539D02*
D03*
X325451Y1124539D02*
D03*
X275452Y1224539D02*
D03*
Y2224539D02*
D03*
X325451Y2324539D02*
D03*
X275452Y2824540D02*
D03*
X375452Y224538D02*
D03*
X425452Y324538D02*
D03*
X375452Y424538D02*
D03*
X425452Y524538D02*
D03*
X375452Y624539D02*
D03*
X425452Y724539D02*
D03*
X375452Y824539D02*
D03*
X425452Y924539D02*
D03*
X375452Y1024539D02*
D03*
X425452Y1124539D02*
D03*
X375452Y1224539D02*
D03*
Y2224539D02*
D03*
X425452Y2324539D02*
D03*
X375452Y2824540D02*
D03*
X475452Y224538D02*
D03*
X525452Y324538D02*
D03*
X475452Y424538D02*
D03*
X525452Y524538D02*
D03*
X475452Y624539D02*
D03*
X525452Y724539D02*
D03*
X475452Y824539D02*
D03*
X525452Y924539D02*
D03*
X475452Y1024539D02*
D03*
X525452Y1124539D02*
D03*
X475452Y1224539D02*
D03*
X525452Y2124539D02*
D03*
X475452Y2224539D02*
D03*
X525452Y2324539D02*
D03*
X475452Y2824540D02*
D03*
X575452Y224538D02*
D03*
X625452Y324538D02*
D03*
X575452Y424538D02*
D03*
X625452Y524538D02*
D03*
X575452Y624539D02*
D03*
X625452Y724539D02*
D03*
X575452Y824539D02*
D03*
X625452Y924539D02*
D03*
X575452Y1024539D02*
D03*
X625452Y1124539D02*
D03*
X575452Y1224539D02*
D03*
X625452Y2124539D02*
D03*
X575452Y2224539D02*
D03*
X625452Y2324539D02*
D03*
X575452Y2824540D02*
D03*
X675452Y224538D02*
D03*
X725452Y324538D02*
D03*
X675452Y424538D02*
D03*
X725452Y524538D02*
D03*
X675452Y624539D02*
D03*
X725452Y724539D02*
D03*
X675452Y824539D02*
D03*
X725452Y924539D02*
D03*
X675452Y1024539D02*
D03*
X725452Y1124539D02*
D03*
X675452Y1224539D02*
D03*
X725452Y2124539D02*
D03*
X675452Y2224539D02*
D03*
X725452Y2324539D02*
D03*
X675452Y2824540D02*
D03*
X775452Y224538D02*
D03*
X825452Y324538D02*
D03*
X775452Y424538D02*
D03*
X825452Y524538D02*
D03*
X775452Y624539D02*
D03*
X825452Y724539D02*
D03*
X775452Y824539D02*
D03*
X825452Y924539D02*
D03*
X775452Y1024539D02*
D03*
X825452Y1124539D02*
D03*
X775452Y1224539D02*
D03*
X825452Y2124539D02*
D03*
X775452Y2224539D02*
D03*
X825452Y2324539D02*
D03*
X775452Y2824540D02*
D03*
X875452Y224538D02*
D03*
X925452Y324538D02*
D03*
X875452Y424538D02*
D03*
X925452Y524538D02*
D03*
X875452Y624539D02*
D03*
X925452Y724539D02*
D03*
X875452Y824539D02*
D03*
X925452Y924539D02*
D03*
X875452Y1024539D02*
D03*
X925452Y1124539D02*
D03*
X875452Y1224539D02*
D03*
X925452Y2124539D02*
D03*
X875452Y2224539D02*
D03*
X925452Y2324539D02*
D03*
X875452Y2824540D02*
D03*
X975452Y224538D02*
D03*
X1025452Y324538D02*
D03*
X975452Y424538D02*
D03*
X1025452Y524538D02*
D03*
X975452Y624539D02*
D03*
X1025452Y724539D02*
D03*
X975452Y824539D02*
D03*
X1025452Y924539D02*
D03*
X975452Y1024539D02*
D03*
X1025452Y1124539D02*
D03*
X975452Y1224539D02*
D03*
X1025452Y2124539D02*
D03*
X975452Y2224539D02*
D03*
X1025452Y2324539D02*
D03*
X975452Y2824540D02*
D03*
X1075452Y224538D02*
D03*
X1125452Y324538D02*
D03*
X1075452Y424538D02*
D03*
X1125452Y524538D02*
D03*
X1075452Y624539D02*
D03*
X1125452Y724539D02*
D03*
X1075452Y824539D02*
D03*
X1125452Y924539D02*
D03*
X1075452Y1024539D02*
D03*
X1125452Y1124539D02*
D03*
X1075452Y1224539D02*
D03*
X1125452Y2124539D02*
D03*
X1075452Y2224539D02*
D03*
X1125452Y2324539D02*
D03*
X1075452Y2824540D02*
D03*
X1175452Y224538D02*
D03*
X1225452Y324538D02*
D03*
X1175452Y424538D02*
D03*
X1225452Y524538D02*
D03*
X1175452Y624539D02*
D03*
X1225452Y724539D02*
D03*
X1175452Y824539D02*
D03*
X1225452Y924539D02*
D03*
X1175452Y1024539D02*
D03*
X1225452Y1124539D02*
D03*
X1175452Y1224539D02*
D03*
X1225452Y2124539D02*
D03*
X1175452Y2224539D02*
D03*
X1225452Y2324539D02*
D03*
X1175452Y2424539D02*
D03*
X1225452Y2524540D02*
D03*
X1175452Y2624540D02*
D03*
X1225452Y2724540D02*
D03*
X1175452Y2824540D02*
D03*
X1275452Y224538D02*
D03*
X1325452Y324538D02*
D03*
X1275452Y424538D02*
D03*
X1325452Y524538D02*
D03*
X1275452Y624539D02*
D03*
X1325452Y724539D02*
D03*
X1275452Y824539D02*
D03*
X1325452Y924539D02*
D03*
X1275452Y1024539D02*
D03*
X1325452Y1124539D02*
D03*
X1275452Y1224539D02*
D03*
X1325452Y2124539D02*
D03*
X1275452Y2224539D02*
D03*
X1325452Y2324539D02*
D03*
X1275452Y2424539D02*
D03*
X1325452Y2524540D02*
D03*
X1275452Y2624540D02*
D03*
X1325452Y2724540D02*
D03*
X1275452Y2824540D02*
D03*
X1325452Y2924540D02*
D03*
X1375452Y224538D02*
D03*
X1425452Y324538D02*
D03*
X1375452Y424538D02*
D03*
X1425452Y524538D02*
D03*
X1375452Y624539D02*
D03*
X1425452Y724539D02*
D03*
X1375452Y824539D02*
D03*
X1425452Y924539D02*
D03*
X1375452Y1024539D02*
D03*
X1425452Y1124539D02*
D03*
X1375452Y1224539D02*
D03*
X1425452Y1324539D02*
D03*
X1475452Y224538D02*
D03*
X1525452Y324538D02*
D03*
X1475452Y424538D02*
D03*
X1525452Y524538D02*
D03*
X1475452Y624539D02*
D03*
X1525452Y724539D02*
D03*
X1475452Y824539D02*
D03*
X1525452Y924539D02*
D03*
X1475452Y1024539D02*
D03*
X1525452Y1124539D02*
D03*
X1475452Y1224539D02*
D03*
X1575452Y224538D02*
D03*
X1625452Y324538D02*
D03*
X1575452Y424538D02*
D03*
X1625452Y524538D02*
D03*
X1575452Y624539D02*
D03*
X1625452Y724539D02*
D03*
X1575452Y824539D02*
D03*
X1625452Y924539D02*
D03*
X1575452Y1024539D02*
D03*
X1625452Y1124539D02*
D03*
X1575452Y1224539D02*
D03*
X1675452Y224538D02*
D03*
X1725452Y324538D02*
D03*
X1675452Y424538D02*
D03*
X1725452Y524538D02*
D03*
X1675452Y624539D02*
D03*
X1725452Y724539D02*
D03*
X1675452Y824539D02*
D03*
X1725452Y924539D02*
D03*
X1675452Y1024539D02*
D03*
X1725452Y1124539D02*
D03*
X1675452Y1224539D02*
D03*
X1775452Y224538D02*
D03*
X1825452Y324538D02*
D03*
X1775452Y424538D02*
D03*
X1825452Y524538D02*
D03*
X1775452Y624539D02*
D03*
X1825452Y724539D02*
D03*
X1775452Y824539D02*
D03*
X1825452Y924539D02*
D03*
X1775452Y1024539D02*
D03*
X1825452Y1124539D02*
D03*
X1775452Y1224539D02*
D03*
X1875452Y224538D02*
D03*
X1925452Y324538D02*
D03*
X1875452Y424538D02*
D03*
X1925452Y524538D02*
D03*
X1875452Y624539D02*
D03*
X1925452Y724539D02*
D03*
X1875452Y824539D02*
D03*
X1925452Y924539D02*
D03*
X1875452Y1024539D02*
D03*
X1925452Y1124539D02*
D03*
X1875452Y1224539D02*
D03*
X1975452Y224538D02*
D03*
X2025452Y324538D02*
D03*
X1975452Y424538D02*
D03*
X2025452Y524538D02*
D03*
X1975452Y624539D02*
D03*
X2025452Y724539D02*
D03*
X1975452Y824539D02*
D03*
X2025452Y924539D02*
D03*
X1975452Y1024539D02*
D03*
X2025452Y1124539D02*
D03*
X1975452Y1224539D02*
D03*
X2075453Y224538D02*
D03*
X2125452Y324538D02*
D03*
X2075453Y424538D02*
D03*
X2125452Y524538D02*
D03*
X2075453Y624539D02*
D03*
X2125452Y724539D02*
D03*
X2075453Y824539D02*
D03*
X2125452Y924539D02*
D03*
X2075453Y1024539D02*
D03*
X2125452Y1124539D02*
D03*
X2075453Y1224539D02*
D03*
X2175453Y224538D02*
D03*
X2225452Y324538D02*
D03*
X2175453Y424538D02*
D03*
X2225452Y524538D02*
D03*
X2175453Y624539D02*
D03*
X2225452Y724539D02*
D03*
X2175453Y824539D02*
D03*
X2225452Y924539D02*
D03*
X2175453Y1024539D02*
D03*
X2225452Y1124539D02*
D03*
X2175453Y1224539D02*
D03*
X2275453Y224538D02*
D03*
X2325453Y324538D02*
D03*
X2275453Y424538D02*
D03*
X2325453Y524538D02*
D03*
X2275453Y624539D02*
D03*
X2325453Y724539D02*
D03*
X2275453Y824539D02*
D03*
X2325453Y924539D02*
D03*
X2275453Y1024539D02*
D03*
X2325453Y1124539D02*
D03*
X2275453Y1224539D02*
D03*
X2375453Y224538D02*
D03*
X2425453Y324538D02*
D03*
X2375453Y424538D02*
D03*
X2425453Y524538D02*
D03*
X2375453Y624539D02*
D03*
X2425453Y724539D02*
D03*
X2375453Y824539D02*
D03*
X2425453Y924539D02*
D03*
X2375453Y1024539D02*
D03*
X2425453Y1124539D02*
D03*
X2375453Y1224539D02*
D03*
X2475453Y224538D02*
D03*
X2525453Y324538D02*
D03*
X2475453Y424538D02*
D03*
X2525453Y524538D02*
D03*
X2475453Y624539D02*
D03*
X2525453Y724539D02*
D03*
X2475453Y824539D02*
D03*
X2525453Y924539D02*
D03*
X2475453Y1024539D02*
D03*
X2525453Y1124539D02*
D03*
X2475453Y1224539D02*
D03*
X2575453Y224538D02*
D03*
X2625453Y324538D02*
D03*
X2575453Y424538D02*
D03*
X2625453Y524538D02*
D03*
X2575453Y624539D02*
D03*
X2625453Y724539D02*
D03*
X2575453Y824539D02*
D03*
X2625453Y924539D02*
D03*
X2575453Y1024539D02*
D03*
X2625453Y1124539D02*
D03*
X2575453Y1224539D02*
D03*
X2675453Y224538D02*
D03*
X2725453Y324538D02*
D03*
X2675453Y424538D02*
D03*
X2725453Y524538D02*
D03*
X2675453Y624539D02*
D03*
X2725453Y724539D02*
D03*
X2675453Y824539D02*
D03*
X2725453Y924539D02*
D03*
X2675453Y1024539D02*
D03*
X2725453Y1124539D02*
D03*
X2675453Y1224539D02*
D03*
X2775453Y224538D02*
D03*
X2825453Y324538D02*
D03*
X2775453Y424538D02*
D03*
X2825453Y524538D02*
D03*
X2775453Y624539D02*
D03*
X2825453Y724539D02*
D03*
X2775453Y824539D02*
D03*
X2825453Y924539D02*
D03*
X2775453Y1024539D02*
D03*
X2825453Y1124539D02*
D03*
X2775453Y1224539D02*
D03*
X2875453Y224538D02*
D03*
X2925453Y324538D02*
D03*
X2875453Y424538D02*
D03*
X2925453Y524538D02*
D03*
X2875453Y624539D02*
D03*
X2925453Y724539D02*
D03*
X2875453Y824539D02*
D03*
X2925453Y924539D02*
D03*
X2875453Y1024539D02*
D03*
X2925453Y1124539D02*
D03*
X2875453Y1224539D02*
D03*
X2975453Y224538D02*
D03*
X3025453Y324538D02*
D03*
X2975453Y424538D02*
D03*
X3025453Y524538D02*
D03*
X2975453Y624539D02*
D03*
X3025453Y724539D02*
D03*
X2975453Y824539D02*
D03*
X3025453Y924539D02*
D03*
X2975453Y1024539D02*
D03*
X3025453Y1124539D02*
D03*
X2975453Y1224539D02*
D03*
X3075453Y224538D02*
D03*
X3125453Y324538D02*
D03*
X3075453Y424538D02*
D03*
X3125453Y524538D02*
D03*
X3075453Y624539D02*
D03*
X3125453Y724539D02*
D03*
X3075453Y824539D02*
D03*
X3125453Y924539D02*
D03*
X3075453Y1024539D02*
D03*
X3125453Y1124539D02*
D03*
X3075453Y1224539D02*
D03*
X3175453Y224538D02*
D03*
X3225453Y324538D02*
D03*
X3175453Y424538D02*
D03*
X3225453Y524538D02*
D03*
X3175453Y624539D02*
D03*
X3225453Y724539D02*
D03*
X3175453Y824539D02*
D03*
X3225453Y924539D02*
D03*
X3175453Y1024539D02*
D03*
X3225453Y1124539D02*
D03*
X3175453Y1224539D02*
D03*
X3275453Y224538D02*
D03*
X3325453Y324538D02*
D03*
X3275453Y424538D02*
D03*
X3325453Y524538D02*
D03*
X3275453Y624539D02*
D03*
X3325453Y724539D02*
D03*
X3275453Y824539D02*
D03*
X3325453Y924539D02*
D03*
X3275453Y1024539D02*
D03*
X3325453Y1124539D02*
D03*
X3275453Y1224539D02*
D03*
X3325453Y1724539D02*
D03*
Y1924539D02*
D03*
Y2124539D02*
D03*
Y2324539D02*
D03*
Y2524540D02*
D03*
Y2724540D02*
D03*
Y2924540D02*
D03*
X3375453Y224538D02*
D03*
X3425453Y324538D02*
D03*
X3375453Y424538D02*
D03*
X3425453Y524538D02*
D03*
X3375453Y624539D02*
D03*
X3425453Y724539D02*
D03*
X3375453Y824539D02*
D03*
X3425453Y924539D02*
D03*
X3375453Y1024539D02*
D03*
X3425453Y1124539D02*
D03*
X3375453Y1224539D02*
D03*
X3425453Y2124539D02*
D03*
X3375453Y2224539D02*
D03*
X3425453Y2324539D02*
D03*
X3375453Y2424539D02*
D03*
X3425453Y2524540D02*
D03*
X3375453Y2624540D02*
D03*
X3425453Y2724540D02*
D03*
X3375453Y2824540D02*
D03*
X3475453Y224538D02*
D03*
X3525453Y324538D02*
D03*
X3475453Y424538D02*
D03*
X3525453Y524538D02*
D03*
X3475453Y624539D02*
D03*
X3525453Y724539D02*
D03*
X3475453Y824539D02*
D03*
X3525453Y924539D02*
D03*
X3475453Y1024539D02*
D03*
X3525453Y1124539D02*
D03*
X3475453Y1224539D02*
D03*
Y2224539D02*
D03*
X3525453Y2324539D02*
D03*
X3475453Y2424539D02*
D03*
X3525453Y2524540D02*
D03*
X3475453Y2624540D02*
D03*
X3525453Y2724540D02*
D03*
X3475453Y2824540D02*
D03*
X3575453Y224538D02*
D03*
X3625453Y324538D02*
D03*
X3575453Y424538D02*
D03*
X3625453Y524538D02*
D03*
X3575453Y624539D02*
D03*
X3625453Y724539D02*
D03*
X3575453Y824539D02*
D03*
X3625453Y924539D02*
D03*
X3575453Y1024539D02*
D03*
X3625453Y1124539D02*
D03*
X3575453Y1224539D02*
D03*
Y2224539D02*
D03*
X3625453Y2324539D02*
D03*
X3575453Y2824540D02*
D03*
X3675453Y224538D02*
D03*
X3725453Y324538D02*
D03*
X3675453Y424538D02*
D03*
X3725453Y524538D02*
D03*
X3675453Y624539D02*
D03*
X3725453Y724539D02*
D03*
X3675453Y824539D02*
D03*
X3725453Y924539D02*
D03*
X3675453Y1024539D02*
D03*
X3725453Y1124539D02*
D03*
X3675453Y1224539D02*
D03*
Y2224539D02*
D03*
X3725453Y2324539D02*
D03*
X3675453Y2824540D02*
D03*
X3775453Y224538D02*
D03*
X3825453Y324538D02*
D03*
X3775453Y424538D02*
D03*
X3825453Y524538D02*
D03*
X3775453Y624539D02*
D03*
X3825453Y724539D02*
D03*
X3775453Y824539D02*
D03*
X3825453Y924539D02*
D03*
X3775453Y1024539D02*
D03*
X3825453Y1124539D02*
D03*
X3775453Y1224539D02*
D03*
Y2224539D02*
D03*
X3825453Y2324539D02*
D03*
X3775453Y2824540D02*
D03*
X3875454Y224538D02*
D03*
X3925453Y324538D02*
D03*
X3875454Y424538D02*
D03*
X3925453Y524538D02*
D03*
X3875454Y624539D02*
D03*
X3925453Y724539D02*
D03*
X3875454Y824539D02*
D03*
X3925453Y924539D02*
D03*
X3875454Y1024539D02*
D03*
X3925453Y1124539D02*
D03*
X3875454Y1224539D02*
D03*
X3925453Y2124539D02*
D03*
X3875454Y2224539D02*
D03*
X3925453Y2324539D02*
D03*
X3875454Y2824540D02*
D03*
X3975454Y224538D02*
D03*
X4025453Y324538D02*
D03*
X3975454Y424538D02*
D03*
X4025453Y524538D02*
D03*
X3975454Y624539D02*
D03*
X4025453Y724539D02*
D03*
X3975454Y824539D02*
D03*
X4025453Y924539D02*
D03*
X3975454Y1024539D02*
D03*
X4025453Y1124539D02*
D03*
X3975454Y1224539D02*
D03*
X4025453Y2124539D02*
D03*
X3975454Y2224539D02*
D03*
X4025453Y2324539D02*
D03*
X3975454Y2824540D02*
D03*
X4075454Y224538D02*
D03*
X4125454Y324538D02*
D03*
X4075454Y424538D02*
D03*
X4125454Y524538D02*
D03*
X4075454Y624539D02*
D03*
X4125454Y724539D02*
D03*
X4075454Y824539D02*
D03*
X4125454Y924539D02*
D03*
X4075454Y1024539D02*
D03*
X4125454Y1124539D02*
D03*
X4075454Y1224539D02*
D03*
X4125454Y2124539D02*
D03*
X4075454Y2224539D02*
D03*
X4125454Y2324539D02*
D03*
X4075454Y2824540D02*
D03*
X4175454Y224538D02*
D03*
X4225454Y324538D02*
D03*
X4175454Y424538D02*
D03*
X4225454Y524538D02*
D03*
X4175454Y624539D02*
D03*
X4225454Y724539D02*
D03*
X4175454Y824539D02*
D03*
X4225454Y924539D02*
D03*
X4175454Y1024539D02*
D03*
X4225454Y1124539D02*
D03*
X4175454Y1224539D02*
D03*
X4225454Y2124539D02*
D03*
X4175454Y2224539D02*
D03*
X4225454Y2324539D02*
D03*
X4175454Y2824540D02*
D03*
X4275454Y1224539D02*
D03*
X4325454Y2124539D02*
D03*
X4275454Y2224539D02*
D03*
X4325454Y2324539D02*
D03*
X4275454Y2824540D02*
D03*
X4375454Y1224539D02*
D03*
X4425454Y2124539D02*
D03*
X4375454Y2224539D02*
D03*
X4425454Y2324539D02*
D03*
X4375454Y2824540D02*
D03*
X4525454Y1124539D02*
D03*
X4475454Y1224539D02*
D03*
X4525454Y2124539D02*
D03*
X4475454Y2224539D02*
D03*
X4525454Y2324539D02*
D03*
X4475454Y2824540D02*
D03*
X4575454Y1224539D02*
D03*
Y2224539D02*
D03*
X4625454Y2324539D02*
D03*
X4575454Y2424539D02*
D03*
X4625454Y2524540D02*
D03*
X4575454Y2624540D02*
D03*
X4625454Y2724540D02*
D03*
X4575454Y2824540D02*
D03*
X4675454Y1224539D02*
D03*
Y1424539D02*
D03*
X4725454Y1524539D02*
D03*
Y2324539D02*
D03*
Y2524540D02*
D03*
Y2724540D02*
D03*
Y2924540D02*
D03*
X4775454Y1224539D02*
D03*
Y1424539D02*
D03*
X4875454Y1224539D02*
D03*
X4975454D02*
D03*
X5075454D02*
D03*
X5175454D02*
D03*
X5325454Y324538D02*
D03*
X5275454Y424538D02*
D03*
X5325454Y524538D02*
D03*
Y724539D02*
D03*
Y924539D02*
D03*
Y1124539D02*
D03*
X5275454Y1224539D02*
D03*
X5875455Y4624541D02*
D03*
X5925454Y4524541D02*
D03*
X5875455Y4424541D02*
D03*
X5925454Y4324540D02*
D03*
X5875455Y3624540D02*
D03*
X5925454Y3524540D02*
D03*
X5875455Y3424540D02*
D03*
X5925454Y3324540D02*
D03*
X5875455Y3224540D02*
D03*
X5925454Y3124540D02*
D03*
X5875455Y3024540D02*
D03*
X5925454Y2924540D02*
D03*
X5875455Y2824540D02*
D03*
X5925454Y2724540D02*
D03*
X5875455Y2624540D02*
D03*
X5925454Y2524540D02*
D03*
X5875455Y2424539D02*
D03*
X5925454Y2324539D02*
D03*
X5775455Y4624541D02*
D03*
X5825454Y4524541D02*
D03*
X5775455Y4424541D02*
D03*
Y3624540D02*
D03*
X5825454Y3524540D02*
D03*
X5775455Y3424540D02*
D03*
X5825454Y3324540D02*
D03*
X5775455Y3224540D02*
D03*
X5825454Y3124540D02*
D03*
X5775455Y3024540D02*
D03*
X5825454Y2924540D02*
D03*
X5775455Y2824540D02*
D03*
X5825454Y2724540D02*
D03*
X5775455Y2624540D02*
D03*
X5825454Y2524540D02*
D03*
X5775455Y2424539D02*
D03*
X5675454Y4624541D02*
D03*
X5725454Y4524541D02*
D03*
X5675454Y4424541D02*
D03*
Y3624540D02*
D03*
X5725454Y3524540D02*
D03*
X5675454Y3424540D02*
D03*
X5725454Y3324540D02*
D03*
X5675454Y3224540D02*
D03*
X5725454Y3124540D02*
D03*
X5675454Y3024540D02*
D03*
X5725454Y2924540D02*
D03*
X5675454Y2824540D02*
D03*
X5725454Y2724540D02*
D03*
X5675454Y2624540D02*
D03*
X5725454Y2524540D02*
D03*
X5675454Y2424539D02*
D03*
X5575454Y4624541D02*
D03*
X5625454Y4524541D02*
D03*
X5575454Y4424541D02*
D03*
Y3624540D02*
D03*
X5625454Y3524540D02*
D03*
X5575454Y3424540D02*
D03*
X5625454Y3324540D02*
D03*
X5575454Y3224540D02*
D03*
X5625454Y3124540D02*
D03*
X5575454Y3024540D02*
D03*
X5625454Y2924540D02*
D03*
X5575454Y2824540D02*
D03*
X5625454Y2724540D02*
D03*
X5575454Y2624540D02*
D03*
X5625454Y2524540D02*
D03*
X5575454Y2424539D02*
D03*
X5475454Y4624541D02*
D03*
X5525454Y4524541D02*
D03*
X5475454Y4424541D02*
D03*
X5525454Y4324540D02*
D03*
X5475454Y3624540D02*
D03*
X5525454Y3524540D02*
D03*
X5475454Y3424540D02*
D03*
X5525454Y3324540D02*
D03*
X5475454Y3224540D02*
D03*
X5525454Y3124540D02*
D03*
X5475454Y3024540D02*
D03*
X5525454Y2924540D02*
D03*
X5475454Y2824540D02*
D03*
X5525454Y2724540D02*
D03*
X5475454Y2624540D02*
D03*
X5525454Y2524540D02*
D03*
X5475454Y2424539D02*
D03*
X5525454Y2324539D02*
D03*
X-574549Y3724540D02*
D03*
Y1924539D02*
D03*
X-624549Y1824539D02*
D03*
X-674549Y3724540D02*
D03*
X-724549Y1824539D02*
D03*
X-774549Y3724540D02*
D03*
X-824549Y2624540D02*
D03*
Y2424539D02*
D03*
Y2224539D02*
D03*
Y1824539D02*
D03*
X-874549Y3724540D02*
D03*
X-924549Y3024540D02*
D03*
X-874549Y2124539D02*
D03*
X-924549Y1824539D02*
D03*
X-974549Y3724540D02*
D03*
X-1074549D02*
D03*
X-1124549Y2424539D02*
D03*
X-1074549Y2324539D02*
D03*
X-1174549Y3724540D02*
D03*
Y2324539D02*
D03*
X-1274549Y3724540D02*
D03*
X-1324549Y3024540D02*
D03*
X-1274549Y2324539D02*
D03*
X-1374549Y3724540D02*
D03*
Y3324540D02*
D03*
X-1424549Y3224540D02*
D03*
X-1374549Y3124540D02*
D03*
X-1424549Y3024540D02*
D03*
X-1374549Y2324539D02*
D03*
X-1424549Y1824539D02*
D03*
X-1474550Y3724540D02*
D03*
Y3324540D02*
D03*
X-1524549Y3224540D02*
D03*
X-1474550Y3124540D02*
D03*
X-1524549Y3024540D02*
D03*
Y2424539D02*
D03*
X-1474550Y2324539D02*
D03*
Y1924539D02*
D03*
X-1524549Y1824539D02*
D03*
X2825453Y3724540D02*
D03*
Y1924539D02*
D03*
X2775453Y1824539D02*
D03*
X2725453Y3724540D02*
D03*
X2675453Y1824539D02*
D03*
X2625453Y3724540D02*
D03*
X2575453Y2624540D02*
D03*
Y2424539D02*
D03*
Y2224539D02*
D03*
Y1824539D02*
D03*
X2525453Y3724540D02*
D03*
X2475453Y3024540D02*
D03*
X2525453Y2124539D02*
D03*
X2475453Y1824539D02*
D03*
X2425453Y3724540D02*
D03*
X2325453D02*
D03*
X2275453Y2424539D02*
D03*
X2325453Y2324539D02*
D03*
X2225452Y3724540D02*
D03*
Y2324539D02*
D03*
X2125452Y3724540D02*
D03*
X2075453Y3024540D02*
D03*
X2125452Y2324539D02*
D03*
X2025452Y3724540D02*
D03*
Y3324540D02*
D03*
X1975452Y3224540D02*
D03*
X2025452Y3124540D02*
D03*
X1975452Y3024540D02*
D03*
X2025452Y2324539D02*
D03*
X1975452Y1824539D02*
D03*
X1925452Y3724540D02*
D03*
Y3324540D02*
D03*
X1875452Y3224540D02*
D03*
X1925452Y3124540D02*
D03*
X1875452Y3024540D02*
D03*
Y2424539D02*
D03*
X1925452Y2324539D02*
D03*
Y1924539D02*
D03*
X1875452Y1824539D02*
D03*
X-3974551Y3724540D02*
D03*
Y1924539D02*
D03*
X-4024551Y1824539D02*
D03*
X-4074551Y3724540D02*
D03*
X-4124551Y1824539D02*
D03*
X-4174551Y3724540D02*
D03*
X-4224551Y2624540D02*
D03*
Y2424539D02*
D03*
Y2224539D02*
D03*
Y1824539D02*
D03*
X-4274551Y3724540D02*
D03*
X-4324551Y3024540D02*
D03*
X-4274551Y2124539D02*
D03*
X-4324551Y1824539D02*
D03*
X-4374551Y3724540D02*
D03*
X-4474551D02*
D03*
X-4524551Y2424539D02*
D03*
X-4474551Y2324539D02*
D03*
X-4574551Y3724540D02*
D03*
Y2324539D02*
D03*
X-4674551Y3724540D02*
D03*
X-4724551Y3024540D02*
D03*
X-4674551Y2324539D02*
D03*
X-4774551Y3724540D02*
D03*
Y3324540D02*
D03*
X-4824551Y3224540D02*
D03*
X-4774551Y3124540D02*
D03*
X-4824551Y3024540D02*
D03*
X-4774551Y2324539D02*
D03*
X-4824551Y1824539D02*
D03*
X-4874551Y3724540D02*
D03*
Y3324540D02*
D03*
X-4924551Y3224540D02*
D03*
X-4874551Y3124540D02*
D03*
X-4924551Y3024540D02*
D03*
Y2424539D02*
D03*
X-4874551Y2324539D02*
D03*
Y1924539D02*
D03*
X-4924551Y1824539D02*
D03*
X-4974551Y3724540D02*
D03*
X-5024551Y3624540D02*
D03*
X-4974551Y3524540D02*
D03*
X-5024551Y3424540D02*
D03*
X-4974551Y3324540D02*
D03*
X-5024551Y3224540D02*
D03*
X-4974551Y3124540D02*
D03*
X-5024551Y3024540D02*
D03*
X-4974551Y2924540D02*
D03*
X-5024551Y2824540D02*
D03*
Y2624540D02*
D03*
X-4974551Y2524540D02*
D03*
X-5024551Y2424539D02*
D03*
X-4974551Y2324539D02*
D03*
X-5024551Y2224539D02*
D03*
Y2024539D02*
D03*
X-4974551Y1924539D02*
D03*
X-5024551Y1824539D02*
D03*
X-5074551Y3724540D02*
D03*
X-5124551Y3624540D02*
D03*
X-5074551Y3524540D02*
D03*
X-5124551Y3424540D02*
D03*
X-5074551Y3324540D02*
D03*
X-5124551Y3224540D02*
D03*
X-5074551Y3124540D02*
D03*
X-5124551Y3024540D02*
D03*
X-5074551Y2924540D02*
D03*
X-5124551Y2824540D02*
D03*
X-5074551Y2724540D02*
D03*
X-5124551Y2624540D02*
D03*
X-5074551Y2524540D02*
D03*
X-5124551Y2424539D02*
D03*
X-5074551Y2324539D02*
D03*
X-5124551Y2224539D02*
D03*
X-5074551Y2124539D02*
D03*
X-5124551Y2024539D02*
D03*
X-5074551Y1924539D02*
D03*
X-5124551Y1824539D02*
D03*
X-5174551Y3724540D02*
D03*
X-5224551Y3624540D02*
D03*
X-5174551Y3524540D02*
D03*
X-5224551Y3424540D02*
D03*
X-5174551Y3324540D02*
D03*
X-5224551Y3224540D02*
D03*
X-5174551Y3124540D02*
D03*
X-5224551Y3024540D02*
D03*
X-5174551Y2924540D02*
D03*
X-5224551Y2824540D02*
D03*
X-5174551Y2724540D02*
D03*
X-5224551Y2624540D02*
D03*
X-5174551Y2524540D02*
D03*
X-5224551Y2424539D02*
D03*
X-5174551Y2324539D02*
D03*
X-5224551Y2224539D02*
D03*
X-5174551Y2124539D02*
D03*
X-5224551Y2024539D02*
D03*
X-5174551Y1924539D02*
D03*
X-5224551Y1824539D02*
D03*
X-5274552Y3724540D02*
D03*
X-5324551Y3624540D02*
D03*
X-5274552Y3524540D02*
D03*
X-5324551Y3424540D02*
D03*
X-5274552Y3324540D02*
D03*
X-5324551Y3224540D02*
D03*
X-5274552Y3124540D02*
D03*
X-5324551Y3024540D02*
D03*
X-5274552Y2924540D02*
D03*
X-5324551Y2824540D02*
D03*
X-5274552Y2724540D02*
D03*
X-5324551Y2624540D02*
D03*
X-5274552Y2524540D02*
D03*
X-5324551Y2424539D02*
D03*
X-5274552Y2324539D02*
D03*
X-5324551Y2224539D02*
D03*
X-5274552Y2124539D02*
D03*
X-5324551Y2024539D02*
D03*
X-5274552Y1924539D02*
D03*
X-5324551Y1824539D02*
D03*
X-5374552Y3724540D02*
D03*
X-5424552Y3624540D02*
D03*
X-5374552Y3524540D02*
D03*
X-5424552Y3424540D02*
D03*
X-5374552Y3324540D02*
D03*
X-5424552Y3224540D02*
D03*
X-5374552Y3124540D02*
D03*
X-5424552Y3024540D02*
D03*
X-5374552Y2924540D02*
D03*
X-5424552Y2824540D02*
D03*
X-5374552Y2724540D02*
D03*
X-5424552Y2624540D02*
D03*
X-5374552Y2524540D02*
D03*
X-5424552Y2424539D02*
D03*
X-5374552Y2324539D02*
D03*
X-5524552Y4624541D02*
D03*
X-5474552Y4524541D02*
D03*
X-5524552Y4424541D02*
D03*
X-5474552Y4324540D02*
D03*
X-5524552Y3624540D02*
D03*
X-5474552Y3524540D02*
D03*
X-5524552Y3424540D02*
D03*
X-5474552Y3324540D02*
D03*
X-5524552Y3224540D02*
D03*
X-5474552Y3124540D02*
D03*
X-5524552Y3024540D02*
D03*
X-5474552Y2924540D02*
D03*
X-5524552Y2824540D02*
D03*
X-5474552Y2724540D02*
D03*
X-5524552Y2624540D02*
D03*
X-5474552Y2524540D02*
D03*
X-5524552Y2424539D02*
D03*
X-5474552Y2324539D02*
D03*
X-5624552Y4624541D02*
D03*
X-5574552Y4524541D02*
D03*
X-5624552Y4424541D02*
D03*
Y3624540D02*
D03*
X-5574552Y3524540D02*
D03*
X-5624552Y3424540D02*
D03*
X-5574552Y3324540D02*
D03*
X-5624552Y3224540D02*
D03*
X-5574552Y3124540D02*
D03*
X-5624552Y3024540D02*
D03*
X-5574552Y2924540D02*
D03*
X-5624552Y2824540D02*
D03*
X-5574552Y2724540D02*
D03*
X-5624552Y2624540D02*
D03*
X-5574552Y2524540D02*
D03*
X-5624552Y2424539D02*
D03*
X-5724552Y4624541D02*
D03*
X-5674552Y4524541D02*
D03*
X-5724552Y4424541D02*
D03*
Y3624540D02*
D03*
X-5674552Y3524540D02*
D03*
X-5724552Y3424540D02*
D03*
X-5674552Y3324540D02*
D03*
X-5724552Y3224540D02*
D03*
X-5674552Y3124540D02*
D03*
X-5724552Y3024540D02*
D03*
X-5674552Y2924540D02*
D03*
X-5724552Y2824540D02*
D03*
X-5674552Y2724540D02*
D03*
X-5724552Y2624540D02*
D03*
X-5674552Y2524540D02*
D03*
X-5724552Y2424539D02*
D03*
X-5824552Y4624541D02*
D03*
X-5774552Y4524541D02*
D03*
X-5824552Y4424541D02*
D03*
Y3624540D02*
D03*
X-5774552Y3524540D02*
D03*
X-5824552Y3424540D02*
D03*
X-5774552Y3324540D02*
D03*
X-5824552Y3224540D02*
D03*
X-5774552Y3124540D02*
D03*
X-5824552Y3024540D02*
D03*
X-5774552Y2924540D02*
D03*
X-5824552Y2824540D02*
D03*
X-5774552Y2724540D02*
D03*
X-5824552Y2624540D02*
D03*
X-5774552Y2524540D02*
D03*
X-5824552Y2424539D02*
D03*
X-5924552Y4624541D02*
D03*
X-5874552Y4524541D02*
D03*
X-5924552Y4424541D02*
D03*
X-5874552Y4324540D02*
D03*
X-5924552Y3624540D02*
D03*
X-5874552Y3524540D02*
D03*
X-5924552Y3424540D02*
D03*
X-5874552Y3324540D02*
D03*
X-5924552Y3224540D02*
D03*
X-5874552Y3124540D02*
D03*
X-5924552Y3024540D02*
D03*
X-5874552Y2924540D02*
D03*
X-5924552Y2824540D02*
D03*
X-5874552Y2724540D02*
D03*
X-5924552Y2624540D02*
D03*
X-5874552Y2524540D02*
D03*
X-5924552Y2424539D02*
D03*
X-5874552Y2324539D02*
D03*
X-2700000Y6750000D02*
D03*
X-3300000D02*
D03*
Y6250000D02*
D03*
X-2700000D02*
D03*
X-2800000Y6050000D02*
D03*
X-2900000D02*
D03*
X-3000000D02*
D03*
X-3100000D02*
D03*
X-3200000D02*
D03*
X-3150000Y6800000D02*
D03*
Y6900000D02*
D03*
X-3200000Y6850000D02*
D03*
X-3250000Y6800000D02*
D03*
Y6900000D02*
D03*
X-2950000D02*
D03*
X-3000000Y6850000D02*
D03*
X-3050000Y6900000D02*
D03*
X-2750000Y6800000D02*
D03*
Y6900000D02*
D03*
X-2800000Y6850000D02*
D03*
X-2850000Y6800000D02*
D03*
Y6900000D02*
D03*
X-2900000Y6850000D02*
D03*
X-3100000D02*
D03*
X-3100000Y6150000D02*
D03*
X-2900000D02*
D03*
X-2850000Y6200000D02*
D03*
Y6100000D02*
D03*
X-2800000Y6150000D02*
D03*
X-2750000Y6200000D02*
D03*
Y6100000D02*
D03*
X-3050000D02*
D03*
X-3000000Y6150000D02*
D03*
X-2950000Y6100000D02*
D03*
X-3250000Y6200000D02*
D03*
Y6100000D02*
D03*
X-3200000Y6150000D02*
D03*
X-3150000Y6200000D02*
D03*
Y6100000D02*
D03*
X-3050000Y6800000D02*
D03*
X-2950000D02*
D03*
X-3050000Y6200000D02*
D03*
X-2950000D02*
D03*
X-3200000Y6250000D02*
D03*
X-2800000D02*
D03*
Y6750000D02*
D03*
X-3200000D02*
D03*
X-3250000Y6700000D02*
D03*
X-2750000D02*
D03*
Y6300000D02*
D03*
X-3250000D02*
D03*
X300000Y6750000D02*
D03*
X-300000D02*
D03*
Y6250000D02*
D03*
X300000D02*
D03*
X200000Y6050000D02*
D03*
X100000D02*
D03*
X0D02*
D03*
X-100000D02*
D03*
X-200000D02*
D03*
X-150000Y6800000D02*
D03*
Y6900000D02*
D03*
X-200000Y6850000D02*
D03*
X-250000Y6800000D02*
D03*
Y6900000D02*
D03*
X50000D02*
D03*
X0Y6850000D02*
D03*
X-50000Y6900000D02*
D03*
X250000Y6800000D02*
D03*
Y6900000D02*
D03*
X200000Y6850000D02*
D03*
X150000Y6800000D02*
D03*
Y6900000D02*
D03*
X100000Y6850000D02*
D03*
X-100000D02*
D03*
X-100000Y6150000D02*
D03*
X100000D02*
D03*
X150000Y6200000D02*
D03*
Y6100000D02*
D03*
X200000Y6150000D02*
D03*
X250000Y6200000D02*
D03*
Y6100000D02*
D03*
X-50000D02*
D03*
X-0Y6150000D02*
D03*
X50000Y6100000D02*
D03*
X-250000Y6200000D02*
D03*
Y6100000D02*
D03*
X-200000Y6150000D02*
D03*
X-150000Y6200000D02*
D03*
Y6100000D02*
D03*
X-50000Y6800000D02*
D03*
X50000D02*
D03*
X-50000Y6200000D02*
D03*
X50000D02*
D03*
X-200000Y6250000D02*
D03*
X200000D02*
D03*
Y6750000D02*
D03*
X-200000D02*
D03*
X-250000Y6700000D02*
D03*
X250000D02*
D03*
Y6300000D02*
D03*
X-250000D02*
D03*
X-4400000Y3421780D02*
D03*
X-4220000Y2740000D02*
D03*
X-4150000Y2540000D02*
D03*
X-4775000Y3425000D02*
D03*
X-4140000Y2340811D02*
D03*
X-4447500Y3240000D02*
D03*
X-4550587Y3204413D02*
D03*
X-4275000Y3425000D02*
D03*
X-4596780Y3377500D02*
D03*
X-4525000Y3425000D02*
D03*
X-4050000Y1975000D02*
D03*
X-4000000Y3425000D02*
D03*
X-4100000Y2200000D02*
D03*
X-4148087Y3098087D02*
D03*
X-4072508Y2950008D02*
D03*
Y2800008D02*
D03*
X-4125000Y3425000D02*
D03*
Y3325000D02*
D03*
X-4260008Y3287492D02*
D03*
X-1000000Y3421780D02*
D03*
X-820000Y2740000D02*
D03*
X-750000Y2540000D02*
D03*
X-1375000Y3425000D02*
D03*
X-740000Y2340811D02*
D03*
X-1047500Y3240000D02*
D03*
X-1150587Y3204413D02*
D03*
X-875000Y3425000D02*
D03*
X-1196780Y3377500D02*
D03*
X-1125000Y3425000D02*
D03*
X-650000Y1975000D02*
D03*
X-600000Y3425000D02*
D03*
X-700000Y2200000D02*
D03*
X-748087Y3098087D02*
D03*
X-672509Y2950008D02*
D03*
Y2800008D02*
D03*
X-725000Y3425000D02*
D03*
Y3325000D02*
D03*
X-860008Y3287492D02*
D03*
X2580000Y2740000D02*
D03*
X2650000Y2540000D02*
D03*
X2249413Y3204413D02*
D03*
X2660000Y2340811D02*
D03*
X2400000Y3421780D02*
D03*
X2275000Y3425000D02*
D03*
X2750000Y1975000D02*
D03*
X2700000Y2200000D02*
D03*
X2675000Y3325000D02*
D03*
X2539992Y3287492D02*
D03*
X2651913Y3098087D02*
D03*
X2727492Y2800008D02*
D03*
Y2950008D02*
D03*
X2800000Y3425000D02*
D03*
X2675000D02*
D03*
X2352500Y3240000D02*
D03*
X2525000Y3425000D02*
D03*
X2203220Y3377500D02*
D03*
X2025000Y3425000D02*
D03*
X2750000Y6300000D02*
D03*
X3250000D02*
D03*
Y6700000D02*
D03*
X2750000D02*
D03*
X2800000Y6750000D02*
D03*
X3200000D02*
D03*
Y6250000D02*
D03*
X2800000D02*
D03*
X3050000Y6200000D02*
D03*
X2950000D02*
D03*
X3050000Y6800000D02*
D03*
X2950000D02*
D03*
X2850000Y6100000D02*
D03*
Y6200000D02*
D03*
X2800000Y6150000D02*
D03*
X2750000Y6100000D02*
D03*
Y6200000D02*
D03*
X3050000Y6100000D02*
D03*
X3000000Y6150000D02*
D03*
X2950000Y6100000D02*
D03*
X3250000D02*
D03*
Y6200000D02*
D03*
X3200000Y6150000D02*
D03*
X3150000Y6100000D02*
D03*
Y6200000D02*
D03*
X3100000Y6150000D02*
D03*
X2900000D02*
D03*
X2900000Y6850000D02*
D03*
X3100000D02*
D03*
X3150000Y6900000D02*
D03*
Y6800000D02*
D03*
X3200000Y6850000D02*
D03*
X3250000Y6900000D02*
D03*
Y6800000D02*
D03*
X2950000Y6900000D02*
D03*
X3000000Y6850000D02*
D03*
X3050000Y6900000D02*
D03*
X2750000D02*
D03*
Y6800000D02*
D03*
X2800000Y6850000D02*
D03*
X2850000Y6900000D02*
D03*
Y6800000D02*
D03*
X2800000Y6050000D02*
D03*
X2900000D02*
D03*
X3000000D02*
D03*
X3100000D02*
D03*
X3200000D02*
D03*
X3300000Y6250000D02*
D03*
X2700000D02*
D03*
Y6750000D02*
D03*
X3300000D02*
D03*
D25*
X-4247508Y2950008D02*
D03*
X-847509D02*
D03*
X2552492D02*
D03*
D26*
X-4890500Y2036500D02*
X-4684400Y1830400D01*
X-4424131D01*
X-4366031Y1888500D01*
X-4131088D02*
X-4050000Y1969588D01*
X-4366031Y1888500D02*
X-4131088D01*
X-4155412Y3280000D02*
X-4150000D01*
Y3285412D01*
X-4162904Y3287492D02*
X-4155412Y3280000D01*
X-4550587Y3204413D02*
X-4483087D01*
X-4399253Y3288247D01*
X-4361753D01*
X-4278827Y3371173D01*
Y3421173D01*
X-4275000Y3425000D01*
X-4050000Y1969588D02*
Y1975000D01*
X-4044588D01*
X-3975000Y2044588D01*
Y2719588D01*
X-4000000Y2744588D02*
X-3975000Y2719588D01*
X-4000000Y2744588D02*
Y3425000D01*
X-4125000Y3325000D02*
Y3425000D01*
Y3310412D02*
Y3325000D01*
X-4150000Y3285412D02*
X-4125000Y3310412D01*
X-4260008Y3287492D02*
X-4162904D01*
X-1490500Y2036500D02*
X-1284400Y1830400D01*
X-1024131D01*
X-966031Y1888500D01*
X-731088D02*
X-650000Y1969588D01*
X-966031Y1888500D02*
X-731088D01*
X-755412Y3280000D02*
X-750000D01*
Y3285412D01*
X-762904Y3287492D02*
X-755412Y3280000D01*
X-1150587Y3204413D02*
X-1083087D01*
X-999253Y3288247D01*
X-961753D01*
X-878827Y3371173D01*
Y3421173D01*
X-875000Y3425000D01*
X-650000Y1969588D02*
Y1975000D01*
X-644588D01*
X-575000Y2044588D01*
Y2719588D01*
X-600000Y2744588D02*
X-575000Y2719588D01*
X-600000Y2744588D02*
Y3425000D01*
X-725000Y3325000D02*
Y3425000D01*
Y3310412D02*
Y3325000D01*
X-750000Y3285412D02*
X-725000Y3310412D01*
X-860008Y3287492D02*
X-762904D01*
X1909500Y2036500D02*
X2115600Y1830400D01*
X2375869D01*
X2316913Y3204413D02*
X2400747Y3288247D01*
X2249413Y3204413D02*
X2316913D01*
X2675000Y3325000D02*
Y3425000D01*
Y3310412D02*
Y3325000D01*
X2521173Y3371173D02*
Y3421173D01*
X2438247Y3288247D02*
X2521173Y3371173D01*
Y3421173D02*
X2525000Y3425000D01*
X2400747Y3288247D02*
X2438247D01*
X2650000Y3285412D02*
X2675000Y3310412D01*
X2800000Y2744588D02*
X2825000Y2719588D01*
Y2044588D02*
Y2719588D01*
X2800000Y2744588D02*
Y3425000D01*
X2755412Y1975000D02*
X2825000Y2044588D01*
X2668912Y1888500D02*
X2750000Y1969588D01*
X2433969Y1888500D02*
X2668912D01*
X2750000Y1975000D02*
X2755412D01*
X2750000Y1969588D02*
Y1975000D01*
X2375869Y1830400D02*
X2433969Y1888500D01*
X2650000Y3280000D02*
Y3285412D01*
X2637096Y3287492D02*
X2644588Y3280000D01*
X2650000D01*
X2539992Y3287492D02*
X2637096D01*
D27*
X-4705117Y3174734D02*
X-4569433Y3039050D01*
X-4360950Y2251700D02*
Y2840439D01*
X-4297450Y2225398D02*
Y2866742D01*
X-4417450Y1998372D02*
Y2116003D01*
X-4373566Y2149282D02*
X-4297450Y2225398D01*
X-4641617Y3201036D02*
X-4543131Y3102550D01*
X-4399869Y2212782D02*
X-4360950Y2251700D01*
X-4431432Y2212782D02*
X-4399869D01*
X-4559561Y3039050D02*
X-4360950Y2840439D01*
X-4543131Y3102550D02*
X-4533258D01*
X-4472200Y2253550D02*
X-4431432Y2212782D01*
X-4417450Y2116003D02*
X-4384171Y2149282D01*
X-4373566D01*
X-4569433Y3039050D02*
X-4559561D01*
X-4533258Y3102550D02*
X-4297450Y2866742D01*
X-1305117Y3174734D02*
X-1169433Y3039050D01*
X-1017450Y1998372D02*
Y2116003D01*
X-1133259Y3102550D02*
X-897450Y2866742D01*
X-999869Y2212782D02*
X-960950Y2251700D01*
X-1143131Y3102550D02*
X-1133259D01*
X-1017450Y2116003D02*
X-984172Y2149282D01*
X-1159561Y3039050D02*
X-960950Y2840439D01*
X-1031432Y2212782D02*
X-999869D01*
X-1169433Y3039050D02*
X-1159561D01*
X-1241617Y3201036D02*
X-1143131Y3102550D01*
X-1072200Y2253550D02*
X-1031432Y2212782D01*
X-984172Y2149282D02*
X-973566D01*
X-897450Y2225398D01*
X-960950Y2251700D02*
Y2840439D01*
X-897450Y2225398D02*
Y2866742D01*
X-1273800Y2253550D02*
X-1072200D01*
X2094884Y3174734D02*
X2230567Y3039050D01*
X2382550Y1998372D02*
Y2116003D01*
X2426434Y2149282D02*
X2502550Y2225398D01*
X2230567Y3039050D02*
X2240439D01*
X2415829Y2149282D02*
X2426434D01*
X2158384Y3201036D02*
X2256870Y3102550D01*
X2266742D02*
X2502550Y2866742D01*
X2240439Y3039050D02*
X2439050Y2840439D01*
X2382550Y2116003D02*
X2415829Y2149282D01*
X2327800Y2253550D02*
X2368569Y2212782D01*
X2400132D02*
X2439050Y2251700D01*
X2502550Y2225398D02*
Y2866742D01*
X2256870Y3102550D02*
X2266742D01*
X2439050Y2251700D02*
Y2840439D01*
X2368569Y2212782D02*
X2400132D01*
X-4763500Y2163500D02*
Y2163850D01*
X-4673800Y2253550D01*
X-4472200D01*
X-4645601Y3368387D02*
X-4600000D01*
Y3374280D02*
X-4594503Y3379777D01*
X-4600000Y3372003D02*
Y3374280D01*
X-4705117Y3308871D02*
X-4645601Y3368387D01*
X-4705117Y3174734D02*
Y3308871D01*
X-4594503Y3379777D02*
X-4553269D01*
X-4527277Y3422723D02*
X-4525000Y3425000D01*
X-4527277Y3405768D02*
Y3422723D01*
X-4636500Y2033322D02*
Y2036500D01*
Y2033322D02*
X-4547628Y1944450D01*
X-4471372D02*
X-4417450Y1998372D01*
X-4547628Y1944450D02*
X-4471372D01*
X-4634821Y3289364D02*
X-4633736Y3288280D01*
X-4634821Y3277163D02*
Y3289364D01*
X-4623704Y3288280D02*
X-4621428Y3290556D01*
X-4633736Y3288280D02*
X-4623704D01*
X-4641617Y3270368D02*
X-4634821Y3277163D01*
X-4641617Y3201036D02*
Y3270368D01*
X-4621428Y3290556D02*
X-4516312D01*
X-4438056Y3368812D01*
Y3383723D02*
X-4400000Y3421780D01*
X-4438056Y3368812D02*
Y3383723D01*
X-4553269Y3379777D02*
X-4527277Y3405768D01*
X-1363500Y2163500D02*
Y2163850D01*
X-1273800Y2253550D01*
X-1245601Y3368387D02*
X-1200000D01*
Y3374280D02*
X-1194504Y3379777D01*
X-1200000Y3372003D02*
Y3374280D01*
X-1305117Y3308871D02*
X-1245601Y3368387D01*
X-1305117Y3174734D02*
Y3308871D01*
X-1194504Y3379777D02*
X-1153269D01*
X-1127277Y3422723D02*
X-1125000Y3425000D01*
X-1127277Y3405768D02*
Y3422723D01*
X-1236500Y2033322D02*
Y2036500D01*
Y2033322D02*
X-1147628Y1944450D01*
X-1071372D02*
X-1017450Y1998372D01*
X-1147628Y1944450D02*
X-1071372D01*
X-1234821Y3289364D02*
X-1233736Y3288280D01*
X-1234821Y3277163D02*
Y3289364D01*
X-1223705Y3288280D02*
X-1221428Y3290556D01*
X-1233736Y3288280D02*
X-1223705D01*
X-1241617Y3270368D02*
X-1234821Y3277163D01*
X-1241617Y3201036D02*
Y3270368D01*
X-1221428Y3290556D02*
X-1116312D01*
X-1038057Y3368812D01*
Y3383723D02*
X-1000000Y3421780D01*
X-1038057Y3368812D02*
Y3383723D01*
X-1153269Y3379777D02*
X-1127277Y3405768D01*
X2165179Y3289364D02*
X2166264Y3288280D01*
X2165179Y3277163D02*
Y3289364D01*
X2176296Y3288280D02*
X2178572Y3290556D01*
X2283688D01*
X2361944Y3368812D01*
Y3383723D02*
X2400000Y3421780D01*
X2166264Y3288280D02*
X2176296D01*
X2361944Y3368812D02*
Y3383723D01*
X2158384Y3270368D02*
X2165179Y3277163D01*
X2154400Y3368387D02*
X2200000D01*
X2158384Y3201036D02*
Y3270368D01*
X2094884Y3174734D02*
Y3308871D01*
X2200000Y3374280D02*
X2205497Y3379777D01*
X2200000Y3372003D02*
Y3374280D01*
X2094884Y3308871D02*
X2154400Y3368387D01*
X2205497Y3379777D02*
X2246732D01*
X2272723Y3405768D02*
Y3422723D01*
X2275000Y3425000D01*
X2246732Y3379777D02*
X2272723Y3405768D01*
X2328628Y1944450D02*
X2382550Y1998372D01*
X2126200Y2253550D02*
X2327800D01*
X2036500Y2163850D02*
X2126200Y2253550D01*
X2036500Y2163500D02*
Y2163850D01*
X2163500Y2033322D02*
Y2036500D01*
Y2033322D02*
X2252372Y1944450D01*
X2328628D01*
D28*
X-4670500Y1943500D02*
X-4612400Y1885400D01*
X-4763500Y2031978D02*
Y2036500D01*
Y2031978D02*
X-4675022Y1943500D01*
X-4612400Y1885400D02*
X-4446913D01*
X-4675022Y1943500D02*
X-4670500D01*
X-4446913Y1885400D02*
X-4388813Y1943500D01*
X-4356500D01*
X-4098087Y2201913D01*
Y2284619D01*
X-4072508Y2310198D01*
Y2800008D01*
X-4148087Y3025586D02*
Y3098087D01*
Y3025586D02*
X-4072508Y2950008D01*
Y2800008D02*
Y2950008D01*
X-1270500Y1943500D02*
X-1212400Y1885400D01*
X-1363500Y2031978D02*
Y2036500D01*
Y2031978D02*
X-1275022Y1943500D01*
X-1212400Y1885400D02*
X-1046913D01*
X-1275022Y1943500D02*
X-1270500D01*
X-1046913Y1885400D02*
X-988813Y1943500D01*
X-956500D01*
X-698087Y2201913D01*
Y2284619D01*
X-672509Y2310198D01*
Y2800008D01*
X-748087Y3025586D02*
Y3098087D01*
Y3025586D02*
X-672509Y2950008D01*
Y2800008D02*
Y2950008D01*
X2129500Y1943500D02*
X2187600Y1885400D01*
X2124978Y1943500D02*
X2129500D01*
X2036500Y2031978D02*
Y2036500D01*
Y2031978D02*
X2124978Y1943500D01*
X2187600Y1885400D02*
X2353087D01*
X2443500Y1943500D02*
X2701913Y2201913D01*
X2651913Y3025586D02*
X2727492Y2950008D01*
X2651913Y3025586D02*
Y3098087D01*
X2701913Y2201913D02*
Y2284619D01*
X2727492Y2310198D01*
Y2800008D01*
Y2950008D01*
X2411187Y1943500D02*
X2443500D01*
X2353087Y1885400D02*
X2411187Y1943500D01*
%TF.MD5,0811993ed04167db4113b75867504552*%
M02*
