%TF.GenerationSoftware,Altium Limited,Altium Designer,26.2.0 (7)*%
G04 Layer_Physical_Order=4*
G04 Layer_Color=16711680*
%FSLAX45Y45*%
%MOMM*%
%TF.SameCoordinates,DD637A2D-7E0C-40B3-9281-A5126D6BEA63*%
%TF.FilePolarity,Positive*%
%TF.FileFunction,Copper,L4,Bot,Signal*%
%TF.Part,Single*%
G01*
G75*
%TA.AperFunction,Conductor*%
%ADD14R,6.00000X36.00000*%
%TA.AperFunction,ComponentPad*%
%ADD15C,1.06000*%
%ADD16R,1.06000X1.06000*%
%ADD17C,1.06680*%
%ADD18C,1.80000*%
%ADD19C,5.00000*%
%ADD20C,6.00000*%
%ADD21C,2.21300*%
%ADD22R,2.21300X2.21300*%
%TA.AperFunction,ViaPad*%
%ADD23C,0.63500*%
%ADD24C,0.50000*%
%ADD25C,0.45000*%
%TA.AperFunction,Conductor*%
%ADD26C,0.30000*%
%ADD27C,0.38100*%
%ADD28C,0.40000*%
%TA.AperFunction,SMDPad,CuDef*%
%ADD29R,2.45000X1.50000*%
%ADD30R,0.90000X3.00000*%
%ADD31R,4.41000X2.00000*%
%ADD32R,0.60000X2.00000*%
%ADD33R,1.00000X0.90000*%
%ADD34R,0.95000X0.85000*%
%ADD35R,0.60000X0.90000*%
%ADD36R,0.90000X0.60000*%
%ADD37R,0.85000X0.65000*%
%ADD38R,0.95822X1.10606*%
%TA.AperFunction,Conductor*%
%ADD39C,0.50800*%
G36*
X5300000Y6899999D02*
X5309849D01*
X5329169Y6896156D01*
X5347368Y6888618D01*
X5363746Y6877674D01*
X5377675Y6863746D01*
X5388619Y6847367D01*
X5396157Y6829168D01*
X5400000Y6809849D01*
Y6800000D01*
X5400000Y6200000D01*
D01*
Y6157143D01*
Y5900000D01*
X5400000Y5900000D01*
D01*
X5400000Y5890151D01*
X5396157Y5870831D01*
X5388619Y5852632D01*
X5377675Y5836254D01*
X5363746Y5822325D01*
X5347368Y5811381D01*
X5329169Y5803843D01*
X5324372Y5802889D01*
X5319227Y5801865D01*
X5319227Y5801865D01*
X5309849Y5800000D01*
X5300000D01*
X5300000D01*
D01*
D01*
X5299999D01*
Y5800000D01*
X4999999Y5799999D01*
X4980396Y5799037D01*
X4941942Y5791389D01*
X4905719Y5776386D01*
X4873119Y5754603D01*
X4845395Y5726880D01*
X4823613Y5694280D01*
X4808610Y5658057D01*
X4800962Y5619603D01*
X4800000Y5599999D01*
Y5500000D01*
X4799999D01*
Y5300000D01*
X4799999Y5300000D01*
X4799999Y5290150D01*
X4796156Y5270831D01*
X4788618Y5252632D01*
X4777674Y5236253D01*
X4763745Y5222324D01*
X4747366Y5211380D01*
X4729168Y5203842D01*
X4709848Y5199999D01*
X4699999Y5200000D01*
X3399999Y5200000D01*
X3390150D01*
X3370830Y5203843D01*
X3352631Y5211381D01*
X3336253Y5222325D01*
X3322324Y5236253D01*
X3311380Y5252632D01*
X3303842Y5270831D01*
X3299999Y5290150D01*
Y5300000D01*
Y5600000D01*
X3300000D01*
Y5600000D01*
X3399999D01*
X3419602Y5600962D01*
X3458056Y5608611D01*
X3494278Y5623614D01*
X3526877Y5645396D01*
X3554600Y5673119D01*
X3576382Y5705718D01*
X3591386Y5741941D01*
X3599034Y5780394D01*
X3599997Y5799997D01*
X3599998Y5799999D01*
X3600000Y6109849D01*
X3603843Y6129169D01*
X3611381Y6147368D01*
X3622325Y6163746D01*
X3636253Y6177674D01*
X3652632Y6188618D01*
X3670831Y6196156D01*
X3690150Y6199999D01*
X3699999Y6199999D01*
X3700000Y6200000D01*
X4000000D01*
X4019603Y6200963D01*
X4058057Y6208612D01*
X4094279Y6223616D01*
X4126878Y6245398D01*
X4154601Y6273121D01*
X4176383Y6305720D01*
X4191387Y6341942D01*
X4199035Y6380396D01*
X4199998Y6399999D01*
X4200000Y6400000D01*
D01*
Y6799999D01*
X4200000Y6800000D01*
X4201865Y6819227D01*
X4203842Y6829168D01*
X4211380Y6847367D01*
X4222324Y6863746D01*
X4236253Y6877675D01*
X4252632Y6888618D01*
X4270830Y6896157D01*
X4290150Y6900000D01*
X4300000Y6899999D01*
X5300000Y6900000D01*
Y6899999D01*
D02*
G37*
G36*
X-4300000D02*
X-4290151D01*
X-4270831Y6896156D01*
X-4252633Y6888618D01*
X-4236254Y6877674D01*
X-4222325Y6863746D01*
X-4211381Y6847367D01*
X-4203843Y6829168D01*
X-4200000Y6809849D01*
Y6800000D01*
X-4200000Y5900000D01*
X-4200001Y5900000D01*
X-4200000Y5890151D01*
X-4203844Y5870831D01*
X-4211381Y5852632D01*
X-4222325Y5836254D01*
X-4236254Y5822325D01*
X-4252633Y5811381D01*
X-4270831Y5803843D01*
X-4290151Y5800000D01*
X-4300000D01*
X-5300000Y5800000D01*
X-5300001Y5800000D01*
X-5309850Y5800000D01*
X-5329170Y5803843D01*
X-5347369Y5811381D01*
X-5363747Y5822325D01*
X-5377676Y5836254D01*
X-5388620Y5852632D01*
X-5396158Y5870831D01*
X-5400001Y5890151D01*
X-5400000Y5900000D01*
Y6799999D01*
X-5400000Y6800000D01*
X-5398135Y6819227D01*
X-5396158Y6829168D01*
X-5388620Y6847367D01*
X-5377676Y6863746D01*
X-5363747Y6877675D01*
X-5347369Y6888618D01*
X-5329170Y6896157D01*
X-5309850Y6900000D01*
X-5300001Y6899999D01*
X-4300000Y6900000D01*
Y6899999D01*
D02*
G37*
G36*
X2000000Y6300000D02*
X1000000D01*
Y6968924D01*
X2000000D01*
Y6300000D01*
D02*
G37*
G36*
X-1000000D02*
X-2000000D01*
Y6968924D01*
X-1000000D01*
Y6300000D01*
D02*
G37*
G36*
X-2500000Y6000000D02*
X-2500001Y6000000D01*
X-2500001Y5980337D01*
X-2505134Y5941347D01*
X-2515312Y5903361D01*
X-2530361Y5867029D01*
X-2550025Y5832971D01*
X-2573965Y5801772D01*
X-2601772Y5773964D01*
X-2632972Y5750024D01*
X-2667029Y5730361D01*
X-2703362Y5715311D01*
X-2741348Y5705133D01*
X-2780337Y5700000D01*
X-3100000D01*
X-3500000Y5699999D01*
X-3500001Y5699999D01*
X-3509802Y5699517D01*
X-3529029Y5695693D01*
X-3547140Y5688191D01*
X-3563440Y5677300D01*
X-3577301Y5663439D01*
X-3588192Y5647139D01*
X-3595694Y5629028D01*
X-3599519Y5609801D01*
X-3600000Y5599999D01*
Y5300000D01*
X-3600001Y5300000D01*
X-3600000Y5290151D01*
X-3603843Y5270831D01*
X-3611382Y5252632D01*
X-3622325Y5236254D01*
X-3636254Y5222325D01*
X-3652633Y5211381D01*
X-3670832Y5203843D01*
X-3690151Y5200000D01*
X-3700000Y5200000D01*
X-4246000Y5199999D01*
X-4246001Y5199999D01*
X-4270897Y5198776D01*
X-4319733Y5189062D01*
X-4365735Y5170007D01*
X-4407136Y5142344D01*
X-4442345Y5107135D01*
X-4470008Y5065734D01*
X-4489063Y5019732D01*
X-4498777Y4970896D01*
X-4500000Y4946000D01*
Y4200000D01*
X-5000000D01*
Y5481160D01*
X-5000000Y5500000D01*
X-4999999Y5500000D01*
X-5000000Y5500001D01*
X-5000000Y5519698D01*
X-4992315Y5558338D01*
X-4977238Y5594736D01*
X-4955351Y5627493D01*
X-4927493Y5655350D01*
X-4894736Y5677238D01*
X-4858338Y5692314D01*
X-4819699Y5700000D01*
X-4800000Y5700000D01*
X-4318806Y5700000D01*
X-4300001Y5700000D01*
X-4300000Y5700000D01*
X-4300000Y5700000D01*
X-4278475Y5701057D01*
X-4236252Y5709455D01*
X-4196479Y5725930D01*
X-4160684Y5749847D01*
X-4130243Y5780288D01*
X-4106326Y5816083D01*
X-4089852Y5855856D01*
X-4081453Y5898079D01*
X-4080396Y5919604D01*
X-4080396Y6019606D01*
X-4080395Y6019606D01*
X-4079986Y6039437D01*
X-4073464Y6072226D01*
X-4059866Y6105056D01*
X-4040124Y6134602D01*
X-4014997Y6159728D01*
X-3985451Y6179470D01*
X-3952621Y6193068D01*
X-3917769Y6200000D01*
X-3900002Y6199999D01*
X-3718807Y6199999D01*
X-3700002Y6199999D01*
X-3700002Y6199998D01*
X-3700001Y6199998D01*
X-3700000Y6199999D01*
X-3680398Y6200961D01*
X-3641944Y6208609D01*
X-3605721Y6223613D01*
X-3573121Y6245395D01*
X-3545398Y6273119D01*
X-3523615Y6305718D01*
X-3508611Y6341941D01*
X-3500963Y6380395D01*
X-3500001Y6399998D01*
X-3500000Y6968924D01*
X-2500000D01*
Y6000000D01*
D02*
G37*
G36*
X500000Y5900000D02*
X499993Y5899993D01*
X499993Y5880296D01*
X492307Y5841657D01*
X477231Y5805261D01*
X455345Y5772505D01*
X427488Y5744648D01*
X394732Y5722761D01*
X358336Y5707686D01*
X319698Y5700000D01*
X-100000D01*
X-100000Y5699999D01*
X-109802Y5699518D01*
X-129029Y5695693D01*
X-147140Y5688192D01*
X-163440Y5677301D01*
X-177301Y5663439D01*
X-188192Y5647139D01*
X-195694Y5629028D01*
X-199519Y5609802D01*
X-200000Y5600000D01*
Y5290151D01*
X-203843Y5270831D01*
X-211381Y5252632D01*
X-222325Y5236254D01*
X-236254Y5222325D01*
X-252632Y5211381D01*
X-270831Y5203843D01*
X-290151Y5200000D01*
X-846000D01*
X-846000Y5199999D01*
X-870897Y5198776D01*
X-919732Y5189062D01*
X-965735Y5170008D01*
X-1007136Y5142344D01*
X-1042345Y5107136D01*
X-1070008Y5065735D01*
X-1089063Y5019732D01*
X-1098777Y4970896D01*
X-1100000Y4946000D01*
Y4200000D01*
X-1800000D01*
X-1800000Y5399999D01*
X-1800000Y5399999D01*
X-1800000Y5399999D01*
X-1800000Y5432771D01*
X-1791445Y5497754D01*
X-1774481Y5561064D01*
X-1749399Y5621619D01*
X-1716627Y5678381D01*
X-1676726Y5730381D01*
X-1630380Y5776727D01*
X-1578381Y5816628D01*
X-1521618Y5849400D01*
X-1461064Y5874482D01*
X-1397753Y5891446D01*
X-1332771Y5900001D01*
X-1299999Y5900001D01*
X-699999Y5900002D01*
X-699998Y5900001D01*
X-699998Y5900002D01*
X-680395Y5900965D01*
X-641942Y5908614D01*
X-605720Y5923617D01*
X-573121Y5945399D01*
X-545398Y5973122D01*
X-523616Y6005721D01*
X-508612Y6041943D01*
X-500963Y6080397D01*
X-500001Y6100000D01*
X-500000Y6968924D01*
X500000D01*
Y5900000D01*
D02*
G37*
G36*
X3500000Y5800000D02*
Y5790151D01*
X3496157Y5770831D01*
X3488619Y5752632D01*
X3477675Y5736254D01*
X3463746Y5722325D01*
X3447368Y5711381D01*
X3429169Y5703843D01*
X3409849Y5700000D01*
X3300000D01*
X3300000Y5699999D01*
X3290198Y5699518D01*
X3270971Y5695693D01*
X3252860Y5688192D01*
X3236560Y5677301D01*
X3222699Y5663439D01*
X3211808Y5647139D01*
X3204306Y5629028D01*
X3200481Y5609802D01*
X3200000Y5600000D01*
Y5290151D01*
X3196157Y5270831D01*
X3188619Y5252632D01*
X3177675Y5236254D01*
X3163746Y5222325D01*
X3147368Y5211381D01*
X3129169Y5203843D01*
X3109849Y5200000D01*
X2554000D01*
X2554000Y5199999D01*
X2529103Y5198776D01*
X2480268Y5189062D01*
X2434265Y5170008D01*
X2392864Y5142344D01*
X2357655Y5107136D01*
X2329992Y5065735D01*
X2310937Y5019732D01*
X2301223Y4970896D01*
X2300000Y4946000D01*
Y4200000D01*
X1600000D01*
Y5381160D01*
X1600000Y5399999D01*
X1600001Y5400000D01*
X1600000Y5400000D01*
X1600000Y5432771D01*
X1608555Y5497754D01*
X1625519Y5561064D01*
X1650601Y5621618D01*
X1683373Y5678380D01*
X1723273Y5730380D01*
X1769619Y5776726D01*
X1821618Y5816626D01*
X1878381Y5849398D01*
X1938935Y5874480D01*
X2002245Y5891444D01*
X2067228Y5899999D01*
X2100000Y5899999D01*
X2281147Y5900000D01*
X2299999Y5899999D01*
X2300000Y5899999D01*
X2300000Y5900000D01*
X2319603Y5900963D01*
X2358056Y5908611D01*
X2394279Y5923615D01*
X2426878Y5945397D01*
X2454602Y5973121D01*
X2476384Y6005720D01*
X2491388Y6041943D01*
X2499037Y6080396D01*
X2500000Y6100000D01*
X2500000Y6968924D01*
X3500000D01*
Y5800000D01*
D02*
G37*
G36*
X-2000000Y5300000D02*
X-2000001Y5300000D01*
X-2000001Y5290151D01*
X-2003844Y5270831D01*
X-2011382Y5252632D01*
X-2022325Y5236253D01*
X-2036254Y5222325D01*
X-2052633Y5211381D01*
X-2070832Y5203843D01*
X-2090152Y5200000D01*
X-2100001Y5200000D01*
X-3400000Y5200000D01*
X-3409849D01*
X-3429169Y5203843D01*
X-3447368Y5211381D01*
X-3463746Y5222325D01*
X-3477675Y5236254D01*
X-3488619Y5252632D01*
X-3496157Y5270831D01*
X-3500000Y5290151D01*
Y5300000D01*
Y5600000D01*
X-2000000D01*
Y5300000D01*
D02*
G37*
G36*
X1399999Y5300000D02*
X1399998Y5300000D01*
X1399999Y5290150D01*
X1396156Y5270831D01*
X1388617Y5252632D01*
X1377674Y5236253D01*
X1363745Y5222324D01*
X1347366Y5211380D01*
X1329168Y5203842D01*
X1309848Y5199999D01*
X1299999Y5200000D01*
X-1Y5200000D01*
X-9850D01*
X-29170Y5203843D01*
X-47369Y5211381D01*
X-63747Y5222325D01*
X-77676Y5236253D01*
X-88620Y5252632D01*
X-96158Y5270831D01*
X-100001Y5290150D01*
Y5300000D01*
Y5600000D01*
X1399999D01*
Y5300000D01*
D02*
G37*
G36*
X4800000Y4200000D02*
Y3500000D01*
X3300000D01*
X3299999Y3999999D01*
X3299037Y4019603D01*
X3291390Y4058057D01*
X3276387Y4094281D01*
X3254605Y4126881D01*
X3226881Y4154604D01*
X3194281Y4176387D01*
X3158058Y4191390D01*
X3119604Y4199037D01*
X3100001Y4199999D01*
D01*
X3100000D01*
X2400000Y4200000D01*
Y4899999D01*
X2400000Y4919698D01*
X2407686Y4958337D01*
X2422762Y4994735D01*
X2444650Y5027492D01*
X2472507Y5055350D01*
X2505264Y5077237D01*
X2541662Y5092314D01*
X2580301Y5100000D01*
X2600000D01*
X2600000Y5100000D01*
X4800000D01*
Y4200000D01*
D02*
G37*
G36*
X1400000D02*
Y3500000D01*
X-100000D01*
X-100001Y3999999D01*
X-100963Y4019603D01*
X-108610Y4058057D01*
X-123613Y4094281D01*
X-145395Y4126881D01*
X-173119Y4154604D01*
X-205719Y4176387D01*
X-241942Y4191390D01*
X-280396Y4199037D01*
X-299999Y4199999D01*
D01*
X-300000D01*
X-1000000Y4200000D01*
Y4899999D01*
X-1000000Y4919698D01*
X-992314Y4958337D01*
X-977238Y4994735D01*
X-955350Y5027492D01*
X-927493Y5055350D01*
X-894736Y5077237D01*
X-858338Y5092314D01*
X-819699Y5100000D01*
X-800000D01*
X-800000Y5100000D01*
X1400000D01*
Y4200000D01*
D02*
G37*
G36*
X-2000000D02*
Y3500000D01*
X-3500000D01*
X-3500001Y3999999D01*
X-3500963Y4019603D01*
X-3508610Y4058057D01*
X-3523613Y4094281D01*
X-3545396Y4126881D01*
X-3573119Y4154604D01*
X-3605719Y4176387D01*
X-3641942Y4191390D01*
X-3680396Y4199037D01*
X-3699999Y4199999D01*
D01*
X-3700000D01*
X-4400000Y4200000D01*
Y4899999D01*
X-4400000Y4919698D01*
X-4392314Y4958337D01*
X-4377238Y4994735D01*
X-4355350Y5027492D01*
X-4327493Y5055350D01*
X-4294736Y5077237D01*
X-4258338Y5092314D01*
X-4219699Y5100000D01*
X-4200000D01*
X-4200000Y5100000D01*
X-2000000D01*
Y4200000D01*
D02*
G37*
G36*
X2900000Y1700000D02*
X1800000D01*
Y3800000D01*
X2900000D01*
Y1700000D01*
D02*
G37*
G36*
X-500000D02*
X-1600000D01*
Y3800000D01*
X-500000D01*
Y1700000D01*
D02*
G37*
G36*
X-5400000Y3800000D02*
X-3900000D01*
Y1700000D01*
X-5968924D01*
Y5300000D01*
X-5400000D01*
Y3800000D01*
D02*
G37*
G36*
X4799999Y2066840D02*
X4786395D01*
X4760112Y2059798D01*
X4736548Y2046193D01*
X4717308Y2026952D01*
X4703703Y2003388D01*
X4696660Y1977105D01*
Y1949895D01*
X4703703Y1923612D01*
X4717308Y1900048D01*
X4736548Y1880808D01*
X4760112Y1867203D01*
X4786395Y1860160D01*
X4799999D01*
Y1500000D01*
X4800962Y1480396D01*
X4808611Y1441943D01*
X4823615Y1405720D01*
X4845397Y1373121D01*
X4873121Y1345398D01*
X4905720Y1323615D01*
X4941942Y1308612D01*
X4980396Y1300963D01*
X4999994Y1300000D01*
X5299998D01*
X5299999Y1299998D01*
X5299999Y1299999D01*
X5300011D01*
X5318726Y1298233D01*
X5329168Y1296156D01*
X5347367Y1288618D01*
X5363746Y1277675D01*
X5377675Y1263746D01*
X5388618Y1247367D01*
X5396157Y1229168D01*
X5400000Y1209849D01*
Y1200000D01*
X5400000Y200000D01*
X5400000D01*
Y190150D01*
X5396157Y170831D01*
X5388619Y152632D01*
X5377675Y136253D01*
X5363746Y122325D01*
X5347368Y111381D01*
X5329169Y103843D01*
X5309849Y100000D01*
X-5309849D01*
X-5329169Y103843D01*
X-5347368Y111381D01*
X-5363746Y122325D01*
X-5377675Y136254D01*
X-5388619Y152632D01*
X-5396157Y170831D01*
X-5400000Y190151D01*
Y200000D01*
X-5400000Y1200000D01*
Y1209849D01*
X-5396158Y1229169D01*
X-5388619Y1247368D01*
X-5377676Y1263746D01*
X-5363747Y1277675D01*
X-5347368Y1288619D01*
X-5329169Y1296157D01*
X-5309850Y1300000D01*
X-3699996D01*
X-3680398Y1300963D01*
X-3641944Y1308612D01*
X-3605722Y1323615D01*
X-3573122Y1345398D01*
X-3545399Y1373121D01*
X-3523617Y1405720D01*
X-3508613Y1441943D01*
X-3500964Y1480396D01*
X-3500001Y1500000D01*
Y3000000D01*
X-2000001D01*
Y1500000D01*
X-1999038Y1480396D01*
X-1991389Y1441943D01*
X-1976385Y1405720D01*
X-1954603Y1373121D01*
X-1926880Y1345398D01*
X-1894280Y1323615D01*
X-1858058Y1308612D01*
X-1819604Y1300963D01*
X-1800006Y1300000D01*
X-299996D01*
X-280397Y1300963D01*
X-241944Y1308612D01*
X-205721Y1323615D01*
X-173122Y1345398D01*
X-145399Y1373121D01*
X-123616Y1405720D01*
X-108613Y1441943D01*
X-100964Y1480396D01*
X-100001Y1500000D01*
Y3000000D01*
X1399999D01*
Y1500000D01*
X1400962Y1480396D01*
X1408611Y1441943D01*
X1423615Y1405720D01*
X1445397Y1373121D01*
X1473120Y1345398D01*
X1505720Y1323615D01*
X1541942Y1308612D01*
X1580396Y1300963D01*
X1599994Y1300000D01*
X3100004D01*
X3119603Y1300963D01*
X3158056Y1308612D01*
X3194279Y1323615D01*
X3226878Y1345398D01*
X3254601Y1373121D01*
X3276384Y1405720D01*
X3291387Y1441943D01*
X3299036Y1480396D01*
X3299999Y1500000D01*
Y3000000D01*
X4799999D01*
Y2066840D01*
D02*
G37*
%LPC*%
G36*
X4399999Y4800000D02*
X4399999Y4800000D01*
X3699998Y4800000D01*
X3680395Y4799037D01*
X3641941Y4791389D01*
X3605719Y4776386D01*
X3573119Y4754604D01*
X3545396Y4726880D01*
X3523614Y4694281D01*
X3508611Y4658058D01*
X3500963Y4619604D01*
X3500001Y4600001D01*
Y4599984D01*
X3500963Y4580396D01*
X3508612Y4541942D01*
X3523615Y4505720D01*
X3545398Y4473121D01*
X3573121Y4445397D01*
X3605720Y4423615D01*
X3641942Y4408611D01*
X3680396Y4400963D01*
X3699999Y4400000D01*
X4400000D01*
X4419604Y4400963D01*
X4458057Y4408612D01*
X4494280Y4423616D01*
X4526879Y4445398D01*
X4554603Y4473121D01*
X4576385Y4505721D01*
X4591389Y4541943D01*
X4599038Y4580397D01*
X4600000Y4599990D01*
Y4600000D01*
X4599037Y4619604D01*
X4591388Y4658057D01*
X4576385Y4694280D01*
X4554602Y4726879D01*
X4526878Y4754603D01*
X4494278Y4776385D01*
X4458056Y4791388D01*
X4419602Y4799036D01*
X4400000Y4799999D01*
X4399999Y4800000D01*
D02*
G37*
G36*
X3730568Y4110603D02*
X3576500D01*
X3558226Y4108198D01*
X3541198Y4101144D01*
X3526575Y4089924D01*
X3453491Y4016840D01*
X3436395D01*
X3410112Y4009797D01*
X3386548Y3996192D01*
X3367307Y3976952D01*
X3353702Y3953388D01*
X3346660Y3927105D01*
Y3899895D01*
X3353702Y3873612D01*
X3367307Y3850048D01*
X3367355Y3850000D01*
X3367307Y3849952D01*
X3353702Y3826388D01*
X3346660Y3800105D01*
Y3772895D01*
X3353702Y3746612D01*
X3367307Y3723048D01*
X3386548Y3703807D01*
X3410112Y3690202D01*
X3436395Y3683160D01*
X3463605D01*
X3489888Y3690202D01*
X3513452Y3703807D01*
X3532692Y3723048D01*
X3542110Y3739360D01*
X3554000Y3748483D01*
X3561734Y3747174D01*
X3574000Y3742094D01*
Y3650000D01*
X3891000D01*
Y4050000D01*
X3820417D01*
X3780493Y4089924D01*
X3765870Y4101144D01*
X3748842Y4108198D01*
X3730568Y4110603D01*
D02*
G37*
G36*
X999999Y4800000D02*
X999999Y4800000D01*
X299998Y4800000D01*
X280395Y4799037D01*
X241941Y4791389D01*
X205719Y4776386D01*
X173119Y4754604D01*
X145396Y4726880D01*
X123614Y4694281D01*
X108611Y4658058D01*
X100963Y4619604D01*
X100001Y4600001D01*
Y4599984D01*
X100963Y4580396D01*
X108612Y4541942D01*
X123615Y4505720D01*
X145397Y4473121D01*
X173121Y4445397D01*
X205720Y4423615D01*
X241942Y4408611D01*
X280396Y4400963D01*
X299999Y4400000D01*
X1000000D01*
X1019603Y4400963D01*
X1058057Y4408612D01*
X1094279Y4423616D01*
X1126879Y4445398D01*
X1154602Y4473121D01*
X1176385Y4505721D01*
X1191389Y4541943D01*
X1199037Y4580397D01*
X1200000Y4599990D01*
Y4600000D01*
X1199037Y4619604D01*
X1191388Y4658057D01*
X1176384Y4694280D01*
X1154602Y4726879D01*
X1126878Y4754603D01*
X1094278Y4776385D01*
X1058056Y4791388D01*
X1019602Y4799036D01*
X1000000Y4799999D01*
X999999Y4800000D01*
D02*
G37*
G36*
X320568Y4120604D02*
X186500D01*
X168226Y4118198D01*
X151198Y4111145D01*
X136576Y4099924D01*
X53491Y4016840D01*
X36395D01*
X10112Y4009797D01*
X-13452Y3996192D01*
X-32693Y3976952D01*
X-46298Y3953388D01*
X-53340Y3927105D01*
Y3899895D01*
X-46298Y3873612D01*
X-32693Y3850048D01*
X-32645Y3850000D01*
X-32693Y3849952D01*
X-46298Y3826388D01*
X-53340Y3800105D01*
Y3772895D01*
X-46298Y3746612D01*
X-32693Y3723048D01*
X-13452Y3703807D01*
X10112Y3690202D01*
X36395Y3683160D01*
X63605D01*
X89888Y3690202D01*
X113452Y3703807D01*
X132692Y3723048D01*
X142110Y3739360D01*
X154000Y3748483D01*
X161734Y3747174D01*
X174000Y3742094D01*
Y3650000D01*
X491000D01*
Y4050000D01*
X420417D01*
X370492Y4099924D01*
X355870Y4111145D01*
X338841Y4118198D01*
X320568Y4120604D01*
D02*
G37*
G36*
X-2400001Y4800000D02*
X-2400002Y4800000D01*
X-3100002Y4800000D01*
X-3119605Y4799037D01*
X-3158059Y4791389D01*
X-3194281Y4776386D01*
X-3226881Y4754604D01*
X-3254604Y4726880D01*
X-3276386Y4694281D01*
X-3291389Y4658058D01*
X-3299037Y4619604D01*
X-3299999Y4600001D01*
Y4599984D01*
X-3299037Y4580396D01*
X-3291388Y4541942D01*
X-3276385Y4505720D01*
X-3254603Y4473121D01*
X-3226879Y4445397D01*
X-3194280Y4423615D01*
X-3158058Y4408611D01*
X-3119604Y4400963D01*
X-3100001Y4400000D01*
X-2400000D01*
X-2380397Y4400963D01*
X-2341943Y4408612D01*
X-2305721Y4423616D01*
X-2273121Y4445398D01*
X-2245398Y4473121D01*
X-2223615Y4505721D01*
X-2208612Y4541943D01*
X-2200963Y4580397D01*
X-2200000Y4599990D01*
Y4600000D01*
X-2200963Y4619604D01*
X-2208612Y4658057D01*
X-2223616Y4694280D01*
X-2245398Y4726879D01*
X-2273122Y4754603D01*
X-2305722Y4776385D01*
X-2341945Y4791388D01*
X-2380398Y4799036D01*
X-2400001Y4799999D01*
X-2400001Y4800000D01*
D02*
G37*
G36*
X-3052431Y4120604D02*
X-3213500D01*
X-3231773Y4118198D01*
X-3248801Y4111145D01*
X-3263424Y4099924D01*
X-3346508Y4016840D01*
X-3363604D01*
X-3389887Y4009798D01*
X-3413452Y3996193D01*
X-3432692Y3976952D01*
X-3446297Y3953388D01*
X-3453339Y3927105D01*
Y3899895D01*
X-3446297Y3873613D01*
X-3432692Y3850048D01*
X-3432644Y3850000D01*
X-3432692Y3849952D01*
X-3446297Y3826388D01*
X-3453339Y3800105D01*
Y3772895D01*
X-3446297Y3746613D01*
X-3432692Y3723048D01*
X-3413452Y3703808D01*
X-3389887Y3690203D01*
X-3363604Y3683160D01*
X-3336394D01*
X-3310112Y3690203D01*
X-3286547Y3703808D01*
X-3267307Y3723048D01*
X-3257889Y3739360D01*
X-3245999Y3748483D01*
X-3238265Y3747174D01*
X-3225999Y3742094D01*
Y3650000D01*
X-2909000D01*
Y4050000D01*
X-2962938D01*
X-2967855Y4061870D01*
X-2979075Y4076493D01*
X-3002507Y4099924D01*
X-3017129Y4111145D01*
X-3034158Y4118198D01*
X-3052431Y4120604D01*
D02*
G37*
G36*
X1953500Y3653000D02*
X1857500D01*
Y3417000D01*
X1953500D01*
Y3653000D01*
D02*
G37*
G36*
X2844500Y3655000D02*
X2744500D01*
Y3415000D01*
X2755435D01*
X2761851Y3399510D01*
X2774510Y3386851D01*
X2791049Y3380000D01*
X2808951D01*
X2825490Y3386851D01*
X2838149Y3399510D01*
X2845000Y3416049D01*
Y3433951D01*
X2844500Y3435158D01*
Y3655000D01*
D02*
G37*
G36*
X2717500D02*
X2617500D01*
Y3415000D01*
X2630435D01*
X2636851Y3399510D01*
X2649510Y3386851D01*
X2651989Y3385824D01*
Y3364176D01*
X2649510Y3363149D01*
X2636851Y3350490D01*
X2634577Y3345000D01*
X2620000D01*
Y3324543D01*
X2604992Y3312492D01*
X2600000Y3312492D01*
X2578344D01*
X2578141Y3312982D01*
X2565482Y3325641D01*
X2548943Y3332492D01*
X2531041D01*
X2514501Y3325641D01*
X2501843Y3312982D01*
X2501640Y3312492D01*
X2482500D01*
X2462500Y3312500D01*
X2454995Y3312500D01*
X2337500D01*
Y3282494D01*
X2327010Y3278149D01*
X2314351Y3265490D01*
X2307500Y3248951D01*
Y3237301D01*
X2307500Y3232393D01*
X2288598Y3228399D01*
X2287839Y3229501D01*
X2287563Y3229904D01*
X2286761Y3230705D01*
X2274904Y3242562D01*
X2262500Y3247700D01*
Y3277500D01*
X2262500Y3282500D01*
Y3297500D01*
X2262500Y3302500D01*
Y3377628D01*
X2266049Y3380000D01*
X2283951D01*
X2300490Y3386851D01*
X2313149Y3399510D01*
X2315904Y3406161D01*
X2332243Y3414999D01*
X2332245D01*
X2351507Y3413238D01*
X2355000Y3412828D01*
X2355363Y3411953D01*
X2361851Y3396289D01*
X2374510Y3383631D01*
X2391049Y3376780D01*
X2408951D01*
X2425490Y3383631D01*
X2438149Y3396289D01*
X2445000Y3412829D01*
X2455012Y3414004D01*
X2465000Y3414699D01*
X2481967Y3411300D01*
X2486851Y3399510D01*
X2499510Y3386851D01*
X2516049Y3380000D01*
X2533951D01*
X2550490Y3386851D01*
X2563149Y3399510D01*
X2569565Y3415000D01*
X2590500D01*
Y3655000D01*
X2490500D01*
Y3459946D01*
X2483500Y3452984D01*
X2463500Y3461301D01*
Y3655000D01*
X2363500D01*
Y3527896D01*
X2362735Y3524050D01*
Y3448154D01*
X2361851Y3447270D01*
X2355883Y3432862D01*
X2355000Y3430732D01*
X2336501Y3434352D01*
X2336500Y3434999D01*
Y3655000D01*
X2236500D01*
Y3449644D01*
X2212067Y3440896D01*
X2211524Y3441072D01*
X2207500Y3443270D01*
Y3653000D01*
X2111500D01*
Y3417000D01*
X2124221D01*
X2137500Y3402500D01*
Y3302500D01*
X2137500Y3297500D01*
Y3282500D01*
X2137500Y3277500D01*
Y3177500D01*
X2212687D01*
X2223923Y3166264D01*
X2240462Y3159413D01*
X2258364D01*
X2274904Y3166264D01*
X2287562Y3178923D01*
X2294413Y3195462D01*
Y3207112D01*
X2294414Y3212020D01*
X2313315Y3216014D01*
X2314074Y3214912D01*
X2314350Y3214509D01*
X2315152Y3213708D01*
X2327010Y3201851D01*
X2343549Y3195000D01*
X2361451D01*
X2377990Y3201851D01*
X2383639Y3207500D01*
X2457060D01*
X2462500Y3207500D01*
X2480432Y3212492D01*
X2482500D01*
X2601039D01*
X2604992Y3212492D01*
X2623952Y3215000D01*
X2760000D01*
Y3345000D01*
X2715423D01*
X2713149Y3350490D01*
X2700490Y3363149D01*
X2698011Y3364176D01*
Y3385824D01*
X2700490Y3386851D01*
X2713149Y3399510D01*
X2720000Y3416049D01*
Y3433951D01*
X2717500Y3439986D01*
Y3655000D01*
D02*
G37*
G36*
X2760000Y3185000D02*
X2620000D01*
Y3129813D01*
X2613764Y3123577D01*
X2606913Y3107038D01*
Y3089136D01*
X2613764Y3072596D01*
X2620000Y3066360D01*
Y3055000D01*
X2638343D01*
X2642962Y3053087D01*
X2660864D01*
X2665483Y3055000D01*
X2760000D01*
Y3185000D01*
D02*
G37*
G36*
X2752492Y3015008D02*
X2652492D01*
Y2885008D01*
X2752492D01*
Y2911656D01*
X2752982Y2911859D01*
X2765641Y2924517D01*
X2772492Y2941057D01*
Y2958959D01*
X2765641Y2975498D01*
X2752982Y2988157D01*
X2752492Y2988360D01*
Y3015008D01*
D02*
G37*
G36*
Y2865008D02*
X2652492D01*
Y2735008D01*
X2752492D01*
Y2761656D01*
X2752982Y2761859D01*
X2765641Y2774517D01*
X2772492Y2791057D01*
Y2808959D01*
X2765641Y2825498D01*
X2752982Y2838157D01*
X2752492Y2838360D01*
Y2865008D01*
D02*
G37*
G36*
X2767911Y2428506D02*
X2632089D01*
Y2376540D01*
X2621851Y2366302D01*
X2615000Y2349762D01*
Y2331860D01*
X2621851Y2315321D01*
X2632089Y2305083D01*
Y2277900D01*
X2767911D01*
Y2428506D01*
D02*
G37*
G36*
X2046111Y2236500D02*
X2026890D01*
X2008323Y2231525D01*
X1991677Y2221915D01*
X1978086Y2208323D01*
X1968475Y2191677D01*
X1963500Y2173111D01*
Y2153890D01*
X1968475Y2135323D01*
X1971837Y2129500D01*
X1960290Y2109500D01*
X1836500D01*
Y1963500D01*
X1982500D01*
Y1963500D01*
X2002500Y1971837D01*
X2008323Y1968475D01*
X2026890Y1963500D01*
X2046111D01*
X2064677Y1968475D01*
X2081323Y1978086D01*
X2086722Y1983484D01*
X2100000Y1989408D01*
X2113278Y1983484D01*
X2118677Y1978086D01*
X2135323Y1968475D01*
X2153890Y1963500D01*
X2173111D01*
X2191677Y1968475D01*
X2208323Y1978086D01*
X2213722Y1983484D01*
X2227000Y1989408D01*
X2240278Y1983484D01*
X2245677Y1978086D01*
X2262323Y1968475D01*
X2280890Y1963500D01*
X2300111D01*
X2318677Y1968475D01*
X2335323Y1978086D01*
X2348915Y1991677D01*
X2358525Y2008323D01*
X2363500Y2026890D01*
Y2046111D01*
X2358525Y2064677D01*
X2348915Y2081323D01*
X2342052Y2088186D01*
X2336988Y2099960D01*
X2341723Y2114314D01*
X2347314Y2119905D01*
X2356662Y2136095D01*
X2361500Y2154153D01*
Y2172847D01*
X2356662Y2190905D01*
X2347314Y2207095D01*
X2334095Y2220314D01*
X2317905Y2229662D01*
X2299847Y2234500D01*
X2281153D01*
X2263095Y2229662D01*
X2246905Y2220314D01*
X2239850Y2213259D01*
X2227000Y2209205D01*
X2214151Y2213259D01*
X2207095Y2220314D01*
X2190905Y2229662D01*
X2172847Y2234500D01*
X2154153D01*
X2136095Y2229662D01*
X2119905Y2220314D01*
X2114314Y2214723D01*
X2099960Y2209988D01*
X2088186Y2215052D01*
X2081323Y2221915D01*
X2064677Y2231525D01*
X2046111Y2236500D01*
D02*
G37*
G36*
X2708951Y2245000D02*
X2691049D01*
X2674510Y2238149D01*
X2663861Y2227500D01*
X2632500D01*
Y2117500D01*
X2632500Y2102500D01*
X2632500Y2082500D01*
Y1972500D01*
X2705000D01*
Y1966049D01*
X2711851Y1949510D01*
X2724510Y1936851D01*
X2741049Y1930000D01*
X2758951D01*
X2775491Y1936851D01*
X2788149Y1949510D01*
X2795000Y1966049D01*
Y1983951D01*
X2788149Y2000491D01*
X2775491Y2013149D01*
X2775305Y2013226D01*
X2771407Y2019060D01*
X2767500Y2022967D01*
Y2082500D01*
X2767500Y2097500D01*
X2767500Y2117500D01*
Y2227500D01*
X2736139D01*
X2725490Y2238149D01*
X2708951Y2245000D01*
D02*
G37*
G36*
X-1446500Y3653000D02*
X-1542500D01*
Y3417000D01*
X-1446500D01*
Y3653000D01*
D02*
G37*
G36*
X-555500Y3655000D02*
X-655500D01*
Y3415000D01*
X-644566D01*
X-638149Y3399510D01*
X-625491Y3386851D01*
X-608951Y3380000D01*
X-591049D01*
X-574510Y3386851D01*
X-561851Y3399510D01*
X-555000Y3416049D01*
Y3433951D01*
X-555500Y3435158D01*
Y3655000D01*
D02*
G37*
G36*
X-682500D02*
X-782500D01*
Y3415000D01*
X-769566D01*
X-763149Y3399510D01*
X-750491Y3386851D01*
X-748011Y3385824D01*
Y3364176D01*
X-750491Y3363149D01*
X-763149Y3350490D01*
X-765424Y3345000D01*
X-780000D01*
Y3324543D01*
X-795009Y3312492D01*
X-800000Y3312492D01*
X-821656D01*
X-821859Y3312982D01*
X-834518Y3325641D01*
X-851057Y3332492D01*
X-868959D01*
X-885499Y3325641D01*
X-898157Y3312982D01*
X-898361Y3312492D01*
X-917500D01*
X-937500Y3312500D01*
X-945005Y3312500D01*
X-1062500D01*
Y3282494D01*
X-1072991Y3278149D01*
X-1085649Y3265490D01*
X-1092500Y3248951D01*
Y3237301D01*
X-1092501Y3232393D01*
X-1111402Y3228399D01*
X-1112161Y3229501D01*
X-1112437Y3229904D01*
X-1113239Y3230705D01*
X-1125097Y3242562D01*
X-1137500Y3247700D01*
Y3277500D01*
X-1137500Y3282500D01*
Y3297500D01*
X-1137500Y3302500D01*
Y3377628D01*
X-1133951Y3380000D01*
X-1116049D01*
X-1099510Y3386851D01*
X-1086851Y3399510D01*
X-1084096Y3406161D01*
X-1067757Y3414999D01*
X-1067755D01*
X-1048493Y3413238D01*
X-1045000Y3412828D01*
X-1044637Y3411953D01*
X-1038149Y3396289D01*
X-1025491Y3383631D01*
X-1008951Y3376780D01*
X-991049D01*
X-974510Y3383631D01*
X-961851Y3396289D01*
X-955000Y3412829D01*
X-944988Y3414004D01*
X-935000Y3414699D01*
X-918033Y3411300D01*
X-913149Y3399510D01*
X-900491Y3386851D01*
X-883951Y3380000D01*
X-866049D01*
X-849510Y3386851D01*
X-836851Y3399510D01*
X-830435Y3415000D01*
X-809500D01*
Y3655000D01*
X-909500D01*
Y3459946D01*
X-916500Y3452984D01*
X-936500Y3461301D01*
Y3655000D01*
X-1036500D01*
Y3527896D01*
X-1037265Y3524050D01*
Y3448154D01*
X-1038149Y3447270D01*
X-1044117Y3432862D01*
X-1045000Y3430732D01*
X-1063500Y3434352D01*
X-1063500Y3434999D01*
Y3655000D01*
X-1163500D01*
Y3449644D01*
X-1187933Y3440896D01*
X-1188477Y3441072D01*
X-1192500Y3443270D01*
Y3653000D01*
X-1288500D01*
Y3417000D01*
X-1275779D01*
X-1262500Y3402500D01*
Y3302500D01*
X-1262501Y3297500D01*
Y3282500D01*
X-1262500Y3277500D01*
Y3177500D01*
X-1187313D01*
X-1176077Y3166264D01*
X-1159538Y3159413D01*
X-1141636D01*
X-1125097Y3166264D01*
X-1112438Y3178923D01*
X-1105587Y3195462D01*
Y3207112D01*
X-1105587Y3212020D01*
X-1086685Y3216014D01*
X-1085926Y3214912D01*
X-1085650Y3214509D01*
X-1084848Y3213708D01*
X-1072991Y3201851D01*
X-1056451Y3195000D01*
X-1038549D01*
X-1022010Y3201851D01*
X-1016361Y3207500D01*
X-942941D01*
X-937500Y3207500D01*
X-919568Y3212492D01*
X-917500D01*
X-798962D01*
X-795009Y3212492D01*
X-776048Y3215000D01*
X-640000D01*
Y3345000D01*
X-684577D01*
X-686851Y3350490D01*
X-699510Y3363149D01*
X-701989Y3364176D01*
Y3385824D01*
X-699510Y3386851D01*
X-686851Y3399510D01*
X-680000Y3416049D01*
Y3433951D01*
X-682500Y3439986D01*
Y3655000D01*
D02*
G37*
G36*
X-640000Y3185000D02*
X-780000D01*
Y3129813D01*
X-786236Y3123577D01*
X-793087Y3107038D01*
Y3089136D01*
X-786236Y3072596D01*
X-780000Y3066360D01*
Y3055000D01*
X-761657D01*
X-757038Y3053087D01*
X-739136D01*
X-734517Y3055000D01*
X-640000D01*
Y3185000D01*
D02*
G37*
G36*
X-647509Y3015008D02*
X-747509D01*
Y2885008D01*
X-647509D01*
Y2911656D01*
X-647018Y2911859D01*
X-634360Y2924517D01*
X-627509Y2941057D01*
Y2958959D01*
X-634360Y2975498D01*
X-647018Y2988157D01*
X-647509Y2988360D01*
Y3015008D01*
D02*
G37*
G36*
Y2865008D02*
X-747509D01*
Y2735008D01*
X-647509D01*
Y2761656D01*
X-647018Y2761859D01*
X-634360Y2774517D01*
X-627509Y2791057D01*
Y2808959D01*
X-634360Y2825498D01*
X-647018Y2838157D01*
X-647509Y2838360D01*
Y2865008D01*
D02*
G37*
G36*
X-632089Y2428506D02*
X-767911D01*
Y2376540D01*
X-778149Y2366302D01*
X-785000Y2349762D01*
Y2331860D01*
X-778149Y2315321D01*
X-767911Y2305083D01*
Y2277900D01*
X-632089D01*
Y2428506D01*
D02*
G37*
G36*
X-1353890Y2236500D02*
X-1373111D01*
X-1391677Y2231525D01*
X-1408323Y2221915D01*
X-1421915Y2208323D01*
X-1431525Y2191677D01*
X-1436500Y2173111D01*
Y2153890D01*
X-1431525Y2135323D01*
X-1428163Y2129500D01*
X-1439710Y2109500D01*
X-1563500D01*
Y1963500D01*
X-1417501D01*
Y1963500D01*
X-1397500Y1971837D01*
X-1391677Y1968475D01*
X-1373111Y1963500D01*
X-1353890D01*
X-1335323Y1968475D01*
X-1318677Y1978086D01*
X-1313279Y1983484D01*
X-1300000Y1989408D01*
X-1286722Y1983484D01*
X-1281323Y1978086D01*
X-1264677Y1968475D01*
X-1246111Y1963500D01*
X-1226890D01*
X-1208323Y1968475D01*
X-1191677Y1978086D01*
X-1186279Y1983484D01*
X-1173000Y1989408D01*
X-1159722Y1983484D01*
X-1154323Y1978086D01*
X-1137677Y1968475D01*
X-1119111Y1963500D01*
X-1099890D01*
X-1081323Y1968475D01*
X-1064677Y1978086D01*
X-1051086Y1991677D01*
X-1041475Y2008323D01*
X-1036500Y2026890D01*
Y2046111D01*
X-1041475Y2064677D01*
X-1051086Y2081323D01*
X-1057949Y2088186D01*
X-1063013Y2099960D01*
X-1058278Y2114314D01*
X-1052686Y2119905D01*
X-1043339Y2136095D01*
X-1038500Y2154153D01*
Y2172847D01*
X-1043339Y2190905D01*
X-1052686Y2207095D01*
X-1065905Y2220314D01*
X-1082095Y2229662D01*
X-1100153Y2234500D01*
X-1118847D01*
X-1136905Y2229662D01*
X-1153095Y2220314D01*
X-1160151Y2213259D01*
X-1173000Y2209205D01*
X-1185850Y2213259D01*
X-1192905Y2220314D01*
X-1209095Y2229662D01*
X-1227153Y2234500D01*
X-1245847D01*
X-1263905Y2229662D01*
X-1280095Y2220314D01*
X-1285687Y2214723D01*
X-1300040Y2209988D01*
X-1311814Y2215052D01*
X-1318677Y2221915D01*
X-1335323Y2231525D01*
X-1353890Y2236500D01*
D02*
G37*
G36*
X-691049Y2245000D02*
X-708951D01*
X-725491Y2238149D01*
X-736140Y2227500D01*
X-767500D01*
Y2117500D01*
X-767501Y2102500D01*
X-767500Y2082500D01*
Y1972500D01*
X-695000D01*
Y1966049D01*
X-688149Y1949510D01*
X-675491Y1936851D01*
X-658951Y1930000D01*
X-641049D01*
X-624510Y1936851D01*
X-611851Y1949510D01*
X-605000Y1966049D01*
Y1983951D01*
X-611851Y2000491D01*
X-624510Y2013149D01*
X-624695Y2013226D01*
X-628593Y2019060D01*
X-632500Y2022967D01*
Y2082500D01*
X-632500Y2097500D01*
X-632500Y2117500D01*
Y2227500D01*
X-663861D01*
X-674510Y2238149D01*
X-691049Y2245000D01*
D02*
G37*
G36*
X-4846500Y3653000D02*
X-4942500D01*
Y3417000D01*
X-4846500D01*
Y3653000D01*
D02*
G37*
G36*
X-3955500Y3655000D02*
X-4055500D01*
Y3415000D01*
X-4044565D01*
X-4038149Y3399510D01*
X-4025491Y3386851D01*
X-4008951Y3380000D01*
X-3991049D01*
X-3974510Y3386851D01*
X-3961851Y3399510D01*
X-3955000Y3416049D01*
Y3433951D01*
X-3955500Y3435158D01*
Y3655000D01*
D02*
G37*
G36*
X-4082500D02*
X-4182500D01*
Y3415000D01*
X-4169565D01*
X-4163149Y3399510D01*
X-4150491Y3386851D01*
X-4148011Y3385824D01*
Y3364176D01*
X-4150491Y3363149D01*
X-4163149Y3350490D01*
X-4165423Y3345000D01*
X-4180000D01*
Y3324543D01*
X-4195008Y3312492D01*
X-4200000Y3312492D01*
X-4221656D01*
X-4221859Y3312982D01*
X-4234518Y3325641D01*
X-4251057Y3332492D01*
X-4268959D01*
X-4285499Y3325641D01*
X-4298157Y3312982D01*
X-4298360Y3312492D01*
X-4317500D01*
X-4337500Y3312500D01*
X-4345005Y3312500D01*
X-4462500D01*
Y3282494D01*
X-4472991Y3278149D01*
X-4485649Y3265490D01*
X-4492500Y3248951D01*
Y3237301D01*
X-4492501Y3232393D01*
X-4511402Y3228399D01*
X-4512161Y3229501D01*
X-4512437Y3229904D01*
X-4513239Y3230705D01*
X-4525096Y3242562D01*
X-4537500Y3247700D01*
Y3277500D01*
X-4537500Y3282500D01*
Y3297500D01*
X-4537500Y3302500D01*
Y3377628D01*
X-4533951Y3380000D01*
X-4516049D01*
X-4499510Y3386851D01*
X-4486851Y3399510D01*
X-4484096Y3406161D01*
X-4467757Y3414999D01*
X-4467755D01*
X-4448493Y3413238D01*
X-4445000Y3412828D01*
X-4444637Y3411953D01*
X-4438149Y3396289D01*
X-4425491Y3383631D01*
X-4408951Y3376780D01*
X-4391049D01*
X-4374510Y3383631D01*
X-4361851Y3396289D01*
X-4355000Y3412829D01*
X-4344988Y3414004D01*
X-4335000Y3414699D01*
X-4318033Y3411300D01*
X-4313149Y3399510D01*
X-4300491Y3386851D01*
X-4283951Y3380000D01*
X-4266049D01*
X-4249510Y3386851D01*
X-4236851Y3399510D01*
X-4230435Y3415000D01*
X-4209500D01*
Y3655000D01*
X-4309500D01*
Y3459946D01*
X-4316500Y3452984D01*
X-4336500Y3461301D01*
Y3655000D01*
X-4436500D01*
Y3527896D01*
X-4437265Y3524050D01*
Y3448154D01*
X-4438149Y3447270D01*
X-4444117Y3432862D01*
X-4445000Y3430732D01*
X-4463500Y3434352D01*
X-4463500Y3434999D01*
Y3655000D01*
X-4563500D01*
Y3449644D01*
X-4587933Y3440896D01*
X-4588476Y3441072D01*
X-4592500Y3443270D01*
Y3653000D01*
X-4688500D01*
Y3417000D01*
X-4675779D01*
X-4662500Y3402500D01*
Y3302500D01*
X-4662500Y3297500D01*
Y3282500D01*
X-4662500Y3277500D01*
Y3177500D01*
X-4587313D01*
X-4576077Y3166264D01*
X-4559538Y3159413D01*
X-4541636D01*
X-4525096Y3166264D01*
X-4512438Y3178923D01*
X-4505587Y3195462D01*
Y3207112D01*
X-4505586Y3212020D01*
X-4486685Y3216014D01*
X-4485926Y3214912D01*
X-4485650Y3214509D01*
X-4484848Y3213708D01*
X-4472991Y3201851D01*
X-4456451Y3195000D01*
X-4438549D01*
X-4422010Y3201851D01*
X-4416361Y3207500D01*
X-4342941D01*
X-4337500Y3207500D01*
X-4319568Y3212492D01*
X-4317500D01*
X-4198961D01*
X-4195008Y3212492D01*
X-4176048Y3215000D01*
X-4040000D01*
Y3345000D01*
X-4084577D01*
X-4086851Y3350490D01*
X-4099510Y3363149D01*
X-4101989Y3364176D01*
Y3385824D01*
X-4099510Y3386851D01*
X-4086851Y3399510D01*
X-4080000Y3416049D01*
Y3433951D01*
X-4082500Y3439986D01*
Y3655000D01*
D02*
G37*
G36*
X-4040000Y3185000D02*
X-4180000D01*
Y3129813D01*
X-4186236Y3123577D01*
X-4193087Y3107038D01*
Y3089136D01*
X-4186236Y3072596D01*
X-4180000Y3066360D01*
Y3055000D01*
X-4161657D01*
X-4157038Y3053087D01*
X-4139136D01*
X-4134517Y3055000D01*
X-4040000D01*
Y3185000D01*
D02*
G37*
G36*
X-4047509Y3015008D02*
X-4147508D01*
Y2885008D01*
X-4047509D01*
Y2911656D01*
X-4047018Y2911859D01*
X-4034359Y2924517D01*
X-4027509Y2941057D01*
Y2958959D01*
X-4034359Y2975498D01*
X-4047018Y2988157D01*
X-4047509Y2988360D01*
Y3015008D01*
D02*
G37*
G36*
Y2865008D02*
X-4147508D01*
Y2735008D01*
X-4047509D01*
Y2761656D01*
X-4047018Y2761859D01*
X-4034359Y2774517D01*
X-4027509Y2791057D01*
Y2808959D01*
X-4034359Y2825498D01*
X-4047018Y2838157D01*
X-4047509Y2838360D01*
Y2865008D01*
D02*
G37*
G36*
X-4032089Y2428506D02*
X-4167911D01*
Y2376540D01*
X-4178149Y2366302D01*
X-4185000Y2349762D01*
Y2331860D01*
X-4178149Y2315321D01*
X-4167911Y2305083D01*
Y2277900D01*
X-4032089D01*
Y2428506D01*
D02*
G37*
G36*
X-4753889Y2236500D02*
X-4773111D01*
X-4791677Y2231525D01*
X-4808323Y2221915D01*
X-4821914Y2208323D01*
X-4831525Y2191677D01*
X-4836500Y2173111D01*
Y2153890D01*
X-4831525Y2135323D01*
X-4828163Y2129500D01*
X-4839710Y2109500D01*
X-4963500D01*
Y1963500D01*
X-4817500D01*
Y1963500D01*
X-4797500Y1971837D01*
X-4791677Y1968475D01*
X-4773111Y1963500D01*
X-4753889D01*
X-4735323Y1968475D01*
X-4718677Y1978086D01*
X-4713278Y1983484D01*
X-4700000Y1989408D01*
X-4686722Y1983484D01*
X-4681323Y1978086D01*
X-4664677Y1968475D01*
X-4646111Y1963500D01*
X-4626889D01*
X-4608323Y1968475D01*
X-4591677Y1978086D01*
X-4586278Y1983484D01*
X-4573000Y1989408D01*
X-4559722Y1983484D01*
X-4554323Y1978086D01*
X-4537677Y1968475D01*
X-4519111Y1963500D01*
X-4499889D01*
X-4481323Y1968475D01*
X-4464677Y1978086D01*
X-4451086Y1991677D01*
X-4441475Y2008323D01*
X-4436500Y2026890D01*
Y2046111D01*
X-4441475Y2064677D01*
X-4451086Y2081323D01*
X-4457948Y2088186D01*
X-4463012Y2099960D01*
X-4458277Y2114314D01*
X-4452686Y2119905D01*
X-4443339Y2136095D01*
X-4438500Y2154153D01*
Y2172847D01*
X-4443339Y2190905D01*
X-4452686Y2207095D01*
X-4465905Y2220314D01*
X-4482095Y2229662D01*
X-4500153Y2234500D01*
X-4518847D01*
X-4536905Y2229662D01*
X-4553095Y2220314D01*
X-4560150Y2213259D01*
X-4573000Y2209205D01*
X-4585850Y2213259D01*
X-4592905Y2220314D01*
X-4609095Y2229662D01*
X-4627153Y2234500D01*
X-4645847D01*
X-4663905Y2229662D01*
X-4680095Y2220314D01*
X-4685686Y2214723D01*
X-4700040Y2209988D01*
X-4711814Y2215052D01*
X-4718677Y2221915D01*
X-4735323Y2231525D01*
X-4753889Y2236500D01*
D02*
G37*
G36*
X-4091049Y2245000D02*
X-4108951D01*
X-4125491Y2238149D01*
X-4136140Y2227500D01*
X-4167500D01*
Y2117500D01*
X-4167500Y2102500D01*
X-4167500Y2082500D01*
Y1972500D01*
X-4095000D01*
Y1966049D01*
X-4088149Y1949510D01*
X-4075490Y1936851D01*
X-4058951Y1930000D01*
X-4041049D01*
X-4024510Y1936851D01*
X-4011851Y1949510D01*
X-4005000Y1966049D01*
Y1983951D01*
X-4011851Y2000491D01*
X-4024510Y2013149D01*
X-4024695Y2013226D01*
X-4028593Y2019060D01*
X-4032500Y2022967D01*
Y2082500D01*
X-4032500Y2097500D01*
X-4032500Y2117500D01*
Y2227500D01*
X-4063861D01*
X-4074510Y2238149D01*
X-4091049Y2245000D01*
D02*
G37*
G36*
X-3052431Y2160604D02*
X-3223500D01*
X-3241773Y2158198D01*
X-3258802Y2151145D01*
X-3273424Y2139924D01*
X-3346508Y2066840D01*
X-3363604D01*
X-3389887Y2059798D01*
X-3413452Y2046193D01*
X-3432692Y2026953D01*
X-3446297Y2003388D01*
X-3453339Y1977105D01*
Y1949895D01*
X-3446297Y1923613D01*
X-3432692Y1900048D01*
X-3432644Y1900000D01*
X-3432692Y1899953D01*
X-3446297Y1876388D01*
X-3453339Y1850105D01*
Y1822895D01*
X-3446297Y1796613D01*
X-3432692Y1773048D01*
X-3413452Y1753808D01*
X-3389887Y1740203D01*
X-3363604Y1733160D01*
X-3336394D01*
X-3310112Y1740203D01*
X-3286547Y1753808D01*
X-3267307Y1773048D01*
X-3257889Y1789360D01*
X-3245999Y1798483D01*
X-3238265Y1797174D01*
X-3225999Y1792094D01*
Y1700000D01*
X-2909000D01*
Y2100000D01*
X-2967080D01*
X-2967855Y2101870D01*
X-2979075Y2116493D01*
X-3002507Y2139924D01*
X-3017129Y2151145D01*
X-3034158Y2158198D01*
X-3052431Y2160604D01*
D02*
G37*
G36*
X3747568Y2160604D02*
X3576500D01*
X3558226Y2158198D01*
X3541198Y2151144D01*
X3526575Y2139924D01*
X3453491Y2066840D01*
X3436395D01*
X3410112Y2059798D01*
X3386548Y2046193D01*
X3367307Y2026952D01*
X3353702Y2003388D01*
X3346660Y1977105D01*
Y1949895D01*
X3353702Y1923612D01*
X3367307Y1900048D01*
X3367355Y1900000D01*
X3367307Y1899952D01*
X3353702Y1876388D01*
X3346660Y1850105D01*
Y1822895D01*
X3353702Y1796612D01*
X3367307Y1773048D01*
X3386548Y1753808D01*
X3410112Y1740203D01*
X3436395Y1733160D01*
X3463605D01*
X3489888Y1740203D01*
X3513452Y1753808D01*
X3532692Y1773048D01*
X3542110Y1789360D01*
X3554000Y1798483D01*
X3561734Y1797174D01*
X3574000Y1792094D01*
Y1700000D01*
X3891000D01*
Y2100000D01*
X3832919D01*
X3832144Y2101870D01*
X3820924Y2116493D01*
X3797493Y2139924D01*
X3782870Y2151144D01*
X3765842Y2158198D01*
X3747568Y2160604D01*
D02*
G37*
G36*
X330568D02*
X176500D01*
X158226Y2158198D01*
X141198Y2151144D01*
X126575Y2139924D01*
X53491Y2066840D01*
X36395D01*
X10112Y2059798D01*
X-13452Y2046193D01*
X-32693Y2026952D01*
X-46298Y2003388D01*
X-53340Y1977105D01*
Y1949895D01*
X-46298Y1923612D01*
X-32693Y1900048D01*
X-32645Y1900000D01*
X-32693Y1899952D01*
X-46298Y1876388D01*
X-53340Y1850105D01*
Y1822895D01*
X-46298Y1796612D01*
X-32693Y1773048D01*
X-13452Y1753808D01*
X10112Y1740203D01*
X36395Y1733160D01*
X63605D01*
X89888Y1740203D01*
X113452Y1753808D01*
X132692Y1773048D01*
X142110Y1789360D01*
X154000Y1798483D01*
X161734Y1797174D01*
X174000Y1792094D01*
Y1700000D01*
X491000D01*
Y2100000D01*
X420417D01*
X380493Y2139924D01*
X365870Y2151144D01*
X348842Y2158198D01*
X330568Y2160604D01*
D02*
G37*
%LPD*%
D14*
X-5700000Y3500000D02*
D03*
X5700000D02*
D03*
D15*
X2290500Y2163500D02*
D03*
Y2036500D02*
D03*
X2163500Y2163500D02*
D03*
Y2036500D02*
D03*
X2036500Y2163500D02*
D03*
Y2036500D02*
D03*
X1909500Y2163500D02*
D03*
X-1109500D02*
D03*
Y2036500D02*
D03*
X-1236500Y2163500D02*
D03*
Y2036500D02*
D03*
X-1363500Y2163500D02*
D03*
Y2036500D02*
D03*
X-1490500Y2163500D02*
D03*
X-4509500D02*
D03*
Y2036500D02*
D03*
X-4636500Y2163500D02*
D03*
Y2036500D02*
D03*
X-4763500Y2163500D02*
D03*
Y2036500D02*
D03*
X-4890500Y2163500D02*
D03*
D16*
X1909500Y2036500D02*
D03*
X-1490500D02*
D03*
X-4890500D02*
D03*
D17*
X50000Y1836500D02*
D03*
Y1963500D02*
D03*
Y3786500D02*
D03*
Y3913500D02*
D03*
X-3349999Y1836500D02*
D03*
Y1963500D02*
D03*
Y3786500D02*
D03*
Y3913500D02*
D03*
X4800000Y1963500D02*
D03*
Y1836500D02*
D03*
X3450000Y3786500D02*
D03*
Y3913500D02*
D03*
Y1836500D02*
D03*
Y1963500D02*
D03*
D18*
X-2619000Y6881000D02*
D03*
Y6627000D02*
D03*
Y6373000D02*
D03*
Y6119000D02*
D03*
X-3381000Y6881000D02*
D03*
Y6627000D02*
D03*
Y6373000D02*
D03*
Y6119000D02*
D03*
X381000Y6881000D02*
D03*
Y6627000D02*
D03*
Y6373000D02*
D03*
Y6119000D02*
D03*
X-381000Y6881000D02*
D03*
Y6627000D02*
D03*
Y6373000D02*
D03*
Y6119000D02*
D03*
X3381000Y6881000D02*
D03*
Y6627000D02*
D03*
Y6373000D02*
D03*
Y6119000D02*
D03*
X2619000Y6881000D02*
D03*
Y6627000D02*
D03*
Y6373000D02*
D03*
Y6119000D02*
D03*
D19*
X-3000000Y6500000D02*
D03*
X0D02*
D03*
X3000000D02*
D03*
D20*
X-5700000Y2000000D02*
D03*
Y5000000D02*
D03*
X5700000Y2000000D02*
D03*
Y5000000D02*
D03*
X-5700000Y4000000D02*
D03*
X5700000D02*
D03*
X-1400000Y6600000D02*
D03*
X1400000D02*
D03*
X2100000Y2700000D02*
D03*
X-1300000D02*
D03*
X-4700000D02*
D03*
D21*
X4419000Y6781000D02*
D03*
X4673000D02*
D03*
X4927000D02*
D03*
X5181000D02*
D03*
Y6019000D02*
D03*
X4927000D02*
D03*
X4673000D02*
D03*
X-5181000Y981000D02*
D03*
X-4927000D02*
D03*
X-4673000D02*
D03*
X-4419000D02*
D03*
Y219000D02*
D03*
X-4673000D02*
D03*
X-4927000D02*
D03*
X4419000Y981000D02*
D03*
X4673000D02*
D03*
X4927000D02*
D03*
X5181000D02*
D03*
Y219000D02*
D03*
X4927000D02*
D03*
X4673000D02*
D03*
X-5181000Y6781000D02*
D03*
X-4927000D02*
D03*
X-4673000D02*
D03*
X-4419000D02*
D03*
Y6019000D02*
D03*
X-4673000D02*
D03*
X-4927000D02*
D03*
D22*
X4419000D02*
D03*
X-5181000Y219000D02*
D03*
X4419000D02*
D03*
X-5181000Y6019000D02*
D03*
D23*
X-5700000Y3809500D02*
D03*
Y4190500D02*
D03*
X-5509500Y4000000D02*
D03*
X-5890500D02*
D03*
X5890500D02*
D03*
X5509500D02*
D03*
X5700000Y4190500D02*
D03*
Y3809500D02*
D03*
X-1400000Y6409500D02*
D03*
Y6790500D02*
D03*
X-1209500Y6600000D02*
D03*
X-1590500D02*
D03*
X1400000Y6409500D02*
D03*
Y6790500D02*
D03*
X1590500Y6600000D02*
D03*
X1209500D02*
D03*
X1909500Y2700000D02*
D03*
X2290500D02*
D03*
X2100000Y2890500D02*
D03*
Y2509500D02*
D03*
X-1490500Y2700000D02*
D03*
X-1109500D02*
D03*
X-1300000Y2890500D02*
D03*
Y2509500D02*
D03*
X-4890500Y2700000D02*
D03*
X-4509500D02*
D03*
X-4700000Y2890500D02*
D03*
Y2509500D02*
D03*
D24*
X700000Y3175000D02*
D03*
X850000Y3225000D02*
D03*
X650000Y3325000D02*
D03*
X350000D02*
D03*
X1050000D02*
D03*
X900000Y3175000D02*
D03*
X800000D02*
D03*
X300000D02*
D03*
X500000D02*
D03*
X1050000Y3225000D02*
D03*
X250000Y3325000D02*
D03*
X900000Y3275000D02*
D03*
X1000000Y3175000D02*
D03*
X750000Y3225000D02*
D03*
X950000D02*
D03*
X250000D02*
D03*
X700000Y3275000D02*
D03*
X800000D02*
D03*
X1000000D02*
D03*
X750000Y3325000D02*
D03*
X850000D02*
D03*
X950000D02*
D03*
X400000Y3175000D02*
D03*
X600000D02*
D03*
X350000Y3225000D02*
D03*
X550000D02*
D03*
X450000D02*
D03*
X650000D02*
D03*
X500000Y3275000D02*
D03*
X400000D02*
D03*
X300000D02*
D03*
X600000D02*
D03*
X450000Y3325000D02*
D03*
X550000D02*
D03*
X-2350000D02*
D03*
X-2400000Y3275000D02*
D03*
X-2350000Y3225000D02*
D03*
X-2400000Y3175000D02*
D03*
X-2550000Y3325000D02*
D03*
X-2450000D02*
D03*
X-2600000Y3275000D02*
D03*
X-2650000Y3325000D02*
D03*
X-2750000D02*
D03*
X-2700000Y3275000D02*
D03*
X-2800000D02*
D03*
X-2500000D02*
D03*
X-2450000Y3225000D02*
D03*
X-2550000D02*
D03*
X-2500000Y3175000D02*
D03*
X-2600000D02*
D03*
X-2650000Y3225000D02*
D03*
X-2750000D02*
D03*
X-2700000Y3175000D02*
D03*
X-2800000D02*
D03*
X-2850000Y3325000D02*
D03*
X-2950000D02*
D03*
X-3150000D02*
D03*
X-3050000D02*
D03*
X-3100000Y3275000D02*
D03*
X-2900000D02*
D03*
X-2850000Y3225000D02*
D03*
X-2950000D02*
D03*
X-2900000Y3175000D02*
D03*
X-3000000D02*
D03*
Y3275000D02*
D03*
X-3150000Y3225000D02*
D03*
X-3050000D02*
D03*
X-3100000Y3175000D02*
D03*
X-3400000Y5250000D02*
D03*
X-3300000D02*
D03*
X-3200000D02*
D03*
X5150000Y6600000D02*
D03*
X5050000D02*
D03*
X5200000Y6550000D02*
D03*
X5100000D02*
D03*
X4950000Y6600000D02*
D03*
X4900000Y6550000D02*
D03*
X4850000Y6600000D02*
D03*
X5000000Y6550000D02*
D03*
X4950000Y6500000D02*
D03*
X5150000D02*
D03*
X5200000Y6450000D02*
D03*
X5100000D02*
D03*
X5150000Y6400000D02*
D03*
X5050000D02*
D03*
Y6500000D02*
D03*
X4900000Y6450000D02*
D03*
X5000000D02*
D03*
X4950000Y6400000D02*
D03*
X4750000Y6600000D02*
D03*
X4800000Y6550000D02*
D03*
X4700000D02*
D03*
X4650000Y6600000D02*
D03*
X4600000Y6550000D02*
D03*
X4550000Y6600000D02*
D03*
X4650000Y6500000D02*
D03*
X4550000D02*
D03*
X4850000D02*
D03*
X4800000Y6450000D02*
D03*
X4750000Y6500000D02*
D03*
X4850000Y6400000D02*
D03*
X4750000D02*
D03*
X4700000Y6450000D02*
D03*
X4600000D02*
D03*
X4650000Y6400000D02*
D03*
X4550000D02*
D03*
X5100000Y6350000D02*
D03*
X5200000D02*
D03*
X5000000D02*
D03*
X5150000Y6300000D02*
D03*
X5050000D02*
D03*
X4900000Y6350000D02*
D03*
X4950000Y6300000D02*
D03*
X4850000D02*
D03*
X4900000Y6250000D02*
D03*
X4800000D02*
D03*
X5100000D02*
D03*
X5200000D02*
D03*
X5050000Y6200000D02*
D03*
X5150000D02*
D03*
X5000000Y6250000D02*
D03*
X4850000Y6200000D02*
D03*
X4950000D02*
D03*
X4800000Y6350000D02*
D03*
X4750000Y6300000D02*
D03*
X4700000Y6350000D02*
D03*
Y6250000D02*
D03*
X4650000Y6200000D02*
D03*
X4600000Y6350000D02*
D03*
X4650000Y6300000D02*
D03*
X4550000D02*
D03*
X4600000Y6250000D02*
D03*
X4550000Y6200000D02*
D03*
X4750000D02*
D03*
Y5500000D02*
D03*
X4700000Y5450000D02*
D03*
Y5550000D02*
D03*
X4600000D02*
D03*
X4650000Y5500000D02*
D03*
X4550000D02*
D03*
X4500000Y6550000D02*
D03*
X4450000Y6500000D02*
D03*
Y6600000D02*
D03*
X4500000Y6450000D02*
D03*
X4450000Y6400000D02*
D03*
X4400000Y6550000D02*
D03*
X4350000Y6500000D02*
D03*
Y6600000D02*
D03*
X4400000Y6450000D02*
D03*
X4350000Y6400000D02*
D03*
X4500000Y6350000D02*
D03*
Y6250000D02*
D03*
X4450000Y6300000D02*
D03*
X4500000Y5550000D02*
D03*
X4450000Y6200000D02*
D03*
X4400000Y6250000D02*
D03*
Y6350000D02*
D03*
Y5550000D02*
D03*
X4350000Y6200000D02*
D03*
Y6300000D02*
D03*
X1300000Y5550000D02*
D03*
X1200000D02*
D03*
X800000D02*
D03*
X900000D02*
D03*
X700000D02*
D03*
X1100000D02*
D03*
X1000000D02*
D03*
X3700000D02*
D03*
X3800000D02*
D03*
X3600000D02*
D03*
X4300000D02*
D03*
X4200000D02*
D03*
X3500000D02*
D03*
X3400000D02*
D03*
X4100000D02*
D03*
X4050000Y5500000D02*
D03*
X4000000Y5550000D02*
D03*
X4250000Y5500000D02*
D03*
X4150000D02*
D03*
X3900000Y5550000D02*
D03*
X3750000Y5500000D02*
D03*
X3650000D02*
D03*
X3950000D02*
D03*
X3850000D02*
D03*
X4350000D02*
D03*
X4450000D02*
D03*
X4000000Y5450000D02*
D03*
X4200000D02*
D03*
X4100000D02*
D03*
X3700000D02*
D03*
X3600000D02*
D03*
X3900000D02*
D03*
X3800000D02*
D03*
X1350000Y5500000D02*
D03*
X3350000D02*
D03*
X1250000D02*
D03*
X3550000D02*
D03*
X3450000D02*
D03*
X850000D02*
D03*
X950000D02*
D03*
X750000D02*
D03*
X1150000D02*
D03*
X1050000D02*
D03*
X1200000Y5450000D02*
D03*
X1300000D02*
D03*
X1100000D02*
D03*
X3500000D02*
D03*
X3400000D02*
D03*
X800000D02*
D03*
X700000D02*
D03*
X1000000D02*
D03*
X900000D02*
D03*
X4600000D02*
D03*
X4550000Y5400000D02*
D03*
X4500000Y5450000D02*
D03*
X4750000Y5400000D02*
D03*
X4650000D02*
D03*
X4400000Y5450000D02*
D03*
X4450000Y5400000D02*
D03*
X4350000D02*
D03*
X4400000Y5350000D02*
D03*
X4300000D02*
D03*
X4700000D02*
D03*
X4650000Y5300000D02*
D03*
X4600000Y5350000D02*
D03*
X4750000Y5300000D02*
D03*
X4500000Y5350000D02*
D03*
X4350000Y5300000D02*
D03*
X4550000D02*
D03*
X4450000D02*
D03*
X4300000Y5450000D02*
D03*
X4250000Y5400000D02*
D03*
X4150000D02*
D03*
X4200000Y5350000D02*
D03*
X4100000D02*
D03*
X3950000Y5400000D02*
D03*
X4050000D02*
D03*
X3900000Y5350000D02*
D03*
X4000000D02*
D03*
X3850000Y5300000D02*
D03*
X4150000D02*
D03*
X4250000D02*
D03*
X4100000Y5250000D02*
D03*
X4300000D02*
D03*
X4200000D02*
D03*
X4050000Y5300000D02*
D03*
X3950000D02*
D03*
X4000000Y5250000D02*
D03*
X3900000D02*
D03*
X4500000D02*
D03*
X4600000D02*
D03*
X4400000D02*
D03*
X4700000D02*
D03*
X4450000Y3325000D02*
D03*
X4400000Y3275000D02*
D03*
X4450000Y3225000D02*
D03*
X4400000Y3175000D02*
D03*
X4350000Y3325000D02*
D03*
X4300000Y3275000D02*
D03*
X4350000Y3225000D02*
D03*
X4300000Y3175000D02*
D03*
X4150000Y3325000D02*
D03*
X4250000D02*
D03*
X4200000Y3275000D02*
D03*
X4100000D02*
D03*
X3950000Y3325000D02*
D03*
X4050000D02*
D03*
X3850000D02*
D03*
X4000000Y3275000D02*
D03*
X3900000D02*
D03*
X4150000Y3225000D02*
D03*
X4250000D02*
D03*
X4200000Y3175000D02*
D03*
X4100000D02*
D03*
X4050000Y3225000D02*
D03*
X3950000D02*
D03*
X4000000Y3175000D02*
D03*
X3900000D02*
D03*
X3650000Y5400000D02*
D03*
X3750000D02*
D03*
X3550000D02*
D03*
X3850000D02*
D03*
X3500000Y5350000D02*
D03*
X3350000Y5400000D02*
D03*
X3450000D02*
D03*
X1350000D02*
D03*
X3400000Y5350000D02*
D03*
X1300000D02*
D03*
X3700000D02*
D03*
X3800000D02*
D03*
X3600000D02*
D03*
X3750000Y5300000D02*
D03*
X3650000D02*
D03*
X3350000D02*
D03*
X1350000D02*
D03*
X3550000D02*
D03*
X3450000D02*
D03*
X1050000Y5400000D02*
D03*
X1150000D02*
D03*
X950000D02*
D03*
X1250000D02*
D03*
X1000000Y5350000D02*
D03*
X750000Y5400000D02*
D03*
X850000D02*
D03*
X700000Y5350000D02*
D03*
X900000D02*
D03*
X800000D02*
D03*
X1200000D02*
D03*
X1150000Y5300000D02*
D03*
X1100000Y5350000D02*
D03*
X1250000Y5300000D02*
D03*
X1200000Y5250000D02*
D03*
X850000Y5300000D02*
D03*
X750000D02*
D03*
X1050000D02*
D03*
X950000D02*
D03*
X3700000Y5250000D02*
D03*
X3800000D02*
D03*
X3600000D02*
D03*
X3650000Y3325000D02*
D03*
X1300000Y5250000D02*
D03*
X3400000D02*
D03*
X1100000D02*
D03*
X3500000D02*
D03*
X3800000Y3275000D02*
D03*
X3750000Y3225000D02*
D03*
Y3325000D02*
D03*
X3850000Y3225000D02*
D03*
X3800000Y3175000D02*
D03*
X3700000Y3275000D02*
D03*
Y3175000D02*
D03*
X3650000Y3225000D02*
D03*
X900000Y5250000D02*
D03*
X1000000D02*
D03*
X800000D02*
D03*
X700000D02*
D03*
X-2300000Y5550000D02*
D03*
X-2200000D02*
D03*
X-2400000D02*
D03*
X0D02*
D03*
X-2100000D02*
D03*
X-2800000D02*
D03*
X-2700000D02*
D03*
X-2900000D02*
D03*
X-2500000D02*
D03*
X-2600000D02*
D03*
X400000D02*
D03*
X500000D02*
D03*
X300000D02*
D03*
X600000D02*
D03*
X350000Y5500000D02*
D03*
X200000Y5550000D02*
D03*
X100000D02*
D03*
X-4350000Y6550000D02*
D03*
Y6450000D02*
D03*
Y6350000D02*
D03*
X-4400000Y6400000D02*
D03*
Y6600000D02*
D03*
Y6500000D02*
D03*
X-4450000Y6450000D02*
D03*
X-4400000Y6300000D02*
D03*
X-4450000Y6250000D02*
D03*
X-3300000Y5550000D02*
D03*
X-3200000D02*
D03*
X-3000000D02*
D03*
X-3100000D02*
D03*
X-4350000Y6250000D02*
D03*
X-4400000Y6200000D02*
D03*
X-3400000Y5550000D02*
D03*
X250000Y5500000D02*
D03*
X450000D02*
D03*
X150000D02*
D03*
X650000D02*
D03*
X550000D02*
D03*
X-2150000D02*
D03*
X-2050000D02*
D03*
X-2250000D02*
D03*
X50000D02*
D03*
X-50000D02*
D03*
X300000Y5450000D02*
D03*
X400000D02*
D03*
X200000D02*
D03*
X600000D02*
D03*
X500000D02*
D03*
X-2100000D02*
D03*
X-2200000D02*
D03*
X100000D02*
D03*
X0D02*
D03*
X-2850000Y5500000D02*
D03*
X-2750000D02*
D03*
X-2950000D02*
D03*
X-2550000D02*
D03*
X-2650000D02*
D03*
X-3350000D02*
D03*
X-3250000D02*
D03*
X-3450000D02*
D03*
X-3050000D02*
D03*
X-3150000D02*
D03*
X-2450000D02*
D03*
X-2350000D02*
D03*
X-3000000Y5450000D02*
D03*
X-2500000D02*
D03*
X-2900000D02*
D03*
X-3300000D02*
D03*
X-3400000D02*
D03*
X-3100000D02*
D03*
X-3200000D02*
D03*
X-4600000Y6600000D02*
D03*
X-4500000D02*
D03*
X-4450000Y6550000D02*
D03*
X-4550000D02*
D03*
X-4700000Y6600000D02*
D03*
X-4750000Y6550000D02*
D03*
X-4800000Y6600000D02*
D03*
X-4650000Y6550000D02*
D03*
X-4800000Y6500000D02*
D03*
X-4600000D02*
D03*
X-4500000D02*
D03*
X-4650000Y6450000D02*
D03*
X-4550000D02*
D03*
X-4600000Y6400000D02*
D03*
X-4700000Y6500000D02*
D03*
X-4850000Y6450000D02*
D03*
X-4700000Y6400000D02*
D03*
X-4750000Y6450000D02*
D03*
X-4900000Y6600000D02*
D03*
X-5000000D02*
D03*
X-4850000Y6550000D02*
D03*
X-4950000D02*
D03*
X-5200000Y6600000D02*
D03*
X-5100000D02*
D03*
X-5050000Y6550000D02*
D03*
X-5150000D02*
D03*
X-5000000Y6500000D02*
D03*
X-4900000D02*
D03*
X-5050000Y6450000D02*
D03*
X-4950000D02*
D03*
X-5000000Y6400000D02*
D03*
X-5100000Y6500000D02*
D03*
X-5200000D02*
D03*
X-5150000Y6450000D02*
D03*
X-5200000Y6400000D02*
D03*
X-4500000D02*
D03*
X-4450000Y6350000D02*
D03*
X-4550000D02*
D03*
X-4500000Y6300000D02*
D03*
X-4600000D02*
D03*
X-4750000Y6350000D02*
D03*
X-4650000D02*
D03*
X-4800000Y6400000D02*
D03*
X-4700000Y6300000D02*
D03*
X-4800000D02*
D03*
X-4550000Y6250000D02*
D03*
X-4600000Y6200000D02*
D03*
X-4650000Y6250000D02*
D03*
X-4500000Y6200000D02*
D03*
X-4750000Y6250000D02*
D03*
X-4850000D02*
D03*
X-4700000Y6200000D02*
D03*
X-4800000D02*
D03*
X-4900000Y6400000D02*
D03*
X-4850000Y6350000D02*
D03*
X-4950000D02*
D03*
X-4900000Y6300000D02*
D03*
X-5000000D02*
D03*
X-5100000Y6400000D02*
D03*
X-5050000Y6350000D02*
D03*
X-5150000D02*
D03*
X-5100000Y6300000D02*
D03*
X-5200000D02*
D03*
X-4950000Y6250000D02*
D03*
X-5000000Y6200000D02*
D03*
X-5050000Y6250000D02*
D03*
X-4900000Y6200000D02*
D03*
X-5150000Y6250000D02*
D03*
X-5200000Y6200000D02*
D03*
X-5100000D02*
D03*
X450000Y5400000D02*
D03*
X550000D02*
D03*
X350000D02*
D03*
X650000D02*
D03*
X400000Y5350000D02*
D03*
X150000Y5400000D02*
D03*
X250000D02*
D03*
X100000Y5350000D02*
D03*
X300000D02*
D03*
X200000D02*
D03*
X500000D02*
D03*
X600000D02*
D03*
X450000Y5300000D02*
D03*
X650000D02*
D03*
X550000D02*
D03*
X150000D02*
D03*
X50000D02*
D03*
X350000D02*
D03*
X250000D02*
D03*
X-2150000Y5400000D02*
D03*
X-2050000D02*
D03*
X-2250000D02*
D03*
X50000D02*
D03*
X-50000D02*
D03*
X-2300000Y5450000D02*
D03*
X-2350000Y5400000D02*
D03*
X-2400000Y5450000D02*
D03*
X-2300000Y5350000D02*
D03*
X-2400000D02*
D03*
X-2100000D02*
D03*
X0D02*
D03*
X-2150000Y5300000D02*
D03*
X-50000D02*
D03*
X-2050000D02*
D03*
X-2200000Y5350000D02*
D03*
X-2450000Y5300000D02*
D03*
X-2250000D02*
D03*
X-2350000D02*
D03*
X600000Y5250000D02*
D03*
X500000D02*
D03*
X400000D02*
D03*
X100000D02*
D03*
X200000D02*
D03*
X0D02*
D03*
X300000D02*
D03*
X-2300000D02*
D03*
X-2200000D02*
D03*
X-2400000D02*
D03*
X-2100000D02*
D03*
X-2600000Y5450000D02*
D03*
X-2650000Y5400000D02*
D03*
X-2700000Y5450000D02*
D03*
X-2450000Y5400000D02*
D03*
X-2550000D02*
D03*
X-2800000Y5450000D02*
D03*
X-2850000Y5400000D02*
D03*
X-2950000D02*
D03*
X-2750000D02*
D03*
X-2900000Y5350000D02*
D03*
X-2600000D02*
D03*
X-2500000D02*
D03*
X-2700000D02*
D03*
X-2550000Y5300000D02*
D03*
X-2650000D02*
D03*
X-2800000Y5350000D02*
D03*
X-2950000Y5300000D02*
D03*
X-2750000D02*
D03*
X-2850000D02*
D03*
X-3150000Y5400000D02*
D03*
X-3050000D02*
D03*
X-3200000Y5350000D02*
D03*
X-3000000D02*
D03*
X-3100000D02*
D03*
X-3350000Y5400000D02*
D03*
X-3250000D02*
D03*
X-3450000D02*
D03*
X-3300000Y5350000D02*
D03*
X-3400000D02*
D03*
X-3150000Y5300000D02*
D03*
X-3050000D02*
D03*
X-3250000D02*
D03*
X-3100000Y5250000D02*
D03*
X-3350000Y5300000D02*
D03*
X-3450000D02*
D03*
X-2500000Y5250000D02*
D03*
X-2600000D02*
D03*
X-2700000D02*
D03*
X-2900000D02*
D03*
X-2800000D02*
D03*
X-3000000D02*
D03*
X-5100000Y450000D02*
D03*
X-5200000D02*
D03*
X-5050000Y500000D02*
D03*
X-4900000Y450000D02*
D03*
X-5000000D02*
D03*
X-4850000Y500000D02*
D03*
X-4950000D02*
D03*
X-5150000D02*
D03*
X-5100000Y550000D02*
D03*
X-5200000D02*
D03*
X-5050000Y600000D02*
D03*
X-5150000D02*
D03*
X-5000000Y550000D02*
D03*
X-4900000D02*
D03*
X-5000000Y650000D02*
D03*
X-4950000Y600000D02*
D03*
X-4900000Y650000D02*
D03*
X-4700000Y450000D02*
D03*
X-4600000D02*
D03*
X-4800000D02*
D03*
X-4650000Y500000D02*
D03*
X-4750000D02*
D03*
X-4400000Y450000D02*
D03*
X-4550000Y500000D02*
D03*
X-4500000Y450000D02*
D03*
X-4450000Y500000D02*
D03*
X-4800000Y550000D02*
D03*
X-4700000D02*
D03*
X-4850000Y600000D02*
D03*
X-4650000D02*
D03*
X-4750000D02*
D03*
X-4600000Y550000D02*
D03*
X-4500000D02*
D03*
X-4600000Y650000D02*
D03*
X-4450000Y600000D02*
D03*
X-4550000D02*
D03*
X-5200000Y650000D02*
D03*
X-5100000D02*
D03*
X-5200000Y750000D02*
D03*
X-5150000Y700000D02*
D03*
X-5100000Y750000D02*
D03*
X-4950000Y700000D02*
D03*
X-4850000D02*
D03*
X-5050000D02*
D03*
X-4900000Y750000D02*
D03*
X-5000000D02*
D03*
X-5150000Y800000D02*
D03*
X-5050000D02*
D03*
X-5100000Y850000D02*
D03*
X-5200000D02*
D03*
X-4950000Y800000D02*
D03*
X-4850000D02*
D03*
X-5000000Y850000D02*
D03*
X-4900000D02*
D03*
X-4800000Y650000D02*
D03*
X-4700000D02*
D03*
X-4750000Y700000D02*
D03*
X-4650000D02*
D03*
X-4700000Y750000D02*
D03*
X-4500000Y650000D02*
D03*
X-4450000Y700000D02*
D03*
X-4600000Y750000D02*
D03*
X-4550000Y700000D02*
D03*
X-4500000Y750000D02*
D03*
X-4800000D02*
D03*
X-4650000Y800000D02*
D03*
X-4800000Y850000D02*
D03*
X-4750000Y800000D02*
D03*
X-4700000Y850000D02*
D03*
X-4550000Y800000D02*
D03*
X-4450000D02*
D03*
X-4500000Y850000D02*
D03*
X-4600000D02*
D03*
X-4400000Y550000D02*
D03*
X-4400000Y650000D02*
D03*
Y850000D02*
D03*
Y750000D02*
D03*
X-4350000Y500000D02*
D03*
Y800000D02*
D03*
Y600000D02*
D03*
Y700000D02*
D03*
X-3200000Y1350000D02*
D03*
X-3400000D02*
D03*
X-3300000D02*
D03*
X-3150000Y1400000D02*
D03*
X-2900000Y1350000D02*
D03*
X-2800000D02*
D03*
X-3100000D02*
D03*
X-3000000D02*
D03*
X-2850000Y1400000D02*
D03*
X0Y1350000D02*
D03*
X100000D02*
D03*
X-2300000D02*
D03*
X-2100000D02*
D03*
X-2200000D02*
D03*
X500000D02*
D03*
X600000D02*
D03*
X200000D02*
D03*
X400000D02*
D03*
X300000D02*
D03*
X-2500000D02*
D03*
X-2400000D02*
D03*
X-2700000D02*
D03*
X-2600000D02*
D03*
X-2650000Y1400000D02*
D03*
X450000D02*
D03*
X550000D02*
D03*
X50000D02*
D03*
X350000D02*
D03*
X250000D02*
D03*
X-3050000D02*
D03*
X-2950000D02*
D03*
X-3450000D02*
D03*
X-3250000D02*
D03*
X-3350000D02*
D03*
X-2550000D02*
D03*
X-2450000D02*
D03*
X-2750000D02*
D03*
X-2500000Y1450000D02*
D03*
X-2600000D02*
D03*
X-3100000D02*
D03*
X-3000000D02*
D03*
X-3400000D02*
D03*
X-3200000D02*
D03*
X-3300000D02*
D03*
X-2800000D02*
D03*
X-2700000D02*
D03*
X-2900000D02*
D03*
X-2450000Y1500000D02*
D03*
X-2850000D02*
D03*
X-2050000Y1400000D02*
D03*
X-50000D02*
D03*
X-2350000D02*
D03*
X-2150000D02*
D03*
X-2250000D02*
D03*
X150000D02*
D03*
X650000D02*
D03*
X400000Y1450000D02*
D03*
X600000D02*
D03*
X500000D02*
D03*
X-2200000D02*
D03*
X-2100000D02*
D03*
X-2400000D02*
D03*
X-2300000D02*
D03*
X-2350000Y1500000D02*
D03*
X200000Y1450000D02*
D03*
X300000D02*
D03*
X0D02*
D03*
X100000D02*
D03*
X550000Y1500000D02*
D03*
X-3450000D02*
D03*
X-3350000D02*
D03*
X-3400000Y1550000D02*
D03*
X-3300000D02*
D03*
X-3150000Y1500000D02*
D03*
X-3050000D02*
D03*
X-3250000D02*
D03*
X-3100000Y1550000D02*
D03*
X-3200000D02*
D03*
X-3350000Y1600000D02*
D03*
X-3250000D02*
D03*
X-3450000D02*
D03*
X-3300000Y1650000D02*
D03*
X-3400000D02*
D03*
X-3150000Y1600000D02*
D03*
X-3050000D02*
D03*
X-3200000Y1650000D02*
D03*
X-3000000D02*
D03*
X-3100000D02*
D03*
X-2950000Y1500000D02*
D03*
X-2750000D02*
D03*
X-3000000Y1550000D02*
D03*
X-2800000D02*
D03*
X-2900000D02*
D03*
X-2650000Y1500000D02*
D03*
X-2550000D02*
D03*
X-2700000Y1550000D02*
D03*
X-2500000D02*
D03*
X-2600000D02*
D03*
X-2850000Y1600000D02*
D03*
X-2750000D02*
D03*
X-2950000D02*
D03*
X-2800000Y1650000D02*
D03*
X-2900000D02*
D03*
X-2650000Y1600000D02*
D03*
X-2550000D02*
D03*
X-2700000Y1650000D02*
D03*
X-2500000D02*
D03*
X-2600000D02*
D03*
X-2900000Y4525000D02*
D03*
X-3000000D02*
D03*
X-3150000Y4575000D02*
D03*
X-3100000Y4525000D02*
D03*
X-3150000Y4675000D02*
D03*
X-3100000Y4625000D02*
D03*
X-3050000Y4675000D02*
D03*
Y4575000D02*
D03*
X-2950000D02*
D03*
X-3000000Y4625000D02*
D03*
X-2900000D02*
D03*
X-2950000Y4675000D02*
D03*
X-2700000Y4525000D02*
D03*
X-2800000D02*
D03*
X-2650000Y4575000D02*
D03*
X-2750000D02*
D03*
X-2600000Y4525000D02*
D03*
X-2500000D02*
D03*
X-2550000Y4575000D02*
D03*
X-2850000D02*
D03*
X-2700000Y4625000D02*
D03*
X-2850000Y4675000D02*
D03*
X-2800000Y4625000D02*
D03*
X-2750000Y4675000D02*
D03*
X-2600000Y4625000D02*
D03*
X-2500000D02*
D03*
X-2650000Y4675000D02*
D03*
X-2450000D02*
D03*
X-2550000D02*
D03*
X-2250000Y1500000D02*
D03*
X-2150000D02*
D03*
X-2300000Y1550000D02*
D03*
X-2200000D02*
D03*
X-50000Y1500000D02*
D03*
X50000D02*
D03*
X-2100000Y1550000D02*
D03*
X-2050000Y1500000D02*
D03*
X0Y1550000D02*
D03*
X-2400000D02*
D03*
X-2150000Y1600000D02*
D03*
X-2450000D02*
D03*
X-2250000D02*
D03*
X-2350000D02*
D03*
X-50000D02*
D03*
X50000D02*
D03*
X-2100000Y1650000D02*
D03*
X-2050000Y1600000D02*
D03*
X0Y1650000D02*
D03*
X150000Y1500000D02*
D03*
X250000D02*
D03*
X100000Y1550000D02*
D03*
X300000D02*
D03*
X200000D02*
D03*
X350000Y1500000D02*
D03*
X450000D02*
D03*
X400000Y1550000D02*
D03*
X600000D02*
D03*
X500000D02*
D03*
X250000Y1600000D02*
D03*
X350000D02*
D03*
X100000Y1650000D02*
D03*
X150000Y1600000D02*
D03*
X300000Y1650000D02*
D03*
X550000Y1600000D02*
D03*
X650000D02*
D03*
X450000D02*
D03*
X600000Y1650000D02*
D03*
X500000D02*
D03*
X-2300000D02*
D03*
X-2200000D02*
D03*
X-2400000D02*
D03*
X200000D02*
D03*
X-2400000Y4525000D02*
D03*
X-2350000Y4575000D02*
D03*
X-2450000D02*
D03*
X-2400000Y4625000D02*
D03*
X-2350000Y4675000D02*
D03*
X250000Y4575000D02*
D03*
X300000Y4625000D02*
D03*
X250000Y4675000D02*
D03*
X400000Y1650000D02*
D03*
X400000Y4525000D02*
D03*
X600000D02*
D03*
X500000D02*
D03*
X300000D02*
D03*
X350000Y4575000D02*
D03*
Y4675000D02*
D03*
X400000Y4625000D02*
D03*
X450000Y4675000D02*
D03*
Y4575000D02*
D03*
X550000D02*
D03*
X500000Y4625000D02*
D03*
X600000D02*
D03*
X550000Y4675000D02*
D03*
X3700000Y1350000D02*
D03*
X3800000D02*
D03*
X3500000D02*
D03*
X3600000D02*
D03*
X4200000D02*
D03*
X4300000D02*
D03*
X3900000D02*
D03*
X4100000D02*
D03*
X4000000D02*
D03*
X1000000D02*
D03*
X1100000D02*
D03*
X700000D02*
D03*
X900000D02*
D03*
X800000D02*
D03*
X1300000D02*
D03*
X3400000D02*
D03*
X1200000D02*
D03*
X4250000Y1400000D02*
D03*
X3850000D02*
D03*
X4350000Y450000D02*
D03*
X4400000Y500000D02*
D03*
X4350000Y550000D02*
D03*
X4400000Y600000D02*
D03*
X4350000Y650000D02*
D03*
X4450000Y450000D02*
D03*
Y650000D02*
D03*
Y550000D02*
D03*
X4500000Y600000D02*
D03*
X4350000Y750000D02*
D03*
X4400000Y800000D02*
D03*
X4350000Y850000D02*
D03*
X4400000Y1350000D02*
D03*
X4350000Y1400000D02*
D03*
X4400000Y700000D02*
D03*
X4450000Y750000D02*
D03*
Y850000D02*
D03*
X4500000Y1350000D02*
D03*
X1050000Y1400000D02*
D03*
X1150000D02*
D03*
X750000D02*
D03*
X950000D02*
D03*
X850000D02*
D03*
X1350000D02*
D03*
X3350000D02*
D03*
X1250000D02*
D03*
X3400000Y1450000D02*
D03*
X1300000D02*
D03*
X900000D02*
D03*
X1000000D02*
D03*
X650000Y1500000D02*
D03*
X800000Y1450000D02*
D03*
X700000D02*
D03*
X1100000D02*
D03*
X1200000D02*
D03*
X1250000Y1500000D02*
D03*
X3450000D02*
D03*
X1350000D02*
D03*
X3750000Y1400000D02*
D03*
X3950000D02*
D03*
X3450000D02*
D03*
X3650000D02*
D03*
X3550000D02*
D03*
X4150000D02*
D03*
X4450000D02*
D03*
X4050000D02*
D03*
X4500000Y1450000D02*
D03*
X4400000D02*
D03*
X3700000D02*
D03*
X3800000D02*
D03*
X3500000D02*
D03*
X3600000D02*
D03*
X3850000Y1500000D02*
D03*
X4200000Y1450000D02*
D03*
X4300000D02*
D03*
X3900000D02*
D03*
X4100000D02*
D03*
X4000000D02*
D03*
X4550000Y450000D02*
D03*
X4650000D02*
D03*
X4500000Y500000D02*
D03*
X4600000D02*
D03*
X4700000D02*
D03*
X4750000Y450000D02*
D03*
X4800000Y500000D02*
D03*
X4550000Y550000D02*
D03*
X4650000D02*
D03*
X4550000Y650000D02*
D03*
X4600000Y600000D02*
D03*
X4650000Y650000D02*
D03*
X4750000Y550000D02*
D03*
X4800000Y600000D02*
D03*
X4700000D02*
D03*
X4850000Y650000D02*
D03*
X4750000D02*
D03*
X4950000Y450000D02*
D03*
X5050000D02*
D03*
X4850000D02*
D03*
X5000000Y500000D02*
D03*
X4900000D02*
D03*
X5150000Y450000D02*
D03*
X5100000Y500000D02*
D03*
X5200000D02*
D03*
X5150000Y550000D02*
D03*
X4850000D02*
D03*
X4950000D02*
D03*
X4900000Y600000D02*
D03*
X5000000D02*
D03*
X4950000Y650000D02*
D03*
X5050000Y550000D02*
D03*
X5200000Y600000D02*
D03*
X5050000Y650000D02*
D03*
X5100000Y600000D02*
D03*
X5150000Y650000D02*
D03*
X4500000Y700000D02*
D03*
X4600000D02*
D03*
X4500000Y800000D02*
D03*
X4550000Y750000D02*
D03*
X4600000Y800000D02*
D03*
X4700000Y700000D02*
D03*
X4750000Y750000D02*
D03*
X4650000D02*
D03*
X4700000Y800000D02*
D03*
X4750000Y850000D02*
D03*
X4550000D02*
D03*
X4600000Y1350000D02*
D03*
X4550000Y1400000D02*
D03*
X4650000Y850000D02*
D03*
X4900000Y700000D02*
D03*
X5000000D02*
D03*
X4800000D02*
D03*
X4950000Y750000D02*
D03*
X4850000D02*
D03*
X5100000Y700000D02*
D03*
X5200000D02*
D03*
X5050000Y750000D02*
D03*
X5150000D02*
D03*
X5200000Y800000D02*
D03*
X4800000D02*
D03*
X4900000D02*
D03*
X4950000Y850000D02*
D03*
X4850000D02*
D03*
X5000000Y800000D02*
D03*
X5100000D02*
D03*
X5050000Y850000D02*
D03*
X5150000D02*
D03*
X850000Y1500000D02*
D03*
X950000D02*
D03*
X750000D02*
D03*
X900000Y1550000D02*
D03*
X1050000Y1500000D02*
D03*
X1150000D02*
D03*
X1000000Y1550000D02*
D03*
X1200000D02*
D03*
X1100000D02*
D03*
X700000D02*
D03*
X800000D02*
D03*
X750000Y1600000D02*
D03*
X850000D02*
D03*
X900000Y1650000D02*
D03*
X1050000Y1600000D02*
D03*
X1150000D02*
D03*
X950000D02*
D03*
X1100000Y1650000D02*
D03*
X1000000D02*
D03*
X3350000Y1500000D02*
D03*
X3550000D02*
D03*
X1300000Y1550000D02*
D03*
X3500000D02*
D03*
X3400000D02*
D03*
X3650000Y1500000D02*
D03*
X3750000D02*
D03*
X3600000Y1550000D02*
D03*
X3700000D02*
D03*
X3750000Y1600000D02*
D03*
X3350000D02*
D03*
X3450000D02*
D03*
X1250000D02*
D03*
X1350000D02*
D03*
X3500000Y1650000D02*
D03*
X3550000Y1600000D02*
D03*
X3650000D02*
D03*
X3600000Y1650000D02*
D03*
X3800000D02*
D03*
X3700000D02*
D03*
X700000D02*
D03*
X800000D02*
D03*
X700000Y4525000D02*
D03*
X800000D02*
D03*
X1000000D02*
D03*
X850000Y4575000D02*
D03*
X900000Y4525000D02*
D03*
X950000Y4575000D02*
D03*
X650000D02*
D03*
X750000D02*
D03*
X650000Y4675000D02*
D03*
X700000Y4625000D02*
D03*
X750000Y4675000D02*
D03*
X900000Y4625000D02*
D03*
X1000000D02*
D03*
X800000D02*
D03*
X950000Y4675000D02*
D03*
X850000D02*
D03*
X1300000Y1650000D02*
D03*
X3400000D02*
D03*
X1200000D02*
D03*
X1050000Y4575000D02*
D03*
X3650000D02*
D03*
X1050000Y4675000D02*
D03*
X3700000Y4625000D02*
D03*
X3650000Y4675000D02*
D03*
X3700000Y4525000D02*
D03*
X3800000D02*
D03*
X3750000Y4675000D02*
D03*
Y4575000D02*
D03*
X3800000Y4625000D02*
D03*
X3950000Y1500000D02*
D03*
X4000000Y1550000D02*
D03*
X3800000D02*
D03*
X3900000D02*
D03*
X4150000Y1500000D02*
D03*
X4250000D02*
D03*
X4050000D02*
D03*
X4200000Y1550000D02*
D03*
X4100000D02*
D03*
X3950000Y1600000D02*
D03*
X4050000D02*
D03*
X3850000D02*
D03*
X4000000Y1650000D02*
D03*
X3900000D02*
D03*
X4150000Y1600000D02*
D03*
X4250000D02*
D03*
X4100000Y1650000D02*
D03*
X4300000D02*
D03*
X4200000D02*
D03*
X4350000Y1500000D02*
D03*
X4450000D02*
D03*
X4300000Y1550000D02*
D03*
X4500000D02*
D03*
X4400000D02*
D03*
X4550000Y1500000D02*
D03*
X4450000Y1600000D02*
D03*
X4550000D02*
D03*
X4350000D02*
D03*
X4500000Y1650000D02*
D03*
X4400000D02*
D03*
X4000000Y4525000D02*
D03*
X3900000D02*
D03*
X4100000D02*
D03*
X4150000Y4575000D02*
D03*
X3850000D02*
D03*
X3950000D02*
D03*
X3850000Y4675000D02*
D03*
X3900000Y4625000D02*
D03*
X3950000Y4675000D02*
D03*
X4050000Y4575000D02*
D03*
X4100000Y4625000D02*
D03*
X4000000D02*
D03*
X4150000Y4675000D02*
D03*
X4050000D02*
D03*
X4300000Y4525000D02*
D03*
X4400000D02*
D03*
X4200000D02*
D03*
X4250000Y4575000D02*
D03*
X4200000Y4625000D02*
D03*
X4300000D02*
D03*
X4250000Y4675000D02*
D03*
X4350000Y4575000D02*
D03*
X4450000D02*
D03*
X4350000Y4675000D02*
D03*
X4400000Y4625000D02*
D03*
X4450000Y4675000D02*
D03*
X3950000Y1900000D02*
D03*
X4300000Y1950000D02*
D03*
X4400001Y1850000D02*
D03*
X4500000D02*
D03*
X4000000Y1950000D02*
D03*
X4400001D02*
D03*
X4050000Y2000000D02*
D03*
X4150000D02*
D03*
X4350000Y1900000D02*
D03*
X4450000D02*
D03*
X4550000Y2000000D02*
D03*
X4200000Y1950000D02*
D03*
X4250000Y1900000D02*
D03*
X4450000Y2000000D02*
D03*
X4300000Y1850000D02*
D03*
X4100000Y1950000D02*
D03*
Y1850000D02*
D03*
X4550000Y1900000D02*
D03*
X4200000Y1850000D02*
D03*
X4250000Y2000000D02*
D03*
X4000000Y1850000D02*
D03*
X4150000Y1900000D02*
D03*
X3950000Y2000000D02*
D03*
X4500000Y1950000D02*
D03*
X4050000Y1900000D02*
D03*
X4350000Y2000000D02*
D03*
X3900000Y1850000D02*
D03*
Y1950000D02*
D03*
Y1750000D02*
D03*
X4050000Y1800000D02*
D03*
X4150000D02*
D03*
X4000000Y1750000D02*
D03*
X4200000D02*
D03*
X4550000Y1800000D02*
D03*
X4100000Y1750000D02*
D03*
X4300000D02*
D03*
X4250000Y1800000D02*
D03*
X4450000D02*
D03*
X4350000D02*
D03*
X4500000Y1750000D02*
D03*
X4400001D02*
D03*
X3950000Y1800000D02*
D03*
X4450000Y1700000D02*
D03*
X4550000D02*
D03*
X4350000D02*
D03*
X4150000D02*
D03*
X4250000D02*
D03*
X4050000D02*
D03*
X3850000D02*
D03*
X3950000D02*
D03*
X650000Y1900000D02*
D03*
X1000000Y1950000D02*
D03*
X1100001Y1850000D02*
D03*
X1200000D02*
D03*
X700000Y1950000D02*
D03*
X1100001D02*
D03*
X750000Y2000000D02*
D03*
X850000D02*
D03*
X1050000Y1900000D02*
D03*
X1300000Y1850000D02*
D03*
X1150000Y1900000D02*
D03*
X1250000Y2000000D02*
D03*
X900000Y1950000D02*
D03*
X950000Y1900000D02*
D03*
X1150000Y2000000D02*
D03*
X1300000Y1950000D02*
D03*
X1000000Y1850000D02*
D03*
X800000Y1950000D02*
D03*
Y1850000D02*
D03*
X1250000Y1900000D02*
D03*
X900000Y1850000D02*
D03*
X950000Y2000000D02*
D03*
X700000Y1850000D02*
D03*
X850000Y1900000D02*
D03*
X650000Y2000000D02*
D03*
X1200000Y1950000D02*
D03*
X750000Y1900000D02*
D03*
X1050000Y2000000D02*
D03*
X550000D02*
D03*
X600000Y1850000D02*
D03*
X550000Y1900000D02*
D03*
X600000Y1950000D02*
D03*
X550000Y1800000D02*
D03*
X600000Y1750000D02*
D03*
X750000Y1800000D02*
D03*
X850000D02*
D03*
X700000Y1750000D02*
D03*
X900000D02*
D03*
X1250000Y1800000D02*
D03*
X800000Y1750000D02*
D03*
X1000000D02*
D03*
X950000Y1800000D02*
D03*
X1150000D02*
D03*
X1300000Y1750000D02*
D03*
X1050000Y1800000D02*
D03*
X1200000Y1750000D02*
D03*
X1100001D02*
D03*
X650000Y1800000D02*
D03*
X1150000Y1700000D02*
D03*
X1250000D02*
D03*
X1050000D02*
D03*
X850000D02*
D03*
X950000D02*
D03*
X750000D02*
D03*
X550000D02*
D03*
X650000D02*
D03*
X-2800000Y1750000D02*
D03*
X-2700000D02*
D03*
X-2500000D02*
D03*
X-2600000D02*
D03*
X-2400000D02*
D03*
X-2100000D02*
D03*
X-2200000D02*
D03*
X-2299999D02*
D03*
X-2250000Y1700000D02*
D03*
X-2150000D02*
D03*
X-2350000D02*
D03*
X-2550000D02*
D03*
X-2450000D02*
D03*
X-2650000D02*
D03*
X-2850000D02*
D03*
X-2750000D02*
D03*
Y1900000D02*
D03*
X-2400000Y1950000D02*
D03*
X-2299999Y1850000D02*
D03*
X-2200000D02*
D03*
X-2700000Y1950000D02*
D03*
X-2299999D02*
D03*
X-2650000Y2000000D02*
D03*
X-2550000D02*
D03*
X-2350000Y1900000D02*
D03*
X-2100000Y1850000D02*
D03*
X-2250000Y1900000D02*
D03*
X-2150000Y2000000D02*
D03*
X-2500000Y1950000D02*
D03*
X-2450000Y1900000D02*
D03*
X-2250000Y2000000D02*
D03*
X-2100000Y1950000D02*
D03*
X-2400000Y1850000D02*
D03*
X-2600000Y1950000D02*
D03*
Y1850000D02*
D03*
X-2150000Y1900000D02*
D03*
X-2500000Y1850000D02*
D03*
X-2450000Y2000000D02*
D03*
X-2700000Y1850000D02*
D03*
X-2550000Y1900000D02*
D03*
X-2750000Y2000000D02*
D03*
X-2200000Y1950000D02*
D03*
X-2650000Y1900000D02*
D03*
X-2350000Y2000000D02*
D03*
X-2850000D02*
D03*
X-2800000Y1850000D02*
D03*
X-2850000Y1900000D02*
D03*
X-2800000Y1950000D02*
D03*
X-2850000Y1800000D02*
D03*
X-2650000D02*
D03*
X-2550000D02*
D03*
X-2150000D02*
D03*
X-2450000D02*
D03*
X-2250000D02*
D03*
X-2350000D02*
D03*
X-2750000D02*
D03*
X-5324551Y424538D02*
D03*
Y624539D02*
D03*
Y824539D02*
D03*
Y1224539D02*
D03*
X-5224551D02*
D03*
X-5124551D02*
D03*
X-5024551D02*
D03*
X-4924551D02*
D03*
X-4824551D02*
D03*
X-4724551D02*
D03*
X-4624551D02*
D03*
X-4524551D02*
D03*
X-4424551D02*
D03*
X-4274551Y1124539D02*
D03*
X-4324551Y1224539D02*
D03*
X-4224551Y224538D02*
D03*
X-4174551Y324538D02*
D03*
X-4224551Y424538D02*
D03*
X-4174551Y524538D02*
D03*
X-4224551Y624539D02*
D03*
X-4174551Y724539D02*
D03*
X-4224551Y824539D02*
D03*
X-4174551Y924539D02*
D03*
X-4224551Y1024539D02*
D03*
X-4174551Y1124539D02*
D03*
X-4224551Y1224539D02*
D03*
X-4124551Y224538D02*
D03*
X-4074551Y324538D02*
D03*
X-4124551Y424538D02*
D03*
X-4074551Y524538D02*
D03*
X-4124551Y624539D02*
D03*
X-4074551Y724539D02*
D03*
X-4124551Y824539D02*
D03*
X-4074551Y924539D02*
D03*
X-4124551Y1024539D02*
D03*
X-4074551Y1124539D02*
D03*
X-4124551Y1224539D02*
D03*
X-4024551Y224538D02*
D03*
X-3974551Y324538D02*
D03*
X-4024551Y424538D02*
D03*
X-3974551Y524538D02*
D03*
X-4024551Y624539D02*
D03*
X-3974551Y724539D02*
D03*
X-4024551Y824539D02*
D03*
X-3974551Y924539D02*
D03*
X-4024551Y1024539D02*
D03*
X-3974551Y1124539D02*
D03*
X-4024551Y1224539D02*
D03*
X-3924551Y224538D02*
D03*
X-3874551Y324538D02*
D03*
X-3924551Y424538D02*
D03*
X-3874551Y524538D02*
D03*
X-3924551Y624539D02*
D03*
X-3874551Y724539D02*
D03*
X-3924551Y824539D02*
D03*
X-3874551Y924539D02*
D03*
X-3924551Y1024539D02*
D03*
X-3874551Y1124539D02*
D03*
X-3924551Y1224539D02*
D03*
X-3824551Y224538D02*
D03*
X-3774551Y324538D02*
D03*
X-3824551Y424538D02*
D03*
X-3774551Y524538D02*
D03*
X-3824551Y624539D02*
D03*
X-3774551Y724539D02*
D03*
X-3824551Y824539D02*
D03*
X-3774551Y924539D02*
D03*
X-3824551Y1024539D02*
D03*
X-3774551Y1124539D02*
D03*
X-3824551Y1224539D02*
D03*
X-3724551Y224538D02*
D03*
X-3674551Y324538D02*
D03*
X-3724551Y424538D02*
D03*
X-3674551Y524538D02*
D03*
X-3724551Y624539D02*
D03*
X-3674551Y724539D02*
D03*
X-3724551Y824539D02*
D03*
X-3674551Y924539D02*
D03*
X-3724551Y1024539D02*
D03*
X-3674551Y1124539D02*
D03*
X-3724551Y1224539D02*
D03*
X-3624551Y224538D02*
D03*
X-3574551Y324538D02*
D03*
X-3624551Y424538D02*
D03*
X-3574551Y524538D02*
D03*
X-3624551Y624539D02*
D03*
X-3574551Y724539D02*
D03*
X-3624551Y824539D02*
D03*
X-3574551Y924539D02*
D03*
X-3624551Y1024539D02*
D03*
X-3574551Y1124539D02*
D03*
X-3624551Y1224539D02*
D03*
X-3524550Y224538D02*
D03*
X-3474551Y324538D02*
D03*
X-3524550Y424538D02*
D03*
X-3474551Y524538D02*
D03*
X-3524550Y624539D02*
D03*
X-3474551Y724539D02*
D03*
X-3524550Y824539D02*
D03*
X-3474551Y924539D02*
D03*
X-3524550Y1024539D02*
D03*
X-3474551Y1124539D02*
D03*
X-3524550Y1224539D02*
D03*
X-3474551Y1724539D02*
D03*
Y1924539D02*
D03*
Y2124539D02*
D03*
Y2324539D02*
D03*
Y2524540D02*
D03*
Y2724540D02*
D03*
Y2924540D02*
D03*
X-3424550Y224538D02*
D03*
X-3374551Y324538D02*
D03*
X-3424550Y424538D02*
D03*
X-3374551Y524538D02*
D03*
X-3424550Y624539D02*
D03*
X-3374551Y724539D02*
D03*
X-3424550Y824539D02*
D03*
X-3374551Y924539D02*
D03*
X-3424550Y1024539D02*
D03*
X-3374551Y1124539D02*
D03*
X-3424550Y1224539D02*
D03*
X-3374551Y2124539D02*
D03*
X-3424550Y2224539D02*
D03*
X-3374551Y2324539D02*
D03*
X-3424550Y2424539D02*
D03*
X-3374551Y2524540D02*
D03*
X-3424550Y2624540D02*
D03*
X-3374551Y2724540D02*
D03*
X-3424550Y2824540D02*
D03*
X-3324550Y224538D02*
D03*
X-3274550Y324538D02*
D03*
X-3324550Y424538D02*
D03*
X-3274550Y524538D02*
D03*
X-3324550Y624539D02*
D03*
X-3274550Y724539D02*
D03*
X-3324550Y824539D02*
D03*
X-3274550Y924539D02*
D03*
X-3324550Y1024539D02*
D03*
X-3274550Y1124539D02*
D03*
X-3324550Y1224539D02*
D03*
Y2224539D02*
D03*
X-3274550Y2324539D02*
D03*
X-3324550Y2424539D02*
D03*
X-3274550Y2524540D02*
D03*
X-3324550Y2624540D02*
D03*
X-3274550Y2724540D02*
D03*
X-3324550Y2824540D02*
D03*
X-3224550Y224538D02*
D03*
X-3174550Y324538D02*
D03*
X-3224550Y424538D02*
D03*
X-3174550Y524538D02*
D03*
X-3224550Y624539D02*
D03*
X-3174550Y724539D02*
D03*
X-3224550Y824539D02*
D03*
X-3174550Y924539D02*
D03*
X-3224550Y1024539D02*
D03*
X-3174550Y1124539D02*
D03*
X-3224550Y1224539D02*
D03*
Y2224539D02*
D03*
X-3174550Y2324539D02*
D03*
X-3224550Y2824540D02*
D03*
X-3124550Y224538D02*
D03*
X-3074550Y324538D02*
D03*
X-3124550Y424538D02*
D03*
X-3074550Y524538D02*
D03*
X-3124550Y624539D02*
D03*
X-3074550Y724539D02*
D03*
X-3124550Y824539D02*
D03*
X-3074550Y924539D02*
D03*
X-3124550Y1024539D02*
D03*
X-3074550Y1124539D02*
D03*
X-3124550Y1224539D02*
D03*
Y2224539D02*
D03*
X-3074550Y2324539D02*
D03*
X-3124550Y2824540D02*
D03*
X-3024550Y224538D02*
D03*
X-2974550Y324538D02*
D03*
X-3024550Y424538D02*
D03*
X-2974550Y524538D02*
D03*
X-3024550Y624539D02*
D03*
X-2974550Y724539D02*
D03*
X-3024550Y824539D02*
D03*
X-2974550Y924539D02*
D03*
X-3024550Y1024539D02*
D03*
X-2974550Y1124539D02*
D03*
X-3024550Y1224539D02*
D03*
Y2224539D02*
D03*
X-2974550Y2324539D02*
D03*
X-3024550Y2824540D02*
D03*
X-2924550Y224538D02*
D03*
X-2874550Y324538D02*
D03*
X-2924550Y424538D02*
D03*
X-2874550Y524538D02*
D03*
X-2924550Y624539D02*
D03*
X-2874550Y724539D02*
D03*
X-2924550Y824539D02*
D03*
X-2874550Y924539D02*
D03*
X-2924550Y1024539D02*
D03*
X-2874550Y1124539D02*
D03*
X-2924550Y1224539D02*
D03*
X-2874550Y2124539D02*
D03*
X-2924550Y2224539D02*
D03*
X-2874550Y2324539D02*
D03*
X-2924550Y2824540D02*
D03*
X-2824550Y224538D02*
D03*
X-2774550Y324538D02*
D03*
X-2824550Y424538D02*
D03*
X-2774550Y524538D02*
D03*
X-2824550Y624539D02*
D03*
X-2774550Y724539D02*
D03*
X-2824550Y824539D02*
D03*
X-2774550Y924539D02*
D03*
X-2824550Y1024539D02*
D03*
X-2774550Y1124539D02*
D03*
X-2824550Y1224539D02*
D03*
X-2774550Y2124539D02*
D03*
X-2824550Y2224539D02*
D03*
X-2774550Y2324539D02*
D03*
X-2824550Y2824540D02*
D03*
X-2724550Y224538D02*
D03*
X-2674550Y324538D02*
D03*
X-2724550Y424538D02*
D03*
X-2674550Y524538D02*
D03*
X-2724550Y624539D02*
D03*
X-2674550Y724539D02*
D03*
X-2724550Y824539D02*
D03*
X-2674550Y924539D02*
D03*
X-2724550Y1024539D02*
D03*
X-2674550Y1124539D02*
D03*
X-2724550Y1224539D02*
D03*
X-2674550Y2124539D02*
D03*
X-2724550Y2224539D02*
D03*
X-2674550Y2324539D02*
D03*
X-2724550Y2824540D02*
D03*
X-2624550Y224538D02*
D03*
X-2574550Y324538D02*
D03*
X-2624550Y424538D02*
D03*
X-2574550Y524538D02*
D03*
X-2624550Y624539D02*
D03*
X-2574550Y724539D02*
D03*
X-2624550Y824539D02*
D03*
X-2574550Y924539D02*
D03*
X-2624550Y1024539D02*
D03*
X-2574550Y1124539D02*
D03*
X-2624550Y1224539D02*
D03*
X-2574550Y2124539D02*
D03*
X-2624550Y2224539D02*
D03*
X-2574550Y2324539D02*
D03*
X-2624550Y2824540D02*
D03*
X-2524550Y224538D02*
D03*
X-2474550Y324538D02*
D03*
X-2524550Y424538D02*
D03*
X-2474550Y524538D02*
D03*
X-2524550Y624539D02*
D03*
X-2474550Y724539D02*
D03*
X-2524550Y824539D02*
D03*
X-2474550Y924539D02*
D03*
X-2524550Y1024539D02*
D03*
X-2474550Y1124539D02*
D03*
X-2524550Y1224539D02*
D03*
X-2474550Y2124539D02*
D03*
X-2524550Y2224539D02*
D03*
X-2474550Y2324539D02*
D03*
X-2524550Y2824540D02*
D03*
X-2424550Y224538D02*
D03*
X-2374550Y324538D02*
D03*
X-2424550Y424538D02*
D03*
X-2374550Y524538D02*
D03*
X-2424550Y624539D02*
D03*
X-2374550Y724539D02*
D03*
X-2424550Y824539D02*
D03*
X-2374550Y924539D02*
D03*
X-2424550Y1024539D02*
D03*
X-2374550Y1124539D02*
D03*
X-2424550Y1224539D02*
D03*
X-2374550Y2124539D02*
D03*
X-2424550Y2224539D02*
D03*
X-2374550Y2324539D02*
D03*
X-2424550Y2824540D02*
D03*
X-2324550Y224538D02*
D03*
X-2274550Y324538D02*
D03*
X-2324550Y424538D02*
D03*
X-2274550Y524538D02*
D03*
X-2324550Y624539D02*
D03*
X-2274550Y724539D02*
D03*
X-2324550Y824539D02*
D03*
X-2274550Y924539D02*
D03*
X-2324550Y1024539D02*
D03*
X-2274550Y1124539D02*
D03*
X-2324550Y1224539D02*
D03*
X-2274550Y2124539D02*
D03*
X-2324550Y2224539D02*
D03*
X-2274550Y2324539D02*
D03*
X-2324550Y2824540D02*
D03*
X-2224550Y224538D02*
D03*
X-2174550Y324538D02*
D03*
X-2224550Y424538D02*
D03*
X-2174550Y524538D02*
D03*
X-2224550Y624539D02*
D03*
X-2174550Y724539D02*
D03*
X-2224550Y824539D02*
D03*
X-2174550Y924539D02*
D03*
X-2224550Y1024539D02*
D03*
X-2174550Y1124539D02*
D03*
X-2224550Y1224539D02*
D03*
X-2174550Y2124539D02*
D03*
X-2224550Y2224539D02*
D03*
X-2174550Y2324539D02*
D03*
X-2224550Y2424539D02*
D03*
X-2174550Y2524540D02*
D03*
X-2224550Y2624540D02*
D03*
X-2174550Y2724540D02*
D03*
X-2224550Y2824540D02*
D03*
X-2124550Y224538D02*
D03*
X-2074550Y324538D02*
D03*
X-2124550Y424538D02*
D03*
X-2074550Y524538D02*
D03*
X-2124550Y624539D02*
D03*
X-2074550Y724539D02*
D03*
X-2124550Y824539D02*
D03*
X-2074550Y924539D02*
D03*
X-2124550Y1024539D02*
D03*
X-2074550Y1124539D02*
D03*
X-2124550Y1224539D02*
D03*
X-2074550Y2124539D02*
D03*
X-2124550Y2224539D02*
D03*
X-2074550Y2324539D02*
D03*
X-2124550Y2424539D02*
D03*
X-2074550Y2524540D02*
D03*
X-2124550Y2624540D02*
D03*
X-2074550Y2724540D02*
D03*
X-2124550Y2824540D02*
D03*
X-2074550Y2924540D02*
D03*
X-2024550Y224538D02*
D03*
X-1974550Y324538D02*
D03*
X-2024550Y424538D02*
D03*
X-1974550Y524538D02*
D03*
X-2024550Y624539D02*
D03*
X-1974550Y724539D02*
D03*
X-2024550Y824539D02*
D03*
X-1974550Y924539D02*
D03*
X-2024550Y1024539D02*
D03*
X-1974550Y1124539D02*
D03*
X-2024550Y1224539D02*
D03*
X-1974550Y1324539D02*
D03*
X-1924550Y224538D02*
D03*
X-1874550Y324538D02*
D03*
X-1924550Y424538D02*
D03*
X-1874550Y524538D02*
D03*
X-1924550Y624539D02*
D03*
X-1874550Y724539D02*
D03*
X-1924550Y824539D02*
D03*
X-1874550Y924539D02*
D03*
X-1924550Y1024539D02*
D03*
X-1874550Y1124539D02*
D03*
X-1924550Y1224539D02*
D03*
X-1824550Y224538D02*
D03*
X-1774550Y324538D02*
D03*
X-1824550Y424538D02*
D03*
X-1774550Y524538D02*
D03*
X-1824550Y624539D02*
D03*
X-1774550Y724539D02*
D03*
X-1824550Y824539D02*
D03*
X-1774550Y924539D02*
D03*
X-1824550Y1024539D02*
D03*
X-1774550Y1124539D02*
D03*
X-1824550Y1224539D02*
D03*
X-1724550Y224538D02*
D03*
X-1674550Y324538D02*
D03*
X-1724550Y424538D02*
D03*
X-1674550Y524538D02*
D03*
X-1724550Y624539D02*
D03*
X-1674550Y724539D02*
D03*
X-1724550Y824539D02*
D03*
X-1674550Y924539D02*
D03*
X-1724550Y1024539D02*
D03*
X-1674550Y1124539D02*
D03*
X-1724550Y1224539D02*
D03*
X-1624549Y224538D02*
D03*
X-1574550Y324538D02*
D03*
X-1624549Y424538D02*
D03*
X-1574550Y524538D02*
D03*
X-1624549Y624539D02*
D03*
X-1574550Y724539D02*
D03*
X-1624549Y824539D02*
D03*
X-1574550Y924539D02*
D03*
X-1624549Y1024539D02*
D03*
X-1574550Y1124539D02*
D03*
X-1624549Y1224539D02*
D03*
X-1524549Y224538D02*
D03*
X-1474550Y324538D02*
D03*
X-1524549Y424538D02*
D03*
X-1474550Y524538D02*
D03*
X-1524549Y624539D02*
D03*
X-1474550Y724539D02*
D03*
X-1524549Y824539D02*
D03*
X-1474550Y924539D02*
D03*
X-1524549Y1024539D02*
D03*
X-1474550Y1124539D02*
D03*
X-1524549Y1224539D02*
D03*
X-1424549Y224538D02*
D03*
X-1374549Y324538D02*
D03*
X-1424549Y424538D02*
D03*
X-1374549Y524538D02*
D03*
X-1424549Y624539D02*
D03*
X-1374549Y724539D02*
D03*
X-1424549Y824539D02*
D03*
X-1374549Y924539D02*
D03*
X-1424549Y1024539D02*
D03*
X-1374549Y1124539D02*
D03*
X-1424549Y1224539D02*
D03*
X-1324549Y224538D02*
D03*
X-1274549Y324538D02*
D03*
X-1324549Y424538D02*
D03*
X-1274549Y524538D02*
D03*
X-1324549Y624539D02*
D03*
X-1274549Y724539D02*
D03*
X-1324549Y824539D02*
D03*
X-1274549Y924539D02*
D03*
X-1324549Y1024539D02*
D03*
X-1274549Y1124539D02*
D03*
X-1324549Y1224539D02*
D03*
X-1224549Y224538D02*
D03*
X-1174549Y324538D02*
D03*
X-1224549Y424538D02*
D03*
X-1174549Y524538D02*
D03*
X-1224549Y624539D02*
D03*
X-1174549Y724539D02*
D03*
X-1224549Y824539D02*
D03*
X-1174549Y924539D02*
D03*
X-1224549Y1024539D02*
D03*
X-1174549Y1124539D02*
D03*
X-1224549Y1224539D02*
D03*
X-1124549Y224538D02*
D03*
X-1074549Y324538D02*
D03*
X-1124549Y424538D02*
D03*
X-1074549Y524538D02*
D03*
X-1124549Y624539D02*
D03*
X-1074549Y724539D02*
D03*
X-1124549Y824539D02*
D03*
X-1074549Y924539D02*
D03*
X-1124549Y1024539D02*
D03*
X-1074549Y1124539D02*
D03*
X-1124549Y1224539D02*
D03*
X-1024549Y224538D02*
D03*
X-974549Y324538D02*
D03*
X-1024549Y424538D02*
D03*
X-974549Y524538D02*
D03*
X-1024549Y624539D02*
D03*
X-974549Y724539D02*
D03*
X-1024549Y824539D02*
D03*
X-974549Y924539D02*
D03*
X-1024549Y1024539D02*
D03*
X-974549Y1124539D02*
D03*
X-1024549Y1224539D02*
D03*
X-924549Y224538D02*
D03*
X-874549Y324538D02*
D03*
X-924549Y424538D02*
D03*
X-874549Y524538D02*
D03*
X-924549Y624539D02*
D03*
X-874549Y724539D02*
D03*
X-924549Y824539D02*
D03*
X-874549Y924539D02*
D03*
X-924549Y1024539D02*
D03*
X-874549Y1124539D02*
D03*
X-924549Y1224539D02*
D03*
X-824549Y224538D02*
D03*
X-774549Y324538D02*
D03*
X-824549Y424538D02*
D03*
X-774549Y524538D02*
D03*
X-824549Y624539D02*
D03*
X-774549Y724539D02*
D03*
X-824549Y824539D02*
D03*
X-774549Y924539D02*
D03*
X-824549Y1024539D02*
D03*
X-774549Y1124539D02*
D03*
X-824549Y1224539D02*
D03*
X-724549Y224538D02*
D03*
X-674549Y324538D02*
D03*
X-724549Y424538D02*
D03*
X-674549Y524538D02*
D03*
X-724549Y624539D02*
D03*
X-674549Y724539D02*
D03*
X-724549Y824539D02*
D03*
X-674549Y924539D02*
D03*
X-724549Y1024539D02*
D03*
X-674549Y1124539D02*
D03*
X-724549Y1224539D02*
D03*
X-624549Y224538D02*
D03*
X-574549Y324538D02*
D03*
X-624549Y424538D02*
D03*
X-574549Y524538D02*
D03*
X-624549Y624539D02*
D03*
X-574549Y724539D02*
D03*
X-624549Y824539D02*
D03*
X-574549Y924539D02*
D03*
X-624549Y1024539D02*
D03*
X-574549Y1124539D02*
D03*
X-624549Y1224539D02*
D03*
X-524549Y224538D02*
D03*
X-474549Y324538D02*
D03*
X-524549Y424538D02*
D03*
X-474549Y524538D02*
D03*
X-524549Y624539D02*
D03*
X-474549Y724539D02*
D03*
X-524549Y824539D02*
D03*
X-474549Y924539D02*
D03*
X-524549Y1024539D02*
D03*
X-474549Y1124539D02*
D03*
X-524549Y1224539D02*
D03*
X-424549Y224538D02*
D03*
X-374549Y324538D02*
D03*
X-424549Y424538D02*
D03*
X-374549Y524538D02*
D03*
X-424549Y624539D02*
D03*
X-374549Y724539D02*
D03*
X-424549Y824539D02*
D03*
X-374549Y924539D02*
D03*
X-424549Y1024539D02*
D03*
X-374549Y1124539D02*
D03*
X-424549Y1224539D02*
D03*
X-324549Y224538D02*
D03*
X-274549Y324538D02*
D03*
X-324549Y424538D02*
D03*
X-274549Y524538D02*
D03*
X-324549Y624539D02*
D03*
X-274549Y724539D02*
D03*
X-324549Y824539D02*
D03*
X-274549Y924539D02*
D03*
X-324549Y1024539D02*
D03*
X-274549Y1124539D02*
D03*
X-324549Y1224539D02*
D03*
X-224549Y224538D02*
D03*
X-174549Y324538D02*
D03*
X-224549Y424538D02*
D03*
X-174549Y524538D02*
D03*
X-224549Y624539D02*
D03*
X-174549Y724539D02*
D03*
X-224549Y824539D02*
D03*
X-174549Y924539D02*
D03*
X-224549Y1024539D02*
D03*
X-174549Y1124539D02*
D03*
X-224549Y1224539D02*
D03*
X-124549Y224538D02*
D03*
X-74549Y324538D02*
D03*
X-124549Y424538D02*
D03*
X-74549Y524538D02*
D03*
X-124549Y624539D02*
D03*
X-74549Y724539D02*
D03*
X-124549Y824539D02*
D03*
X-74549Y924539D02*
D03*
X-124549Y1024539D02*
D03*
X-74549Y1124539D02*
D03*
X-124549Y1224539D02*
D03*
X-74549Y1724539D02*
D03*
Y1924539D02*
D03*
Y2124539D02*
D03*
Y2324539D02*
D03*
Y2524540D02*
D03*
Y2724540D02*
D03*
Y2924540D02*
D03*
X-24549Y224538D02*
D03*
X25451Y324538D02*
D03*
X-24549Y424538D02*
D03*
X25451Y524538D02*
D03*
X-24549Y624539D02*
D03*
X25451Y724539D02*
D03*
X-24549Y824539D02*
D03*
X25451Y924539D02*
D03*
X-24549Y1024539D02*
D03*
X25451Y1124539D02*
D03*
X-24549Y1224539D02*
D03*
X25451Y2124539D02*
D03*
X-24549Y2224539D02*
D03*
X25451Y2324539D02*
D03*
X-24549Y2424539D02*
D03*
X25451Y2524540D02*
D03*
X-24549Y2624540D02*
D03*
X25451Y2724540D02*
D03*
X-24549Y2824540D02*
D03*
X75451Y224538D02*
D03*
X125451Y324538D02*
D03*
X75451Y424538D02*
D03*
X125451Y524538D02*
D03*
X75451Y624539D02*
D03*
X125451Y724539D02*
D03*
X75451Y824539D02*
D03*
X125451Y924539D02*
D03*
X75451Y1024539D02*
D03*
X125451Y1124539D02*
D03*
X75451Y1224539D02*
D03*
Y2224539D02*
D03*
X125451Y2324539D02*
D03*
X75451Y2424539D02*
D03*
X125451Y2524540D02*
D03*
X75451Y2624540D02*
D03*
X125451Y2724540D02*
D03*
X75451Y2824540D02*
D03*
X175452Y224538D02*
D03*
X225451Y324538D02*
D03*
X175452Y424538D02*
D03*
X225451Y524538D02*
D03*
X175452Y624539D02*
D03*
X225451Y724539D02*
D03*
X175452Y824539D02*
D03*
X225451Y924539D02*
D03*
X175452Y1024539D02*
D03*
X225451Y1124539D02*
D03*
X175452Y1224539D02*
D03*
Y2224539D02*
D03*
X225451Y2324539D02*
D03*
X175452Y2824540D02*
D03*
X275452Y224538D02*
D03*
X325451Y324538D02*
D03*
X275452Y424538D02*
D03*
X325451Y524538D02*
D03*
X275452Y624539D02*
D03*
X325451Y724539D02*
D03*
X275452Y824539D02*
D03*
X325451Y924539D02*
D03*
X275452Y1024539D02*
D03*
X325451Y1124539D02*
D03*
X275452Y1224539D02*
D03*
Y2224539D02*
D03*
X325451Y2324539D02*
D03*
X275452Y2824540D02*
D03*
X375452Y224538D02*
D03*
X425452Y324538D02*
D03*
X375452Y424538D02*
D03*
X425452Y524538D02*
D03*
X375452Y624539D02*
D03*
X425452Y724539D02*
D03*
X375452Y824539D02*
D03*
X425452Y924539D02*
D03*
X375452Y1024539D02*
D03*
X425452Y1124539D02*
D03*
X375452Y1224539D02*
D03*
Y2224539D02*
D03*
X425452Y2324539D02*
D03*
X375452Y2824540D02*
D03*
X475452Y224538D02*
D03*
X525452Y324538D02*
D03*
X475452Y424538D02*
D03*
X525452Y524538D02*
D03*
X475452Y624539D02*
D03*
X525452Y724539D02*
D03*
X475452Y824539D02*
D03*
X525452Y924539D02*
D03*
X475452Y1024539D02*
D03*
X525452Y1124539D02*
D03*
X475452Y1224539D02*
D03*
X525452Y2124539D02*
D03*
X475452Y2224539D02*
D03*
X525452Y2324539D02*
D03*
X475452Y2824540D02*
D03*
X575452Y224538D02*
D03*
X625452Y324538D02*
D03*
X575452Y424538D02*
D03*
X625452Y524538D02*
D03*
X575452Y624539D02*
D03*
X625452Y724539D02*
D03*
X575452Y824539D02*
D03*
X625452Y924539D02*
D03*
X575452Y1024539D02*
D03*
X625452Y1124539D02*
D03*
X575452Y1224539D02*
D03*
X625452Y2124539D02*
D03*
X575452Y2224539D02*
D03*
X625452Y2324539D02*
D03*
X575452Y2824540D02*
D03*
X675452Y224538D02*
D03*
X725452Y324538D02*
D03*
X675452Y424538D02*
D03*
X725452Y524538D02*
D03*
X675452Y624539D02*
D03*
X725452Y724539D02*
D03*
X675452Y824539D02*
D03*
X725452Y924539D02*
D03*
X675452Y1024539D02*
D03*
X725452Y1124539D02*
D03*
X675452Y1224539D02*
D03*
X725452Y2124539D02*
D03*
X675452Y2224539D02*
D03*
X725452Y2324539D02*
D03*
X675452Y2824540D02*
D03*
X775452Y224538D02*
D03*
X825452Y324538D02*
D03*
X775452Y424538D02*
D03*
X825452Y524538D02*
D03*
X775452Y624539D02*
D03*
X825452Y724539D02*
D03*
X775452Y824539D02*
D03*
X825452Y924539D02*
D03*
X775452Y1024539D02*
D03*
X825452Y1124539D02*
D03*
X775452Y1224539D02*
D03*
X825452Y2124539D02*
D03*
X775452Y2224539D02*
D03*
X825452Y2324539D02*
D03*
X775452Y2824540D02*
D03*
X875452Y224538D02*
D03*
X925452Y324538D02*
D03*
X875452Y424538D02*
D03*
X925452Y524538D02*
D03*
X875452Y624539D02*
D03*
X925452Y724539D02*
D03*
X875452Y824539D02*
D03*
X925452Y924539D02*
D03*
X875452Y1024539D02*
D03*
X925452Y1124539D02*
D03*
X875452Y1224539D02*
D03*
X925452Y2124539D02*
D03*
X875452Y2224539D02*
D03*
X925452Y2324539D02*
D03*
X875452Y2824540D02*
D03*
X975452Y224538D02*
D03*
X1025452Y324538D02*
D03*
X975452Y424538D02*
D03*
X1025452Y524538D02*
D03*
X975452Y624539D02*
D03*
X1025452Y724539D02*
D03*
X975452Y824539D02*
D03*
X1025452Y924539D02*
D03*
X975452Y1024539D02*
D03*
X1025452Y1124539D02*
D03*
X975452Y1224539D02*
D03*
X1025452Y2124539D02*
D03*
X975452Y2224539D02*
D03*
X1025452Y2324539D02*
D03*
X975452Y2824540D02*
D03*
X1075452Y224538D02*
D03*
X1125452Y324538D02*
D03*
X1075452Y424538D02*
D03*
X1125452Y524538D02*
D03*
X1075452Y624539D02*
D03*
X1125452Y724539D02*
D03*
X1075452Y824539D02*
D03*
X1125452Y924539D02*
D03*
X1075452Y1024539D02*
D03*
X1125452Y1124539D02*
D03*
X1075452Y1224539D02*
D03*
X1125452Y2124539D02*
D03*
X1075452Y2224539D02*
D03*
X1125452Y2324539D02*
D03*
X1075452Y2824540D02*
D03*
X1175452Y224538D02*
D03*
X1225452Y324538D02*
D03*
X1175452Y424538D02*
D03*
X1225452Y524538D02*
D03*
X1175452Y624539D02*
D03*
X1225452Y724539D02*
D03*
X1175452Y824539D02*
D03*
X1225452Y924539D02*
D03*
X1175452Y1024539D02*
D03*
X1225452Y1124539D02*
D03*
X1175452Y1224539D02*
D03*
X1225452Y2124539D02*
D03*
X1175452Y2224539D02*
D03*
X1225452Y2324539D02*
D03*
X1175452Y2424539D02*
D03*
X1225452Y2524540D02*
D03*
X1175452Y2624540D02*
D03*
X1225452Y2724540D02*
D03*
X1175452Y2824540D02*
D03*
X1275452Y224538D02*
D03*
X1325452Y324538D02*
D03*
X1275452Y424538D02*
D03*
X1325452Y524538D02*
D03*
X1275452Y624539D02*
D03*
X1325452Y724539D02*
D03*
X1275452Y824539D02*
D03*
X1325452Y924539D02*
D03*
X1275452Y1024539D02*
D03*
X1325452Y1124539D02*
D03*
X1275452Y1224539D02*
D03*
X1325452Y2124539D02*
D03*
X1275452Y2224539D02*
D03*
X1325452Y2324539D02*
D03*
X1275452Y2424539D02*
D03*
X1325452Y2524540D02*
D03*
X1275452Y2624540D02*
D03*
X1325452Y2724540D02*
D03*
X1275452Y2824540D02*
D03*
X1325452Y2924540D02*
D03*
X1375452Y224538D02*
D03*
X1425452Y324538D02*
D03*
X1375452Y424538D02*
D03*
X1425452Y524538D02*
D03*
X1375452Y624539D02*
D03*
X1425452Y724539D02*
D03*
X1375452Y824539D02*
D03*
X1425452Y924539D02*
D03*
X1375452Y1024539D02*
D03*
X1425452Y1124539D02*
D03*
X1375452Y1224539D02*
D03*
X1425452Y1324539D02*
D03*
X1475452Y224538D02*
D03*
X1525452Y324538D02*
D03*
X1475452Y424538D02*
D03*
X1525452Y524538D02*
D03*
X1475452Y624539D02*
D03*
X1525452Y724539D02*
D03*
X1475452Y824539D02*
D03*
X1525452Y924539D02*
D03*
X1475452Y1024539D02*
D03*
X1525452Y1124539D02*
D03*
X1475452Y1224539D02*
D03*
X1575452Y224538D02*
D03*
X1625452Y324538D02*
D03*
X1575452Y424538D02*
D03*
X1625452Y524538D02*
D03*
X1575452Y624539D02*
D03*
X1625452Y724539D02*
D03*
X1575452Y824539D02*
D03*
X1625452Y924539D02*
D03*
X1575452Y1024539D02*
D03*
X1625452Y1124539D02*
D03*
X1575452Y1224539D02*
D03*
X1675452Y224538D02*
D03*
X1725452Y324538D02*
D03*
X1675452Y424538D02*
D03*
X1725452Y524538D02*
D03*
X1675452Y624539D02*
D03*
X1725452Y724539D02*
D03*
X1675452Y824539D02*
D03*
X1725452Y924539D02*
D03*
X1675452Y1024539D02*
D03*
X1725452Y1124539D02*
D03*
X1675452Y1224539D02*
D03*
X1775452Y224538D02*
D03*
X1825452Y324538D02*
D03*
X1775452Y424538D02*
D03*
X1825452Y524538D02*
D03*
X1775452Y624539D02*
D03*
X1825452Y724539D02*
D03*
X1775452Y824539D02*
D03*
X1825452Y924539D02*
D03*
X1775452Y1024539D02*
D03*
X1825452Y1124539D02*
D03*
X1775452Y1224539D02*
D03*
X1875452Y224538D02*
D03*
X1925452Y324538D02*
D03*
X1875452Y424538D02*
D03*
X1925452Y524538D02*
D03*
X1875452Y624539D02*
D03*
X1925452Y724539D02*
D03*
X1875452Y824539D02*
D03*
X1925452Y924539D02*
D03*
X1875452Y1024539D02*
D03*
X1925452Y1124539D02*
D03*
X1875452Y1224539D02*
D03*
X1975452Y224538D02*
D03*
X2025452Y324538D02*
D03*
X1975452Y424538D02*
D03*
X2025452Y524538D02*
D03*
X1975452Y624539D02*
D03*
X2025452Y724539D02*
D03*
X1975452Y824539D02*
D03*
X2025452Y924539D02*
D03*
X1975452Y1024539D02*
D03*
X2025452Y1124539D02*
D03*
X1975452Y1224539D02*
D03*
X2075453Y224538D02*
D03*
X2125452Y324538D02*
D03*
X2075453Y424538D02*
D03*
X2125452Y524538D02*
D03*
X2075453Y624539D02*
D03*
X2125452Y724539D02*
D03*
X2075453Y824539D02*
D03*
X2125452Y924539D02*
D03*
X2075453Y1024539D02*
D03*
X2125452Y1124539D02*
D03*
X2075453Y1224539D02*
D03*
X2175453Y224538D02*
D03*
X2225452Y324538D02*
D03*
X2175453Y424538D02*
D03*
X2225452Y524538D02*
D03*
X2175453Y624539D02*
D03*
X2225452Y724539D02*
D03*
X2175453Y824539D02*
D03*
X2225452Y924539D02*
D03*
X2175453Y1024539D02*
D03*
X2225452Y1124539D02*
D03*
X2175453Y1224539D02*
D03*
X2275453Y224538D02*
D03*
X2325453Y324538D02*
D03*
X2275453Y424538D02*
D03*
X2325453Y524538D02*
D03*
X2275453Y624539D02*
D03*
X2325453Y724539D02*
D03*
X2275453Y824539D02*
D03*
X2325453Y924539D02*
D03*
X2275453Y1024539D02*
D03*
X2325453Y1124539D02*
D03*
X2275453Y1224539D02*
D03*
X2375453Y224538D02*
D03*
X2425453Y324538D02*
D03*
X2375453Y424538D02*
D03*
X2425453Y524538D02*
D03*
X2375453Y624539D02*
D03*
X2425453Y724539D02*
D03*
X2375453Y824539D02*
D03*
X2425453Y924539D02*
D03*
X2375453Y1024539D02*
D03*
X2425453Y1124539D02*
D03*
X2375453Y1224539D02*
D03*
X2475453Y224538D02*
D03*
X2525453Y324538D02*
D03*
X2475453Y424538D02*
D03*
X2525453Y524538D02*
D03*
X2475453Y624539D02*
D03*
X2525453Y724539D02*
D03*
X2475453Y824539D02*
D03*
X2525453Y924539D02*
D03*
X2475453Y1024539D02*
D03*
X2525453Y1124539D02*
D03*
X2475453Y1224539D02*
D03*
X2575453Y224538D02*
D03*
X2625453Y324538D02*
D03*
X2575453Y424538D02*
D03*
X2625453Y524538D02*
D03*
X2575453Y624539D02*
D03*
X2625453Y724539D02*
D03*
X2575453Y824539D02*
D03*
X2625453Y924539D02*
D03*
X2575453Y1024539D02*
D03*
X2625453Y1124539D02*
D03*
X2575453Y1224539D02*
D03*
X2675453Y224538D02*
D03*
X2725453Y324538D02*
D03*
X2675453Y424538D02*
D03*
X2725453Y524538D02*
D03*
X2675453Y624539D02*
D03*
X2725453Y724539D02*
D03*
X2675453Y824539D02*
D03*
X2725453Y924539D02*
D03*
X2675453Y1024539D02*
D03*
X2725453Y1124539D02*
D03*
X2675453Y1224539D02*
D03*
X2775453Y224538D02*
D03*
X2825453Y324538D02*
D03*
X2775453Y424538D02*
D03*
X2825453Y524538D02*
D03*
X2775453Y624539D02*
D03*
X2825453Y724539D02*
D03*
X2775453Y824539D02*
D03*
X2825453Y924539D02*
D03*
X2775453Y1024539D02*
D03*
X2825453Y1124539D02*
D03*
X2775453Y1224539D02*
D03*
X2875453Y224538D02*
D03*
X2925453Y324538D02*
D03*
X2875453Y424538D02*
D03*
X2925453Y524538D02*
D03*
X2875453Y624539D02*
D03*
X2925453Y724539D02*
D03*
X2875453Y824539D02*
D03*
X2925453Y924539D02*
D03*
X2875453Y1024539D02*
D03*
X2925453Y1124539D02*
D03*
X2875453Y1224539D02*
D03*
X2975453Y224538D02*
D03*
X3025453Y324538D02*
D03*
X2975453Y424538D02*
D03*
X3025453Y524538D02*
D03*
X2975453Y624539D02*
D03*
X3025453Y724539D02*
D03*
X2975453Y824539D02*
D03*
X3025453Y924539D02*
D03*
X2975453Y1024539D02*
D03*
X3025453Y1124539D02*
D03*
X2975453Y1224539D02*
D03*
X3075453Y224538D02*
D03*
X3125453Y324538D02*
D03*
X3075453Y424538D02*
D03*
X3125453Y524538D02*
D03*
X3075453Y624539D02*
D03*
X3125453Y724539D02*
D03*
X3075453Y824539D02*
D03*
X3125453Y924539D02*
D03*
X3075453Y1024539D02*
D03*
X3125453Y1124539D02*
D03*
X3075453Y1224539D02*
D03*
X3175453Y224538D02*
D03*
X3225453Y324538D02*
D03*
X3175453Y424538D02*
D03*
X3225453Y524538D02*
D03*
X3175453Y624539D02*
D03*
X3225453Y724539D02*
D03*
X3175453Y824539D02*
D03*
X3225453Y924539D02*
D03*
X3175453Y1024539D02*
D03*
X3225453Y1124539D02*
D03*
X3175453Y1224539D02*
D03*
X3275453Y224538D02*
D03*
X3325453Y324538D02*
D03*
X3275453Y424538D02*
D03*
X3325453Y524538D02*
D03*
X3275453Y624539D02*
D03*
X3325453Y724539D02*
D03*
X3275453Y824539D02*
D03*
X3325453Y924539D02*
D03*
X3275453Y1024539D02*
D03*
X3325453Y1124539D02*
D03*
X3275453Y1224539D02*
D03*
X3325453Y1724539D02*
D03*
Y1924539D02*
D03*
Y2124539D02*
D03*
Y2324539D02*
D03*
Y2524540D02*
D03*
Y2724540D02*
D03*
Y2924540D02*
D03*
X3375453Y224538D02*
D03*
X3425453Y324538D02*
D03*
X3375453Y424538D02*
D03*
X3425453Y524538D02*
D03*
X3375453Y624539D02*
D03*
X3425453Y724539D02*
D03*
X3375453Y824539D02*
D03*
X3425453Y924539D02*
D03*
X3375453Y1024539D02*
D03*
X3425453Y1124539D02*
D03*
X3375453Y1224539D02*
D03*
X3425453Y2124539D02*
D03*
X3375453Y2224539D02*
D03*
X3425453Y2324539D02*
D03*
X3375453Y2424539D02*
D03*
X3425453Y2524540D02*
D03*
X3375453Y2624540D02*
D03*
X3425453Y2724540D02*
D03*
X3375453Y2824540D02*
D03*
X3475453Y224538D02*
D03*
X3525453Y324538D02*
D03*
X3475453Y424538D02*
D03*
X3525453Y524538D02*
D03*
X3475453Y624539D02*
D03*
X3525453Y724539D02*
D03*
X3475453Y824539D02*
D03*
X3525453Y924539D02*
D03*
X3475453Y1024539D02*
D03*
X3525453Y1124539D02*
D03*
X3475453Y1224539D02*
D03*
Y2224539D02*
D03*
X3525453Y2324539D02*
D03*
X3475453Y2424539D02*
D03*
X3525453Y2524540D02*
D03*
X3475453Y2624540D02*
D03*
X3525453Y2724540D02*
D03*
X3475453Y2824540D02*
D03*
X3575453Y224538D02*
D03*
X3625453Y324538D02*
D03*
X3575453Y424538D02*
D03*
X3625453Y524538D02*
D03*
X3575453Y624539D02*
D03*
X3625453Y724539D02*
D03*
X3575453Y824539D02*
D03*
X3625453Y924539D02*
D03*
X3575453Y1024539D02*
D03*
X3625453Y1124539D02*
D03*
X3575453Y1224539D02*
D03*
Y2224539D02*
D03*
X3625453Y2324539D02*
D03*
X3575453Y2824540D02*
D03*
X3675453Y224538D02*
D03*
X3725453Y324538D02*
D03*
X3675453Y424538D02*
D03*
X3725453Y524538D02*
D03*
X3675453Y624539D02*
D03*
X3725453Y724539D02*
D03*
X3675453Y824539D02*
D03*
X3725453Y924539D02*
D03*
X3675453Y1024539D02*
D03*
X3725453Y1124539D02*
D03*
X3675453Y1224539D02*
D03*
Y2224539D02*
D03*
X3725453Y2324539D02*
D03*
X3675453Y2824540D02*
D03*
X3775453Y224538D02*
D03*
X3825453Y324538D02*
D03*
X3775453Y424538D02*
D03*
X3825453Y524538D02*
D03*
X3775453Y624539D02*
D03*
X3825453Y724539D02*
D03*
X3775453Y824539D02*
D03*
X3825453Y924539D02*
D03*
X3775453Y1024539D02*
D03*
X3825453Y1124539D02*
D03*
X3775453Y1224539D02*
D03*
Y2224539D02*
D03*
X3825453Y2324539D02*
D03*
X3775453Y2824540D02*
D03*
X3875454Y224538D02*
D03*
X3925453Y324538D02*
D03*
X3875454Y424538D02*
D03*
X3925453Y524538D02*
D03*
X3875454Y624539D02*
D03*
X3925453Y724539D02*
D03*
X3875454Y824539D02*
D03*
X3925453Y924539D02*
D03*
X3875454Y1024539D02*
D03*
X3925453Y1124539D02*
D03*
X3875454Y1224539D02*
D03*
X3925453Y2124539D02*
D03*
X3875454Y2224539D02*
D03*
X3925453Y2324539D02*
D03*
X3875454Y2824540D02*
D03*
X3975454Y224538D02*
D03*
X4025453Y324538D02*
D03*
X3975454Y424538D02*
D03*
X4025453Y524538D02*
D03*
X3975454Y624539D02*
D03*
X4025453Y724539D02*
D03*
X3975454Y824539D02*
D03*
X4025453Y924539D02*
D03*
X3975454Y1024539D02*
D03*
X4025453Y1124539D02*
D03*
X3975454Y1224539D02*
D03*
X4025453Y2124539D02*
D03*
X3975454Y2224539D02*
D03*
X4025453Y2324539D02*
D03*
X3975454Y2824540D02*
D03*
X4075454Y224538D02*
D03*
X4125454Y324538D02*
D03*
X4075454Y424538D02*
D03*
X4125454Y524538D02*
D03*
X4075454Y624539D02*
D03*
X4125454Y724539D02*
D03*
X4075454Y824539D02*
D03*
X4125454Y924539D02*
D03*
X4075454Y1024539D02*
D03*
X4125454Y1124539D02*
D03*
X4075454Y1224539D02*
D03*
X4125454Y2124539D02*
D03*
X4075454Y2224539D02*
D03*
X4125454Y2324539D02*
D03*
X4075454Y2824540D02*
D03*
X4175454Y224538D02*
D03*
X4225454Y324538D02*
D03*
X4175454Y424538D02*
D03*
X4225454Y524538D02*
D03*
X4175454Y624539D02*
D03*
X4225454Y724539D02*
D03*
X4175454Y824539D02*
D03*
X4225454Y924539D02*
D03*
X4175454Y1024539D02*
D03*
X4225454Y1124539D02*
D03*
X4175454Y1224539D02*
D03*
X4225454Y2124539D02*
D03*
X4175454Y2224539D02*
D03*
X4225454Y2324539D02*
D03*
X4175454Y2824540D02*
D03*
X4275454Y1224539D02*
D03*
X4325454Y2124539D02*
D03*
X4275454Y2224539D02*
D03*
X4325454Y2324539D02*
D03*
X4275454Y2824540D02*
D03*
X4375454Y1224539D02*
D03*
X4425454Y2124539D02*
D03*
X4375454Y2224539D02*
D03*
X4425454Y2324539D02*
D03*
X4375454Y2824540D02*
D03*
X4525454Y1124539D02*
D03*
X4475454Y1224539D02*
D03*
X4525454Y2124539D02*
D03*
X4475454Y2224539D02*
D03*
X4525454Y2324539D02*
D03*
X4475454Y2824540D02*
D03*
X4575454Y1224539D02*
D03*
Y2224539D02*
D03*
X4625454Y2324539D02*
D03*
X4575454Y2424539D02*
D03*
X4625454Y2524540D02*
D03*
X4575454Y2624540D02*
D03*
X4625454Y2724540D02*
D03*
X4575454Y2824540D02*
D03*
X4675454Y1224539D02*
D03*
Y1424539D02*
D03*
X4725454Y1524539D02*
D03*
Y2324539D02*
D03*
Y2524540D02*
D03*
Y2724540D02*
D03*
Y2924540D02*
D03*
X4775454Y1224539D02*
D03*
Y1424539D02*
D03*
X4875454Y1224539D02*
D03*
X4975454D02*
D03*
X5075454D02*
D03*
X5175454D02*
D03*
X5325454Y324538D02*
D03*
X5275454Y424538D02*
D03*
X5325454Y524538D02*
D03*
Y724539D02*
D03*
Y924539D02*
D03*
Y1124539D02*
D03*
X5275454Y1224539D02*
D03*
X5875455Y4624541D02*
D03*
X5925454Y4524541D02*
D03*
X5875455Y4424541D02*
D03*
X5925454Y4324540D02*
D03*
X5875455Y3624540D02*
D03*
X5925454Y3524540D02*
D03*
X5875455Y3424540D02*
D03*
X5925454Y3324540D02*
D03*
X5875455Y3224540D02*
D03*
X5925454Y3124540D02*
D03*
X5875455Y3024540D02*
D03*
X5925454Y2924540D02*
D03*
X5875455Y2824540D02*
D03*
X5925454Y2724540D02*
D03*
X5875455Y2624540D02*
D03*
X5925454Y2524540D02*
D03*
X5875455Y2424539D02*
D03*
X5925454Y2324539D02*
D03*
X5775455Y4624541D02*
D03*
X5825454Y4524541D02*
D03*
X5775455Y4424541D02*
D03*
Y3624540D02*
D03*
X5825454Y3524540D02*
D03*
X5775455Y3424540D02*
D03*
X5825454Y3324540D02*
D03*
X5775455Y3224540D02*
D03*
X5825454Y3124540D02*
D03*
X5775455Y3024540D02*
D03*
X5825454Y2924540D02*
D03*
X5775455Y2824540D02*
D03*
X5825454Y2724540D02*
D03*
X5775455Y2624540D02*
D03*
X5825454Y2524540D02*
D03*
X5775455Y2424539D02*
D03*
X5675454Y4624541D02*
D03*
X5725454Y4524541D02*
D03*
X5675454Y4424541D02*
D03*
Y3624540D02*
D03*
X5725454Y3524540D02*
D03*
X5675454Y3424540D02*
D03*
X5725454Y3324540D02*
D03*
X5675454Y3224540D02*
D03*
X5725454Y3124540D02*
D03*
X5675454Y3024540D02*
D03*
X5725454Y2924540D02*
D03*
X5675454Y2824540D02*
D03*
X5725454Y2724540D02*
D03*
X5675454Y2624540D02*
D03*
X5725454Y2524540D02*
D03*
X5675454Y2424539D02*
D03*
X5575454Y4624541D02*
D03*
X5625454Y4524541D02*
D03*
X5575454Y4424541D02*
D03*
Y3624540D02*
D03*
X5625454Y3524540D02*
D03*
X5575454Y3424540D02*
D03*
X5625454Y3324540D02*
D03*
X5575454Y3224540D02*
D03*
X5625454Y3124540D02*
D03*
X5575454Y3024540D02*
D03*
X5625454Y2924540D02*
D03*
X5575454Y2824540D02*
D03*
X5625454Y2724540D02*
D03*
X5575454Y2624540D02*
D03*
X5625454Y2524540D02*
D03*
X5575454Y2424539D02*
D03*
X5475454Y4624541D02*
D03*
X5525454Y4524541D02*
D03*
X5475454Y4424541D02*
D03*
X5525454Y4324540D02*
D03*
X5475454Y3624540D02*
D03*
X5525454Y3524540D02*
D03*
X5475454Y3424540D02*
D03*
X5525454Y3324540D02*
D03*
X5475454Y3224540D02*
D03*
X5525454Y3124540D02*
D03*
X5475454Y3024540D02*
D03*
X5525454Y2924540D02*
D03*
X5475454Y2824540D02*
D03*
X5525454Y2724540D02*
D03*
X5475454Y2624540D02*
D03*
X5525454Y2524540D02*
D03*
X5475454Y2424539D02*
D03*
X5525454Y2324539D02*
D03*
X-574549Y3724540D02*
D03*
Y1924539D02*
D03*
X-624549Y1824539D02*
D03*
X-674549Y3724540D02*
D03*
X-724549Y1824539D02*
D03*
X-774549Y3724540D02*
D03*
X-824549Y2624540D02*
D03*
Y2424539D02*
D03*
Y2224539D02*
D03*
Y1824539D02*
D03*
X-874549Y3724540D02*
D03*
X-924549Y3024540D02*
D03*
X-874549Y2124539D02*
D03*
X-924549Y1824539D02*
D03*
X-974549Y3724540D02*
D03*
X-1074549D02*
D03*
X-1124549Y2424539D02*
D03*
X-1074549Y2324539D02*
D03*
X-1174549Y3724540D02*
D03*
Y2324539D02*
D03*
X-1274549Y3724540D02*
D03*
X-1324549Y3024540D02*
D03*
X-1274549Y2324539D02*
D03*
X-1374549Y3724540D02*
D03*
Y3324540D02*
D03*
X-1424549Y3224540D02*
D03*
X-1374549Y3124540D02*
D03*
X-1424549Y3024540D02*
D03*
X-1374549Y2324539D02*
D03*
X-1424549Y1824539D02*
D03*
X-1474550Y3724540D02*
D03*
Y3324540D02*
D03*
X-1524549Y3224540D02*
D03*
X-1474550Y3124540D02*
D03*
X-1524549Y3024540D02*
D03*
Y2424539D02*
D03*
X-1474550Y2324539D02*
D03*
Y1924539D02*
D03*
X-1524549Y1824539D02*
D03*
X2825453Y3724540D02*
D03*
Y1924539D02*
D03*
X2775453Y1824539D02*
D03*
X2725453Y3724540D02*
D03*
X2675453Y1824539D02*
D03*
X2625453Y3724540D02*
D03*
X2575453Y2624540D02*
D03*
Y2424539D02*
D03*
Y2224539D02*
D03*
Y1824539D02*
D03*
X2525453Y3724540D02*
D03*
X2475453Y3024540D02*
D03*
X2525453Y2124539D02*
D03*
X2475453Y1824539D02*
D03*
X2425453Y3724540D02*
D03*
X2325453D02*
D03*
X2275453Y2424539D02*
D03*
X2325453Y2324539D02*
D03*
X2225452Y3724540D02*
D03*
Y2324539D02*
D03*
X2125452Y3724540D02*
D03*
X2075453Y3024540D02*
D03*
X2125452Y2324539D02*
D03*
X2025452Y3724540D02*
D03*
Y3324540D02*
D03*
X1975452Y3224540D02*
D03*
X2025452Y3124540D02*
D03*
X1975452Y3024540D02*
D03*
X2025452Y2324539D02*
D03*
X1975452Y1824539D02*
D03*
X1925452Y3724540D02*
D03*
Y3324540D02*
D03*
X1875452Y3224540D02*
D03*
X1925452Y3124540D02*
D03*
X1875452Y3024540D02*
D03*
Y2424539D02*
D03*
X1925452Y2324539D02*
D03*
Y1924539D02*
D03*
X1875452Y1824539D02*
D03*
X-3974551Y3724540D02*
D03*
Y1924539D02*
D03*
X-4024551Y1824539D02*
D03*
X-4074551Y3724540D02*
D03*
X-4124551Y1824539D02*
D03*
X-4174551Y3724540D02*
D03*
X-4224551Y2624540D02*
D03*
Y2424539D02*
D03*
Y2224539D02*
D03*
Y1824539D02*
D03*
X-4274551Y3724540D02*
D03*
X-4324551Y3024540D02*
D03*
X-4274551Y2124539D02*
D03*
X-4324551Y1824539D02*
D03*
X-4374551Y3724540D02*
D03*
X-4474551D02*
D03*
X-4524551Y2424539D02*
D03*
X-4474551Y2324539D02*
D03*
X-4574551Y3724540D02*
D03*
Y2324539D02*
D03*
X-4674551Y3724540D02*
D03*
X-4724551Y3024540D02*
D03*
X-4674551Y2324539D02*
D03*
X-4774551Y3724540D02*
D03*
Y3324540D02*
D03*
X-4824551Y3224540D02*
D03*
X-4774551Y3124540D02*
D03*
X-4824551Y3024540D02*
D03*
X-4774551Y2324539D02*
D03*
X-4824551Y1824539D02*
D03*
X-4874551Y3724540D02*
D03*
Y3324540D02*
D03*
X-4924551Y3224540D02*
D03*
X-4874551Y3124540D02*
D03*
X-4924551Y3024540D02*
D03*
Y2424539D02*
D03*
X-4874551Y2324539D02*
D03*
Y1924539D02*
D03*
X-4924551Y1824539D02*
D03*
X-4974551Y3724540D02*
D03*
X-5024551Y3624540D02*
D03*
X-4974551Y3524540D02*
D03*
X-5024551Y3424540D02*
D03*
X-4974551Y3324540D02*
D03*
X-5024551Y3224540D02*
D03*
X-4974551Y3124540D02*
D03*
X-5024551Y3024540D02*
D03*
X-4974551Y2924540D02*
D03*
X-5024551Y2824540D02*
D03*
Y2624540D02*
D03*
X-4974551Y2524540D02*
D03*
X-5024551Y2424539D02*
D03*
X-4974551Y2324539D02*
D03*
X-5024551Y2224539D02*
D03*
Y2024539D02*
D03*
X-4974551Y1924539D02*
D03*
X-5024551Y1824539D02*
D03*
X-5074551Y3724540D02*
D03*
X-5124551Y3624540D02*
D03*
X-5074551Y3524540D02*
D03*
X-5124551Y3424540D02*
D03*
X-5074551Y3324540D02*
D03*
X-5124551Y3224540D02*
D03*
X-5074551Y3124540D02*
D03*
X-5124551Y3024540D02*
D03*
X-5074551Y2924540D02*
D03*
X-5124551Y2824540D02*
D03*
X-5074551Y2724540D02*
D03*
X-5124551Y2624540D02*
D03*
X-5074551Y2524540D02*
D03*
X-5124551Y2424539D02*
D03*
X-5074551Y2324539D02*
D03*
X-5124551Y2224539D02*
D03*
X-5074551Y2124539D02*
D03*
X-5124551Y2024539D02*
D03*
X-5074551Y1924539D02*
D03*
X-5124551Y1824539D02*
D03*
X-5174551Y3724540D02*
D03*
X-5224551Y3624540D02*
D03*
X-5174551Y3524540D02*
D03*
X-5224551Y3424540D02*
D03*
X-5174551Y3324540D02*
D03*
X-5224551Y3224540D02*
D03*
X-5174551Y3124540D02*
D03*
X-5224551Y3024540D02*
D03*
X-5174551Y2924540D02*
D03*
X-5224551Y2824540D02*
D03*
X-5174551Y2724540D02*
D03*
X-5224551Y2624540D02*
D03*
X-5174551Y2524540D02*
D03*
X-5224551Y2424539D02*
D03*
X-5174551Y2324539D02*
D03*
X-5224551Y2224539D02*
D03*
X-5174551Y2124539D02*
D03*
X-5224551Y2024539D02*
D03*
X-5174551Y1924539D02*
D03*
X-5224551Y1824539D02*
D03*
X-5274552Y3724540D02*
D03*
X-5324551Y3624540D02*
D03*
X-5274552Y3524540D02*
D03*
X-5324551Y3424540D02*
D03*
X-5274552Y3324540D02*
D03*
X-5324551Y3224540D02*
D03*
X-5274552Y3124540D02*
D03*
X-5324551Y3024540D02*
D03*
X-5274552Y2924540D02*
D03*
X-5324551Y2824540D02*
D03*
X-5274552Y2724540D02*
D03*
X-5324551Y2624540D02*
D03*
X-5274552Y2524540D02*
D03*
X-5324551Y2424539D02*
D03*
X-5274552Y2324539D02*
D03*
X-5324551Y2224539D02*
D03*
X-5274552Y2124539D02*
D03*
X-5324551Y2024539D02*
D03*
X-5274552Y1924539D02*
D03*
X-5324551Y1824539D02*
D03*
X-5374552Y3724540D02*
D03*
X-5424552Y3624540D02*
D03*
X-5374552Y3524540D02*
D03*
X-5424552Y3424540D02*
D03*
X-5374552Y3324540D02*
D03*
X-5424552Y3224540D02*
D03*
X-5374552Y3124540D02*
D03*
X-5424552Y3024540D02*
D03*
X-5374552Y2924540D02*
D03*
X-5424552Y2824540D02*
D03*
X-5374552Y2724540D02*
D03*
X-5424552Y2624540D02*
D03*
X-5374552Y2524540D02*
D03*
X-5424552Y2424539D02*
D03*
X-5374552Y2324539D02*
D03*
X-5524552Y4624541D02*
D03*
X-5474552Y4524541D02*
D03*
X-5524552Y4424541D02*
D03*
X-5474552Y4324540D02*
D03*
X-5524552Y3624540D02*
D03*
X-5474552Y3524540D02*
D03*
X-5524552Y3424540D02*
D03*
X-5474552Y3324540D02*
D03*
X-5524552Y3224540D02*
D03*
X-5474552Y3124540D02*
D03*
X-5524552Y3024540D02*
D03*
X-5474552Y2924540D02*
D03*
X-5524552Y2824540D02*
D03*
X-5474552Y2724540D02*
D03*
X-5524552Y2624540D02*
D03*
X-5474552Y2524540D02*
D03*
X-5524552Y2424539D02*
D03*
X-5474552Y2324539D02*
D03*
X-5624552Y4624541D02*
D03*
X-5574552Y4524541D02*
D03*
X-5624552Y4424541D02*
D03*
Y3624540D02*
D03*
X-5574552Y3524540D02*
D03*
X-5624552Y3424540D02*
D03*
X-5574552Y3324540D02*
D03*
X-5624552Y3224540D02*
D03*
X-5574552Y3124540D02*
D03*
X-5624552Y3024540D02*
D03*
X-5574552Y2924540D02*
D03*
X-5624552Y2824540D02*
D03*
X-5574552Y2724540D02*
D03*
X-5624552Y2624540D02*
D03*
X-5574552Y2524540D02*
D03*
X-5624552Y2424539D02*
D03*
X-5724552Y4624541D02*
D03*
X-5674552Y4524541D02*
D03*
X-5724552Y4424541D02*
D03*
Y3624540D02*
D03*
X-5674552Y3524540D02*
D03*
X-5724552Y3424540D02*
D03*
X-5674552Y3324540D02*
D03*
X-5724552Y3224540D02*
D03*
X-5674552Y3124540D02*
D03*
X-5724552Y3024540D02*
D03*
X-5674552Y2924540D02*
D03*
X-5724552Y2824540D02*
D03*
X-5674552Y2724540D02*
D03*
X-5724552Y2624540D02*
D03*
X-5674552Y2524540D02*
D03*
X-5724552Y2424539D02*
D03*
X-5824552Y4624541D02*
D03*
X-5774552Y4524541D02*
D03*
X-5824552Y4424541D02*
D03*
Y3624540D02*
D03*
X-5774552Y3524540D02*
D03*
X-5824552Y3424540D02*
D03*
X-5774552Y3324540D02*
D03*
X-5824552Y3224540D02*
D03*
X-5774552Y3124540D02*
D03*
X-5824552Y3024540D02*
D03*
X-5774552Y2924540D02*
D03*
X-5824552Y2824540D02*
D03*
X-5774552Y2724540D02*
D03*
X-5824552Y2624540D02*
D03*
X-5774552Y2524540D02*
D03*
X-5824552Y2424539D02*
D03*
X-5924552Y4624541D02*
D03*
X-5874552Y4524541D02*
D03*
X-5924552Y4424541D02*
D03*
X-5874552Y4324540D02*
D03*
X-5924552Y3624540D02*
D03*
X-5874552Y3524540D02*
D03*
X-5924552Y3424540D02*
D03*
X-5874552Y3324540D02*
D03*
X-5924552Y3224540D02*
D03*
X-5874552Y3124540D02*
D03*
X-5924552Y3024540D02*
D03*
X-5874552Y2924540D02*
D03*
X-5924552Y2824540D02*
D03*
X-5874552Y2724540D02*
D03*
X-5924552Y2624540D02*
D03*
X-5874552Y2524540D02*
D03*
X-5924552Y2424539D02*
D03*
X-5874552Y2324539D02*
D03*
X-2700000Y6750000D02*
D03*
X-3300000D02*
D03*
Y6250000D02*
D03*
X-2700000D02*
D03*
X-2800000Y6050000D02*
D03*
X-2900000D02*
D03*
X-3000000D02*
D03*
X-3100000D02*
D03*
X-3200000D02*
D03*
X-3150000Y6800000D02*
D03*
Y6900000D02*
D03*
X-3200000Y6850000D02*
D03*
X-3250000Y6800000D02*
D03*
Y6900000D02*
D03*
X-2950000D02*
D03*
X-3000000Y6850000D02*
D03*
X-3050000Y6900000D02*
D03*
X-2750000Y6800000D02*
D03*
Y6900000D02*
D03*
X-2800000Y6850000D02*
D03*
X-2850000Y6800000D02*
D03*
Y6900000D02*
D03*
X-2900000Y6850000D02*
D03*
X-3100000D02*
D03*
X-3100000Y6150000D02*
D03*
X-2900000D02*
D03*
X-2850000Y6200000D02*
D03*
Y6100000D02*
D03*
X-2800000Y6150000D02*
D03*
X-2750000Y6200000D02*
D03*
Y6100000D02*
D03*
X-3050000D02*
D03*
X-3000000Y6150000D02*
D03*
X-2950000Y6100000D02*
D03*
X-3250000Y6200000D02*
D03*
Y6100000D02*
D03*
X-3200000Y6150000D02*
D03*
X-3150000Y6200000D02*
D03*
Y6100000D02*
D03*
X-3050000Y6800000D02*
D03*
X-2950000D02*
D03*
X-3050000Y6200000D02*
D03*
X-2950000D02*
D03*
X-3200000Y6250000D02*
D03*
X-2800000D02*
D03*
Y6750000D02*
D03*
X-3200000D02*
D03*
X-3250000Y6700000D02*
D03*
X-2750000D02*
D03*
Y6300000D02*
D03*
X-3250000D02*
D03*
X300000Y6750000D02*
D03*
X-300000D02*
D03*
Y6250000D02*
D03*
X300000D02*
D03*
X200000Y6050000D02*
D03*
X100000D02*
D03*
X0D02*
D03*
X-100000D02*
D03*
X-200000D02*
D03*
X-150000Y6800000D02*
D03*
Y6900000D02*
D03*
X-200000Y6850000D02*
D03*
X-250000Y6800000D02*
D03*
Y6900000D02*
D03*
X50000D02*
D03*
X0Y6850000D02*
D03*
X-50000Y6900000D02*
D03*
X250000Y6800000D02*
D03*
Y6900000D02*
D03*
X200000Y6850000D02*
D03*
X150000Y6800000D02*
D03*
Y6900000D02*
D03*
X100000Y6850000D02*
D03*
X-100000D02*
D03*
X-100000Y6150000D02*
D03*
X100000D02*
D03*
X150000Y6200000D02*
D03*
Y6100000D02*
D03*
X200000Y6150000D02*
D03*
X250000Y6200000D02*
D03*
Y6100000D02*
D03*
X-50000D02*
D03*
X-0Y6150000D02*
D03*
X50000Y6100000D02*
D03*
X-250000Y6200000D02*
D03*
Y6100000D02*
D03*
X-200000Y6150000D02*
D03*
X-150000Y6200000D02*
D03*
Y6100000D02*
D03*
X-50000Y6800000D02*
D03*
X50000D02*
D03*
X-50000Y6200000D02*
D03*
X50000D02*
D03*
X-200000Y6250000D02*
D03*
X200000D02*
D03*
Y6750000D02*
D03*
X-200000D02*
D03*
X-250000Y6700000D02*
D03*
X250000D02*
D03*
Y6300000D02*
D03*
X-250000D02*
D03*
X-4400000Y3421780D02*
D03*
X-4220000Y2740000D02*
D03*
X-4150000Y2540000D02*
D03*
X-4775000Y3425000D02*
D03*
X-4140000Y2340811D02*
D03*
X-4447500Y3240000D02*
D03*
X-4550587Y3204413D02*
D03*
X-4275000Y3425000D02*
D03*
X-4596780Y3377500D02*
D03*
X-4525000Y3425000D02*
D03*
X-4050000Y1975000D02*
D03*
X-4000000Y3425000D02*
D03*
X-4100000Y2200000D02*
D03*
X-4148087Y3098087D02*
D03*
X-4072508Y2950008D02*
D03*
Y2800008D02*
D03*
X-4125000Y3425000D02*
D03*
Y3325000D02*
D03*
X-4260008Y3287492D02*
D03*
X-1000000Y3421780D02*
D03*
X-820000Y2740000D02*
D03*
X-750000Y2540000D02*
D03*
X-1375000Y3425000D02*
D03*
X-740000Y2340811D02*
D03*
X-1047500Y3240000D02*
D03*
X-1150587Y3204413D02*
D03*
X-875000Y3425000D02*
D03*
X-1196780Y3377500D02*
D03*
X-1125000Y3425000D02*
D03*
X-650000Y1975000D02*
D03*
X-600000Y3425000D02*
D03*
X-700000Y2200000D02*
D03*
X-748087Y3098087D02*
D03*
X-672509Y2950008D02*
D03*
Y2800008D02*
D03*
X-725000Y3425000D02*
D03*
Y3325000D02*
D03*
X-860008Y3287492D02*
D03*
X2580000Y2740000D02*
D03*
X2650000Y2540000D02*
D03*
X2249413Y3204413D02*
D03*
X2660000Y2340811D02*
D03*
X2400000Y3421780D02*
D03*
X2275000Y3425000D02*
D03*
X2750000Y1975000D02*
D03*
X2700000Y2200000D02*
D03*
X2675000Y3325000D02*
D03*
X2539992Y3287492D02*
D03*
X2651913Y3098087D02*
D03*
X2727492Y2800008D02*
D03*
Y2950008D02*
D03*
X2800000Y3425000D02*
D03*
X2675000D02*
D03*
X2352500Y3240000D02*
D03*
X2525000Y3425000D02*
D03*
X2203220Y3377500D02*
D03*
X2025000Y3425000D02*
D03*
X2750000Y6300000D02*
D03*
X3250000D02*
D03*
Y6700000D02*
D03*
X2750000D02*
D03*
X2800000Y6750000D02*
D03*
X3200000D02*
D03*
Y6250000D02*
D03*
X2800000D02*
D03*
X3050000Y6200000D02*
D03*
X2950000D02*
D03*
X3050000Y6800000D02*
D03*
X2950000D02*
D03*
X2850000Y6100000D02*
D03*
Y6200000D02*
D03*
X2800000Y6150000D02*
D03*
X2750000Y6100000D02*
D03*
Y6200000D02*
D03*
X3050000Y6100000D02*
D03*
X3000000Y6150000D02*
D03*
X2950000Y6100000D02*
D03*
X3250000D02*
D03*
Y6200000D02*
D03*
X3200000Y6150000D02*
D03*
X3150000Y6100000D02*
D03*
Y6200000D02*
D03*
X3100000Y6150000D02*
D03*
X2900000D02*
D03*
X2900000Y6850000D02*
D03*
X3100000D02*
D03*
X3150000Y6900000D02*
D03*
Y6800000D02*
D03*
X3200000Y6850000D02*
D03*
X3250000Y6900000D02*
D03*
Y6800000D02*
D03*
X2950000Y6900000D02*
D03*
X3000000Y6850000D02*
D03*
X3050000Y6900000D02*
D03*
X2750000D02*
D03*
Y6800000D02*
D03*
X2800000Y6850000D02*
D03*
X2850000Y6900000D02*
D03*
Y6800000D02*
D03*
X2800000Y6050000D02*
D03*
X2900000D02*
D03*
X3000000D02*
D03*
X3100000D02*
D03*
X3200000D02*
D03*
X3300000Y6250000D02*
D03*
X2700000D02*
D03*
Y6750000D02*
D03*
X3300000D02*
D03*
D25*
X-4247508Y2950008D02*
D03*
X-847509D02*
D03*
X2552492D02*
D03*
D26*
X-4053827Y1978827D02*
Y1993827D01*
X-4095000Y2035000D02*
X-4053827Y1993827D01*
X-4100000Y2035000D02*
X-4095000D01*
X-4053827Y1978827D02*
X-4050000Y1975000D01*
X-4005500Y3535000D02*
X-4002750Y3532250D01*
Y3427750D02*
Y3532250D01*
Y3427750D02*
X-4000000Y3425000D01*
X-4128750Y3428750D02*
Y3531250D01*
X-4132500Y3535000D02*
X-4128750Y3531250D01*
Y3428750D02*
X-4125000Y3425000D01*
X-4416173Y3243827D02*
X-4400000Y3260000D01*
X-4275000Y3425000D02*
X-4271173Y3428827D01*
Y3523326D01*
X-4259500Y3535000D01*
X-4443673Y3243827D02*
X-4416173D01*
X-4447500Y3240000D02*
X-4443673Y3243827D01*
X-4582500Y3212500D02*
X-4564085D01*
X-4600000Y3230000D02*
X-4582500Y3212500D01*
X-4140000Y2340811D02*
X-4112392D01*
X-4100000Y2353203D01*
X-4564085Y3212500D02*
X-4555999Y3204413D01*
X-4550587D01*
X-653827Y1978827D02*
Y1993827D01*
X-695000Y2035000D02*
X-653827Y1993827D01*
X-700000Y2035000D02*
X-695000D01*
X-653827Y1978827D02*
X-650000Y1975000D01*
X-605500Y3535000D02*
X-602750Y3532250D01*
Y3427750D02*
Y3532250D01*
Y3427750D02*
X-600000Y3425000D01*
X-728750Y3428750D02*
Y3531250D01*
X-732500Y3535000D02*
X-728750Y3531250D01*
Y3428750D02*
X-725000Y3425000D01*
X-1016173Y3243827D02*
X-1000000Y3260000D01*
X-875000Y3425000D02*
X-871174Y3428827D01*
Y3523326D01*
X-859500Y3535000D01*
X-1043674Y3243827D02*
X-1016173D01*
X-1047500Y3240000D02*
X-1043674Y3243827D01*
X-1182500Y3212500D02*
X-1164086D01*
X-1200000Y3230000D02*
X-1182500Y3212500D01*
X-740000Y2340811D02*
X-712392D01*
X-700000Y2353203D01*
X-1164086Y3212500D02*
X-1155999Y3204413D01*
X-1150587D01*
X2746173Y1978827D02*
Y1993827D01*
X2705000Y2035000D02*
X2746173Y1993827D01*
X2700000Y2035000D02*
X2705000D01*
X2746173Y1978827D02*
X2750000Y1975000D01*
X2244001Y3204413D02*
X2249413D01*
X2217500Y3212500D02*
X2235915D01*
X2244001Y3204413D01*
X2200000Y3230000D02*
X2217500Y3212500D01*
X2660000Y2340811D02*
X2687608D01*
X2700000Y2353203D01*
X2794500Y3535000D02*
X2797250Y3532250D01*
Y3427750D02*
Y3532250D01*
Y3427750D02*
X2800000Y3425000D01*
X2671250Y3428750D02*
Y3531250D01*
X2667500Y3535000D02*
X2671250Y3531250D01*
Y3428750D02*
X2675000Y3425000D01*
X2525000D02*
X2528827Y3428827D01*
Y3523326D02*
X2540500Y3535000D01*
X2528827Y3428827D02*
Y3523326D01*
X2356327Y3243827D02*
X2383827D01*
X2400000Y3260000D01*
X2352500Y3240000D02*
X2356327Y3243827D01*
D27*
X-4522723Y3427277D02*
Y3525776D01*
X-4513500Y3535000D01*
X-4525000Y3425000D02*
X-4522723Y3427277D01*
X-4397450Y3427550D02*
Y3430770D01*
Y3524050D01*
X-4386500Y3535000D01*
X-4400000Y3425000D02*
X-4397723Y3427277D01*
X-4397450Y3427550D01*
X-4397723Y3427277D02*
Y3430497D01*
Y3424056D02*
Y3427277D01*
X-4400000Y3421780D02*
X-4397723Y3424056D01*
X-4400000Y3421780D02*
Y3425000D01*
X-4397723Y3430497D02*
X-4397450Y3430770D01*
X-1122724Y3427277D02*
Y3525776D01*
X-1113500Y3535000D01*
X-1125000Y3425000D02*
X-1122724Y3427277D01*
X-997450Y3427550D02*
Y3430770D01*
Y3524050D01*
X-986500Y3535000D01*
X-1000000Y3425000D02*
X-997724Y3427277D01*
X-997450Y3427550D01*
X-997724Y3427277D02*
Y3430497D01*
Y3424056D02*
Y3427277D01*
X-1000000Y3421780D02*
X-997724Y3424056D01*
X-1000000Y3421780D02*
Y3425000D01*
X-997724Y3430497D02*
X-997450Y3430770D01*
X2402277Y3427277D02*
X2402550Y3427550D01*
X2400000Y3425000D02*
X2402277Y3427277D01*
Y3430497D01*
Y3424056D02*
Y3427277D01*
X2402550Y3427550D02*
Y3430770D01*
X2400000Y3421780D02*
Y3425000D01*
Y3421780D02*
X2402277Y3424056D01*
Y3430497D02*
X2402550Y3430770D01*
X2277277Y3427277D02*
Y3525776D01*
X2275000Y3425000D02*
X2277277Y3427277D01*
Y3525776D02*
X2286500Y3535000D01*
X2402550Y3430770D02*
Y3524050D01*
X2413500Y3535000D01*
D28*
X-4097508Y2800008D02*
X-4072508D01*
X-4097508Y2950008D02*
X-4072508D01*
X-697509Y2800008D02*
X-672509D01*
X-697509Y2950008D02*
X-672509D01*
X2702492Y2800008D02*
X2727492D01*
X2702492Y2950008D02*
X2727492D01*
X-3213500Y4050000D02*
X-3052431D01*
X-3029000Y4026569D01*
Y3875000D02*
Y4026569D01*
X-3349999Y3913500D02*
X-3213500Y4050000D01*
X186500D02*
X320568D01*
X371000Y3999568D01*
X50000Y3913500D02*
X186500Y4050000D01*
X-3029000Y3875000D02*
X-3004000Y3850000D01*
X-3223500Y2090000D02*
X-3052431D01*
X-3029000Y1925000D02*
X-3004000Y1900000D01*
X-3052431Y2090000D02*
X-3029000Y2066568D01*
Y1925000D02*
Y2066568D01*
X-3349999Y1963500D02*
X-3223500Y2090000D01*
X396000Y2005000D02*
Y2024568D01*
Y1952500D02*
Y2005000D01*
Y1900000D02*
Y1952500D01*
X50000Y1963500D02*
X176500Y2090000D01*
X330568D01*
X396000Y2024568D01*
X3771000Y1989400D02*
Y2066568D01*
X3576500Y2090000D02*
X3747568D01*
X3771000Y1989400D02*
X3800000Y1960400D01*
X3747568Y2090000D02*
X3771000Y2066568D01*
X3450000Y1963500D02*
X3576500Y2090000D01*
X3771000Y3875000D02*
Y3999568D01*
Y3875000D02*
X3796000Y3850000D01*
X3730568Y4040000D02*
X3771000Y3999568D01*
X3576500Y4040000D02*
X3730568D01*
X3450000Y3913500D02*
X3576500Y4040000D01*
X3587431Y3881505D02*
X3644000D01*
X3669000Y3856505D01*
X3505185Y3799258D02*
X3587431Y3881505D01*
X3669000Y3850000D02*
Y3856505D01*
X3450000Y3786500D02*
X3462758Y3799258D01*
X3505185D01*
X371000Y3875000D02*
Y3999568D01*
Y3875000D02*
X396000Y3850000D01*
X-3131000Y3850000D02*
Y3856505D01*
X-3156000Y3881505D02*
X-3131000Y3856505D01*
X-3212568Y3881505D02*
X-3156000D01*
X-3294815Y3799259D02*
X-3212568Y3881505D01*
X-3337241Y3799259D02*
X-3294815D01*
X-3349999Y3786500D02*
X-3337241Y3799259D01*
X3505185Y1849258D02*
X3587431Y1931505D01*
X3644000D02*
X3669000Y1906505D01*
X3450000Y1836500D02*
X3462758Y1849258D01*
X3505185D01*
X3587431Y1931505D02*
X3644000D01*
X3669000Y1900000D02*
Y1906505D01*
X105184Y3799258D02*
X187431Y3881505D01*
X244000D02*
X269000Y3856505D01*
X50000Y3786500D02*
X62758Y3799258D01*
X269000Y3850000D02*
Y3856505D01*
X62758Y3799258D02*
X105184D01*
X187431Y3881505D02*
X244000D01*
X187431Y1931505D02*
X244000D01*
X269000Y1906505D01*
X105184Y1849258D02*
X187431Y1931505D01*
X269000Y1900000D02*
Y1906505D01*
X62758Y1849258D02*
X105184D01*
X50000Y1836500D02*
X62758Y1849258D01*
X-3131000Y1900000D02*
Y1906505D01*
X-3294815Y1849259D02*
X-3212568Y1931505D01*
X-3156000D01*
X-3349999Y1836500D02*
X-3337241Y1849259D01*
X-3294815D01*
X-3156000Y1931505D02*
X-3131000Y1906505D01*
D29*
X4662500Y5525000D02*
D03*
X3437500D02*
D03*
X37500Y3575000D02*
D03*
X1262500D02*
D03*
X-2137500Y3575000D02*
D03*
X-3362499D02*
D03*
X3437500Y3575000D02*
D03*
X4662500D02*
D03*
X-2137500Y5525000D02*
D03*
X-3362499D02*
D03*
X37500Y5525000D02*
D03*
X1262500D02*
D03*
D30*
X4431000Y3850000D02*
D03*
X4304000D02*
D03*
X4177000D02*
D03*
X4050000D02*
D03*
X3923000D02*
D03*
X3796000D02*
D03*
X3669000D02*
D03*
X269000Y1900000D02*
D03*
X396000D02*
D03*
X523000D02*
D03*
X650000D02*
D03*
X777000D02*
D03*
X904000D02*
D03*
X1031000D02*
D03*
X-2369000Y1900000D02*
D03*
X-2496000D02*
D03*
X-2623000D02*
D03*
X-2750000D02*
D03*
X-2877000D02*
D03*
X-3004000D02*
D03*
X-3131000D02*
D03*
X3669000Y1900000D02*
D03*
X3796000D02*
D03*
X3923000D02*
D03*
X4050000D02*
D03*
X4177000D02*
D03*
X4304000D02*
D03*
X4431000D02*
D03*
X-2369000Y3850000D02*
D03*
X-2496000D02*
D03*
X-2623000D02*
D03*
X-2750000D02*
D03*
X-2877000D02*
D03*
X-3004000D02*
D03*
X-3131000D02*
D03*
X269000Y3850000D02*
D03*
X396000D02*
D03*
X523000D02*
D03*
X650000D02*
D03*
X777000D02*
D03*
X904000D02*
D03*
X1031000D02*
D03*
D31*
X2096000Y4465000D02*
D03*
X2604000D02*
D03*
X-1304000D02*
D03*
X-796000D02*
D03*
X-4704000D02*
D03*
X-4196000D02*
D03*
D32*
X2794500Y3535000D02*
D03*
X2667500D02*
D03*
X2540500D02*
D03*
X2413500D02*
D03*
X2286500D02*
D03*
X2159500D02*
D03*
X2032500D02*
D03*
X1905500D02*
D03*
X-605500D02*
D03*
X-732500D02*
D03*
X-859500D02*
D03*
X-986500D02*
D03*
X-1113500D02*
D03*
X-1240500D02*
D03*
X-1367500D02*
D03*
X-1494500D02*
D03*
X-4005500D02*
D03*
X-4132500D02*
D03*
X-4259500D02*
D03*
X-4386500D02*
D03*
X-4513500D02*
D03*
X-4640500D02*
D03*
X-4767500D02*
D03*
X-4894500D02*
D03*
D33*
X2690000Y3280000D02*
D03*
Y3120000D02*
D03*
X-710000Y3280000D02*
D03*
Y3120000D02*
D03*
X-4110000Y3280000D02*
D03*
Y3120000D02*
D03*
D34*
X-4100000Y2035000D02*
D03*
Y2165000D02*
D03*
X-700000Y2035000D02*
D03*
Y2165000D02*
D03*
X2700000D02*
D03*
Y2035000D02*
D03*
D35*
X-4097508Y2950008D02*
D03*
X-4222508D02*
D03*
X-4097508Y2800008D02*
D03*
X-4222508D02*
D03*
X-697509Y2950008D02*
D03*
X-822509D02*
D03*
X-697509Y2800008D02*
D03*
X-822509D02*
D03*
X2702492D02*
D03*
X2577492D02*
D03*
Y2950008D02*
D03*
X2702492D02*
D03*
D36*
X-4260008Y3262492D02*
D03*
Y3137492D02*
D03*
X-860008Y3262492D02*
D03*
Y3137492D02*
D03*
X2539992D02*
D03*
Y3262492D02*
D03*
D37*
X-4600000Y3230000D02*
D03*
Y3350000D02*
D03*
X-1200000Y3230000D02*
D03*
Y3350000D02*
D03*
X2200000D02*
D03*
X2400000Y3140000D02*
D03*
X-1000000Y3260000D02*
D03*
Y3140000D02*
D03*
X-4400000D02*
D03*
Y3260000D02*
D03*
X2200000Y3230000D02*
D03*
X2400000Y3260000D02*
D03*
D38*
X-4100000Y2353203D02*
D03*
Y2488419D02*
D03*
X-700000Y2353203D02*
D03*
Y2488419D02*
D03*
X2700000D02*
D03*
Y2353203D02*
D03*
D39*
X-4220000Y2740000D02*
Y2800008D01*
X-4222508D02*
X-4220000D01*
X-4150000Y2540000D02*
X-4128322Y2518322D01*
X-4772100Y3427900D02*
Y3530400D01*
X-4247508Y2950008D02*
X-4222508D01*
X-4128322Y2518322D02*
X-4122511D01*
X-4775000Y3425000D02*
X-4772100Y3427900D01*
Y3530400D02*
X-4767500Y3535000D01*
X-4100000Y2488419D02*
Y2495811D01*
X-4122511Y2518322D02*
X-4100000Y2495811D01*
X-820000Y2740000D02*
Y2800008D01*
X-822509D02*
X-820000D01*
X-750000Y2540000D02*
X-728323Y2518322D01*
X-1372100Y3427900D02*
Y3530400D01*
X-847509Y2950008D02*
X-822509D01*
X-728323Y2518322D02*
X-722511D01*
X-1375000Y3425000D02*
X-1372100Y3427900D01*
Y3530400D02*
X-1367500Y3535000D01*
X-700000Y2488419D02*
Y2495811D01*
X-722511Y2518322D02*
X-700000Y2495811D01*
X2580000Y2740000D02*
Y2800008D01*
X2577492D02*
X2580000D01*
X2677489Y2518322D02*
X2700000Y2495811D01*
X2650000Y2540000D02*
X2671678Y2518322D01*
X2700000Y2488419D02*
Y2495811D01*
X2671678Y2518322D02*
X2677489D01*
X2025000Y3425000D02*
X2027900Y3427900D01*
Y3530400D01*
X2032500Y3535000D01*
X2552492Y2950008D02*
X2577492D01*
%TF.MD5,78c9793be6a018c3b18d59dfdf22fced*%
M02*
